<svg width="125" height="45" viewBox="0 0 125 45" fill="none" xmlns="http://www.w3.org/2000/svg">
<path fill-rule="evenodd" clip-rule="evenodd" d="M36.04 36.63C36.892 36.63 37.617 36.873 38.215 37.36C38.812 37.847 39.111 38.447 39.111 39.162H37.631C37.591 38.826 37.418 38.538 37.112 38.298C36.807 38.058 36.463 37.939 36.081 37.939C35.462 37.939 34.976 38.179 34.62 38.659C34.264 39.137 34.087 39.792 34.087 40.622C34.087 41.452 34.258 42.092 34.6 42.542C34.942 42.993 35.43 43.218 36.06 43.218C36.523 43.218 36.909 43.076 37.218 42.79C37.528 42.503 37.731 42.096 37.832 41.567H36.202V40.289H39.152V44.345H38.164L38.004 43.412C37.694 43.819 37.374 44.112 37.042 44.286C36.71 44.461 36.308 44.55 35.839 44.55C34.859 44.55 34.07 44.192 33.473 43.476C32.875 42.761 32.576 41.817 32.576 40.644C32.576 39.42 32.887 38.445 33.507 37.719C34.129 36.993 34.973 36.63 36.04 36.63ZM119.75 36.63C120.596 36.63 121.272 36.85 121.779 37.29C122.285 37.73 122.539 38.322 122.539 39.066H121.109C121.029 38.308 120.562 37.929 119.709 37.929C119.327 37.929 119.021 38.011 118.793 38.175C118.565 38.34 118.451 38.561 118.451 38.841C118.451 39.026 118.504 39.183 118.612 39.312C118.719 39.442 118.87 39.531 119.065 39.582L121.139 40.118C121.576 40.232 121.942 40.425 122.237 40.697C122.586 41.019 122.76 41.477 122.76 42.071C122.76 42.851 122.512 43.458 122.015 43.895C121.518 44.331 120.82 44.55 119.921 44.55C118.975 44.55 118.247 44.335 117.735 43.906C117.226 43.476 116.97 42.851 116.97 42.027H118.39C118.39 42.428 118.518 42.733 118.773 42.94C119.028 43.148 119.394 43.251 119.871 43.251C120.858 43.251 121.351 42.929 121.351 42.285C121.351 42.12 121.289 41.967 121.165 41.823C121.04 41.681 120.881 41.581 120.686 41.523L118.712 40.998C117.625 40.718 117.082 40.06 117.082 39.023C117.082 38.273 117.316 37.685 117.787 37.263C118.257 36.841 118.911 36.63 119.75 36.63ZM105.108 36.63C105.954 36.63 106.63 36.85 107.138 37.29C107.643 37.73 107.898 38.322 107.898 39.066H106.468C106.387 38.308 105.92 37.929 105.068 37.929C104.685 37.929 104.38 38.011 104.152 38.175C103.924 38.34 103.809 38.561 103.809 38.841C103.809 39.026 103.863 39.183 103.97 39.312C104.077 39.442 104.229 39.531 104.423 39.582L106.498 40.118C106.934 40.232 107.3 40.425 107.595 40.697C107.944 41.019 108.119 41.477 108.119 42.071C108.119 42.851 107.87 43.458 107.373 43.895C106.877 44.331 106.179 44.55 105.279 44.55C104.333 44.55 103.605 44.335 103.093 43.906C102.584 43.476 102.329 42.851 102.329 42.027H103.749C103.749 42.428 103.876 42.733 104.132 42.94C104.386 43.148 104.752 43.251 105.229 43.251C106.216 43.251 106.709 42.929 106.709 42.285C106.709 42.12 106.647 41.967 106.523 41.823C106.399 41.681 106.238 41.581 106.044 41.523L104.071 40.998C102.983 40.718 102.439 40.06 102.439 39.023C102.439 38.273 102.675 37.685 103.145 37.263C103.615 36.841 104.269 36.63 105.108 36.63ZM19.424 36.834V41.921C19.424 42.3 19.549 42.611 19.797 42.854C20.045 43.097 20.367 43.218 20.764 43.218C21.139 43.218 21.455 43.108 21.71 42.887C21.966 42.665 22.093 42.385 22.093 42.049V36.834H23.623V42.006C23.623 42.772 23.365 43.387 22.848 43.852C22.331 44.317 21.643 44.55 20.784 44.55C19.898 44.55 19.198 44.319 18.684 43.857C18.171 43.396 17.914 42.772 17.914 41.985V36.834H19.424ZM90.014 36.63C90.724 36.63 91.366 36.82 91.936 37.2C92.923 37.864 93.416 38.991 93.416 40.578C93.416 41.81 93.114 42.779 92.51 43.487C91.906 44.195 91.077 44.55 90.023 44.55C89.379 44.55 88.806 44.404 88.306 44.115C87.806 43.825 87.415 43.415 87.134 42.887C86.798 42.307 86.63 41.538 86.63 40.578C86.63 38.998 87.117 37.878 88.09 37.22C88.68 36.826 89.321 36.63 90.013 36.63H90.014ZM51.275 36.63C51.988 36.63 52.629 36.82 53.2 37.2C54.186 37.864 54.679 38.991 54.679 40.578C54.679 41.81 54.377 42.779 53.773 43.487C53.169 44.195 52.34 44.55 51.286 44.55C50.641 44.55 50.07 44.404 49.569 44.115C49.069 43.825 48.679 43.415 48.396 42.887C48.06 42.307 47.893 41.538 47.893 40.578C47.893 38.998 48.379 37.878 49.353 37.22C49.943 36.826 50.583 36.63 51.275 36.63ZM75.815 36.834C75.962 36.834 76.133 36.862 76.327 36.92C76.523 36.977 76.711 37.052 76.891 37.145C77.167 37.303 77.379 37.525 77.525 37.811C77.674 38.097 77.747 38.429 77.747 38.809C77.747 39.18 77.682 39.479 77.551 39.704C77.421 39.93 77.197 40.129 76.881 40.3C77.613 40.622 77.979 41.205 77.979 42.05C77.979 42.464 77.888 42.849 77.708 43.203C77.525 43.557 77.278 43.827 76.962 44.013C76.592 44.234 76.09 44.345 75.452 44.345H72.149V36.834H75.814H75.815ZM4.45 36.834V39.678H7.18V36.834H8.67V44.345H7.18V40.987H4.45V44.345H2.97V36.834H4.45ZM89.993 37.971H89.922C89.358 37.971 88.915 38.208 88.593 38.68C88.271 39.152 88.11 39.781 88.11 40.568C88.11 41.392 88.281 42.038 88.624 42.511C88.966 42.983 89.432 43.218 90.023 43.218C90.62 43.218 91.087 42.986 91.423 42.521C91.758 42.057 91.926 41.408 91.926 40.578C91.926 39.749 91.758 39.108 91.422 38.653C91.087 38.198 90.611 37.971 89.993 37.971ZM51.256 37.971H51.186C50.621 37.971 50.179 38.208 49.856 38.68C49.533 39.152 49.373 39.781 49.373 40.568C49.373 41.392 49.544 42.038 49.886 42.511C50.229 42.983 50.696 43.218 51.286 43.218C51.884 43.218 52.35 42.986 52.686 42.521C53.021 42.057 53.189 41.408 53.189 40.578C53.189 39.749 53.021 39.108 52.685 38.653C52.35 38.198 51.874 37.971 51.255 37.971H51.256ZM75.543 41.04H73.579V43.047H75.472C75.773 43.047 76.022 42.951 76.216 42.757C76.412 42.565 76.509 42.317 76.509 42.017C76.509 41.724 76.421 41.487 76.247 41.309C76.073 41.129 75.837 41.039 75.543 41.039V41.04ZM75.391 38.143H73.579V39.763H75.512C75.734 39.763 75.925 39.682 76.086 39.517C76.247 39.352 76.327 39.156 76.327 38.927C76.327 38.404 76.015 38.143 75.391 38.143ZM109.858 0C112.968 0 115.772 0.782001 118.268 2.346C122.583 5.091 124.74 9.739 124.74 16.291C124.74 21.366 123.419 25.366 120.777 28.288C118.135 31.21 114.51 32.67 109.902 32.67C107.083 32.67 104.582 32.072 102.394 30.877C100.207 29.681 98.497 27.992 97.265 25.808C95.797 23.418 95.063 20.245 95.063 16.291C95.063 9.768 97.191 5.149 101.448 2.434C104.03 0.811998 106.834 0 109.858 0ZM76.438 0C80.166 0 83.335 1.004 85.948 3.01C88.561 5.017 89.868 7.496 89.868 10.447H83.395C83.219 9.06 82.463 7.872 81.127 6.883C79.791 5.895 78.287 5.401 76.614 5.401C73.914 5.401 71.784 6.389 70.229 8.367C68.674 10.343 67.896 13.045 67.896 16.467C67.896 19.891 68.644 22.532 70.141 24.392C71.638 26.252 73.767 27.18 76.526 27.18C78.551 27.18 80.239 26.59 81.589 25.41C82.939 24.23 83.835 22.547 84.276 20.364H77.142V15.096H90.043V31.829H85.728L85.024 27.977C83.674 29.66 82.272 30.862 80.819 31.586C79.366 32.309 77.612 32.67 75.557 32.67C71.271 32.67 67.822 31.195 65.209 28.243C62.597 25.293 61.291 21.396 61.291 16.556C61.291 11.509 62.649 7.488 65.364 4.493C68.079 1.497 71.77 0 76.438 0ZM37.866 0.841999V21.824C37.866 23.388 38.409 24.672 39.496 25.676C40.582 26.679 41.99 27.18 43.722 27.18C45.367 27.18 46.746 26.724 47.862 25.808C48.977 24.893 49.534 23.743 49.534 22.355V0.841999H56.228V22.178C56.228 25.337 55.098 27.874 52.836 29.793C50.577 31.711 47.568 32.67 43.811 32.67C39.936 32.67 36.875 31.718 34.631 29.815C32.384 27.912 31.261 25.337 31.261 22.09V0.841999H37.866ZM6.472 0.841999V12.572H18.405V0.841999H24.921V31.829H18.405V17.973H6.472V31.829H0V0.841999H6.472ZM109.77 5.533H109.462C106.996 5.533 105.058 6.507 103.649 8.455C102.239 10.403 101.536 13 101.536 16.247C101.536 19.64 102.284 22.312 103.781 24.26C105.278 26.206 107.318 27.18 109.902 27.18C112.513 27.18 114.554 26.221 116.022 24.303C117.49 22.385 118.223 19.714 118.223 16.291C118.223 12.867 117.49 10.218 116.021 8.345C114.554 6.471 112.47 5.533 109.77 5.533Z" fill="black"/>
</svg>
