<svg
  width="80"
  height="81"
  viewBox="0 0 80 81"
  fill="none"
  xmlns="http://www.w3.org/2000/svg"
>
  <mask id="path-1-inside-1_4_391" fill="white">
    <path
      fill-rule="evenodd"
      clip-rule="evenodd"
      d="M42.2374 8.14576L42.2374 80.0919L38.2374 80.0919L38.2374 7.97346L3.13408 43.0757L0.305696 40.2472L38.7371 1.81706L40.1513 0.402915L41.5655 1.81706L79.9969 40.2472L77.1685 43.0757L42.2374 8.14576Z"
    />
  </mask>
  <path
    d="M42.2374 8.14576L45.0658 5.31728L38.2374 -1.51087L38.2374 8.14576L42.2374 8.14576ZM42.2374 80.0919L42.2374 84.0919L46.2374 84.0919L46.2374 80.0919L42.2374 80.0919ZM38.2374 80.0919L34.2374 80.0919L34.2374 84.0919L38.2374 84.0919L38.2374 80.0919ZM38.2374 7.97346L42.2374 7.97346L42.2374 -1.68316L35.4091 5.14499L38.2374 7.97346ZM3.13408 43.0757L0.305602 45.904L3.13398 48.7325L5.96246 45.9041L3.13408 43.0757ZM0.305696 40.2472L-2.52268 37.4187L-5.35116 40.2471L-2.52278 43.0756L0.305696 40.2472ZM38.7371 1.81706L41.5655 4.64554L41.5655 4.64553L38.7371 1.81706ZM40.1513 0.402915L42.9797 -2.42555L40.1513 -5.25385L37.3229 -2.42556L40.1513 0.402915ZM41.5655 1.81706L38.7371 4.64553L38.7371 4.64554L41.5655 1.81706ZM79.9969 40.2472L82.8253 43.0756L85.6537 40.2471L82.8253 37.4187L79.9969 40.2472ZM77.1685 43.0757L74.3401 45.9041L77.1686 48.7325L79.997 45.904L77.1685 43.0757ZM38.2374 8.14576L38.2374 80.0919L46.2374 80.0919L46.2374 8.14576L38.2374 8.14576ZM42.2374 76.0919L38.2374 76.0919L38.2374 84.0919L42.2374 84.0919L42.2374 76.0919ZM42.2374 80.0919L42.2374 7.97346L34.2374 7.97346L34.2374 80.0919L42.2374 80.0919ZM35.4091 5.14499L0.305696 40.2472L5.96246 45.9041L41.0658 10.8019L35.4091 5.14499ZM5.96255 40.2473L3.13417 37.4188L-2.52278 43.0756L0.305602 45.904L5.96255 40.2473ZM3.13408 43.0757L41.5655 4.64554L35.9087 -1.01141L-2.52268 37.4187L3.13408 43.0757ZM41.5655 4.64553L42.9797 3.23139L37.3229 -2.42556L35.9087 -1.01141L41.5655 4.64553ZM37.3229 3.23138L38.7371 4.64553L44.3939 -1.01141L42.9797 -2.42555L37.3229 3.23138ZM38.7371 4.64554L77.1685 43.0757L82.8253 37.4187L44.3939 -1.01141L38.7371 4.64554ZM77.1684 37.4188L74.34 40.2473L79.997 45.904L82.8253 43.0756L77.1684 37.4188ZM79.9969 40.2472L45.0658 5.31728L39.4091 10.9742L74.3401 45.9041L79.9969 40.2472Z"
    fill="currentColor"
    mask="url(#path-1-inside-1_4_391)"
  />
</svg>
