<svg width="72" height="72" viewBox="0 0 72 72" fill="none" xmlns="http://www.w3.org/2000/svg">
<mask id="path-1-inside-1" fill="white">
<path fill-rule="evenodd" clip-rule="evenodd" d="M59.493 17.6039L14.0482 63.0487L11.2198 60.2203L56.7742 14.6658L12.5785 14.6651L12.5786 10.6651L61.493 10.6659L63.4929 10.6659L63.4929 12.6659L63.4937 61.5802L59.4937 61.5803L59.493 17.6039Z"/>
</mask>
<path d="M59.493 17.6039L63.493 17.6038L63.4928 7.9472L56.6646 14.7755L59.493 17.6039ZM14.0482 63.0487L11.2198 65.8771L14.0482 68.7055L16.8766 65.8771L14.0482 63.0487ZM11.2198 60.2203L8.39135 57.3918L5.56293 60.2203L8.39135 63.0487L11.2198 60.2203ZM56.7742 14.6658L59.6027 17.4943L66.4309 10.666L56.7743 10.6658L56.7742 14.6658ZM12.5785 14.6651L8.5785 14.665L8.57843 18.665L12.5784 18.6651L12.5785 14.6651ZM12.5786 10.6651L12.5786 6.66508L8.57863 6.66502L8.57857 10.665L12.5786 10.6651ZM61.493 10.6659L61.4929 14.6659L61.493 10.6659ZM63.4929 10.6659L67.4929 10.6658L67.4928 6.66599L63.4929 6.66593L63.4929 10.6659ZM63.4929 12.6659L67.4929 12.6658V12.6658L63.4929 12.6659ZM63.4937 61.5802L63.4938 65.5802L67.4938 65.5802L67.4937 61.5802L63.4937 61.5802ZM59.4937 61.5803L55.4937 61.5804L55.4938 65.5804L59.4938 65.5803L59.4937 61.5803ZM56.6646 14.7755L11.2198 60.2203L16.8766 65.8771L62.3214 20.4323L56.6646 14.7755ZM16.8766 60.2203L14.0482 57.3918L8.39135 63.0487L11.2198 65.8771L16.8766 60.2203ZM14.0482 63.0487L59.6027 17.4943L53.9458 11.8374L8.39135 57.3918L14.0482 63.0487ZM56.7743 10.6658L12.5786 10.6651L12.5784 18.6651L56.7742 18.6658L56.7743 10.6658ZM16.5785 14.6652L16.5786 10.6652L8.57857 10.665L8.5785 14.665L16.5785 14.6652ZM12.5785 14.6651L61.4929 14.6659L61.493 6.66589L12.5786 6.66508L12.5785 14.6651ZM61.4929 14.6659L63.4928 14.6659L63.4929 6.66593L61.493 6.66589L61.4929 14.6659ZM59.4929 10.666L59.4929 12.6659L67.4929 12.6658L67.4929 10.6658L59.4929 10.666ZM59.4929 12.6659L59.4937 61.5803L67.4937 61.5802L67.4929 12.6658L59.4929 12.6659ZM63.4937 57.5802L59.4937 57.5803L59.4938 65.5803L63.4938 65.5802L63.4937 57.5802ZM63.4937 61.5802L63.493 17.6038L55.493 17.604L55.4937 61.5804L63.4937 61.5802Z" fill="black" mask="url(#path-1-inside-1)"/>
</svg>
