<svg id="Capa_1" data-name="Capa 1" xmlns="http://www.w3.org/2000/svg" viewBox="0 0 1366 768"><defs><style>.cls-1{fill:#000;}</style></defs><path class="cls-1" d="M363.85,467.27c-46.6,0-77.66-33.22-77.66-83.27s31.06-83.27,77.66-83.27S441.51,334,441.51,384,410.45,467.27,363.85,467.27Zm0-21.79c32.58,0,54.36-24.59,54.36-61.48s-21.78-61.48-54.36-61.48S309.49,347.11,309.49,384,331.28,445.48,363.85,445.48Z"/><path class="cls-1" d="M579.16,349.48c0,27.19-20.49,45.31-51.12,45.31H480.58v67.73H457.06V304.4h71C558.67,304.4,579.16,322.52,579.16,349.48Zm-23.51,0c0-13.8-11-23.29-27.61-23.29H480.58v46.59H528C544.65,372.78,555.65,363.51,555.65,349.48Z"/><path class="cls-1" d="M715.22,304.4V462.52H691.71V394.14H611.89v68.38H588.37V304.4h23.52v69.68h79.82V304.4Z"/><path class="cls-1" d="M759.35,304.4V462.52H735.84V304.4Z"/><path class="cls-1" d="M852,467.27c-46.59,0-77.66-33.22-77.66-83.27s31.07-83.27,77.66-83.27S929.65,334,929.65,384,898.58,467.27,852,467.27Zm0-21.79c32.58,0,54.37-24.59,54.37-61.48S884.56,322.52,852,322.52,797.62,347.11,797.62,384,819.41,445.48,852,445.48Z"/><path class="cls-1" d="M1079.81,304.4V462.52h-42.93L973,322.73h-4.32V462.52H945.2V304.4h44.65l62.35,139.79h4.31V304.4Z"/></svg>
