<svg
  width="85"
  height="73"
  viewBox="0 0 85 73"
  fill="none"
  xmlns="http://www.w3.org/2000/svg"
>
  <line
    x1="82"
    y1="-8.74228e-08"
    x2="82"
    y2="72"
    stroke="currentColor"
    stroke-width="4"
  />
  <mask id="path-2-inside-1" fill="white">
    <path
      fill-rule="evenodd"
      clip-rule="evenodd"
      d="M64.3033 38.2004L0.034668 38.2004L0.034668 34.2004L64.4584 34.2004L33.2078 2.94874L36.0363 0.120361L70.6234 34.7086L72.0376 36.1228L70.6234 37.537L36.0363 72.1253L33.2078 69.2969L64.3033 38.2004Z"
    />
  </mask>
  <path
    d="M64.3033 38.2004L67.1318 41.0287L73.9599 34.2004H64.3033V38.2004ZM0.034668 38.2004H-3.96533V42.2004H0.034668L0.034668 38.2004ZM0.034668 34.2004L0.034668 30.2004H-3.96533V34.2004H0.034668ZM64.4584 34.2004V38.2004H74.115L67.2869 31.372L64.4584 34.2004ZM33.2078 2.94874L30.3794 0.120267L27.551 2.94865L30.3793 5.77712L33.2078 2.94874ZM36.0363 0.120361L38.8648 -2.70802L36.0364 -5.53649L33.2079 -2.70811L36.0363 0.120361ZM70.6234 34.7086L67.7949 37.537L67.7949 37.537L70.6234 34.7086ZM72.0376 36.1228L74.866 38.9512L77.6943 36.1228L74.866 33.2944L72.0376 36.1228ZM70.6234 37.537L67.7949 34.7086L70.6234 37.537ZM36.0363 72.1253L33.2079 74.9538L36.0364 77.7821L38.8648 74.9537L36.0363 72.1253ZM33.2078 69.2969L30.3793 66.4685L27.551 69.297L30.3794 72.1254L33.2078 69.2969ZM64.3033 34.2004L0.034668 34.2004L0.034668 42.2004L64.3033 42.2004V34.2004ZM4.03467 38.2004V34.2004H-3.96533L-3.96533 38.2004H4.03467ZM0.034668 38.2004L64.4584 38.2004V30.2004L0.034668 30.2004L0.034668 38.2004ZM67.2869 31.372L36.0363 0.120362L30.3793 5.77712L61.6299 37.0287L67.2869 31.372ZM36.0362 5.77722L38.8647 2.94884L33.2079 -2.70811L30.3794 0.120267L36.0362 5.77722ZM33.2078 2.94874L67.7949 37.537L73.4519 31.8802L38.8648 -2.70802L33.2078 2.94874ZM67.7949 37.537L69.2091 38.9512L74.866 33.2944L73.4519 31.8802L67.7949 37.537ZM69.2091 33.2944L67.7949 34.7086L73.4519 40.3654L74.866 38.9512L69.2091 33.2944ZM67.7949 34.7086L33.2078 69.2969L38.8648 74.9537L73.4519 40.3654L67.7949 34.7086ZM38.8647 69.2968L36.0362 66.4684L30.3794 72.1254L33.2079 74.9538L38.8647 69.2968ZM36.0363 72.1253L67.1318 41.0287L61.4748 35.372L30.3793 66.4685L36.0363 72.1253Z"
    fill="currentColor"
    mask="url(#path-2-inside-1)"
  />
</svg>
