<svg
  width="254"
  height="58"
  viewBox="0 0 254 58"
  fill="none"
  xmlns="http://www.w3.org/2000/svg"
  role="img"
>
  <title>Logo Abertis</title>
  <path
    fill-rule="evenodd"
    clip-rule="evenodd"
    d="M60.5813 19.1438C68.4135 19.1438 74.109 22.4327 74.109 31.9892V44.4422C74.109 53.2159 74.3461 55.8007 74.9031 57.1334H69.0484L67.5415 53.6082C65.1712 55.8007 61.6107 57.9162 56.2317 57.9162C49.903 57.9162 44.5206 53.5277 44.5206 46.4001C44.5206 38.9608 49.9825 34.5723 59.7923 34.2605L67.0692 34.0258V32.6178C67.0692 26.8966 63.7473 24.8616 59.3148 24.8616C54.73 24.8616 51.6418 26.5832 49.5051 28.07L46.896 23.3714C51.5622 20.0809 55.7577 19.1438 60.5813 19.1438ZM241.283 19.1438C246.299 19.1438 251.089 20.8067 253.702 21.9013L251.253 27.0525C248.404 25.8791 245.475 24.7812 241.598 24.7812C237.959 24.7812 235.188 26.035 235.188 29.0087C235.188 32.2691 238.526 33.7124 242.277 35.34L242.607 35.4825C247.341 37.5443 252.596 39.9917 252.596 46.7924C252.596 54.7028 246.106 57.9162 238.04 57.9162C232.419 57.9162 228.701 56.4243 226.091 54.8587L228.546 49.6136C230.679 50.9445 234.002 52.5102 237.959 52.5102C242.314 52.5102 245.397 50.6328 245.397 47.4981C245.397 44.3383 242.871 42.8313 239.759 41.4383C234.781 39.2106 228.309 37.2812 228.309 29.3239C228.309 23.6832 232.58 19.1438 241.283 19.1438ZM133.763 19.1438C143.576 19.1438 149.274 26.7407 149.274 38.2551V40.0571H125.3C125.3 46.6365 129.575 52.1179 137.088 52.1179C140.334 52.1179 143.654 50.8641 146.187 49.3772L148.165 54.1563C144.762 56.5852 140.095 57.9162 135.742 57.9162C123.561 57.9162 117.941 48.4368 117.941 38.0959C117.941 27.4448 124.192 19.1438 133.763 19.1438ZM193.849 9.58399V20.0809H205.401L203.104 25.6428H193.849V47.421C193.849 50.4752 195.034 51.8849 197.489 51.8849C200.017 51.8849 202.476 50.554 203.974 49.4543L206.034 54.1563C202.868 56.426 198.757 57.9162 195.273 57.9162C189.422 57.9162 186.808 54.6256 186.808 49.7728V25.6428H180.557V20.0809H186.808V11.7799L193.849 9.58399ZM87.9602 1.6753V20.7095C90.493 19.7691 93.0225 19.1438 96.0328 19.1438C104.893 19.1438 112.962 25.0946 112.962 37.3147C112.962 50.3193 103.393 57.9162 92.0761 57.9162C86.8546 57.9162 83.1366 56.7428 80.9999 55.4873V1.6753H87.9602ZM219.853 20.0809V57.1334H212.893V20.0809H219.853ZM172.616 19.1421C174.597 19.1421 176.175 19.7691 177.127 20.3943L174.358 26.8195C173.249 26.2714 171.905 25.9579 170.639 25.9579C168.106 25.9579 165.654 27.2855 162.569 30.0313V57.1334H155.606V20.0809H161.379L162.331 24.233C166.999 20.0054 169.848 19.1438 172.618 19.1438L172.616 19.1421ZM67.0692 39.5861L60.2663 39.8191C54.095 40.0571 51.5622 42.0938 51.5622 45.852C51.5622 49.3772 53.8597 52.1179 58.448 52.1179C62.7992 52.1179 65.4912 50.0829 67.0692 48.5139V39.5861ZM94.8443 25.3293C91.4445 25.3293 89.5432 26.2714 87.9602 26.9754V51.1775C89.5432 51.8062 91.2058 52.0408 93.5 52.0408C100.538 52.0408 105.998 45.7749 105.998 37.707C105.998 30.6548 101.965 25.3293 94.8443 25.3293ZM1.06078 20.2887L1.20809 20.2904C1.40449 20.3105 1.59242 20.3994 1.72956 20.5536C5.77096 24.9823 11.6375 27.832 18.205 28.013L18.8653 28.0214L19.468 28.013L20.0657 27.9912L20.6583 27.9527C23.799 27.7197 26.7585 26.8698 29.4098 25.5388C31.0454 24.7107 32.5657 23.705 33.9355 22.5366C34.2334 22.2852 34.5992 22.146 34.9716 22.1276L35.1968 22.131C35.3458 22.141 35.4948 22.1729 35.637 22.2231L35.8486 22.3153L35.8724 22.3288C36.6241 22.7109 36.9779 23.5709 36.729 24.3688C34.3587 31.9037 27.2562 37.37 18.8636 37.37C17.7021 37.37 16.5644 37.2661 15.4605 37.0666C14.4802 36.8872 13.5253 36.6341 12.6043 36.3073H12.6009C6.06894 34.0124 1.20639 28.2209 0.302282 21.209C0.268421 20.9123 0.395402 20.6223 0.632434 20.448L0.759423 20.3709C0.862701 20.3222 0.962583 20.2971 1.06078 20.2887ZM133.689 24.7812C128.466 24.7812 125.22 29.3239 125.22 34.6494H141.836C141.836 29.872 139.149 24.7812 133.689 24.7812ZM33.9118 9.40966L34.1065 9.42307C34.6821 9.49012 35.2222 9.82537 35.5151 10.3903C36.1026 11.5251 36.5801 12.7287 36.9221 13.9859C37.0287 14.3714 36.961 14.7855 36.729 15.114C35.0664 17.5027 32.8959 19.5394 30.3698 21.0816C27.9098 22.5852 25.1128 23.6161 22.1075 24.0553L21.4151 24.1475C20.577 24.238 19.7254 24.2917 18.8636 24.2917C11.4123 24.2917 4.84992 20.6458 1.00153 15.114C0.767885 14.7855 0.698474 14.3731 0.803445 13.9859C1.14883 12.7287 1.62289 11.5251 2.2087 10.3903C2.53546 9.76335 3.1653 9.41804 3.81375 9.41133L4.00846 9.41971C4.33353 9.44989 4.65521 9.56723 4.93965 9.77844C8.58656 12.494 13.1105 14.1636 18.0357 14.3312L18.4488 14.343L18.8636 14.3463L19.6204 14.3346C22.8881 14.2323 25.983 13.4679 28.7597 12.1772C30.1903 11.5117 31.5397 10.7054 32.7892 9.78012C33.1279 9.52532 33.524 9.40798 33.9118 9.41133V9.40966ZM216.374 3.86955C218.904 3.86955 221.04 5.90288 221.04 8.41227C221.04 10.9183 218.904 13.0304 216.374 13.0304C213.763 13.0304 211.705 10.9971 211.705 8.41395C211.705 5.98334 213.763 3.87122 216.374 3.87122V3.86955ZM18.8636 0.324219L19.4968 0.334271C23.694 0.471726 27.5424 1.97703 30.5984 4.41937C31.5821 5.20387 31.5025 6.71085 30.4342 7.36962C29.3269 8.05355 28.1468 8.63522 26.9125 9.11463L26.5908 8.70226L26.5807 8.68718C26.6941 8.82799 26.8042 8.97215 26.9125 9.11463C24.4271 10.0802 21.7097 10.6166 18.8636 10.6166C14.6038 10.6166 10.6352 9.42642 7.29304 7.36962C6.22131 6.71085 6.14682 5.20387 7.12711 4.41937C8.28857 3.48903 9.56516 2.70118 10.9315 2.06755L11.0703 2.05581L10.9264 2.06755C13.3374 0.952819 16.0277 0.324219 18.8636 0.324219Z"
    fill="black"
  />
</svg>
