<svg
  width="296"
  height="49"
  viewBox="0 0 296 49"
  fill="none"
  xmlns="http://www.w3.org/2000/svg"
>
  <title>Logo Alantra</title>
  <path
    fill-rule="evenodd"
    clip-rule="evenodd"
    d="M10.7484 29.1031H26.3106C25.037 24.7854 23.6172 20.1035 22.3436 15.9331C21.522 13.1528 20.1761 9.12963 18.9781 5.69231H18.0809C16.8829 9.12963 15.537 13.1528 14.7154 15.9331C13.4435 20.1035 12.022 24.7126 10.7484 29.1031ZM19.877 0.936009C21.7454 0.936009 22.1957 1.15447 22.9434 2.98483C24.2893 6.34933 25.6368 10.3741 26.9071 14.1772C30.2742 24.4924 33.7153 35.6865 36.5583 46.8788C36.7817 47.8321 36.4826 48.2707 35.5854 48.2707H32.6668C31.7713 48.2707 31.3966 47.9777 31.1715 47.1006C29.9752 42.4171 28.7789 37.9554 27.5052 33.492H9.47815L5.8858 47.1006C5.66235 47.9777 5.21375 48.2707 4.39043 48.2707H1.39966C0.574623 48.2707 0.201649 47.9777 0.425096 47.0278C3.26804 35.8321 6.71084 24.4924 10.1519 14.1772C11.4221 10.3741 12.8436 6.34933 14.1912 2.98483C14.9389 1.15447 15.3136 0.936009 17.1819 0.936009H19.877ZM51.9744 0.936009C52.796 0.936009 53.2463 1.30175 53.2463 2.17887V41.6873C53.2463 43.5888 53.9167 44.173 56.1632 44.173H68.3565C69.1799 44.173 69.4789 44.4676 69.4789 45.1263V47.3207C69.4789 47.9049 69.1799 48.2707 68.3565 48.2707H54.8913C50.1782 48.2707 48.083 46.4419 48.083 42.4188V2.17887C48.083 1.30175 48.5316 0.937663 49.281 0.937663H51.9744V0.936009ZM98.5065 0.936009C100.377 0.936009 100.827 1.15447 101.575 2.98483C102.92 6.34933 104.266 10.3741 105.538 14.1772C108.904 24.4924 112.345 35.6865 115.189 46.8788C115.413 47.8321 115.114 48.2707 114.217 48.2707H111.298C110.401 48.2707 110.026 47.9777 109.803 47.1006C108.605 42.4171 107.408 37.9554 106.136 33.492H88.1076L84.5152 47.1006C84.2918 47.9777 83.8449 48.2707 83.0216 48.2707H80.0308C79.2058 48.2707 78.8311 47.9777 79.0562 47.0278C81.8992 35.8321 85.3403 24.4924 88.7814 14.1772C90.0533 10.3741 91.4748 6.34933 92.8206 2.98483C93.57 1.15447 93.943 0.936009 95.8114 0.936009H98.5065ZM206.901 0.936009C207.798 0.936009 208.022 1.30175 208.022 2.03158V3.93476C208.022 4.59509 207.798 5.03365 206.901 5.03365H194.183V47.1751C194.183 48.0522 193.884 48.2707 193.135 48.2707H190.068C189.321 48.2707 189.022 48.0522 189.022 47.1751V5.03365H176.304C175.407 5.03365 175.182 4.59509 175.182 3.93476V1.8876C175.182 0.93601 175.855 0.936009 176.304 0.936009H206.899H206.901ZM230.918 0.277344C242.063 0.277344 248.197 4.30216 248.197 13.3001V14.8359C248.197 21.128 244.906 25.5913 238.921 27.1271L251.19 47.1751C251.638 47.9033 251.491 48.2707 250.592 48.2707H246.702C246.028 48.2707 245.727 48.0522 245.43 47.612L233.833 28.0059C232.938 28.0787 232.04 28.0787 231.066 28.0787C228.747 28.0787 226.355 28.0787 224.484 28.0059V47.0261C224.484 47.9033 224.036 48.2707 223.286 48.2707H220.593C219.771 48.2707 219.321 47.9033 219.321 47.0261V2.61909C219.321 1.6675 219.696 1.22894 220.67 1.07999C223.512 0.570269 226.803 0.277344 230.918 0.277344ZM279.246 0.936009C281.116 0.936009 281.567 1.15447 282.314 2.98483C283.66 6.34933 285.006 10.3741 286.278 14.1772C289.643 24.4924 293.085 35.6865 295.929 46.8788C296.153 47.8321 295.854 48.2707 294.956 48.2707H292.038C291.141 48.2707 290.766 47.9777 290.542 47.1006C289.344 42.4171 288.148 37.9554 286.876 33.492H268.847L265.255 47.1006C265.032 47.9777 264.585 48.2707 263.761 48.2707H260.771C259.946 48.2707 259.571 47.9777 259.796 47.0278C262.639 35.8321 266.08 24.4924 269.521 14.1772C270.793 10.3741 272.215 6.34933 273.56 2.98483C274.31 1.15447 274.683 0.936009 276.551 0.936009H279.246ZM133.534 0.936009C134.167 0.952558 134.738 1.19915 135.169 1.58971H135.176C135.277 1.68901 135.362 1.785 135.442 1.8876L135.451 1.88264L135.475 1.92566C135.595 2.08288 135.702 2.25169 135.781 2.43539L160.267 43.5044H160.714V17.9521H160.737V5.71052L157.76 9.30505L154.702 12.9046C153.292 14.5661 152.448 12.7771 152.447 12.7755L151.727 11.2926C151.213 10.2351 151.892 9.37787 151.893 9.37622L156.51 3.80733C156.72 3.54254 156.924 3.32409 157.132 3.12715C157.132 3.12219 159.243 0.936009 160.759 0.936009H163.033C164.905 0.936009 165.503 1.37457 165.503 3.13046V4.92939H165.524V19.8768H165.503V46.0762C165.503 47.6732 164.996 48.1763 163.5 48.2541V48.2707H158.7C157.876 48.2243 157.163 47.794 156.749 47.1519V47.1602L146.952 30.6521L132.036 5.8363H131.503V47.0278C131.503 47.9049 131.202 48.269 130.454 48.269H127.761C127.013 48.269 126.712 47.9049 126.712 47.0278V3.13046C126.712 1.37457 127.312 0.936009 129.182 0.936009H133.534ZM97.6075 5.69231H96.712C95.514 9.12963 94.1682 13.1528 93.3448 15.9331C92.0729 20.1035 90.6532 24.7126 89.3795 29.1031H104.94C103.668 24.7854 102.247 20.1035 100.975 15.9331C100.153 13.1528 98.8056 9.12963 97.6075 5.69231ZM278.347 5.69231H277.452C276.254 9.12963 274.908 13.1528 274.085 15.9331C272.813 20.1035 271.393 24.7126 270.119 29.1031H285.68C284.408 24.7854 282.986 20.1035 281.714 15.9331C280.891 13.1528 279.545 9.12963 278.347 5.69231ZM230.994 4.37332C228.823 4.37332 227.027 4.4478 225.605 4.6679C224.634 4.81354 224.484 5.03199 224.484 5.98359V23.8354C226.43 23.9083 229.122 23.9811 231.889 23.9811C239.371 23.9811 242.735 21.2752 242.735 14.399V13.4457C242.735 6.71507 239.296 4.37332 230.992 4.37332H230.994Z"
    fill="black"
  />
</svg>
