<svg
  width="206"
  height="50"
  viewBox="0 0 206 50"
  fill="none"
  xmlns="http://www.w3.org/2000/svg"
  role="img"
>
  <title>Logo Anaya</title>
  <path
    d="M85.4143 0.117188C86.0344 0.564677 86.3684 1.10393 86.3569 1.93018C86.3339 17.6157 86.3454 33.3126 86.3339 48.9982C86.3339 49.1358 86.3108 49.285 86.2647 49.6866C76.5336 37.7647 66.9503 26.0034 57.1501 13.9897C57.1501 26.1526 57.1501 38.0056 57.1501 49.8473C55.2323 49.8473 53.3241 49.8473 51.4062 49.8473C51.4178 34.2306 51.4178 18.614 51.4293 2.99736C51.4293 2.57271 51.4063 2.15959 51.4523 1.73514C51.508 1.16133 51.6117 0.576197 52.3009 0.381152C53.0131 0.174589 53.5544 0.427027 54.0017 1.00064C55.8524 3.33005 57.7241 5.64793 59.5862 7.96563C65.1131 14.8273 70.6266 21.7005 76.1535 28.5622C77.8429 30.6621 79.5438 32.7734 81.2542 34.9075C81.6574 34.4485 81.4846 33.9667 81.4846 33.542C81.4961 23.0774 81.5076 12.6127 81.4731 2.15959C81.4731 1.14981 81.7035 0.472915 82.6691 0.128707C83.5752 0.117188 84.4948 0.117188 85.4143 0.117188Z"
    fill="black"
  />
  <path
    d="M143.997 49.848C143.997 42.2864 143.997 34.7248 144.009 27.1631C144.009 26.6813 143.861 26.3025 143.585 25.9009C138.277 18.2934 132.98 10.6859 127.684 3.06684C127.442 2.72263 127.19 2.37842 127.04 1.98833C126.718 1.08183 127.19 0.359055 128.142 0.3245C129.407 0.278618 130.671 0.336022 131.934 0.301659C132.51 0.29014 132.819 0.599985 133.13 1.03596C136.232 5.47649 139.357 9.90569 142.469 14.3347C143.7 16.079 144.952 17.8231 146.124 19.6015C146.664 20.4162 146.986 20.4736 147.572 19.6245C151.822 13.5086 156.109 7.43865 160.371 1.33428C160.887 0.599983 161.452 0.23274 162.358 0.301659C163.312 0.370385 164.277 0.30166 165.232 0.313178C166.702 0.336023 167.23 1.26536 166.414 2.50474C165.391 4.06529 164.277 5.57977 163.208 7.10596C158.808 13.4282 154.408 19.7622 149.997 26.0731C149.732 26.4517 149.709 26.8418 149.709 27.2664C149.709 34.7937 149.72 42.3092 149.72 49.8365C147.823 49.848 145.917 49.848 143.997 49.848Z"
    fill="black"
  />
  <path
    d="M180.996 0.117188C181.983 0.495951 182.132 1.51705 182.662 2.25135C184.075 4.21351 183.81 5.94626 182.706 8.05739C179.537 14.1159 176.652 20.3235 173.641 26.4624C170 33.9093 166.37 41.3446 162.739 48.8029C162.578 49.1243 162.302 49.4342 162.382 49.8473C160.234 49.8473 158.097 49.8473 155.949 49.8473C157.994 45.6016 160.027 41.3561 162.085 37.1221C166.3 28.4359 170.539 19.7499 174.768 11.0637C176.296 7.91975 177.848 4.7758 179.353 1.62033C179.673 0.954761 180.099 0.438551 180.754 0.117188C180.835 0.117188 180.915 0.117188 180.996 0.117188Z"
    fill="black"
  />
  <path
    d="M25.4508 0.312486C26.4394 0.828702 26.497 1.94176 27.0364 2.74497C28.0923 4.30552 27.9906 5.69388 27.1171 7.42663C22.5328 16.5258 18.1097 25.7052 13.6394 34.8617C11.2036 39.8417 8.80244 44.8445 6.37801 49.8358C4.31008 49.8358 2.24196 49.8358 0.173828 49.8358C0.58753 48.1607 1.51802 46.7262 2.25347 45.2002C9.33095 30.6393 16.4543 16.0898 23.531 1.52863C23.9457 0.668211 24.4621 0.197686 25.4508 0.312486Z"
    fill="black"
  />
  <path
    d="M87.9327 49.8473C87.9327 49.457 87.5871 48.9867 88.3224 48.7801C88.5643 48.7112 88.6795 48.1489 88.8522 47.8047C90.507 44.4198 92.1599 41.0463 93.8147 37.6614C99.6872 25.6249 105.558 13.5881 111.405 1.54009C111.716 0.897558 112.106 0.403996 112.738 0.117188C112.818 0.117188 112.887 0.117188 112.968 0.117188C114.152 0.65644 114.323 1.91866 114.945 2.8482C115.978 4.39723 115.817 5.76255 114.978 7.4379C110.555 16.2731 106.27 25.1887 101.939 34.07C99.5375 38.981 97.1244 43.8921 94.7343 48.8145C94.573 49.1358 94.2524 49.4111 94.3676 49.8358C92.229 49.8473 90.0809 49.8473 87.9327 49.8473Z"
    fill="black"
  />
  <path
    d="M43.5924 49.8465C42.3503 47.2305 41.1217 44.6028 39.8585 41.9981C36.284 34.666 32.7574 27.2994 29.0351 20.0361C28.0925 18.1888 27.9466 16.8484 29.0927 15.0218C29.4593 14.4367 29.54 14.2186 29.6897 13.7941C29.9086 13.1629 30.2176 12.7041 30.9759 12.7041C31.6997 12.7041 32.0683 13.0942 32.3562 13.6908C34.1934 17.4658 36.0555 21.2294 37.8927 25.0046C40.5592 30.4549 43.2123 35.9167 45.8673 41.3671C47.0844 43.8685 48.3034 46.3699 49.5205 48.8713C49.6703 49.1811 49.8546 49.4795 49.7855 49.8465C47.7275 49.8465 45.66 49.8465 43.5924 49.8465Z"
    fill="black"
  />
  <path
    d="M131.362 49.8479C131.408 49.4004 131.155 49.0447 130.971 48.666C126.96 40.4848 122.94 32.3035 118.919 24.1108C117.965 22.1602 117.045 20.1865 116.07 18.2474C115.793 17.6966 115.828 17.272 116.104 16.7558C116.632 15.746 117.103 14.7019 117.586 13.669C117.872 13.0724 118.264 12.6708 118.988 12.6938C119.677 12.7167 119.965 13.1757 120.228 13.7149C122.917 19.2341 125.605 24.7649 128.306 30.2839C131.385 36.5949 134.476 42.8943 137.555 49.2052C137.657 49.4118 137.703 49.6299 137.784 49.8479C135.647 49.8479 133.511 49.8479 131.362 49.8479Z"
    fill="black"
  />
  <path
    d="M199.368 49.8474C199.264 48.9868 198.77 48.2869 198.402 47.5411C195.783 42.1597 193.117 36.7896 190.487 31.408C188.325 26.9905 186.189 22.5498 184.029 18.1208C183.879 17.8109 183.718 17.547 183.914 17.1569C184.511 15.9636 185.052 14.7359 185.649 13.5424C185.914 13.0032 186.338 12.6474 187.016 12.682C187.717 12.7048 187.993 13.1754 188.256 13.7146C191.289 19.9682 194.311 26.2217 197.356 32.4752C199.976 37.8681 202.608 43.2497 205.238 48.6311C205.399 48.9753 205.618 49.2851 205.812 49.618C205.847 50.0655 205.503 49.8359 205.353 49.8359C203.355 49.8474 201.366 49.8474 199.368 49.8474Z"
    fill="black"
  />
  <path
    d="M112.899 30.766C115.542 30.766 118.172 30.7891 120.816 30.7547C121.758 30.7432 121.85 31.0643 121.482 31.8447C118.806 37.4557 116.151 43.0667 113.475 48.6775C113.325 48.9989 113.279 49.5266 112.818 49.5037C112.463 49.4807 112.394 48.9989 112.256 48.7005C109.614 43.2043 106.971 37.7082 104.364 32.2004C103.73 30.8693 103.822 30.766 105.327 30.766C107.856 30.7547 110.384 30.766 112.899 30.766Z"
    fill="black"
  />
  <path
    d="M25.0477 30.7645C27.6892 30.7645 30.3211 30.776 32.9627 30.753C33.8016 30.7415 34.0781 30.9022 33.6519 31.7856C30.9182 37.477 28.219 43.1913 25.4949 48.8941C25.3798 49.1465 25.3222 49.5825 24.944 49.5022C24.7597 49.4677 24.5984 49.1235 24.4832 48.8941C22.8534 45.4518 21.2331 41.998 19.6014 38.5556C18.5551 36.3525 17.4985 34.1609 16.4415 31.9578C15.8669 30.753 15.8669 30.753 17.2457 30.753C19.8433 30.7645 22.4387 30.7645 25.0477 30.7645Z"
    fill="black"
  />
  <path
    d="M180.892 30.7663C183.535 30.7663 186.167 30.7891 188.809 30.7548C189.694 30.7432 189.901 30.9957 189.51 31.8219C186.81 37.4558 184.144 43.1126 181.456 48.7465C181.318 49.0335 181.26 49.5153 180.857 49.4925C180.491 49.481 180.375 49.022 180.237 48.7237C177.596 43.1929 174.952 37.6623 172.345 32.1088C171.758 30.8696 171.861 30.7663 173.207 30.7663C175.768 30.7663 178.331 30.7663 180.892 30.7663Z"
    fill="black"
  />
</svg>
