<svg
  width="82"
  height="40"
  viewBox="0 0 82 40"
  fill="none"
  xmlns="http://www.w3.org/2000/svg"
>
  <title>Logo BME</title>
  <path
    d="M40.5625 34.025C41.425 34.025 41.8625 34.5 41.8625 35.45V38.1875H41.225L41.0875 37.625H41.0625C40.925 37.8375 40.775 38 40.6125 38.1C40.45 38.2 40.225 38.25 39.9625 38.25C39.625 38.25 39.3625 38.125 39.1875 37.8875C39.0125 37.65 38.925 37.35 38.925 36.9875C38.925 36.5625 39.05 36.25 39.3125 36.025C39.575 35.8 39.9375 35.6875 40.4375 35.6625L41 35.6375V35.4375C41 35.175 40.95 34.9875 40.8625 34.8625C40.775 34.7375 40.6375 34.6875 40.45 34.6875C40.3125 34.6875 40.1625 34.7125 40.0125 34.7625C39.8625 34.8125 39.7 34.875 39.5375 34.9625L39.275 34.325C39.6375 34.1375 40.075 34.025 40.5625 34.025ZM40.9875 36.25L40.625 36.2625C40.3375 36.275 40.125 36.35 40 36.475C39.875 36.6 39.8125 36.775 39.8125 36.9875C39.8125 37.3875 39.975 37.5875 40.2875 37.5875C40.4875 37.5875 40.65 37.5 40.7875 37.3375C40.925 37.175 40.9875 36.9375 40.9875 36.6375V36.25Z"
    fill="black"
  />
  <path
    d="M46.8125 36.675C46.8125 36.9875 46.75 37.275 46.6125 37.5125C46.475 37.75 46.2875 37.9375 46.0375 38.075C45.7875 38.2125 45.5 38.275 45.1625 38.275C44.925 38.275 44.6875 38.25 44.475 38.2125C44.2625 38.1625 44.05 38.1 43.8625 38V37.1C44.0625 37.2125 44.275 37.3 44.5 37.375C44.725 37.4375 44.9375 37.475 45.15 37.475C45.4 37.475 45.5875 37.4125 45.7125 37.275C45.8375 37.1375 45.9 36.975 45.9 36.775C45.9 36.5625 45.8375 36.3875 45.7 36.2625C45.575 36.125 45.3375 35.975 45.025 35.8125C44.8125 35.7 44.625 35.575 44.45 35.4375C44.2875 35.3125 44.15 35.15 44.05 34.95C43.95 34.7625 43.9 34.5125 43.9 34.225C43.9 33.775 44.0375 33.425 44.325 33.15C44.6125 32.875 44.9875 32.75 45.475 32.75C45.7125 32.75 45.9375 32.775 46.15 32.8375C46.3625 32.9 46.575 32.975 46.7625 33.075L46.4875 33.8625C46.125 33.6625 45.7875 33.5625 45.475 33.5625C45.2625 33.5625 45.0875 33.625 44.975 33.7375C44.8625 33.85 44.8 34 44.8 34.1875C44.8 34.3375 44.825 34.45 44.875 34.5625C44.925 34.6625 45.0125 34.7625 45.15 34.85C45.275 34.9375 45.45 35.0375 45.675 35.15C46.05 35.3375 46.325 35.55 46.5125 35.7875C46.7 36.025 46.8125 36.3125 46.8125 36.675Z"
    fill="black"
  />
  <path
    d="M49.1625 38.1875H47.175V37.6875L47.7125 37.4875V33.5125L47.175 33.3125V32.8125H49.1625V33.3125L48.625 33.5125V37.4875L49.1625 37.6875V38.1875Z"
    fill="black"
  />
  <path
    d="M53.0125 38.1875H52.025L51.1375 36.175L50.2125 38.1875H49.2625L50.6125 35.4125L49.375 32.8H50.3375L51.1375 34.6625L51.9375 32.8H52.9L51.6625 35.425L53.0125 38.1875Z"
    fill="black"
  />
  <path
    d="M56.1875 38.2625C55.675 38.2625 55.275 38.0875 55 37.75C54.725 37.4125 54.5875 36.875 54.5875 36.1625C54.5875 35.5 54.725 34.975 55 34.5875C55.275 34.2 55.675 34.0125 56.2125 34.0125C56.4125 34.0125 56.6 34.0375 56.775 34.075C56.9375 34.1125 57.0875 34.175 57.225 34.2625L56.975 34.95C56.85 34.8875 56.7375 34.8375 56.6125 34.8125C56.4875 34.775 56.375 34.7625 56.2625 34.7625C55.7375 34.7625 55.475 35.225 55.475 36.15C55.475 37.05 55.7375 37.5 56.2625 37.5C56.425 37.5 56.575 37.475 56.7125 37.425C56.85 37.375 57 37.3125 57.1375 37.225V37.975C56.875 38.175 56.5625 38.2625 56.1875 38.2625Z"
    fill="black"
  />
  <path
    d="M60.825 36.1375C60.825 36.55 60.7625 36.925 60.65 37.2375C60.5375 37.5625 60.35 37.8125 60.1125 37.9875C59.875 38.175 59.5625 38.2625 59.1875 38.2625C58.8375 38.2625 58.55 38.175 58.3125 37.9875C58.075 37.8125 57.8875 37.55 57.7625 37.2375C57.6375 36.9125 57.575 36.55 57.575 36.125C57.575 35.475 57.7125 34.9625 57.9875 34.5875C58.2625 34.2125 58.6625 34.0125 59.2125 34.0125C59.7 34.0125 60.1 34.1875 60.3875 34.55C60.6875 34.925 60.825 35.45 60.825 36.1375ZM58.475 36.1375C58.475 36.6 58.5375 36.9375 58.65 37.175C58.7625 37.4125 58.95 37.525 59.2125 37.525C59.475 37.525 59.6625 37.4125 59.775 37.175C59.8875 36.9375 59.95 36.5875 59.95 36.125C59.95 35.6625 59.8875 35.325 59.775 35.1C59.6625 34.875 59.475 34.7625 59.2125 34.7625C58.9625 34.7625 58.775 34.875 58.65 35.1C58.525 35.3375 58.475 35.6875 58.475 36.1375Z"
    fill="black"
  />
  <path
    d="M65.375 34.025C65.75 34.025 66.0375 34.15 66.225 34.3875C66.4125 34.625 66.5125 35 66.5125 35.5V38.2H65.6375V35.7125C65.6375 35.1 65.4625 34.7875 65.1125 34.7875C64.8625 34.7875 64.6875 34.9 64.5875 35.1125C64.4875 35.325 64.4375 35.65 64.4375 36.0625V38.2H63.5625V35.7125C63.5625 35.4 63.525 35.1625 63.4375 35.0125C63.35 34.8625 63.225 34.7875 63.05 34.7875C62.7875 34.7875 62.6 34.9125 62.5125 35.15C62.425 35.3875 62.375 35.7375 62.375 36.1875V38.2H61.5V34.1125H62.1875L62.2875 34.65H62.3375C62.425 34.45 62.5625 34.3 62.7375 34.2C62.9125 34.1 63.1125 34.05 63.3375 34.05C63.6 34.05 63.8 34.1125 63.9625 34.225C64.125 34.3375 64.2375 34.4875 64.3125 34.675H64.375C64.575 34.2375 64.9125 34.025 65.375 34.025Z"
    fill="black"
  />
  <path
    d="M69.1625 34.025C69.575 34.025 69.9 34.2 70.1375 34.5625C70.375 34.925 70.4875 35.45 70.4875 36.15C70.4875 36.825 70.375 37.35 70.1375 37.7125C69.9 38.0875 69.5875 38.2625 69.1875 38.2625C68.9625 38.2625 68.7625 38.2125 68.6 38.1C68.4375 37.9875 68.3 37.85 68.1875 37.6625H68.15C68.1625 37.7875 68.175 37.9 68.175 38.0125C68.1875 38.1125 68.1875 38.2125 68.1875 38.3V40H67.3125V34.1H68.025L68.15 34.6375H68.2C68.425 34.2375 68.75 34.025 69.1625 34.025ZM68.925 34.7625C68.6625 34.7625 68.4875 34.8625 68.375 35.075C68.2625 35.275 68.2 35.6 68.2 36.0375V36.2C68.2 36.65 68.25 36.975 68.3625 37.2C68.475 37.4125 68.6625 37.525 68.925 37.525C69.375 37.525 69.6 37.0625 69.6 36.15C69.6 35.6875 69.55 35.35 69.4375 35.1125C69.325 34.875 69.15 34.7625 68.925 34.7625Z"
    fill="black"
  />
  <path
    d="M72.5625 34.025C73.425 34.025 73.8625 34.5 73.8625 35.45V38.1875H73.225L73.0875 37.625H73.0625C72.925 37.8375 72.775 38 72.6125 38.1C72.45 38.2 72.225 38.25 71.9625 38.25C71.625 38.25 71.3625 38.125 71.1875 37.8875C71.0125 37.65 70.925 37.35 70.925 36.9875C70.925 36.5625 71.05 36.25 71.3125 36.025C71.575 35.8125 71.9375 35.6875 72.4375 35.6625L73 35.6375V35.4375C73 35.175 72.95 34.9875 72.8625 34.8625C72.775 34.7375 72.6375 34.6875 72.45 34.6875C72.3125 34.6875 72.1625 34.7125 72.0125 34.7625C71.8625 34.8125 71.7 34.875 71.5375 34.9625L71.275 34.325C71.625 34.1375 72.0625 34.025 72.5625 34.025ZM72.975 36.25L72.6125 36.2625C72.325 36.275 72.1125 36.35 71.9875 36.475C71.8625 36.6 71.8 36.775 71.8 36.9875C71.8 37.3875 71.9625 37.5875 72.275 37.5875C72.475 37.5875 72.6375 37.5 72.775 37.3375C72.9125 37.175 72.975 36.9375 72.975 36.6375V36.25Z"
    fill="black"
  />
  <path
    d="M76.525 34.025C76.9 34.025 77.1875 34.15 77.3875 34.3875C77.5875 34.625 77.7 34.9875 77.7 35.4875V38.2H76.825V35.7C76.825 35.4 76.7875 35.175 76.7 35.0125C76.6125 34.8625 76.475 34.7875 76.2875 34.7875C76.0125 34.7875 75.825 34.9 75.7125 35.125C75.6 35.35 75.55 35.7 75.55 36.1875V38.2125H74.675V34.125H75.3625L75.4625 34.6625H75.5125C75.6125 34.4625 75.75 34.3125 75.925 34.2125C76.1125 34.075 76.3 34.025 76.525 34.025Z"
    fill="black"
  />
  <path
    d="M78.05 34.1H78.975L79.575 36.275C79.6125 36.4125 79.6375 36.5625 79.675 36.7C79.7 36.8375 79.725 36.9875 79.7375 37.1125H79.7625C79.775 36.9875 79.8 36.8625 79.8375 36.725C79.875 36.5875 79.9125 36.4375 79.95 36.275L80.525 34.1H81.4375L80.0625 38.6875C79.925 39.1375 79.75 39.475 79.5375 39.6875C79.325 39.9 79.05 40 78.7 40C78.6125 40 78.525 40 78.45 39.9875C78.375 39.975 78.3 39.9625 78.225 39.9375V39.1875C78.275 39.2 78.3375 39.2125 78.4 39.225C78.4625 39.2375 78.5125 39.2375 78.575 39.2375C78.75 39.2375 78.8875 39.175 78.975 39.0625C79.0625 38.95 79.1625 38.75 79.2375 38.4875L79.325 38.15L78.05 34.1Z"
    fill="black"
  />
  <path
    d="M59.7875 28.8L67.05 16.9875H58.4V11.8125H67.05L59.7875 0H66.1125L74.7 14.4L65.75 28.8H59.7875Z"
    fill="black"
  />
  <path
    d="M81.45 28.8H75.4875L71.4125 22.1875L74.4375 17.3375L81.45 28.8Z"
    fill="black"
  />
  <path
    d="M71.375 6.175L75.1125 0H81.45L74.4375 11.325L71.375 6.175Z"
    fill="black"
  />
  <path
    d="M36.9 23.65H50.7125V20.4125H40.3125V16.0625H47.8V12.825H40.3125V8.425H50.7125V5.1875H36.9V12.825H40.3125V16.0625H36.9V23.65Z"
    fill="black"
  />
  <path
    d="M3.4125 15.8H10.1375C11.6625 15.8 12.7875 16.8 12.7875 18.125C12.7875 19.4125 11.675 20.4125 10.1375 20.4125H3.4125V15.8ZM3.4125 8.425H9.4625C10.9625 8.425 11.75 9.3875 11.75 10.475C11.75 11.5875 10.9625 12.5625 9.4625 12.5625H3.4125V8.425ZM0 23.65H10.525C13.7625 23.65 16.2 21.5875 16.2 18.3C16.2 15.95 14.8125 14.4125 12.9125 13.8C14.3 13.1875 15.175 11.825 15.175 10.125C15.175 6.8375 12.675 5.1875 9.85 5.1875H0V12.5625H3.4125V15.8H0V23.65Z"
    fill="black"
  />
  <path
    d="M18.4375 23.6375H21.85V12.225L26.6375 17.0875L31.4375 12.225V23.6375H34.8375V4.8L26.6375 12.975L18.4375 4.8V23.6375Z"
    fill="black"
  />
  <path
    d="M0.55 26.975C0.6125 26.975 0.7 26.975 0.75 26.975C0.9125 26.975 1.0625 27.0375 1.0625 27.2375C1.0625 27.4 0.9375 27.4625 0.9125 27.4875C0.8375 27.525 0.675 27.525 0.55 27.525V26.975ZM0.55 27.875C0.775 27.875 0.9125 27.875 1 27.925C1.0875 27.975 1.125 28.075 1.125 28.175C1.125 28.3125 1.05 28.4 0.9375 28.4375C0.85 28.4625 0.675 28.4625 0.55 28.4625V27.875ZM0.575 28.8C0.8625 28.8125 1.2125 28.8125 1.4375 28.65C1.6375 28.5 1.6875 28.3 1.6875 28.1375C1.6875 27.9375 1.6 27.7625 1.4375 27.675C1.375 27.65 1.3125 27.6375 1.25 27.625C1.35 27.5875 1.475 27.525 1.55 27.3625C1.5875 27.2875 1.6 27.2125 1.6 27.15C1.6 27.05 1.575 26.925 1.475 26.8125C1.35 26.675 1.15 26.6375 0.85 26.6375C0.75 26.6375 0.5625 26.6375 0.45 26.6375L0.025 26.65L0 26.6625C0.0125 26.95 0.0125 27.075 0.0125 27.4875C0.0125 27.925 0.0125 28.35 0 28.7875L0.025 28.8H0.575Z"
    fill="black"
  />
  <path
    d="M3.325 27.125C3.3875 27.2 3.4125 27.2875 3.4375 27.375C3.4625 27.4875 3.4625 27.6 3.475 27.675C3.4875 28.1375 3.3875 28.4625 3.0375 28.4625C2.6125 28.4625 2.5875 27.9625 2.5875 27.6875C2.5875 27.325 2.675 27.1375 2.825 27.0375C2.9125 26.9875 2.9875 26.975 3.05 26.975C3.1375 26.975 3.25 27.0375 3.325 27.125ZM3.8 26.925C3.75 26.8625 3.6875 26.8 3.6125 26.75C3.4625 26.6375 3.2375 26.6 3.025 26.6C2.8375 26.6 2.6375 26.6375 2.475 26.725C2.1 26.9375 2.0375 27.2875 2.0125 27.425C2 27.525 1.9875 27.6375 1.9875 27.7375C1.9875 27.95 2.0125 28.3375 2.3 28.6C2.5375 28.8125 2.85 28.85 3 28.85C3.2375 28.85 3.475 28.7875 3.65 28.6375C3.95 28.3875 4.0125 27.975 4.0125 27.7125C4.0375 27.2375 3.875 27.0125 3.8 26.925Z"
    fill="black"
  />
  <path
    d="M5.8 28.3875C5.4625 28.4 5.2 28.4125 5.1125 28.4125H5.05C5.05 27.6 5.05 27.3875 5.075 26.6625L5.05 26.65C4.7875 26.6625 4.7125 26.6625 4.5125 26.6625L4.5 26.675C4.5125 26.9125 4.5125 27 4.5125 27.3625C4.5125 27.85 4.5125 28.325 4.5125 28.8125L4.525 28.825C5.125 28.8125 5.2375 28.8125 5.7875 28.8125L5.8 28.8L5.825 28.4125L5.8 28.3875Z"
    fill="black"
  />
  <path
    d="M6.9125 27.4875C6.65 27.375 6.525 27.325 6.525 27.1875C6.525 27.1 6.6125 26.975 6.8125 26.975C7.05 26.975 7.1875 27.075 7.3 27.15L7.325 27.1375L7.35 26.7375L7.3375 26.7125C7.2 26.65 7.0625 26.6 6.775 26.6C6.2 26.6 6 26.925 6 27.25C6 27.625 6.2875 27.7625 6.4625 27.8375L6.5625 27.8875C6.775 27.975 6.9375 28.05 6.9375 28.2125C6.9375 28.325 6.8375 28.4625 6.575 28.4625C6.3 28.4625 6.1375 28.3375 6.05 28.275L6.025 28.2875L6 28.725L6.025 28.75C6.0625 28.7625 6.0875 28.775 6.125 28.7875C6.2 28.8125 6.375 28.8625 6.6 28.8625C6.6875 28.8625 6.925 28.85 7.1125 28.7625C7.3625 28.6375 7.475 28.4125 7.475 28.15C7.475 27.975 7.4125 27.7875 7.25 27.6625C7.1625 27.6 7.0875 27.5625 7.0125 27.525L6.9125 27.4875Z"
    fill="black"
  />
  <path
    d="M8.35 27.8625L8.5 27.35L8.6 26.9875L8.7 27.3875L8.8125 27.8625H8.35ZM8.9875 26.6375C8.7 26.65 8.6375 26.65 8.3 26.65L8.275 26.675C8.1125 27.2 8.0125 27.5 7.5625 28.7875L7.575 28.8125H8.05L8.075 28.7875L8.225 28.2375H8.8875L9.025 28.8L9.05 28.825C9.275 28.8125 9.3375 28.8125 9.5875 28.8125L9.6 28.7875C9.2375 27.475 9.1875 27.3375 9.0125 26.6625L8.9875 26.6375Z"
    fill="black"
  />
  <path
    d="M10.75 27.4875C10.4875 27.375 10.3625 27.325 10.3625 27.1875C10.3625 27.1 10.45 26.975 10.65 26.975C10.8875 26.975 11.025 27.075 11.1375 27.15L11.1625 27.1375L11.1875 26.7375L11.175 26.7125C11.0375 26.65 10.9 26.6 10.6125 26.6C10.0375 26.6 9.8375 26.925 9.8375 27.25C9.8375 27.625 10.125 27.7625 10.3 27.8375L10.4 27.8875C10.6125 27.975 10.775 28.05 10.775 28.2125C10.775 28.325 10.675 28.4625 10.4125 28.4625C10.1375 28.4625 9.975 28.3375 9.8875 28.275L9.8625 28.2875L9.8375 28.725L9.8625 28.75C9.9 28.7625 9.925 28.775 9.9625 28.7875C10.0375 28.8125 10.2125 28.8625 10.4375 28.8625C10.525 28.8625 10.7625 28.85 10.95 28.7625C11.2 28.6375 11.3125 28.4125 11.3125 28.15C11.3125 27.975 11.2375 27.7875 11.0875 27.6625C11 27.6 10.925 27.5625 10.85 27.525L10.75 27.4875Z"
    fill="black"
  />
  <path
    d="M13.6125 28.7875C13.6 28.3875 13.6 28.2875 13.6 27.8875L14.275 26.6625L14.2625 26.6375C14.0375 26.65 13.975 26.65 13.7875 26.65L13.775 26.675C13.6 27.0625 13.5125 27.225 13.3875 27.475C13.35 27.4125 13.2 27.1125 13.1625 27.05C13.1125 26.9375 13.0625 26.85 12.975 26.65L12.95 26.6375C12.6875 26.65 12.625 26.65 12.3625 26.6625L12.35 26.6875C12.4375 26.85 12.85 27.5375 12.925 27.675C12.9625 27.75 13.0125 27.8375 13.0625 27.9125V28.0125C13.0625 28.3125 13.0625 28.45 13.0375 28.8125L13.05 28.8375C13.3 28.825 13.375 28.825 13.5875 28.825L13.6125 28.7875Z"
    fill="black"
  />
  <path
    d="M17.7375 26.6375C17.4125 26.65 17.3625 26.65 17.025 26.65L17 26.675L16.8625 27.175L16.7375 27.6125L16.5875 28.15L16.3625 27.25L16.2125 26.6625L16.2 26.65C15.875 26.6625 15.8125 26.6625 15.475 26.6625L15.4625 26.6875C15.425 27.6 15.425 27.8375 15.35 28.8125L15.3625 28.8375C15.5625 28.825 15.6125 28.825 15.8 28.825L15.8125 28.8L15.85 27.05L15.9875 27.5875L16.1 28.025L16.3 28.8125L16.325 28.8375C16.5125 28.825 16.5625 28.825 16.775 28.825L16.7875 28.8L16.9625 28.15L17.0875 27.7L17.2625 27.0625V27.6125L17.275 28.075V28.8125L17.2875 28.8375C17.5 28.825 17.575 28.825 17.8125 28.825L17.825 28.8C17.8125 28.45 17.7875 28.1 17.775 27.75C17.7625 27.5625 17.7625 27.3625 17.75 27.175C17.7375 26.8875 17.7375 26.85 17.7375 26.675V26.6375Z"
    fill="black"
  />
  <path
    d="M19.8 28.3875C19.4375 28.4125 19.35 28.4125 18.9625 28.4125V27.875H19.675L19.7 27.8625L19.725 27.5125L19.7125 27.5L18.975 27.5125V27.025C19.325 27.025 19.3875 27.025 19.7625 27.0375L19.775 27.0125L19.8 26.6625L19.7875 26.65H18.45L18.4375 26.675C18.45 26.975 18.4625 27.0875 18.4625 27.9C18.4625 28.2875 18.45 28.475 18.45 28.8L18.4625 28.8125H19.8125L19.8375 28.7875L19.8625 28.4125L19.8 28.3875Z"
    fill="black"
  />
  <path
    d="M20.7375 27.0125C20.7875 27.0125 20.825 27.0125 20.8625 27.0125C20.9875 27.0125 21.2125 27.0125 21.2125 27.2875C21.2125 27.375 21.1875 27.4875 21.075 27.55C20.9875 27.6 20.875 27.6125 20.725 27.6125V27.0125H20.7375ZM20.875 27.9625C21.075 28.3125 21.125 28.4 21.325 28.8L21.35 28.8125C21.45 28.8125 21.5375 28.8 21.625 28.8C21.725 28.8 21.8125 28.8 21.9125 28.8L21.925 28.7625C21.8125 28.6125 21.775 28.5625 21.55 28.2125C21.45 28.0625 21.4 27.975 21.325 27.8375C21.4625 27.775 21.7375 27.65 21.7375 27.2625C21.7375 27.125 21.7 26.85 21.45 26.7125C21.2875 26.625 21.125 26.625 20.7625 26.625H20.175L20.1625 26.65C20.175 26.9625 20.1875 27.275 20.1875 28.1C20.1875 28.3875 20.1875 28.525 20.175 28.775L20.1875 28.8C20.4125 28.7875 20.4625 28.7875 20.7125 28.7875L20.725 28.775C20.7 28.425 20.7 28.325 20.7 27.9625H20.875Z"
    fill="black"
  />
  <path
    d="M23.825 28.25C23.75 28.3 23.6 28.425 23.35 28.425C23 28.425 22.7625 28.1625 22.7625 27.7375C22.7625 27.475 22.85 27.0125 23.35 27.0125C23.575 27.0125 23.7 27.1 23.7875 27.1625H23.8125L23.8375 26.7375L23.825 26.725C23.7125 26.6875 23.525 26.6125 23.2625 26.6125C22.475 26.6125 22.2 27.225 22.2 27.7625C22.2 28.35 22.5625 28.8625 23.3 28.8625C23.55 28.8625 23.725 28.8 23.825 28.7625L23.8375 28.7375L23.8625 28.275L23.825 28.25Z"
    fill="black"
  />
  <path
    d="M24.75 27.8625L24.9 27.35L25.0125 26.9875L25.1 27.3875L25.2125 27.8625H24.75ZM25.3875 26.6375C25.1 26.65 25.0375 26.65 24.7125 26.65L24.6875 26.675C24.525 27.2 24.425 27.5 23.975 28.7875L23.9875 28.8125H24.4625L24.4875 28.7875L24.6375 28.2375H25.3L25.425 28.8L25.45 28.825C25.675 28.8125 25.7375 28.8125 25.9875 28.8125L26 28.7875C25.625 27.475 25.5875 27.3375 25.4125 26.6625L25.3875 26.6375Z"
    fill="black"
  />
  <path
    d="M26.8875 28.4125C26.8875 28.1125 26.875 27.825 26.875 27.5375C26.875 27.375 26.875 27.2125 26.875 27.0375C26.9375 27.0375 27 27.025 27.0625 27.025C27.25 27.025 27.6125 27.025 27.6125 27.675C27.6125 28.0625 27.4625 28.225 27.4 28.2875C27.2625 28.4125 27.05 28.4125 26.8875 28.4125ZM26.725 28.8C26.8 28.8 26.8875 28.8 26.9625 28.8C27.3 28.8 27.8625 28.7875 28.0875 28.2375C28.175 28.0375 28.1875 27.7875 28.1875 27.65C28.1875 27.3625 28.125 27.1375 28.05 27C27.8375 26.625 27.45 26.6125 27.1 26.6125C26.9625 26.6125 26.825 26.6125 26.675 26.625H26.35L26.3375 26.6375C26.35 26.925 26.3625 27.1875 26.3625 28.0375C26.3625 28.3375 26.3625 28.5125 26.35 28.775L26.375 28.7875H26.725V28.8Z"
    fill="black"
  />
  <path
    d="M29.9 27.125C29.9625 27.2 29.9875 27.2875 30.0125 27.375C30.0375 27.4875 30.0375 27.6 30.05 27.675C30.0625 28.1375 29.9625 28.4625 29.6125 28.4625C29.1875 28.4625 29.1625 27.9625 29.1625 27.6875C29.1625 27.325 29.25 27.1375 29.4 27.0375C29.4875 26.9875 29.5625 26.975 29.625 26.975C29.725 26.975 29.825 27.0375 29.9 27.125ZM30.3875 26.925C30.3375 26.8625 30.275 26.8 30.2 26.75C30.05 26.6375 29.825 26.6 29.6125 26.6C29.425 26.6 29.225 26.6375 29.0625 26.725C28.6875 26.9375 28.625 27.2875 28.6 27.425C28.5875 27.525 28.575 27.6375 28.575 27.7375C28.575 27.95 28.6 28.3375 28.8875 28.6C29.125 28.8125 29.4375 28.85 29.5875 28.85C29.825 28.85 30.0625 28.7875 30.2375 28.6375C30.5375 28.3875 30.6 27.975 30.6 27.7125C30.6125 27.2375 30.4625 27.0125 30.3875 26.925Z"
    fill="black"
  />
  <path
    d="M31.95 27.4875C31.6875 27.375 31.5625 27.325 31.5625 27.1875C31.5625 27.1 31.65 26.975 31.85 26.975C32.0875 26.975 32.225 27.075 32.3375 27.15L32.3625 27.1375L32.3875 26.7375L32.375 26.7125C32.25 26.65 32.1 26.6 31.8125 26.6C31.2375 26.6 31.0375 26.925 31.0375 27.25C31.0375 27.625 31.325 27.7625 31.5 27.8375L31.6 27.8875C31.8125 27.975 31.975 28.05 31.975 28.2125C31.975 28.325 31.875 28.4625 31.6125 28.4625C31.3375 28.4625 31.175 28.3375 31.0875 28.275L31.0625 28.2875L31.0375 28.725L31.0625 28.75C31.1 28.7625 31.125 28.775 31.1625 28.7875C31.2375 28.8125 31.4125 28.8625 31.6375 28.8625C31.725 28.8625 31.9625 28.85 32.15 28.7625C32.4 28.6375 32.5125 28.4125 32.5125 28.15C32.5125 27.975 32.45 27.7875 32.2875 27.6625C32.2 27.6 32.125 27.5625 32.05 27.525L31.95 27.4875Z"
    fill="black"
  />
  <path
    d="M35.1625 28.3875C34.8 28.4125 34.7125 28.4125 34.325 28.4125L34.3125 27.875H35.025L35.05 27.8625L35.0625 27.5125L35.05 27.5L34.3125 27.5125V27.025C34.6625 27.025 34.725 27.025 35.1 27.0375L35.1125 27.0125L35.1375 26.6625L35.125 26.65H33.7875L33.775 26.675C33.7875 26.975 33.8 27.0875 33.8 27.9C33.8 28.2875 33.7875 28.475 33.7875 28.8L33.8 28.8125H35.15L35.175 28.7875L35.2 28.4125L35.1625 28.3875Z"
    fill="black"
  />
  <path
    d="M36.375 27.4875C36.1125 27.375 35.9875 27.325 35.9875 27.1875C35.9875 27.1 36.075 26.975 36.275 26.975C36.5125 26.975 36.65 27.075 36.7625 27.15L36.7875 27.1375L36.8125 26.7375L36.8 26.7125C36.6625 26.65 36.525 26.6 36.2375 26.6C35.6625 26.6 35.4625 26.925 35.4625 27.25C35.4625 27.625 35.75 27.7625 35.925 27.8375L36.025 27.8875C36.2375 27.975 36.4 28.05 36.4 28.2125C36.4 28.325 36.3 28.4625 36.0375 28.4625C35.7625 28.4625 35.6 28.3375 35.5125 28.275L35.4875 28.2875L35.4625 28.725L35.475 28.75C35.5125 28.7625 35.5375 28.775 35.575 28.7875C35.65 28.8125 35.825 28.8625 36.05 28.8625C36.1375 28.8625 36.375 28.85 36.5625 28.7625C36.825 28.6375 36.925 28.4125 36.925 28.15C36.925 27.975 36.8625 27.7875 36.7 27.6625C36.6125 27.6 36.5375 27.5625 36.4625 27.525L36.375 27.4875Z"
    fill="black"
  />
  <path
    d="M37.8375 27.0125C37.9 27.0125 37.975 27.0125 38.0375 27.0125C38.3125 27.0125 38.375 27.1625 38.375 27.3375C38.375 27.375 38.375 27.55 38.2125 27.65C38.125 27.7 38.0125 27.7 37.8375 27.7V27.0125ZM37.7 26.6375L37.3125 26.65L37.2875 26.6625C37.3 27.0625 37.3125 27.325 37.3125 27.675C37.3125 28.05 37.3 28.425 37.3 28.7875L37.3125 28.8C37.5375 28.7875 37.5875 28.7875 37.8375 28.7875L37.85 28.775C37.8375 28.4375 37.8375 28.3625 37.8375 28.05C38.175 28.05 38.55 28.05 38.7625 27.7875C38.85 27.6875 38.925 27.5125 38.925 27.3C38.925 27.1625 38.9 26.875 38.6375 26.7375C38.45 26.625 38.2 26.625 37.9625 26.625L37.7 26.6375Z"
    fill="black"
  />
  <path
    d="M39.6125 27.8625L39.7625 27.35L39.875 26.9875L39.9625 27.3875L40.075 27.8625H39.6125ZM40.25 26.6375C39.95 26.65 39.9 26.65 39.575 26.65L39.55 26.675C39.3875 27.2 39.2875 27.5 38.8375 28.7875L38.85 28.8125H39.325L39.35 28.7875L39.5 28.2375H40.1625L40.3 28.8L40.3125 28.825C40.5375 28.8125 40.6 28.8125 40.85 28.8125L40.8625 28.7875C40.5 27.475 40.45 27.3375 40.275 26.6625L40.25 26.6375Z"
    fill="black"
  />
  <path
    d="M42.625 26.0125C42.5625 26.075 42.475 26.15 42.3625 26.15C42.2875 26.15 42.225 26.125 42.1625 26.1L42.0375 26.0625C41.975 26.05 41.9375 26.0375 41.875 26.0375C41.7375 26.0375 41.675 26.0875 41.6 26.1375L41.5875 26.1625V26.4875H41.6C41.6625 26.4375 41.75 26.3875 41.8625 26.3875C41.9375 26.3875 42 26.4125 42.075 26.4375L42.1625 26.475C42.225 26.5 42.275 26.5125 42.3375 26.5125C42.475 26.5125 42.55 26.45 42.625 26.3875L42.6375 26.3625V26.025L42.625 26.0125ZM43.0375 26.6375C42.85 26.65 42.7875 26.65 42.6 26.65L42.5875 26.675L42.6125 27.0875L42.625 27.5125L42.6375 28.0125L42.625 28C42.5375 27.85 42.525 27.825 42.375 27.5875L42.1 27.175C41.875 26.825 41.825 26.7625 41.75 26.6375L41.725 26.625C41.4875 26.6375 41.4375 26.6375 41.225 26.6375L41.2125 26.6625C41.225 27.1375 41.2375 27.4875 41.2375 27.9C41.2375 28.2 41.2375 28.5 41.225 28.8L41.2375 28.825C41.4375 28.8125 41.5125 28.8125 41.6875 28.8125L41.7 28.7875L41.6625 28.1125L41.65 27.7375L41.6375 27.3375V27.325C41.775 27.5625 41.825 27.65 42.0375 27.95L42.3375 28.4L42.6125 28.8L42.6375 28.8125C42.825 28.8 42.875 28.8 43.0375 28.8L43.05 28.7875C43.05 28.3375 43.0375 28.05 43.0375 27.675C43.0375 27.3375 43.0375 27 43.05 26.65L43.0375 26.6375Z"
    fill="black"
  />
  <path
    d="M44.7625 27.125C44.825 27.2 44.85 27.2875 44.875 27.375C44.9 27.4875 44.9 27.6 44.9125 27.675C44.925 28.1375 44.825 28.4625 44.475 28.4625C44.05 28.4625 44.025 27.9625 44.025 27.6875C44.025 27.325 44.1125 27.1375 44.2625 27.0375C44.35 26.9875 44.425 26.975 44.4875 26.975C44.5875 26.975 44.6875 27.0375 44.7625 27.125ZM45.25 26.925C45.2 26.8625 45.1375 26.8 45.0625 26.75C44.9125 26.6375 44.6875 26.6 44.475 26.6C44.2875 26.6 44.0875 26.6375 43.925 26.725C43.55 26.9375 43.4875 27.2875 43.4625 27.425C43.45 27.525 43.4375 27.6375 43.4375 27.7375C43.4375 27.95 43.4625 28.3375 43.75 28.6C43.9875 28.8125 44.3 28.85 44.4625 28.85C44.7 28.85 44.9375 28.7875 45.1125 28.6375C45.4125 28.3875 45.475 27.975 45.475 27.7125C45.475 27.2375 45.325 27.0125 45.25 26.925Z"
    fill="black"
  />
  <path
    d="M47.2375 28.3875C46.9 28.4 46.6375 28.4125 46.55 28.4125H46.4875C46.4875 27.6 46.4875 27.3875 46.5125 26.6625L46.4875 26.65C46.225 26.6625 46.15 26.6625 45.95 26.6625L45.9375 26.675C45.95 26.9125 45.95 27 45.95 27.3625C45.95 27.85 45.95 28.325 45.95 28.8125L45.9625 28.825C46.5625 28.8125 46.675 28.8125 47.225 28.8125L47.2375 28.8L47.2625 28.4125L47.2375 28.3875Z"
    fill="black"
  />
  <path
    d="M49 28.3875C48.6375 28.4125 48.55 28.4125 48.1625 28.4125V27.875H48.875L48.9 27.8625L48.9125 27.5125L48.9 27.5L48.1625 27.5125V27.025C48.5125 27.025 48.575 27.025 48.95 27.0375L48.9625 27.0125L48.9875 26.6625L48.975 26.65H47.6375L47.625 26.675C47.6375 26.975 47.65 27.0875 47.65 27.9C47.65 28.2875 47.65 28.475 47.6375 28.8L47.65 28.8125H49L49.025 28.7875L49.05 28.4125L49 28.3875Z"
    fill="black"
  />
  <path
    d="M50.2125 27.4875C49.95 27.375 49.825 27.325 49.825 27.1875C49.825 27.1 49.9125 26.975 50.1125 26.975C50.35 26.975 50.4875 27.075 50.6 27.15L50.625 27.1375L50.65 26.7375L50.6375 26.7125C50.5 26.65 50.3625 26.6 50.075 26.6C49.5 26.6 49.3 26.925 49.3 27.25C49.3 27.625 49.5875 27.7625 49.7625 27.8375L49.8625 27.8875C50.075 27.975 50.2375 28.05 50.2375 28.2125C50.2375 28.325 50.1375 28.4625 49.875 28.4625C49.6 28.4625 49.4375 28.3375 49.35 28.275L49.3125 28.2875L49.2875 28.725L49.3125 28.75C49.35 28.7625 49.375 28.775 49.4125 28.7875C49.4875 28.8125 49.6625 28.8625 49.8875 28.8625C49.975 28.8625 50.2125 28.85 50.4 28.7625C50.6625 28.6375 50.7625 28.4125 50.7625 28.15C50.7625 27.975 50.7 27.7875 50.5375 27.6625C50.45 27.6 50.375 27.5625 50.3 27.525L50.2125 27.4875Z"
    fill="black"
  />
</svg>
