<svg
  width="101"
  height="30"
  viewBox="0 0 101 30"
  fill="none"
  xmlns="http://www.w3.org/2000/svg"
>
  <title>Logo coches.com</title>
  <path
    d="M9.69202 0.875482C4.1009 1.37446 0 7.8748 0 15.1259C0 22.377 4.1009 28.7503 9.69202 29.2515L10.9342 29.1268V28.7525C6.7409 25.4162 4.23843 20.3788 4.1009 15.0034C4.1009 9.87752 6.83333 4.50442 10.9342 1.25425V1.12951H9.69202V0.875482Z"
    fill="black"
  />
  <path
    d="M22.3645 0H19.632C19.508 0 19.508 0.24949 19.632 0.24949L20.3783 0.374234C24.6032 1.12497 27.4596 4.74938 28.8281 11.3745L28.9521 11.4992H33.5489L33.6729 11.3745C32.3045 4.49989 27.5836 0 22.3645 0Z"
    fill="black"
  />
  <path
    d="M15.5312 0H12.7988C12.5508 0 12.5508 0.24949 12.7988 0.24949L13.421 0.374234C17.6459 1.12497 20.6286 4.74938 21.9948 11.3745V11.4992H26.4677C26.5917 11.4992 26.7157 11.4992 26.5917 11.3745C25.3472 4.49989 20.6263 0 15.5312 0Z"
    fill="black"
  />
  <path
    d="M33.4228 18.5008H28.8259C27.5837 25.2506 24.601 28.875 20.3761 29.6258H19.6298V30H22.4885C27.4574 30 32.3045 25.5001 33.5468 18.7503L33.4228 18.5008Z"
    fill="black"
  />
  <path
    d="M21.8686 18.5008H26.4632C26.5872 18.5008 26.7112 18.5008 26.7112 18.7502C25.469 25.5001 20.6241 30 15.529 30H12.7966C12.5486 30 12.5486 29.6257 12.7966 29.6257H13.4188C17.6437 28.875 20.6264 25.2506 21.8686 18.5008Z"
    fill="black"
  />
  <path
    d="M12.6725 1.62399C13.7073 1.94832 14.6745 2.45637 15.5312 3.12319C12.5485 6.49811 10.6863 10.6238 10.6863 14.9989C10.7495 19.492 12.5305 23.79 15.6552 26.9994C14.785 27.7501 13.7908 28.2491 12.7965 28.4986H12.6725C8.94587 24.9989 6.45918 20.2495 6.45918 14.9989C6.56514 9.85941 8.82187 5.00344 12.6725 1.62399Z"
    fill="black"
  />
  <path
    d="M48.2077 20.8754C47.3939 18.9952 45.5226 17.8067 43.4868 17.8747L43.4846 17.8793H43.4877C42.2371 17.8946 41.0385 18.3858 40.1299 19.2537C39.1357 20.1292 38.6397 21.3789 38.6397 22.6287C38.7051 25.3413 40.9122 27.5028 43.6086 27.5028C44.6299 27.5119 45.6263 27.2079 46.4673 26.6273C47.3375 26.1283 47.9597 25.3776 48.3317 24.3774L48.4557 24.2526H45.8473C45.3581 25.0056 44.5036 25.4343 43.6108 25.3776C42.9886 25.3776 42.2424 25.1258 41.7464 24.6268C41.1241 24.0009 40.8761 23.3771 40.8761 22.6264C40.8829 21.9029 41.2008 21.2202 41.7464 20.7507C42.2446 20.2494 42.8646 19.8752 43.6108 19.8752C44.5712 19.7958 45.4933 20.2835 45.9713 21.1249V21.2497H48.2077V20.8754Z"
    fill="black"
  />
  <path
    fill-rule="evenodd"
    clip-rule="evenodd"
    d="M59.3899 22.6241C59.2592 19.9614 57.0723 17.8725 54.4211 17.8747C53.127 17.8589 51.8803 18.3533 50.9424 19.2492C49.9482 20.1247 49.4522 21.3744 49.4522 22.6241C49.5176 25.3368 51.7247 27.4982 54.4211 27.4982C55.7557 27.5459 57.0543 27.0514 58.0237 26.1238C59.018 25.1236 59.3899 23.9986 59.3899 22.6241ZM52.4326 20.7507C53.0549 20.2494 53.6748 19.9999 54.4211 19.9999V19.8797C54.5067 19.8752 54.5902 19.8752 54.6758 19.8797C56.1142 19.95 57.2234 21.1816 57.1535 22.6287C57.158 22.7148 57.158 22.7988 57.1535 22.885C57.0836 24.332 55.8594 25.4479 54.4211 25.3776C53.7988 25.3776 53.0526 25.1258 52.5566 24.6268C51.9344 24.0009 51.6864 23.3771 51.6864 22.6264C51.6616 21.9233 51.9321 21.2429 52.4326 20.7507Z"
    fill="black"
  />
  <path
    d="M74.4251 18.9997C73.5549 18.249 72.5606 17.8747 71.3184 17.8747C69.8259 17.8747 68.834 18.249 68.2117 19.2492C67.5895 18.249 66.3473 17.75 65.1051 17.75C63.7388 17.75 62.7446 18.249 61.9984 18.9997C61.2521 19.8752 60.7562 20.8754 60.7562 22.3746V27.3735H63.1166V22.3746C63.1166 20.7507 63.7388 19.8752 65.1051 19.8752C66.3473 19.8752 67.0935 20.7507 67.0935 22.3746V27.3735H69.33V22.3746C69.33 20.7507 70.0762 19.8752 71.3184 19.8752C72.6846 19.8752 73.3069 20.7507 73.3069 22.3746V27.3735H75.6673V22.3746C75.6673 20.8754 75.1713 19.7505 74.4251 18.9997Z"
    fill="black"
  />
  <path
    d="M48.2077 7.75C47.3939 5.86976 45.5226 4.68128 43.4868 4.74932L43.4846 4.75386C42.2333 4.76974 41.0362 5.26191 40.1299 6.12832C39.1357 7.0038 38.6397 8.25352 38.6397 9.50323C38.7051 12.2159 40.9122 14.3774 43.6086 14.3774C44.6299 14.3864 45.6263 14.0825 46.4673 13.5019C47.3375 13.0006 47.9597 12.2522 48.3317 11.3767L48.4557 11.1272H45.8473C45.3581 11.8802 44.5036 12.3089 43.6108 12.2522C42.9886 12.2522 42.2424 12.0004 41.7464 11.5014C41.1241 10.8754 40.8761 10.2517 40.8761 9.50097C40.8829 8.77745 41.2008 8.09475 41.7464 7.62526C42.2446 7.12401 42.8646 6.74978 43.6108 6.74978C44.5712 6.67039 45.4933 7.15803 45.9713 7.99949V8.12424H48.2077V7.75Z"
    fill="black"
  />
  <path
    fill-rule="evenodd"
    clip-rule="evenodd"
    d="M59.3899 9.4987C59.2592 6.83596 57.0723 4.74705 54.4211 4.74932C53.127 4.73345 51.8803 5.22789 50.9424 6.12378C49.9482 6.99927 49.4522 8.24898 49.4522 9.4987C49.5176 12.2113 51.7247 14.3728 54.4211 14.3728C55.7557 14.4204 57.0543 13.926 58.0237 12.9984C59.018 11.9981 59.3899 10.8732 59.3899 9.4987ZM52.4326 7.62526C53.0549 7.12401 53.6748 6.87452 54.4211 6.87452V6.75431C54.5067 6.74978 54.5902 6.74978 54.6758 6.75431C56.1142 6.82462 57.2234 8.05619 57.1535 9.50323C57.158 9.58942 57.158 9.67334 57.1535 9.75953C57.0836 11.2066 55.8594 12.3225 54.4211 12.2522C53.7988 12.2522 53.0526 12.0004 52.5566 11.5014C51.9344 10.8754 51.6864 10.2517 51.6864 9.50097C51.6616 8.79786 51.9321 8.11743 52.4326 7.62526Z"
    fill="black"
  />
  <path
    d="M70.3242 7.75C69.5283 5.91285 67.718 4.73345 65.7273 4.74932L65.725 4.75386V4.62911C64.431 4.61324 63.1842 5.10768 62.2464 6.00358C61.2522 6.87906 60.7562 8.12877 60.7562 9.37849C60.8215 12.0911 63.0287 14.2526 65.725 14.2526C66.7463 14.2617 67.7428 13.9578 68.5837 13.3771C69.4539 12.8759 69.9522 12.1274 70.4482 11.2519V11.1272H67.9637C67.4745 11.8802 66.6201 12.3089 65.7273 12.2522C64.9811 12.2522 64.3611 12.0004 63.7388 11.5014C63.2406 10.8754 62.9926 10.2517 62.9926 9.50097C62.9678 8.79786 63.2383 8.11743 63.7388 7.62526C64.3611 7.12401 64.9811 6.74978 65.7273 6.74978C66.6877 6.67039 67.6098 7.15803 68.0877 7.99949V8.12424H70.4482L70.3242 7.75Z"
    fill="black"
  />
  <path
    fill-rule="evenodd"
    clip-rule="evenodd"
    d="M90.2042 5.99904C89.21 5.12356 87.9678 4.74932 86.7255 4.74932L86.7278 4.74705V4.49756H86.6015C83.9255 4.49756 81.7567 6.68173 81.7567 9.37395C81.7296 10.7008 82.2729 11.9755 83.2469 12.8736C84.1847 13.7695 85.4315 14.2617 86.7255 14.2481C88.6509 14.2798 90.4296 13.2161 91.3224 11.4992L91.4464 11.2497H88.714V11.4992C88.2157 12.0004 87.5958 12.2499 86.7255 12.2499C86.1033 12.2499 85.4833 11.9981 84.8611 11.6239C84.4868 11.2497 84.2388 10.8732 84.2388 10.3742H91.6944V9.37395C91.6944 7.99949 91.0744 6.87452 90.2042 5.99904ZM84.2411 8.49847C84.6537 7.49144 85.6411 6.84504 86.7255 6.87452C87.3049 6.84504 87.8753 7.02195 88.3397 7.3735C88.838 7.74773 89.086 8.12424 89.21 8.49847H84.2411Z"
    fill="black"
  />
  <path
    d="M99.274 5.50006C98.654 4.99881 97.7838 4.74932 96.6655 4.74932L96.6633 4.74479H96.5393C95.5451 4.74479 94.6771 4.99654 94.0548 5.49552C93.3086 5.99677 92.9366 6.6205 92.9366 7.37123C92.9141 8.0131 93.135 8.64136 93.5589 9.1222C93.9309 9.4987 94.4291 9.87293 94.9251 9.99768L96.6655 10.3719C97.1615 10.3719 97.6598 10.6214 97.9078 10.7461C98.2798 10.8732 98.4038 11.1226 98.4038 11.3721C98.4038 11.7486 98.2798 11.8734 98.0318 12.1229C97.7838 12.3724 97.2855 12.3724 96.7895 12.3724L95.5473 12.1229L95.5406 12.1161C95.2949 11.8666 95.0513 11.6194 95.0513 11.3721V11.1226H92.8149V11.3721C92.8149 12.3724 93.3109 12.9961 94.0571 13.6221C94.8011 14.1233 95.6713 14.3728 96.7895 14.3728C97.9078 14.3728 98.8997 14.1211 99.522 13.6221C100.27 13.1299 100.697 12.2703 100.64 11.3721C100.64 10.7484 100.39 10.1224 100.018 9.74819C99.646 9.37169 99.15 8.99745 98.5277 8.87271L97.0375 8.49847L95.7953 8.12424C95.4233 7.99949 95.2993 7.75 95.2993 7.62526C95.2993 7.24876 95.4233 6.99927 95.6713 6.99927C95.9193 6.74978 96.2936 6.62503 96.6655 6.62503C97.1615 6.62503 97.5358 6.74978 97.7838 6.99927C98.0318 7.12628 98.1558 7.37577 98.1558 7.62526V7.75H100.392V7.62526C100.392 6.74978 100.02 5.99904 99.274 5.50006Z"
    fill="black"
  />
  <path
    d="M74.0531 5.37532V1.24966H71.6926V14.2481H74.0531V9.24921C74.0531 7.62526 74.6753 6.74978 76.0415 6.74978C77.4078 6.74978 78.154 7.62526 78.154 9.24921V14.2481H80.3904V9.24921C80.3904 7.75 80.0185 6.62503 79.1482 5.87429C78.402 5.12356 77.2838 4.74932 76.0415 4.74932C75.2953 4.74932 74.5491 4.87634 74.0531 5.37532Z"
    fill="black"
  />
</svg>
