<svg
  width="118"
  height="23"
  viewBox="0 0 118 23"
  fill="none"
  xmlns="http://www.w3.org/2000/svg"
>
  <title>Logo eDreams</title>
  <path
    d="M3.47406 17.726H1.8141C0.818123 17.726 0 18.5419 0 19.5352V21.1907C0 22.1841 0.818123 23 1.8141 23H3.47406C4.48189 23 5.28816 22.1841 5.28816 21.1907V19.5352C5.28816 18.5419 4.48189 17.726 3.47406 17.726Z"
    fill="black"
  />
  <path
    d="M11.6197 13.2206H8.84521C7.58839 13.2206 6.58055 14.2375 6.58055 15.4792V18.2463C6.58055 19.4997 7.60024 20.5049 8.84521 20.5049H11.6197C12.8765 20.5049 13.8844 19.4879 13.8844 18.2463V15.4792C13.8844 14.2257 12.8647 13.2206 11.6197 13.2206Z"
    fill="black"
  />
  <path
    d="M30.8634 0H18.3781C17.1213 0 16.1135 1.01697 16.1135 2.25861V14.6987C16.1135 15.9522 17.1332 16.9573 18.3781 16.9573H30.8515C32.1084 16.9573 33.1162 15.9404 33.1162 14.6987V2.25861C33.128 1.00514 32.1084 0 30.8634 0Z"
    fill="black"
  />
  <path
    d="M86.2349 4.62365C84.5156 4.62365 83.3892 4.8365 82.0968 5.58149C81.6937 5.81799 81.4921 6.25553 81.4921 6.68123C81.4921 7.27249 82.0138 7.75733 82.666 7.75733C82.8794 7.75733 83.1403 7.66272 83.33 7.54447C84.1718 7.04781 84.7884 6.89409 85.9147 6.89409C87.1597 6.89409 87.8948 7.68637 87.8948 8.67969V9.51928H85.4523C83.9939 9.51928 82.8438 9.87403 82.0257 10.5717C81.2194 11.2458 80.7807 12.1445 80.7807 13.3152C80.7807 14.4859 81.2076 15.4674 82.0257 16.1532C82.8438 16.8509 83.9939 17.2057 85.4523 17.2057C86.7922 17.2057 88.1557 16.9928 89.3295 16.5907C89.9461 16.3779 90.3848 15.7985 90.3848 15.1362V8.69152C90.3729 6.55116 88.9145 4.62365 86.2349 4.62365ZM87.9067 14.6159C87.136 14.8051 86.2586 14.9234 85.4405 14.9234C83.3537 14.9234 83.2351 13.729 83.2351 13.3033C83.2351 12.9013 83.3537 11.7779 85.4405 11.7779H87.9067V14.6159Z"
    fill="black"
  />
  <path
    d="M115.438 10.1105L113.091 9.3419C112.581 9.17635 112.107 8.78612 112.107 8.17121C112.107 7.35527 112.747 6.88226 113.731 6.88226C114.525 6.88226 115.498 7.07146 116.102 7.35527C116.268 7.42622 116.505 7.47352 116.683 7.47352C117.324 7.47352 117.833 6.95321 117.833 6.32648C117.833 5.82982 117.525 5.39229 117.039 5.20308C116.245 4.84833 115.415 4.61182 113.79 4.61182C111.395 4.61182 109.652 6.11362 109.652 8.21851C109.652 10.0041 110.66 11.0093 111.952 11.4941L113.909 12.2036C114.798 12.5111 115.509 12.8067 115.509 13.6817C115.509 14.4977 114.905 14.9234 113.767 14.9234C112.711 14.9234 111.929 14.7105 111.277 14.3676C111.111 14.2967 110.897 14.2257 110.731 14.2257C110.055 14.2257 109.534 14.8051 109.534 15.42C109.534 15.8931 109.818 16.3069 110.269 16.5198C111.158 16.9219 112.308 17.1938 113.719 17.1938C116.28 17.1938 117.976 15.5501 117.976 13.4452C117.976 11.7069 117.015 10.6427 115.438 10.1105Z"
    fill="black"
  />
  <path
    d="M103.558 4.62365C102.36 4.62365 101.186 4.95476 100.202 5.60514C99.4553 4.99023 98.4593 4.62365 97.3092 4.62365C95.9219 4.62365 94.7007 4.8365 93.4557 5.30951C92.8629 5.54601 92.4479 6.12545 92.4479 6.76401V15.9522C92.4479 16.6499 92.9933 17.1938 93.6928 17.1938C94.3687 17.1938 94.9141 16.6499 94.9141 15.9522V7.22519C95.6848 7.01234 96.2065 6.89409 97.0721 6.89409C98.1273 6.89409 99.0284 7.24884 99.0284 8.64421V15.964C99.0284 16.6617 99.5739 17.2057 100.25 17.2057C100.937 17.2057 101.495 16.6617 101.495 15.964V7.52082C102.087 7.14242 102.811 6.90591 103.558 6.90591C104.684 6.90591 105.621 7.8401 105.621 8.9635V15.9758C105.621 16.6735 106.143 17.2175 106.842 17.2175C107.542 17.2175 108.087 16.6735 108.087 15.9758V9.1527C108.075 6.55116 106.143 4.62365 103.558 4.62365Z"
    fill="black"
  />
  <path
    d="M43.2064 4.62365C41.8191 4.62365 40.6216 5.07301 39.7323 5.9599C38.8668 6.82314 38.4162 8.01748 38.4162 9.40103V12.4046C38.4162 13.8118 38.8668 15.0062 39.7323 15.8694C40.6216 16.7563 41.8191 17.2057 43.2064 17.2057C44.4751 17.2057 45.6963 16.9455 46.8464 16.3897C47.2733 16.1769 47.463 15.7748 47.463 15.3136C47.463 14.6987 46.8938 14.1902 46.2891 14.1902C46.1231 14.1902 45.9572 14.2375 45.7912 14.3085C44.973 14.6632 44.1193 14.9234 43.2064 14.9234C42.3882 14.9234 41.7717 14.6396 41.3686 14.1075C41.0603 13.6817 40.8943 13.0314 40.8943 12.0499H46.467C47.3326 12.0499 48.0202 11.364 48.0202 10.5008V9.37738C48.0202 7.99383 47.546 6.79949 46.6804 5.93625C45.8149 5.07301 44.6173 4.62365 43.2064 4.62365ZM40.8824 9.80308C40.8824 7.80463 41.7005 6.89409 43.2064 6.89409C44.7359 6.89409 45.554 7.82828 45.554 9.80308H40.8824Z"
    fill="black"
  />
  <path
    d="M74.876 4.62365C73.4888 4.62365 72.2912 5.07301 71.402 5.9599C70.5364 6.82314 70.0859 8.01748 70.0859 9.40103V12.4046C70.0859 13.8118 70.5364 15.0062 71.402 15.8694C72.2912 16.7563 73.4888 17.2057 74.876 17.2057C76.1447 17.2057 77.366 16.9455 78.5161 16.3897C78.9429 16.1769 79.1326 15.7748 79.1326 15.3136C79.1326 14.6987 78.5635 14.1902 77.9588 14.1902C77.7928 14.1902 77.6268 14.2375 77.4608 14.3085C76.6427 14.6632 75.789 14.9234 74.876 14.9234C74.0579 14.9234 73.4413 14.6396 73.0382 14.1075C72.7299 13.6817 72.5639 13.0314 72.5639 12.0499H78.1367C79.0022 12.0499 79.6899 11.364 79.6899 10.5008V9.37738C79.6899 7.99383 79.2156 6.79949 78.3501 5.93625C77.4845 5.07301 76.2989 4.62365 74.876 4.62365ZM72.5639 9.80308C72.5639 7.80463 73.3821 6.89409 74.8879 6.89409C76.4174 6.89409 77.2355 7.82828 77.2355 9.80308H72.5639Z"
    fill="black"
  />
  <path
    d="M68.5919 4.81285C67.9872 4.6946 67.3943 4.62365 66.8015 4.62365C64.7621 4.62365 63.2326 6.1491 63.2326 8.18303V15.964C63.2326 16.6617 63.778 17.2057 64.4776 17.2057C65.1534 17.2057 65.6988 16.6617 65.6988 15.964V7.99383C65.6988 7.40257 66.1968 6.89409 66.8015 6.89409C67.1809 6.89409 67.6078 6.98869 67.999 7.08329C68.1888 7.13059 68.2599 7.13059 68.4022 7.13059C69.1017 7.13059 69.576 6.63393 69.576 5.98355C69.576 5.41594 69.1729 4.93111 68.5919 4.81285Z"
    fill="black"
  />
  <path
    d="M54.5771 0.224679H51.4232C50.5576 0.224679 49.8699 0.922365 49.8699 1.75013V15.4319C49.8699 16.2596 50.5576 16.9573 51.4232 16.9573H54.5771C58.5017 16.9573 61.1576 14.3558 61.1576 10.4653V6.71671C61.1576 2.83805 58.5017 0.224679 54.5771 0.224679ZM58.6203 10.5126C58.6203 13.0195 57.1619 14.545 54.6008 14.545H52.3954V2.63702H54.6008C57.1619 2.63702 58.6203 4.13882 58.6203 6.66941V10.5126Z"
    fill="black"
  />
</svg>
