<svg
  width="136"
  height="15"
  viewBox="0 0 136 15"
  fill="none"
  xmlns="http://www.w3.org/2000/svg"
>
  <title>Logo El Confidencial</title>
  <path
    d="M0 13.5776H1.62931V1.75862H0V0.62069H11.431V3.9569H10.2672V1.91379H4.91379V6.43965H8.25V4.65517H9.41379V9.5431H8.25V7.75862H4.91379V13.4741H10.4224V11.431H11.5862V14.7672H0V13.5776Z"
    fill="black"
  />
  <path
    d="M16.3966 13.5776H17.6897V14.7155H12.1034V13.5776H13.3966V1.13793H12.1034V0H16.3966V13.5776Z"
    fill="black"
  />
  <path
    d="M35.2241 10.681C34.8879 12.1293 34.2931 13.2155 33.4138 13.9138C32.5345 14.6121 31.3707 14.9741 29.9224 14.9741C27.7759 14.9741 26.069 14.3276 24.8276 13.0086C23.5862 11.6897 22.9655 9.90517 22.9655 7.65517C22.9655 5.40517 23.5862 3.62069 24.8276 2.30172C26.069 0.982759 27.7759 0.336207 29.9224 0.336207C30.6724 0.336207 31.4483 0.439655 32.2759 0.646552C33.1034 0.853448 33.9569 1.16379 34.8621 1.55172V5.01724H33.8017C33.569 3.82759 33.181 2.94828 32.5862 2.35345C31.9914 1.75862 31.2414 1.47414 30.2845 1.47414C29.0431 1.47414 28.1121 1.99138 27.5172 3C26.9224 4.00862 26.6121 5.56034 26.6121 7.65517C26.6121 9.75 26.9224 11.3017 27.5172 12.3103C28.1121 13.319 29.0431 13.8103 30.2845 13.8103C31.1379 13.8103 31.8362 13.5517 32.3534 13.0345C32.8965 12.5172 33.2845 11.7155 33.5172 10.6552H35.2241V10.681Z"
    fill="black"
  />
  <path
    d="M40.9655 15C39.3621 15 38.1207 14.5345 37.2155 13.5776C36.3103 12.6466 35.8707 11.3276 35.8707 9.69827C35.8707 8.0431 36.3103 6.75 37.2155 5.81896C38.1207 4.88793 39.3621 4.42241 40.9655 4.42241C42.569 4.42241 43.8103 4.88793 44.7155 5.81896C45.6207 6.75 46.0603 8.0431 46.0603 9.69827C46.0603 11.3534 45.5948 12.6466 44.6897 13.5776C43.7845 14.5345 42.5431 15 40.9655 15ZM40.9655 13.9397C41.5862 13.9397 42.0517 13.6293 42.3103 13.0345C42.569 12.4397 42.6983 11.3276 42.6983 9.69827C42.6983 8.09483 42.569 6.98276 42.3103 6.38793C42.0517 5.7931 41.6121 5.48276 40.9655 5.48276C40.319 5.48276 39.8793 5.7931 39.6207 6.38793C39.3621 6.98276 39.2328 8.09483 39.2328 9.69827C39.2328 11.3017 39.3621 12.4138 39.6207 13.0086C39.8534 13.6293 40.319 13.9397 40.9655 13.9397Z"
    fill="black"
  />
  <path
    d="M45.931 14.7155V13.5776H47.2241V5.81896H45.931V4.68103H50.2241V6.10345C50.5862 5.50862 51 5.06896 51.4655 4.81034C51.931 4.55172 52.5259 4.42241 53.2241 4.42241C54.2328 4.42241 55.0086 4.75862 55.5259 5.43103C56.0431 6.10345 56.3017 7.08621 56.3017 8.37931V13.6293H57.5948V14.7672H52.1897V13.6293H53.2759V8.22414C53.2759 7.37069 53.1724 6.77586 52.9914 6.43965C52.7845 6.10345 52.4483 5.94827 51.9828 5.94827C51.3879 5.94827 50.9224 6.2069 50.6379 6.69828C50.3534 7.18965 50.2241 7.99138 50.2241 9.05172V13.5517H51.3103V14.6897H45.931V14.7155Z"
    fill="black"
  />
  <path
    d="M65.9224 2.53448H64.9655C64.9138 2.0431 64.7845 1.68103 64.5776 1.44828C64.3707 1.21552 64.0603 1.08621 63.6724 1.08621C63.2069 1.08621 62.8965 1.26724 62.6897 1.62931C62.4828 1.99138 62.3793 2.58621 62.3793 3.38793V4.68103H64.6552V5.81897H62.3793V13.5776H64.1121V14.7155H58.0603V13.5776H59.3534V5.81897H58.0086V4.68103H59.3534V3.41379C59.3534 2.30172 59.6638 1.44828 60.3103 0.87931C60.9569 0.310345 61.8879 0.025862 63.1293 0.025862C63.6207 0.025862 64.0862 0.051724 64.5517 0.103448C65.0172 0.155172 65.4569 0.258621 65.8966 0.362069V2.53448H65.9224Z"
    fill="black"
  />
  <path
    d="M69.5948 13.5776H70.8879V14.7155H65.3017V13.5776H66.5948V5.81897H65.3017V4.68103H69.5948V13.5776ZM66.2845 1.83621C66.2845 1.31897 66.4397 0.905172 66.75 0.543103C67.0603 0.181034 67.4483 0.025862 67.9138 0.025862C68.3534 0.025862 68.7414 0.206897 69.0517 0.543103C69.3621 0.87931 69.5172 1.31897 69.5172 1.83621C69.5172 2.32759 69.3621 2.76724 69.0517 3.10345C68.7414 3.43966 68.3534 3.62069 67.9138 3.62069C67.4483 3.62069 67.0603 3.43966 66.75 3.10345C66.4397 2.76724 66.2845 2.32759 66.2845 1.83621Z"
    fill="black"
  />
  <path
    d="M80.8448 13.5776H82.1379V14.7155H77.8448V13.4483C77.5862 13.9655 77.25 14.3534 76.8103 14.6121C76.3707 14.8707 75.8276 15 75.2069 15C73.9397 15 72.931 14.5345 72.181 13.5776C71.4569 12.6207 71.069 11.3276 71.069 9.69828C71.069 8.0431 71.431 6.75 72.181 5.81897C72.9052 4.88793 73.9138 4.42241 75.2069 4.42241C75.8534 4.42241 76.3707 4.55172 76.8103 4.81034C77.25 5.06896 77.5862 5.4569 77.8448 5.97414V1.13793H76.5517V0H80.8707V13.5776H80.8448ZM77.819 10.1897V9.2069C77.819 8.0431 77.6897 7.18965 77.4052 6.67241C77.1466 6.15517 76.7069 5.89655 76.1121 5.89655C75.4914 5.89655 75.0517 6.18103 74.7931 6.72414C74.5345 7.26724 74.4052 8.27586 74.4052 9.72414C74.4052 11.1724 74.5345 12.1552 74.7931 12.7241C75.0517 13.2672 75.4914 13.5517 76.1121 13.5517C76.7069 13.5517 77.1466 13.2931 77.4052 12.7759C77.6897 12.2069 77.819 11.3534 77.819 10.1897Z"
    fill="black"
  />
  <path
    d="M91.8362 10.1638H85.6293V10.2414C85.6293 11.5345 85.8103 12.4655 86.1466 13.0603C86.5086 13.6293 87.0776 13.9138 87.8534 13.9138C88.5 13.9138 89.0172 13.7328 89.431 13.3448C89.8448 12.9569 90.1034 12.4138 90.2069 11.6638H91.6293C91.3707 12.8017 90.9052 13.6552 90.181 14.1724C89.4569 14.7155 88.4483 14.9741 87.1552 14.9741C85.5776 14.9741 84.3879 14.5086 83.5603 13.6034C82.7328 12.6983 82.319 11.3793 82.319 9.67241C82.319 8.01724 82.7328 6.69828 83.6121 5.76724C84.4655 4.83621 85.6552 4.37069 87.181 4.37069C88.681 4.37069 89.819 4.86207 90.6207 5.84483C91.3707 6.85345 91.7845 8.27586 91.8362 10.1638ZM88.5259 9.05172C88.5259 7.73276 88.4224 6.80172 88.1897 6.25862C87.9569 5.71552 87.5948 5.4569 87.0517 5.4569C86.5345 5.4569 86.1724 5.71552 85.9397 6.23276C85.7069 6.75 85.6034 7.62931 85.6034 8.87069V9.05172H88.5259Z"
    fill="black"
  />
  <path
    d="M91.9397 14.7155V13.5776H93.2328V5.81896H91.9397V4.68103H96.2328V6.10345C96.5948 5.50862 97.0086 5.06896 97.4741 4.81034C97.9397 4.55172 98.5345 4.42241 99.2328 4.42241C100.241 4.42241 101.017 4.75862 101.534 5.43103C102.052 6.10345 102.31 7.08621 102.31 8.37931V13.6293H103.603V14.7672H98.1983V13.6293H99.2845V8.22414C99.2845 7.37069 99.181 6.77586 99 6.43965C98.7931 6.10345 98.4569 5.94827 97.9914 5.94827C97.3966 5.94827 96.931 6.2069 96.6466 6.69828C96.3621 7.18965 96.2328 7.99138 96.2328 9.05172V13.5517H97.319V14.6897H91.9397V14.7155Z"
    fill="black"
  />
  <path
    d="M112.862 11.5862C112.629 12.7241 112.19 13.5776 111.543 14.1466C110.871 14.7155 109.966 15 108.828 15C107.224 15 105.957 14.5345 105.078 13.6034C104.198 12.6724 103.759 11.3793 103.759 9.69828C103.759 8.0431 104.198 6.72414 105.078 5.7931C105.957 4.86207 107.172 4.39655 108.698 4.39655C109.319 4.39655 109.966 4.47414 110.612 4.60345C111.259 4.73276 111.905 4.93965 112.578 5.19828V7.99138H111.621C111.543 7.13793 111.31 6.51724 110.948 6.10345C110.586 5.68965 110.095 5.48276 109.448 5.48276C108.621 5.48276 108 5.7931 107.664 6.43966C107.302 7.06035 107.121 8.17241 107.121 9.72414C107.121 11.25 107.302 12.3362 107.638 12.9828C107.974 13.6293 108.543 13.9655 109.319 13.9655C109.914 13.9655 110.405 13.7586 110.767 13.3707C111.129 12.9569 111.362 12.3879 111.44 11.6379H112.862V11.5862Z"
    fill="black"
  />
  <path
    d="M117.569 13.5776H118.862V14.7155H113.276V13.5776H114.569V5.81897H113.276V4.68103H117.569V13.5776ZM114.259 1.83621C114.259 1.31897 114.414 0.905172 114.724 0.543103C115.034 0.181034 115.422 0.025862 115.888 0.025862C116.328 0.025862 116.716 0.206897 117.026 0.543103C117.336 0.87931 117.491 1.31897 117.491 1.83621C117.491 2.32759 117.336 2.76724 117.026 3.10345C116.716 3.43966 116.328 3.62069 115.888 3.62069C115.422 3.62069 115.034 3.43966 114.724 3.10345C114.44 2.76724 114.259 2.32759 114.259 1.83621Z"
    fill="black"
  />
  <path
    d="M127.914 8.56034V13.5776H129.207V14.7155H124.914V13.4483C124.526 13.9655 124.086 14.3793 123.595 14.6121C123.103 14.8707 122.56 15 121.94 15C121.009 15 120.31 14.7155 119.819 14.1724C119.328 13.6293 119.069 12.8276 119.069 11.7931C119.069 10.6552 119.431 9.82759 120.129 9.25862C120.828 8.68965 121.914 8.40517 123.336 8.40517H124.914V7.81034C124.914 7.00862 124.733 6.38793 124.397 6C124.06 5.61207 123.517 5.43103 122.793 5.43103C122.198 5.43103 121.733 5.56034 121.397 5.84483C121.06 6.12931 120.853 6.56896 120.698 7.18965H119.741V5.01724C120.284 4.81035 120.853 4.62931 121.422 4.52586C121.991 4.42241 122.612 4.37069 123.259 4.37069C124.888 4.37069 126.052 4.7069 126.802 5.37931C127.552 6.07759 127.914 7.11207 127.914 8.56034ZM124.914 11.5603V9.5431H123.776C123.207 9.5431 122.793 9.72414 122.483 10.0603C122.172 10.3966 122.017 10.8879 122.017 11.5345C122.017 12.181 122.121 12.6466 122.353 12.9569C122.586 13.2672 122.897 13.4224 123.362 13.4224C123.828 13.4224 124.216 13.2414 124.474 12.9052C124.759 12.569 124.914 12.1293 124.914 11.5603Z"
    fill="black"
  />
  <path
    d="M133.862 13.5776H135.155V14.7155H129.569V13.5776H130.862V1.13793H129.569V0H133.862V13.5776Z"
    fill="black"
  />
</svg>
