<svg
  width="202"
  height="72"
  viewBox="0 0 202 72"
  fill="none"
  xmlns="http://www.w3.org/2000/svg"
  role="img"
>
  <title>Logo ESA</title>
  <mask
    id="mask0_157_140"
    style="mask-type: alpha"
    maskUnits="userSpaceOnUse"
    x="0"
    y="0"
    width="202"
    height="72"
  >
    <path
      d="M1.47701 27.0368C6.40361 7.85038 26.1287 -3.75759 45.5374 1.10854C61.9811 5.23319 72.9227 19.8566 72.8889 35.8957C72.8754 45.5745 66.4373 51.4865 57.7846 51.4865C51.8118 51.4865 45.6037 48.8007 43.5731 42.0425C41.5425 35.2843 44.1426 27.5979 47.9332 25.4433C50.9744 23.7144 55.6525 23.6735 58.9155 27.2223C59.9234 28.3182 60.4456 29.4372 60.7121 30.3746L60.7662 30.5727C60.7743 30.6051 60.7824 30.6375 60.7892 30.6694L60.8325 30.8583C60.8393 30.8891 60.8447 30.9198 60.8514 30.9501L60.8839 31.1288L60.911 31.3001L60.9326 31.4635L60.9488 31.6188L60.961 31.7653L60.9705 31.9028L60.9745 32.0305L60.9772 32.2032L60.9759 32.3518L60.9637 32.5705L60.9515 32.682H46.249V39.8588H71.5835L71.5943 39.668L71.6078 39.3125L71.6119 39.123L71.6146 38.9079V38.5394L71.6105 38.2646L71.6037 37.9674L71.5929 37.6491L71.5767 37.3103C71.574 37.2523 71.5699 37.1933 71.5672 37.1336L71.5429 36.7662L71.5131 36.3808C71.5023 36.2494 71.4901 36.1152 71.4766 35.9785L71.4319 35.56L71.3805 35.1264C70.8015 30.5721 68.8764 23.7541 62.7495 19.4094C52.8697 12.4041 38.6339 17.2842 34.57 27.7388C30.4992 38.194 33.5203 53.1286 49.8516 58.7021C55.2642 60.5482 60.1453 60.2679 64.2552 59.068C55.5754 69.1461 41.5614 74.065 27.7058 70.5912C8.29541 65.7238 -3.44568 46.2229 1.47701 27.0368ZM139.055 16.5295L139.202 16.5088C145.359 15.5968 150.566 17.2273 153.764 19.3118L154.016 19.4795C154.181 19.5919 154.339 19.7054 154.492 19.8198L154.718 19.9918C154.902 20.1357 155.076 20.2806 155.24 20.4259L155.433 20.6003C155.559 20.7168 155.678 20.8332 155.79 20.9496C157.824 23.0705 159.194 26.3953 159.139 29.6358L159.133 29.8342H150.606L150.592 29.6036L150.575 29.414L150.554 29.2115L150.535 29.0698L150.512 28.9234L150.487 28.7725L150.458 28.6173L150.425 28.4585L150.387 28.2963L150.347 28.1311L150.301 27.9632L150.249 27.793L150.192 27.6209L150.132 27.4472L150.065 27.2723L149.992 27.0966L149.914 26.9203L149.829 26.744C148.991 25.0695 147.281 23.4288 143.807 23.2264C137.277 22.8457 134.784 26.9207 136.78 29.7211C137.484 30.7085 138.96 31.2571 140.655 31.6391L140.986 31.7111L141.322 31.7794L141.661 31.8443L142.002 31.9064L142.519 31.9952L143.036 32.0801L144.278 32.2787C144.628 32.3357 144.973 32.3936 145.307 32.4546L146.318 32.6284L146.724 32.6992L147.538 32.8443L148.166 32.9615L148.584 33.0427L149.001 33.1267L149.416 33.2138L149.829 33.3046L150.24 33.3993C150.376 33.4316 150.512 33.4646 150.648 33.4985L151.053 33.6021L151.455 33.7108C154.582 34.5834 157.349 35.9533 158.902 38.6074C160.696 41.7253 160.676 45.055 160.006 47.7076L159.931 47.9893C159.894 48.1286 159.853 48.2661 159.811 48.4014L159.726 48.669C159.697 48.7572 159.668 48.8443 159.638 48.9305L159.545 49.1857L159.449 49.4344L159.35 49.6764L159.248 49.9114L159.145 50.1391C159.11 50.2138 159.075 50.2871 159.04 50.3593L158.933 50.5717L158.824 50.7763C158.806 50.8097 158.787 50.8427 158.769 50.8754L158.66 51.0675L158.549 51.251C158.531 51.2809 158.512 51.3104 158.493 51.3395L158.384 51.5096C158.365 51.5372 158.346 51.5644 158.328 51.5914C155.172 56.1973 149.962 57.8019 143.666 57.8019C138.872 57.8019 134.724 56.7808 131.072 53.8783C128.65 51.9524 126.255 47.7933 126.181 43.8108L126.178 43.6182H135.164C135.74 46.8061 137.024 49.1598 140.004 50.1108C141.019 50.4343 142.158 50.6119 143.311 50.6379L143.597 50.6413C147.104 50.6436 150.632 49.2392 150.982 46.2665C151.273 43.7847 150.241 42.7069 148.489 42.0601L148.296 41.9912C148.262 41.98 148.229 41.9689 148.196 41.958L147.994 41.8937L147.786 41.8322L147.573 41.773L147.356 41.7161L147.134 41.6609L146.906 41.6075L146.44 41.5041L145.834 41.379L144.931 41.2005L144.46 41.1133L142.339 40.7391L141.445 40.5747L140.98 40.4854L140.503 40.391L140.018 40.2911L139.525 40.1855C139.443 40.1674 139.359 40.149 139.276 40.1304L138.775 40.0154C138.607 39.9759 138.438 39.9355 138.269 39.8938L137.76 39.7653C135.214 39.1048 132.622 38.1721 130.785 36.7833C127.675 34.3896 126.061 29.8342 127.675 24.8238C129.215 20.3496 133.328 17.9443 137.06 16.9426L137.376 16.8613L137.687 16.7866C137.842 16.7508 137.997 16.7175 138.151 16.6867L138.455 16.6281C138.507 16.6188 138.557 16.6098 138.607 16.601L138.906 16.5518C138.956 16.5442 139.005 16.5366 139.055 16.5295ZM98.9824 16.3916C105.504 15.3663 111.914 17.7258 115.573 21.861C118.964 25.6906 122.105 32.9317 121.585 39.6227L121.567 39.8586H96.4444V32.6819H110.967C111.23 28.8755 107.897 24.2917 102.508 24.2917C96.5513 24.2917 93.1029 28.6837 93.1029 36.0995C93.1029 41.4551 94.2555 45.213 97.3657 47.49L97.5118 47.5917L97.6647 47.6944L97.827 47.7977L97.9948 47.9015L98.172 48.005C98.2018 48.0223 98.2315 48.0395 98.2626 48.0567L98.4493 48.1594C98.4804 48.1764 98.5129 48.1934 98.5454 48.2104L98.7415 48.3113L98.9445 48.4107C98.9783 48.4271 99.0135 48.4434 99.0486 48.4597L99.261 48.556C99.2962 48.5718 99.3327 48.5875 99.3693 48.6032L99.5898 48.6955C99.6263 48.7106 99.6642 48.7255 99.7021 48.7404L99.9307 48.8279C100.047 48.8707 100.165 48.9122 100.284 48.9521L100.526 49.0296L100.772 49.1025C100.855 49.1261 100.939 49.1487 101.022 49.1705L101.277 49.233C103.414 49.7308 105.956 49.6289 108.314 47.9464C110.105 46.6208 110.918 44.8633 111.278 43.5103L111.311 43.3885H121.567C121.337 46.5806 118.225 51.7039 115.114 53.985C109.583 57.9714 102.321 58.7677 96.5621 56.6055C84.3555 52.0931 82.2005 40.6442 83.1637 33.6901L83.211 33.3674L83.2503 33.1271L83.2963 32.8694L83.349 32.595C83.3585 32.548 83.368 32.5003 83.3774 32.4519L83.4397 32.1544C83.4627 32.0528 83.4857 31.9488 83.5114 31.8424L83.5885 31.5168C83.6169 31.406 83.6453 31.2932 83.6751 31.1783L83.7698 30.828C85.1266 25.9605 88.947 17.9689 98.9824 16.3916ZM183.112 16.1324H183.878L184.645 16.1389L185.133 16.1466L185.604 16.1572L186.059 16.1712C186.208 16.1765 186.354 16.1823 186.498 16.1888L186.923 16.2103C186.992 16.2143 187.061 16.2183 187.13 16.2227L187.535 16.2504C187.667 16.2604 187.798 16.2712 187.927 16.2827L188.308 16.3199L188.679 16.3621C190.633 16.6016 192.184 17.0698 193.973 17.9508C197.563 19.72 199.438 22.9809 199.855 25.1309C199.929 25.5204 200 25.9354 200.063 26.3669L200.124 26.8034L200.182 27.2489L200.238 27.7013L200.288 28.1585L200.335 28.6185L200.4 29.3094L200.457 29.995L200.506 30.6687L200.56 31.5364L200.583 31.9526L200.603 32.3544L200.633 33.1061L200.648 33.6167L200.654 33.9281L200.658 34.2137L200.66 34.4715V46.901L200.648 48.4521V48.9972L200.652 49.3764L200.66 49.7665C200.661 49.8323 200.663 49.8986 200.665 49.9651L200.679 50.3688C200.681 50.4367 200.684 50.505 200.688 50.5735L200.71 50.9874L200.738 51.4064C200.868 53.0902 201.167 54.8578 201.841 56.2819L201.927 56.4582H192.248C192 56.1519 191.72 55.3887 191.496 54.6585L191.409 54.3694L191.331 54.0907L191.259 53.8295L191.198 53.5927L191.128 53.2986L191.097 53.1535C188.662 55.3553 184.285 57.5968 179.079 57.5968C174.997 57.5968 171.935 56.6837 169.051 54.5193C166.084 52.22 164.959 49.092 164.743 46.4813L164.725 46.1986C164.691 45.6375 164.7 45.1034 164.741 44.6103L164.764 44.3672L164.792 44.1313L164.825 43.9031C164.849 43.7534 164.875 43.6092 164.904 43.4708C166.146 38.1197 170.428 35.5254 174.622 34.3134L174.948 34.2217L175.274 34.1355L175.599 34.0546L175.922 33.9788C175.976 33.9667 176.03 33.9546 176.083 33.9429L176.405 33.8745L176.723 33.8111L177.039 33.7522L177.352 33.6979L177.663 33.6479L177.969 33.6022L178.413 33.5423L178.843 33.4891L180.051 33.3531L180.998 33.2499L181.803 33.1579L182.29 33.0986L182.777 33.0351L183.262 32.9666L183.584 32.9178L183.906 32.8664L184.224 32.8119L184.541 32.7541C184.592 32.7441 184.645 32.7341 184.698 32.724L185.008 32.6608L185.315 32.5939C185.366 32.5824 185.416 32.5708 185.466 32.559L185.767 32.4859C186.014 32.4232 186.256 32.356 186.492 32.2835L186.772 32.1939C188.518 31.6106 189.844 30.7124 190.175 29.2319C190.787 26.4946 188.927 24.5643 186.191 23.7843L185.948 23.7184C185.129 23.509 184.238 23.4 183.315 23.4C179.127 23.4 176.372 25.6776 176.306 29.5425L176.305 29.6863H167.088C167.437 18.8735 175.52 16.1852 183.112 16.1324ZM190.749 36.6363C189.64 37.6936 187.941 38.2409 186.068 38.6507L185.649 38.7396L185.225 38.8249L184.798 38.9075L184.368 38.9884L183.346 39.1775L182.765 39.2875L182.421 39.355L182.08 39.4244L181.74 39.4964L181.404 39.5713L181.071 39.6498C181.015 39.6632 180.96 39.6767 180.906 39.6904L180.578 39.7749C178.522 40.3239 176.749 41.1503 175.853 42.7866C173.414 47.2465 177.269 50.71 182.913 49.9769C187.191 49.4213 189.45 47.6748 190.286 45.2954C190.419 44.9186 190.515 44.3414 190.585 43.6589L190.616 43.3368C190.622 43.282 190.626 43.2267 190.63 43.1708L190.656 42.8303L190.677 42.4799L190.696 42.1219L190.712 41.7584L190.733 41.2073L190.746 40.6552L190.758 39.9301L190.764 39.2327V38.4252L190.749 36.6363ZM17.7597 32.1812C15.475 32.1812 13.623 34.0121 13.623 36.2704C13.623 38.5284 15.475 40.3592 17.7597 40.3592C20.0442 40.3592 21.8964 38.5284 21.8964 36.2704C21.8964 34.0121 20.0442 32.1812 17.7597 32.1812Z"
      fill="white"
    />
  </mask>
  <g mask="url(#mask0_157_140)">
    <path
      d="M1.47701 27.0368C6.40361 7.85038 26.1287 -3.75759 45.5374 1.10854C61.9811 5.23319 72.9227 19.8566 72.8889 35.8957C72.8754 45.5745 66.4373 51.4865 57.7846 51.4865C51.8118 51.4865 45.6037 48.8007 43.5731 42.0425C41.5425 35.2843 44.1426 27.5979 47.9332 25.4433C50.9744 23.7144 55.6525 23.6735 58.9155 27.2223C59.9234 28.3182 60.4456 29.4372 60.7121 30.3746L60.7662 30.5727C60.7743 30.6051 60.7824 30.6375 60.7892 30.6694L60.8325 30.8583C60.8393 30.8891 60.8447 30.9198 60.8514 30.9501L60.8839 31.1288L60.911 31.3001L60.9326 31.4635L60.9488 31.6188L60.961 31.7653L60.9705 31.9028L60.9745 32.0305L60.9772 32.2032L60.9759 32.3518L60.9637 32.5705L60.9515 32.682H46.249V39.8588H71.5835L71.5943 39.668L71.6078 39.3125L71.6119 39.123L71.6146 38.9079V38.5394L71.6105 38.2646L71.6037 37.9674L71.5929 37.6491L71.5767 37.3103C71.574 37.2523 71.5699 37.1933 71.5672 37.1336L71.5429 36.7662L71.5131 36.3808C71.5023 36.2494 71.4901 36.1152 71.4766 35.9785L71.4319 35.56L71.3805 35.1264C70.8015 30.5721 68.8764 23.7541 62.7495 19.4094C52.8697 12.4041 38.6339 17.2842 34.57 27.7388C30.4992 38.194 33.5203 53.1286 49.8516 58.7021C55.2642 60.5482 60.1453 60.2679 64.2552 59.068C55.5754 69.1461 41.5614 74.065 27.7058 70.5912C8.29541 65.7238 -3.44568 46.2229 1.47701 27.0368ZM139.055 16.5295L139.202 16.5088C145.359 15.5968 150.566 17.2273 153.764 19.3118L154.016 19.4795C154.181 19.5919 154.339 19.7054 154.492 19.8198L154.718 19.9918C154.902 20.1357 155.076 20.2806 155.24 20.4259L155.433 20.6003C155.559 20.7168 155.678 20.8332 155.79 20.9496C157.824 23.0705 159.194 26.3953 159.139 29.6358L159.133 29.8342H150.606L150.592 29.6036L150.575 29.414L150.554 29.2115L150.535 29.0698L150.512 28.9234L150.487 28.7725L150.458 28.6173L150.425 28.4585L150.387 28.2963L150.347 28.1311L150.301 27.9632L150.249 27.793L150.192 27.6209L150.132 27.4472L150.065 27.2723L149.992 27.0966L149.914 26.9203L149.829 26.744C148.991 25.0695 147.281 23.4288 143.807 23.2264C137.277 22.8457 134.784 26.9207 136.78 29.7211C137.484 30.7085 138.96 31.2571 140.655 31.6391L140.986 31.7111L141.322 31.7794L141.661 31.8443L142.002 31.9064L142.519 31.9952L143.036 32.0801L144.278 32.2787C144.628 32.3357 144.973 32.3936 145.307 32.4546L146.318 32.6284L146.724 32.6992L147.538 32.8443L148.166 32.9615L148.584 33.0427L149.001 33.1267L149.416 33.2138L149.829 33.3046L150.24 33.3993C150.376 33.4316 150.512 33.4646 150.648 33.4985L151.053 33.6021L151.455 33.7108C154.582 34.5834 157.349 35.9533 158.902 38.6074C160.696 41.7253 160.676 45.055 160.006 47.7076L159.931 47.9893C159.894 48.1286 159.853 48.2661 159.811 48.4014L159.726 48.669C159.697 48.7572 159.668 48.8443 159.638 48.9305L159.545 49.1857L159.449 49.4344L159.35 49.6764L159.248 49.9114L159.145 50.1391C159.11 50.2138 159.075 50.2871 159.04 50.3593L158.933 50.5717L158.824 50.7763C158.806 50.8097 158.787 50.8427 158.769 50.8754L158.66 51.0675L158.549 51.251C158.531 51.2809 158.512 51.3104 158.493 51.3395L158.384 51.5096C158.365 51.5372 158.346 51.5644 158.328 51.5914C155.172 56.1973 149.962 57.8019 143.666 57.8019C138.872 57.8019 134.724 56.7808 131.072 53.8783C128.65 51.9524 126.255 47.7933 126.181 43.8108L126.178 43.6182H135.164C135.74 46.8061 137.024 49.1598 140.004 50.1108C141.019 50.4343 142.158 50.6119 143.311 50.6379L143.597 50.6413C147.104 50.6436 150.632 49.2392 150.982 46.2665C151.273 43.7847 150.241 42.7069 148.489 42.0601L148.296 41.9912C148.262 41.98 148.229 41.9689 148.196 41.958L147.994 41.8937L147.786 41.8322L147.573 41.773L147.356 41.7161L147.134 41.6609L146.906 41.6075L146.44 41.5041L145.834 41.379L144.931 41.2005L144.46 41.1133L142.339 40.7391L141.445 40.5747L140.98 40.4854L140.503 40.391L140.018 40.2911L139.525 40.1855C139.443 40.1674 139.359 40.149 139.276 40.1304L138.775 40.0154C138.607 39.9759 138.438 39.9355 138.269 39.8938L137.76 39.7653C135.214 39.1048 132.622 38.1721 130.785 36.7833C127.675 34.3896 126.061 29.8342 127.675 24.8238C129.215 20.3496 133.328 17.9443 137.06 16.9426L137.376 16.8613L137.687 16.7866C137.842 16.7508 137.997 16.7175 138.151 16.6867L138.455 16.6281C138.507 16.6188 138.557 16.6098 138.607 16.601L138.906 16.5518C138.956 16.5442 139.005 16.5366 139.055 16.5295ZM98.9824 16.3916C105.504 15.3663 111.914 17.7258 115.573 21.861C118.964 25.6906 122.105 32.9317 121.585 39.6227L121.567 39.8586H96.4444V32.6819H110.967C111.23 28.8755 107.897 24.2917 102.508 24.2917C96.5513 24.2917 93.1029 28.6837 93.1029 36.0995C93.1029 41.4551 94.2555 45.213 97.3657 47.49L97.5118 47.5917L97.6647 47.6944L97.827 47.7977L97.9948 47.9015L98.172 48.005C98.2018 48.0223 98.2315 48.0395 98.2626 48.0567L98.4493 48.1594C98.4804 48.1764 98.5129 48.1934 98.5454 48.2104L98.7415 48.3113L98.9445 48.4107C98.9783 48.4271 99.0135 48.4434 99.0486 48.4597L99.261 48.556C99.2962 48.5718 99.3327 48.5875 99.3693 48.6032L99.5898 48.6955C99.6263 48.7106 99.6642 48.7255 99.7021 48.7404L99.9307 48.8279C100.047 48.8707 100.165 48.9122 100.284 48.9521L100.526 49.0296L100.772 49.1025C100.855 49.1261 100.939 49.1487 101.022 49.1705L101.277 49.233C103.414 49.7308 105.956 49.6289 108.314 47.9464C110.105 46.6208 110.918 44.8633 111.278 43.5103L111.311 43.3885H121.567C121.337 46.5806 118.225 51.7039 115.114 53.985C109.583 57.9714 102.321 58.7677 96.5621 56.6055C84.3555 52.0931 82.2005 40.6442 83.1637 33.6901L83.211 33.3674L83.2503 33.1271L83.2963 32.8694L83.349 32.595C83.3585 32.548 83.368 32.5003 83.3774 32.4519L83.4397 32.1544C83.4627 32.0528 83.4857 31.9488 83.5114 31.8424L83.5885 31.5168C83.6169 31.406 83.6453 31.2932 83.6751 31.1783L83.7698 30.828C85.1266 25.9605 88.947 17.9689 98.9824 16.3916ZM183.112 16.1324H183.878L184.645 16.1389L185.133 16.1466L185.604 16.1572L186.059 16.1712C186.208 16.1765 186.354 16.1823 186.498 16.1888L186.923 16.2103C186.992 16.2143 187.061 16.2183 187.13 16.2227L187.535 16.2504C187.667 16.2604 187.798 16.2712 187.927 16.2827L188.308 16.3199L188.679 16.3621C190.633 16.6016 192.184 17.0698 193.973 17.9508C197.563 19.72 199.438 22.9809 199.855 25.1309C199.929 25.5204 200 25.9354 200.063 26.3669L200.124 26.8034L200.182 27.2489L200.238 27.7013L200.288 28.1585L200.335 28.6185L200.4 29.3094L200.457 29.995L200.506 30.6687L200.56 31.5364L200.583 31.9526L200.603 32.3544L200.633 33.1061L200.648 33.6167L200.654 33.9281L200.658 34.2137L200.66 34.4715V46.901L200.648 48.4521V48.9972L200.652 49.3764L200.66 49.7665C200.661 49.8323 200.663 49.8986 200.665 49.9651L200.679 50.3688C200.681 50.4367 200.684 50.505 200.688 50.5735L200.71 50.9874L200.738 51.4064C200.868 53.0902 201.167 54.8578 201.841 56.2819L201.927 56.4582H192.248C192 56.1519 191.72 55.3887 191.496 54.6585L191.409 54.3694L191.331 54.0907L191.259 53.8295L191.198 53.5927L191.128 53.2986L191.097 53.1535C188.662 55.3553 184.285 57.5968 179.079 57.5968C174.997 57.5968 171.935 56.6837 169.051 54.5193C166.084 52.22 164.959 49.092 164.743 46.4813L164.725 46.1986C164.691 45.6375 164.7 45.1034 164.741 44.6103L164.764 44.3672L164.792 44.1313L164.825 43.9031C164.849 43.7534 164.875 43.6092 164.904 43.4708C166.146 38.1197 170.428 35.5254 174.622 34.3134L174.948 34.2217L175.274 34.1355L175.599 34.0546L175.922 33.9788C175.976 33.9667 176.03 33.9546 176.083 33.9429L176.405 33.8745L176.723 33.8111L177.039 33.7522L177.352 33.6979L177.663 33.6479L177.969 33.6022L178.413 33.5423L178.843 33.4891L180.051 33.3531L180.998 33.2499L181.803 33.1579L182.29 33.0986L182.777 33.0351L183.262 32.9666L183.584 32.9178L183.906 32.8664L184.224 32.8119L184.541 32.7541C184.592 32.7441 184.645 32.7341 184.698 32.724L185.008 32.6608L185.315 32.5939C185.366 32.5824 185.416 32.5708 185.466 32.559L185.767 32.4859C186.014 32.4232 186.256 32.356 186.492 32.2835L186.772 32.1939C188.518 31.6106 189.844 30.7124 190.175 29.2319C190.787 26.4946 188.927 24.5643 186.191 23.7843L185.948 23.7184C185.129 23.509 184.238 23.4 183.315 23.4C179.127 23.4 176.372 25.6776 176.306 29.5425L176.305 29.6863H167.088C167.437 18.8735 175.52 16.1852 183.112 16.1324ZM190.749 36.6363C189.64 37.6936 187.941 38.2409 186.068 38.6507L185.649 38.7396L185.225 38.8249L184.798 38.9075L184.368 38.9884L183.346 39.1775L182.765 39.2875L182.421 39.355L182.08 39.4244L181.74 39.4964L181.404 39.5713L181.071 39.6498C181.015 39.6632 180.96 39.6767 180.906 39.6904L180.578 39.7749C178.522 40.3239 176.749 41.1503 175.853 42.7866C173.414 47.2465 177.269 50.71 182.913 49.9769C187.191 49.4213 189.45 47.6748 190.286 45.2954C190.419 44.9186 190.515 44.3414 190.585 43.6589L190.616 43.3368C190.622 43.282 190.626 43.2267 190.63 43.1708L190.656 42.8303L190.677 42.4799L190.696 42.1219L190.712 41.7584L190.733 41.2073L190.746 40.6552L190.758 39.9301L190.764 39.2327V38.4252L190.749 36.6363ZM17.7597 32.1812C15.475 32.1812 13.623 34.0121 13.623 36.2704C13.623 38.5284 15.475 40.3592 17.7597 40.3592C20.0442 40.3592 21.8964 38.5284 21.8964 36.2704C21.8964 34.0121 20.0442 32.1812 17.7597 32.1812Z"
      fill="black"
    />
  </g>
</svg>
