<svg
  width="202"
  height="78"
  viewBox="0 0 202 78"
  fill="none"
  xmlns="http://www.w3.org/2000/svg"
>
  <title>Logo GMV</title>
  <path
    fill-rule="evenodd"
    clip-rule="evenodd"
    d="M109.203 0.600551C123.678 0.600551 132.115 13.1383 139.932 26.2194C142.179 30.0128 146.049 37.4441 148.602 37.4441C152.24 37.4441 169.811 8.95907 173.061 5.70704C179.254 -0.407308 187.613 1.29549 191.097 4.15974C187.071 7.48855 151.698 55.8658 149.763 57.8777C147.441 60.2006 145.041 57.8777 145.041 57.8777C138.462 50.4483 132.115 29.5482 126.31 29.5482C119.343 29.5482 117.485 59.0391 117.485 59.0391H115.782C108.042 59.0391 105.489 54.7812 106.959 48.6668L112.223 26.6072C114.467 17.1621 111.217 13.1383 104.947 13.1383C99.2188 13.1383 94.3426 17.164 92.4843 24.9831L84.4349 59.0391H80.6415C74.4504 59.0391 71.1196 55.478 72.7476 48.6668L78.0096 26.6072C80.2556 17.1621 76.8481 13.1383 70.5802 13.1383C65.084 13.1383 59.8969 17.5499 58.0405 25.367C58.0405 25.367 52.2352 49.905 48.3651 59.1159C44.4949 68.25 31.7997 77.5377 17.2481 77.5377C7.26358 77.5377 -1.25043 71.8111 0.373659 64.9999L2.07646 57.9545C2.07646 57.9545 9.04509 64.6889 19.26 64.6889C37.0636 64.6889 38.8432 44.3321 38.8432 44.3321C36.7545 48.5113 30.3292 51.8401 22.1242 51.8401C8.26951 51.8401 1.69059 39.9186 3.85796 29.7037C7.34036 13.5261 19.6478 -0.871884 37.9908 0.907708C48.3651 1.91557 50.3001 7.41177 51.2293 13.1383C54.2471 5.16568 62.9934 0.598633 72.283 0.598633C82.2656 0.598633 86.681 4.00424 90.626 9.50043C95.195 4.23653 102.315 0.598633 109.203 0.598633V0.600551ZM35.6641 13.2938H35.284C27.9314 13.2938 20.9628 19.4082 18.9509 27.999C17.1713 35.4303 20.4214 40.9265 27.2326 40.9265C34.3548 40.9265 40.7015 35.6625 42.8689 26.5285C45.0362 17.6286 41.5538 13.217 35.284 13.2938H35.6641ZM197.288 1.52779C199.302 1.52779 201.005 3.23058 201.005 5.24438C201.005 7.25626 199.302 8.95907 197.288 8.95907C195.276 8.95907 193.574 7.25626 193.574 5.24438C193.574 3.23058 195.276 1.52779 197.288 1.52779ZM197.288 2.14786C195.585 2.14786 194.194 3.54158 194.194 5.24438C194.27 6.94718 195.585 8.339 197.288 8.339C198.991 8.339 200.385 6.94718 200.385 5.24438C200.385 3.54158 198.991 2.14786 197.288 2.14786ZM197.521 3.07701C198.528 3.07701 198.991 3.54159 198.991 4.39203C198.991 5.16568 198.528 5.47668 197.985 5.55346L199.07 7.33305H198.217L197.135 5.63025H196.593V7.33305H195.818V3.07701H197.521ZM197.213 3.69516H196.67V4.93339H197.212C197.676 4.93339 198.217 4.93339 198.217 4.31524C198.217 3.77195 197.676 3.69516 197.212 3.69516H197.213Z"
    fill="black"
  />
</svg>
