<svg
  width="71"
  height="30"
  viewBox="0 0 71 30"
  fill="none"
  xmlns="http://www.w3.org/2000/svg"
>
  <title>Logo Grupo SM</title>
  <path
    fill-rule="evenodd"
    clip-rule="evenodd"
    d="M1.19585 6.61766L6.61759 1.19582V1.1842C7.36078 0.452803 8.38232 0 9.50845 0H28.34C29.2456 0 29.9885 0.743051 29.9885 1.64862V20.4683C29.9885 21.606 29.5358 22.6277 28.7926 23.3708L27.3414 24.822C27.3876 24.7757 27.4312 24.728 27.4721 24.6785C27.4253 24.7336 27.3777 24.7855 27.3295 24.8335L23.3587 28.8041C22.6158 29.5355 21.594 29.9999 20.4679 29.9999H4.59153L4.57424 30H1.64852C0.742909 30 0 29.257 0 28.3514V9.52014C0 8.38236 0.452662 7.36068 1.19585 6.61766ZM11.4126 23.9675V5.99072L20.3766 14.9546L11.4126 23.9675Z"
    fill="black"
  />
  <path
    d="M44.1091 14.8483C46.2167 15.4616 48.8309 16.2222 48.8309 19.0635L48.8193 19.0402C48.8193 22.0937 46.0329 23.0457 42.9215 23.0457C40.9478 23.0457 39.0786 22.6161 37.7551 21.8266V18.7152C39.1599 19.6324 41.1452 20.0968 42.7125 20.0968C44.0941 20.0968 44.988 19.8529 44.988 19.1215C44.988 18.2892 43.811 17.9373 42.3997 17.5155C40.2875 16.8841 37.6506 16.0959 37.6506 13.305C37.6506 10.298 40.3209 9.29954 43.0608 9.29954C44.9068 9.29954 46.5322 9.76393 47.8557 10.4141V13.5023C46.7411 12.7477 44.8487 12.1788 43.3046 12.1788C42.4687 12.1788 41.4935 12.4226 41.4935 13.2121C41.4935 14.0872 42.6858 14.4342 44.1091 14.8483Z"
    fill="black"
  />
  <path d="M70.7736 22.6509V22.6625L70.7853 22.6509H70.7736Z" fill="black" />
  <path
    d="M70.7736 22.6509V14.4311C70.7736 12.1324 69.5778 9.28793 65.9323 9.28793C64.1444 9.28793 62.6815 10.1587 61.6018 11.2152C60.8472 10.1006 59.5701 9.28793 57.6196 9.28793C55.6692 9.28793 54.1483 10.3676 53.4749 11.1803V9.65944H50.1428V22.6509H53.9044V14.0944C54.5314 13.2817 55.5531 12.5271 56.6908 12.5271C57.8286 12.5271 58.7226 13.3166 58.7226 14.6633V22.6509H62.461V13.8042C63.0879 13.1076 63.9935 12.5271 65.0151 12.5271C66.211 12.5271 67.0469 13.3166 67.0469 14.6633V22.6509H70.7736Z"
    fill="black"
  />
</svg>
