<svg
  width="241"
  height="86"
  viewBox="0 0 241 86"
  fill="none"
  xmlns="http://www.w3.org/2000/svg"
  role="img"
>
  <title>Logo Hugo Boss</title>
  <path
    fill-rule="evenodd"
    clip-rule="evenodd"
    d="M69.984 70.3198C71.6196 70.3198 73.0114 70.7863 74.1594 71.7212C75.3055 72.6561 75.8795 73.808 75.8795 75.1806H73.0383C72.9615 74.5355 72.6294 73.9826 72.042 73.5219C71.4565 73.0612 70.7961 72.8327 70.0627 72.8327C68.8744 72.8327 67.9414 73.2935 67.258 74.2149C66.5746 75.1326 66.2348 76.39 66.2348 77.9834C66.2348 79.5768 66.5631 80.8054 67.2196 81.6693C67.8762 82.5351 68.813 82.967 70.0224 82.967C70.9113 82.967 71.6523 82.6944 72.2455 82.1454C72.8406 81.5944 73.2303 80.8131 73.4242 79.7975H70.295V77.3441H75.9582V85.1305H74.0615L73.7544 83.3394C73.1593 84.1208 72.545 84.6832 71.9076 85.0173C71.2703 85.3532 70.4985 85.5241 69.5982 85.5241C67.7168 85.5241 66.2022 84.8368 65.0561 83.4623C63.9081 82.0897 63.3341 80.2774 63.3341 78.0256C63.3341 75.6758 63.9311 73.8041 65.1214 72.4104C66.3154 71.0167 67.9357 70.3198 69.984 70.3198ZM230.685 70.3198C232.309 70.3198 233.607 70.7421 234.58 71.5868C235.551 72.4315 236.039 73.568 236.039 74.9963H233.294C233.14 73.5411 232.244 72.8135 230.606 72.8135C229.873 72.8135 229.285 72.971 228.848 73.2858C228.41 73.6025 228.191 74.0268 228.191 74.5643C228.191 74.9195 228.293 75.2209 228.5 75.4685C228.706 75.7181 228.995 75.8889 229.37 75.9869L233.351 77.0158C234.19 77.2347 234.893 77.6052 235.459 78.1273C236.129 78.7455 236.463 79.6247 236.463 80.7651C236.463 82.2625 235.987 83.4277 235.033 84.2666C234.079 85.1037 232.739 85.5241 231.013 85.5241C229.197 85.5241 227.799 85.1113 226.817 84.2878C225.839 83.4623 225.348 82.2625 225.348 80.6806H228.074C228.074 81.4504 228.32 82.0359 228.809 82.4333C229.299 82.8326 230.001 83.0303 230.917 83.0303C232.812 83.0303 233.758 82.4122 233.758 81.1759C233.758 80.8591 233.639 80.5654 233.401 80.289C233.161 80.0164 232.856 79.8244 232.482 79.7131L228.692 78.7052C226.605 78.1677 225.563 76.9045 225.563 74.9137C225.563 73.4739 226.012 72.3451 226.916 71.535C227.819 70.7249 229.074 70.3198 230.685 70.3198ZM202.576 70.3198C204.2 70.3198 205.498 70.7421 206.473 71.5868C207.443 72.4315 207.932 73.568 207.932 74.9963H205.187C205.031 73.5411 204.135 72.8135 202.499 72.8135C201.764 72.8135 201.179 72.971 200.741 73.2858C200.303 73.6025 200.082 74.0268 200.082 74.5643C200.082 74.9195 200.186 75.2209 200.391 75.4685C200.597 75.7181 200.889 75.8889 201.261 75.9869L205.245 77.0158C206.082 77.2347 206.784 77.6052 207.35 78.1273C208.02 78.7455 208.356 79.6247 208.356 80.7651C208.356 82.2625 207.878 83.4277 206.924 84.2666C205.972 85.1037 204.632 85.5241 202.904 85.5241C201.088 85.5241 199.691 85.1113 198.708 84.2878C197.731 83.4623 197.241 82.2625 197.241 80.6806H199.967C199.967 81.4504 200.211 82.0359 200.702 82.4333C201.19 82.8326 201.893 83.0303 202.808 83.0303C204.703 83.0303 205.65 82.4122 205.65 81.1759C205.65 80.8591 205.531 80.5654 205.293 80.289C205.054 80.0164 204.745 79.8244 204.373 79.7131L200.585 78.7052C198.497 78.1677 197.452 76.9045 197.452 74.9137C197.452 73.4739 197.905 72.3451 198.808 71.535C199.71 70.7249 200.965 70.3198 202.576 70.3198ZM38.0858 70.7114V80.4771C38.0858 81.2047 38.3257 81.8017 38.8018 82.2682C39.2779 82.7347 39.8961 82.967 40.6582 82.967C41.3781 82.967 41.9847 82.7558 42.4743 82.3316C42.9657 81.9054 43.2095 81.3679 43.2095 80.7228V70.7114H46.1467V80.6403C46.1467 82.1108 45.6514 83.2914 44.6589 84.1841C43.6664 85.0768 42.3456 85.5241 40.6966 85.5241C38.9957 85.5241 37.6519 85.0806 36.6652 84.1937C35.6803 83.3087 35.187 82.1108 35.187 80.6V70.7114H38.0858ZM173.6 70.3198C174.963 70.3198 176.195 70.6845 177.289 71.414C179.184 72.6887 180.131 74.8523 180.131 77.8989C180.131 80.264 179.551 82.1242 178.391 83.4834C177.232 84.8426 175.64 85.5241 173.617 85.5241C172.381 85.5241 171.281 85.2438 170.321 84.689C169.361 84.1323 168.61 83.3452 168.071 82.3316C167.426 81.2181 167.103 79.7419 167.103 77.8989C167.103 74.8657 168.038 72.7156 169.906 71.4524C171.039 70.6961 172.269 70.3198 173.598 70.3198H173.6ZM99.2311 70.3198C100.6 70.3198 101.83 70.6845 102.927 71.414C104.819 72.6887 105.766 74.8523 105.766 77.8989C105.766 80.264 105.186 82.1242 104.027 83.4834C102.867 84.8426 101.276 85.5241 99.2523 85.5241C98.014 85.5241 96.9179 85.2438 95.9561 84.689C94.9962 84.1323 94.2475 83.3452 93.7042 82.3316C93.0592 81.2181 92.7386 79.7419 92.7386 77.8989C92.7386 74.8657 93.6716 72.7156 95.5414 71.4524C96.6741 70.6961 97.9027 70.3198 99.2311 70.3198ZM146.341 70.7114C146.624 70.7114 146.952 70.7652 147.324 70.8765C147.701 70.9859 148.061 71.1299 148.407 71.3085C148.937 71.6118 149.344 72.038 149.624 72.587C149.91 73.136 150.05 73.7734 150.05 74.5029C150.05 75.2151 149.926 75.7891 149.674 76.2211C149.424 76.6549 148.994 77.0369 148.388 77.3652C149.793 77.9834 150.496 79.1026 150.496 80.7248C150.496 81.5195 150.321 82.2586 149.975 82.9382C149.624 83.6178 149.15 84.1361 148.543 84.4932C147.833 84.9174 146.869 85.1305 145.645 85.1305H139.304V70.7114H146.339H146.341ZM9.33968 70.7114V76.1712H14.5806V70.7114H17.441V85.1305H14.5806V78.6841H9.33968V85.1305H6.49848V70.7114H9.33968ZM173.559 72.8942H173.423C172.34 72.8942 171.49 73.3491 170.872 74.2552C170.254 75.1614 169.945 76.3689 169.945 77.8797C169.945 79.4616 170.273 80.7017 170.931 81.6097C171.588 82.5159 172.482 82.967 173.617 82.967C174.763 82.967 175.66 82.5216 176.305 81.629C176.948 80.7382 177.27 79.4923 177.27 77.8989C177.27 76.3074 176.948 75.0769 176.303 74.2034C175.66 73.3299 174.746 72.8942 173.559 72.8942ZM99.1947 72.8942H99.0603C97.9757 72.8942 97.1271 73.3491 96.5071 74.2552C95.887 75.1614 95.5798 76.3689 95.5798 77.8797C95.5798 79.4616 95.9081 80.7017 96.5647 81.6097C97.2231 82.5159 98.1196 82.967 99.2523 82.967C100.4 82.967 101.295 82.5216 101.94 81.629C102.583 80.7382 102.906 79.4923 102.906 77.8989C102.906 76.3074 102.583 75.0769 101.938 74.2034C101.295 73.3299 100.381 72.8942 99.1928 72.8942H99.1947ZM145.819 78.7858H142.049V82.6387H145.683C146.261 82.6387 146.739 82.4544 147.111 82.082C147.487 81.7134 147.674 81.2373 147.674 80.6614C147.674 80.0989 147.505 79.6439 147.171 79.3022C146.837 78.9567 146.384 78.7839 145.819 78.7839V78.7858ZM145.527 73.2243H142.049V76.3343H145.76C146.186 76.3343 146.553 76.1788 146.862 75.8621C147.171 75.5453 147.324 75.169 147.324 74.7294C147.324 73.7254 146.725 73.2243 145.527 73.2243ZM211.695 0C217.665 0 223.048 1.50123 227.84 4.50369C236.123 9.77336 240.264 18.6963 240.264 31.2744C240.264 41.017 237.728 48.6959 232.656 54.3054C227.584 59.9149 220.625 62.7177 211.779 62.7177C206.368 62.7177 201.566 61.5697 197.366 59.2756C193.167 56.9796 189.885 53.7371 187.52 49.5445C184.701 44.9563 183.292 38.865 183.292 31.2744C183.292 18.7519 187.378 9.8847 195.55 4.67263C200.507 1.55882 205.89 0 211.695 0ZM147.537 0C154.694 0 160.778 1.92741 165.794 5.77839C170.81 9.63129 173.319 14.3903 173.319 20.0554H160.893C160.555 17.3928 159.104 15.1121 156.539 13.2135C153.974 11.3168 151.087 10.3685 147.875 10.3685C142.692 10.3685 138.603 12.2652 135.618 16.0624C132.633 19.8558 131.139 25.0429 131.139 31.6122C131.139 38.1854 132.575 43.2554 135.449 46.8261C138.323 50.3968 142.41 52.1783 147.706 52.1783C151.594 52.1783 154.834 51.0457 157.426 48.7804C160.018 46.5151 161.738 43.2842 162.584 39.0934H148.889V28.9803H173.655V61.1032H165.372L164.02 53.7084C161.429 56.9393 158.737 59.2468 155.948 60.6367C153.158 62.0246 149.791 62.7177 145.846 62.7177C137.618 62.7177 130.997 59.886 125.981 54.219C120.966 48.5558 118.459 41.0746 118.459 31.7831C118.459 22.0942 121.066 14.375 126.278 8.62536C131.49 2.87384 138.576 0 147.537 0ZM73.4895 1.61641V41.8962C73.4895 44.8987 74.5319 47.3636 76.6186 49.2911C78.7035 51.2165 81.4064 52.1783 84.7314 52.1783C87.8894 52.1783 90.5367 51.3029 92.6791 49.5445C94.8196 47.7879 95.8889 45.5802 95.8889 42.9156V1.61641H108.74V42.5758C108.74 48.6403 106.57 53.5106 102.228 57.1946C97.8912 60.8766 92.1147 62.7177 84.9023 62.7177C77.4633 62.7177 71.587 60.8901 67.2791 57.2368C62.9655 53.5836 60.8096 48.6403 60.8096 42.4069V1.61641H73.4895ZM13.2214 1.61641V24.1349H36.1295V1.61641H48.6385V61.1032H36.1295V34.5033H13.2214V61.1032H0.796875V1.61641H13.2214ZM211.526 10.6219H210.935C206.201 10.6219 202.48 12.4917 199.775 16.2313C197.068 19.971 195.719 24.9565 195.719 31.1899C195.719 37.7035 197.155 42.8331 200.029 46.5727C202.902 50.3085 206.819 52.1783 211.779 52.1783C216.792 52.1783 220.71 50.3373 223.528 46.6553C226.346 42.9732 227.753 37.8456 227.753 31.2744C227.753 24.7012 226.346 19.6158 223.526 16.0202C220.71 12.4226 216.709 10.6219 211.526 10.6219Z"
    fill="black"
  />
</svg>
