<svg
  width="274"
  height="31"
  viewBox="0 0 274 31"
  fill="none"
  xmlns="http://www.w3.org/2000/svg"
>
  <title>Logo Idealista</title>
  <path
    fill-rule="evenodd"
    clip-rule="evenodd"
    d="M5.62611 4.67703H10.3721V0.197266H5.62611V4.67703ZM94.7977 0.83757V0.197266H85.3045V4.67703H90.0505V30.913H94.7977V0.83757ZM61.9098 26.4332H66.6558V22.2748H61.9098V26.4332ZM80.5573 13.3152H76.149V8.83665H66.657V13.3152H76.149V17.7938H66.657V22.2736H76.149V26.4332H66.657V30.913H80.5573V13.3152ZM155.83 26.4332H160.576V22.2748H155.829V26.4332H155.83ZM174.476 13.3152H170.07V8.83665H160.576V13.3152H170.07V17.7938H160.576V22.2736H170.07V26.4332H160.576V30.913H174.476V13.3152ZM42.9222 13.3152H52.4154V9.1568H42.9235V13.3152H42.9222ZM57.1626 22.2736V13.3152H52.4154V17.7938H42.9235V13.3164H38.1763V26.4332H42.9235V30.913H52.4166V26.4332H42.9235V22.2736H57.1639H57.1626ZM0.878906 9.15562V13.3152H5.62611V30.913H10.3721V9.15562H0.878906ZM104.291 4.67703H109.038V0.197266H104.291V4.67703ZM146.673 26.4332V13.6354H151.081V9.15562H146.673V0.197266H141.927V9.15562H137.18V13.6354H141.927V26.4332H146.673V30.913H151.081V26.4332H146.673ZM118.194 13.3152H132.433V9.1568H118.194V13.3152ZM113.446 30.913H127.687V26.4332H113.446V30.913ZM127.687 22.2736V17.7938H118.194V13.3164H113.446V17.7938H118.194V22.2736H127.687V26.4332H132.433V22.2736H127.687ZM183.97 30.913H188.718V26.4332H183.97V30.913ZM254.495 8.83665H240.253V30.913H245V13.3152H254.492V30.913H259.239V13.3152H254.493V8.83665H254.495ZM268.735 13.3152V8.83665H259.241V13.3152H268.735V30.913H273.481V13.3152H268.735ZM221.605 13.3152H231.099V9.1568H221.605V13.3152ZM235.846 13.3152H231.099V26.4332H221.605V13.3152H216.858V26.4332H221.605V30.913H231.099V26.4332H235.846V13.3152ZM212.112 17.7938V13.3164H207.704V9.15562H198.211V13.3152H193.464V26.4332H198.211V30.913H207.704V26.4332H212.112V22.2736H207.704V26.4332H198.211V13.3152H207.704V17.7938H212.112ZM99.5449 9.15562V13.3152H104.291V30.913H109.039V9.15562H99.5449ZM19.5276 30.913H33.7667V0.197266H29.0208V9.15562H19.5276V13.3152H29.0208V26.4332H19.5276V13.3152H14.7792V26.7546H19.5264V30.913H19.5276Z"
    fill="black"
  />
</svg>
