<svg
  width="270"
  height="72"
  viewBox="0 0 270 72"
  fill="none"
  xmlns="http://www.w3.org/2000/svg"
  role="img"
>
  <title>Logo Indra</title>
  <path
    fill-rule="evenodd"
    clip-rule="evenodd"
    d="M140.847 31.8157V56.4785H125.733C116.958 56.4785 116.958 54.0117 116.958 44.1481C116.958 35.7608 116.958 31.8157 125.733 31.8157H140.847ZM158.155 71.0301V0H140.847V17.5118H125.733C104.282 17.5118 99.4059 24.9104 99.4059 44.1481C99.4059 62.3971 102.819 71.0301 125.977 71.0301H158.155ZM186.921 44.1481C186.921 34.776 186.921 31.8157 195.698 31.8157H201.06V17.5118H195.698C174.245 17.5118 169.371 20.9635 169.371 44.1481V71.0301H186.921V44.1481ZM252.253 31.8157V56.4785H237.139C228.364 56.4785 228.364 54.0117 228.364 44.1481C228.364 35.7608 228.364 31.8157 237.139 31.8157H252.253ZM269.561 71.0301V17.5118H237.139C215.688 17.5118 210.812 24.9104 210.812 44.1481C210.812 62.3971 214.225 71.0301 237.383 71.0301H269.561ZM31.2707 17.5118L31.3936 71.0301H48.7V31.8157H61.8655C70.6406 31.8157 70.6406 34.776 70.6406 44.1481V71.0301H88.1927V44.1481C88.1927 20.9635 83.3166 17.5118 61.8655 17.5118H31.2707ZM18.2281 17.5118H0.798828V71.0301H18.23V17.5118H18.2281Z"
    fill="black"
  />
</svg>
