<svg
  width="101"
  height="25"
  viewBox="0 0 101 25"
  fill="none"
  xmlns="http://www.w3.org/2000/svg"
>
  <title>Logo ING</title>
  <path
    d="M56.0113 18.1841V22.9743C53.3187 24.3237 50.789 25 48.2561 25C41.2398 25 37.0194 20.886 37.0194 15.6544C37.0194 10.0188 41.8472 5.36318 47.9775 5.36318C49.2958 5.3654 50.6042 5.59088 51.8472 6.03006C52.7113 6.30244 53.2436 6.60927 53.7821 6.60927C54.2549 6.60927 54.3864 5.82342 54.4552 5.35692H55.1252L55.7295 11.841H54.9186C54.6503 10.6698 54.0477 9.60175 53.1841 8.76644C52.5245 8.11891 51.7406 7.61169 50.8797 7.27539C50.0187 6.93908 49.0986 6.78064 48.1747 6.80964C43.9543 6.80964 41.4934 10.1503 41.4934 15.1816C41.4934 20.1409 44.4991 23.5128 48.5097 23.5128C49.7558 23.4943 50.9815 23.1935 52.0946 22.6331V17.7113C52.0946 16.1271 51.841 15.5197 49.5586 15.5197V14.7777H58.0338V15.5197C55.9299 15.5197 55.9956 16.1929 55.9956 18.1841M32.6706 10.288V24.665H31.556L17.1822 9.81528C17.2365 10.1936 17.2585 10.5759 17.248 10.958V20.0094C17.248 22.7708 17.248 23.7664 19.7777 23.7664V24.5085H13.0307V23.7946C15.5886 23.7946 15.5886 22.5798 15.5886 20.0376V9.7057C15.5886 8.1747 15.5886 6.49029 12.8961 6.49029V5.77333H19.2611L31.0833 17.9148C31.0244 17.5822 31.0023 17.2441 31.0175 16.9067V10.288C31.0175 7.62367 31.0833 6.4809 28.5473 6.4809V5.77333H35.2943V6.4809C32.7896 6.4809 32.6706 7.55792 32.6706 10.288ZM0 24.5241V23.7946C1.62179 23.7946 2.77082 23.66 2.77082 21.315V8.97307C2.77082 6.54352 1.89105 6.46838 0 6.46838V5.77333H9.50532V6.4809C7.55792 6.4809 6.74703 6.54352 6.74703 8.9856V21.2899C6.74703 23.6349 7.76143 23.7696 9.50532 23.7696V24.5116L0 24.5241Z"
    fill="black"
  />
  <path
    d="M74.6494 24.5241C74.3943 23.974 74.2557 23.3771 74.2423 22.7708C74.2096 22.3807 74.2798 21.9888 74.4458 21.6343L73.7038 21.7752C73.5035 22.0288 73.4346 22.1666 73.4346 22.2981L73.7727 22.1666C73.8416 22.1666 73.9073 22.2981 73.9731 22.4358C73.9073 22.7708 73.5034 22.7708 73.3657 22.9054C73.1653 23.5817 73.7727 23.9856 73.8416 24.5241H74.6494ZM100.564 15.8579C100.545 12.8394 99.3297 9.95159 97.1854 7.82718C96.2461 6.88792 95.2192 6.43081 94.4083 5.49781C94.0063 5.10834 93.6738 4.65302 93.4252 4.15153C93.1589 3.85011 92.8408 3.59881 92.4859 3.40952L92.6926 4.01691H92.6237C92.2764 3.98264 91.9482 3.84154 91.6844 3.61302L91.9505 3.34064C91.8817 3.2154 91.6844 3.2154 91.5435 3.2154C90.4634 3.03068 89.4772 3.61302 88.4127 3.8134V3.94803C89.0858 4.15153 89.211 4.96243 89.5867 5.36631H89.975C90.1096 5.36631 90.3131 5.49781 90.4477 5.49781C90.424 5.35803 90.3786 5.22282 90.3131 5.09706C90.3368 5.06592 90.3673 5.04067 90.4023 5.02329C90.4374 5.00591 90.4759 4.99686 90.515 4.99686C90.5541 4.99686 90.5927 5.00591 90.6278 5.02329C90.6628 5.04067 90.6933 5.06592 90.717 5.09706C91.0551 5.30056 91.5279 4.96243 91.866 5.49781C91.4709 5.45908 91.0729 5.53174 90.717 5.70758C90.717 5.77646 90.9236 5.89543 90.8547 6.02066C90.5197 5.88291 90.1096 6.02066 89.975 5.76393L89.9092 5.81403C90.3442 6.31043 90.9042 6.68124 91.531 6.88792C92.4108 7.02567 93.1528 6.62179 94.0044 6.82217C97.0507 8.30933 99.2142 11.7846 99.2142 15.2567C99.2142 20.2192 96.3776 22.176 94.6118 22.176C94.2302 22.1521 93.8642 22.016 93.5598 21.7846C93.7959 20.8999 93.9014 19.9854 93.8729 19.0701C93.8729 16.2023 92.7395 13.0964 91.1866 11.5122C90.4415 10.7702 89.6431 10.1628 88.8134 10.1628C88.4064 10.1628 87.9994 10.1628 87.7333 10.5009C87.5682 10.6399 87.4391 10.8166 87.3568 11.0161C87.2745 11.2156 87.2415 11.4319 87.2605 11.6468C86.6381 12.0501 85.9107 12.2614 85.1691 12.2542C84.2522 12.2323 83.3696 11.9013 82.6644 11.315V10.288C82.4671 10.2223 81.794 9.81528 82.1321 9.50845C82.2813 9.56289 82.4185 9.64583 82.536 9.75266C82.4671 9.31121 82.4671 8.76957 82.1321 8.36569C81.9429 8.37877 81.7544 8.33164 81.5936 8.23106C81.4751 8.1297 81.3778 8.00585 81.3074 7.86666C81.237 7.72748 81.1949 7.57572 81.1835 7.42016C81.3901 7.7583 81.7251 7.62367 81.9286 7.82405C81.5936 7.01628 81.7251 6.67815 81.1177 5.49468C80.9831 4.89042 80.3757 4.55542 79.9718 4.1484C79.7683 4.01378 79.7026 3.81027 79.4552 3.81027C79.1891 3.74452 79.1891 3.40639 79.1891 3.21227C79.3286 3.26156 79.4621 3.32669 79.5867 3.40639C79.186 2.5047 78.9136 1.48403 78.037 0.939261L77.8335 1.07389H76.7533C76.9473 0.946625 77.1503 0.833617 77.3607 0.735755C77.2692 0.634401 77.1544 0.556901 77.0262 0.50998C76.8979 0.463059 76.7602 0.448134 76.6249 0.4665C76.4126 0.597667 76.1781 0.688918 75.933 0.735755H75.8673C75.8673 0.535379 75.7984 0.262993 76.1804 0.131497C75.7826 0.0624717 75.3759 0.0624717 74.9781 0.131497C74.9092 0.4665 74.7088 0.670006 74.7088 0.939261C74.5085 1.07389 74.4365 1.2774 74.2329 1.4809C74.2329 1.07389 74.4364 0.670006 74.5085 0.262993C74.2329 0.331872 73.8979 0.535379 73.7633 0.535379C73.3025 0.279156 72.8036 0.0984064 72.2855 0C72.6926 0.266124 72.4922 0.738885 72.5579 1.07702L72.2855 0.939261C72.2229 0.670006 71.8817 0.4665 71.8159 0.131497C71.4518 0.138541 71.0982 0.255297 70.8015 0.4665V0.535379C70.9254 0.556495 71.0434 0.603349 71.148 0.672917C71.2526 0.742484 71.3415 0.833218 71.4089 0.939261C70.9393 0.939261 70.6011 0.735755 70.1252 0.735755C70.1252 0.735755 70.1252 0.670006 70.0658 0.670006C69.8755 0.768808 69.708 0.906393 69.5742 1.07389C69.1126 1.41331 68.7619 1.88174 68.5661 2.42016C68.7007 2.42016 68.9042 2.42016 68.9731 2.48904C68.7007 2.55479 68.5661 2.89292 68.2968 2.9618V3.9449C68.0265 4.15698 67.8169 4.43671 67.6894 4.75579C67.3714 5.93148 67.2342 7.14871 67.2824 8.36569C67.266 8.45622 67.2262 8.54088 67.1668 8.6112C67.1075 8.68152 67.0308 8.73505 66.9443 8.76644V9.81215C67.136 9.63164 67.3389 9.46329 67.5517 9.30808V10.1503C67.2793 10.1503 67.0789 10.4884 67.0789 10.6919C67.0789 10.958 67.1478 11.2304 67.1478 11.4997C67.1383 11.5953 67.1615 11.6913 67.2135 11.7721C67.2135 11.6343 67.3482 11.4997 67.5517 11.4339C67.664 11.3386 67.8083 11.2893 67.9555 11.2962C67.7826 11.5218 67.6462 11.7732 67.5517 12.0413L67.3482 12.2417C67.3143 12.3053 67.291 12.3741 67.2793 12.4452C67.5526 13.7894 67.9606 15.1027 68.4972 16.3651C67.9556 17.2354 67.3482 18.923 66.9318 20.5416C66.765 20.3981 66.5716 20.2889 66.3627 20.2201C66.1537 20.1514 65.9332 20.1244 65.7138 20.1409C65.5054 20.1614 65.3037 20.2262 65.1223 20.331C64.9408 20.4357 64.7839 20.578 64.6619 20.7483C64.4709 20.6482 64.2544 20.6075 64.0401 20.6315C63.8259 20.6555 63.6237 20.743 63.4596 20.8829C62.8992 21.3651 62.8992 21.6312 62.8992 22.0257C62.6459 22.2738 62.4989 22.6105 62.489 22.9649C62.4507 23.5176 62.5948 24.0675 62.8992 24.5304H73.0182C72.9456 24.309 72.8308 24.1038 72.68 23.9261C72.4797 23.5222 72.6143 22.9869 72.6143 22.5736C72.7996 22.1739 73.0251 21.7941 73.2874 21.4402C73.3532 21.2367 73.2874 21.2367 73.3532 21.1709L73.8291 21.0927C74.0952 21.0927 74.2987 20.8923 74.6368 20.8923C74.8403 21.1709 74.8403 20.6888 75.1816 20.551C75.9205 20.4164 76.6124 20.551 77.0132 21.0927C77.0132 21.1709 77.0789 21.1709 77.0789 21.2367H76.7408C76.3619 21.0927 75.9205 20.8923 75.4477 21.0927C75.4477 21.2367 75.382 21.2367 75.382 21.4402V21.7815C75.6481 21.7815 75.8547 22.0351 76.1177 22.1728C76.2085 22.057 76.3231 21.962 76.4539 21.8945C76.5846 21.827 76.7284 21.7884 76.8754 21.7815C76.9772 21.772 77.0798 21.7836 77.1769 21.8156C77.2739 21.8476 77.3633 21.8994 77.4395 21.9676C77.5156 22.0358 77.5768 22.119 77.6193 22.2119C77.6618 22.3049 77.6846 22.4056 77.6863 22.5078V23.2498C77.9614 23.4736 78.2819 23.6349 78.6256 23.7226C78.5774 23.8207 78.4982 23.9003 78.4003 23.9489C78.3024 23.9976 78.1912 24.0127 78.0839 23.9919H77.5454C77.4765 23.9261 77.3419 23.9261 77.3419 23.7226C77.1608 23.9774 77.0026 24.2477 76.8691 24.5304H84.6963C84.5648 24.2642 84.4271 24.0607 84.3613 23.9261C84.2473 23.4848 84.2009 23.0288 84.2236 22.5736L84.9687 21.5748C85.3726 21.5748 85.7107 21.4402 86.4527 21.3745C86.5905 21.1709 86.4527 21.0927 87.0601 21.0927C87.3796 21.079 87.6987 21.1279 87.9994 21.2367C88.0683 21.3745 88.0683 21.3745 87.9994 21.5091C87.8679 21.6406 87.5986 21.3745 87.3951 21.4402C87.2605 21.5748 87.464 21.6406 87.464 21.7815C87.5986 21.8973 86.8566 21.6406 86.8566 21.6406C86.8566 21.6406 86.7189 22.0351 86.6531 22.1728L87.057 22.5736C87.1916 22.7771 86.8566 22.9806 86.8566 23.1997C86.7189 23.1309 86.4496 22.9274 86.4496 22.9962C86.3118 23.5379 86.4496 24.0075 86.3839 24.5617H87.1227L87.1916 23.4158C87.2605 22.7395 88.0683 21.5373 88.541 21.5373C88.7866 21.5508 89.0205 21.6467 89.2048 21.8096C89.33 22.0632 89.6431 22.201 89.6431 22.3325C89.6431 22.464 89.4552 22.536 89.1422 22.536C89.0138 22.536 89.0138 22.3325 88.8134 22.201L88.4064 22.6018C88.4064 22.6018 88.8792 23.0088 88.8792 23.278C88.8924 23.4041 88.8748 23.5316 88.8279 23.6494C88.781 23.7672 88.7062 23.8718 88.6099 23.9543L88.2029 23.1434C87.9994 23.1434 87.6644 23.5504 87.6644 23.7508C87.6644 24.02 87.5298 24.1547 87.5298 24.5585H91.6625C92.1479 24.5391 92.6178 24.3828 93.0182 24.1077H93.8228C94.5971 24.14 95.3695 24.0077 96.0889 23.7195C96.8083 23.4313 97.4584 22.9938 97.9963 22.4358C99.6149 20.8704 100.56 18.3219 100.56 15.861M86.052 21.9599L85.3789 22.0288C85.4686 22.0856 85.5413 22.1657 85.5893 22.2605C85.6373 22.3553 85.6587 22.4613 85.6512 22.5673C85.6311 22.7755 85.534 22.9687 85.3789 23.109C85.2442 22.9743 85.2442 22.7708 85.1096 22.5673C84.975 22.5673 84.9061 22.9054 84.9061 23.0401C84.9404 23.5659 85.1027 24.0753 85.3789 24.5241H85.9862C85.8816 23.9898 85.8136 23.449 85.7827 22.9054C85.8245 22.5806 85.9153 22.2639 86.052 21.9662M77.2261 22.7771C77.2261 22.5078 77.0257 22.4421 76.7533 22.4421C76.6249 22.4421 76.315 22.6425 76.315 22.7771C76.315 23.0463 76.1897 24.5304 76.1897 24.5304H76.6249C76.819 23.9261 77.2261 23.1152 77.2261 22.7771ZM75.7984 22.7082C75.7264 22.7082 75.8673 22.846 75.1941 22.1728C75.0532 22.1728 74.8529 22.5736 74.8529 22.7082C74.8657 23.3302 74.981 23.9459 75.1941 24.5304H75.7264C75.7264 23.9261 75.7984 23.2498 75.7984 22.7082ZM93.4252 5.77959C93.3699 5.66246 93.284 5.56248 93.1765 5.49026C93.069 5.41805 92.944 5.3763 92.8147 5.36944C92.6143 5.10019 92.345 4.76205 92.0726 4.76205C92.2761 4.76205 92.5454 4.55855 92.8804 4.55855C93.0182 4.89668 93.2874 5.10019 93.3563 5.36944L93.4252 5.77959ZM91.3964 4.35504H90.6544C90.5229 4.15466 90.3162 4.35504 90.1816 4.35504C90.047 4.35504 89.9781 4.35504 89.7182 4.15467C90.1127 4.15467 90.3162 3.95116 90.6575 3.81653C90.9299 4.02004 91.1991 4.08892 91.3995 4.35504M89.7809 12.0507C89.3425 11.9161 89.0921 11.7126 88.6882 11.7126C88.3943 11.7538 88.116 11.8703 87.8804 12.0507C87.6769 11.7815 88.0119 11.2398 88.2843 11.1115C88.3649 11.0592 88.459 11.0313 88.5551 11.0313C88.6512 11.0313 88.7453 11.0592 88.8259 11.1115C88.8259 11.5153 89.2799 11.3118 89.5304 11.4496C89.6534 11.6334 89.7385 11.8399 89.7809 12.057M89.7214 13.0338C89.3425 13.0338 89.2799 12.9806 89.0263 12.9806C88.8439 12.9711 88.662 13.0081 88.4977 13.0881C88.3335 13.168 88.1922 13.2883 88.0871 13.4377C88.0361 13.3514 88.0092 13.253 88.0092 13.1528C88.0092 13.0526 88.0361 12.9542 88.0871 12.8679C88.297 12.6236 88.5823 12.4561 88.8979 12.392C89.3488 12.392 89.7276 12.7301 89.7276 13.0338M91.2711 14.521C90.7238 14.1994 90.1078 14.0127 89.474 13.9762C88.9913 14.0689 88.5388 14.2785 88.1559 14.5867L88.0182 13.9762C88.4252 13.9105 88.4252 13.5723 88.6944 13.5723C88.8979 13.5723 89.1609 13.5034 89.3488 13.5034C89.5366 13.5034 89.6619 13.3751 89.7276 13.3751C90.0564 13.3751 89.9217 13.7101 90.1221 13.7101C90.3225 13.7101 90.4603 13.5723 90.598 13.5723C90.9361 13.5723 91.2054 14.1171 91.2711 14.5116M91.4747 15.9956C91.0019 15.9956 90.5354 15.861 90.4602 15.6575C90.3256 15.5229 90.4603 15.2505 90.1221 15.2505C89.9875 15.2505 89.7871 15.454 89.7871 15.454C89.6619 15.5229 89.2862 15.2505 89.2862 15.454C89.2862 15.7921 89.0326 15.9267 88.6944 15.9267C88.5565 15.9372 88.418 15.9147 88.2906 15.861V15.1847C89.1609 15.1847 89.0983 14.9123 89.474 14.9123C89.7276 14.9123 89.9217 15.047 90.1221 15.047C90.4603 15.047 90.2599 14.9123 90.598 14.9123C90.9361 14.9123 91.0676 15.1847 91.2711 15.2473C91.2711 15.4508 91.4747 15.7232 91.4747 15.9925M90.8673 17.4421C90.6638 17.3763 90.191 17.3075 90.191 17.1039C90.191 16.8347 90.0564 16.7658 89.7276 16.7658C89.4412 16.7842 89.1603 16.8531 88.8979 16.9693C88.7788 16.8084 88.6877 16.6284 88.6287 16.4371C88.9198 16.3265 89.2259 16.26 89.5366 16.2398C89.9875 16.2398 90.4602 16.2398 90.4602 16.4371C90.4602 16.7001 90.8673 16.7502 90.8673 17.4421ZM79.186 6.9474C79.186 7.01628 79.0482 7.62367 79.0482 7.62367L78.5097 7.7583L78.8447 6.30244C78.9905 6.49889 79.1056 6.71636 79.186 6.9474ZM92.1415 19.8059C92.1797 20.113 92.1076 20.4237 91.938 20.6825L91.531 20.0751C91.6719 19.8716 91.6719 19.6024 91.8691 19.2642C91.938 19.2642 92.1415 19.737 92.1415 19.8059ZM90.5229 18.9261C90.047 18.9261 90.3162 17.9869 89.3394 17.9869C89.1516 17.9869 89.0263 18.3281 88.7539 18.3939C88.7539 18.3281 88.8228 17.9211 88.8228 17.9211C88.825 17.8103 88.8566 17.702 88.9144 17.6074C88.9722 17.5128 89.054 17.4352 89.1515 17.3826C89.6525 17.3826 89.5272 17.583 89.9123 17.7176C90.0996 17.827 90.3075 17.8963 90.5229 17.9211V18.9261ZM86.3212 15.1158C85.717 14.7777 85.382 14.1766 84.8372 13.5504C85.3788 13.5504 85.5135 14.0952 85.9205 14.1609C86.0708 14.2778 86.2055 14.4136 86.3212 14.5648V15.1158ZM80.5761 10.1534C80.1722 10.1534 79.9687 9.95304 79.7652 9.57733C79.7318 9.30911 79.7318 9.03779 79.7652 8.76957C79.8998 9.04195 79.8998 9.17658 80.0345 9.31121C80.3037 9.17658 80.3037 9.50845 80.3726 9.57733C80.4744 9.75561 80.5433 9.95074 80.5761 10.1534ZM91.6719 21.5686C91.5786 21.6846 91.5084 21.8174 91.4653 21.9599C91.4653 21.6468 91.0583 21.4339 90.789 20.886L91.0582 20.4101C91.1875 20.474 91.2986 20.5695 91.3813 20.6877C91.4639 20.8059 91.5154 20.943 91.531 21.0864C91.5122 21.131 91.5026 21.1789 91.5026 21.2273C91.5026 21.2757 91.5122 21.3236 91.531 21.3682C91.531 21.4339 91.6719 21.4339 91.6719 21.5686ZM90.3162 19.6713C90.2946 19.9028 90.2452 20.1309 90.1691 20.3507C89.7057 20.2849 89.7057 19.7433 89.64 19.6775C89.3269 19.2705 88.876 19.6086 88.5379 19.6086C88.4033 19.2048 88.6068 19.2048 88.6068 18.9324C88.8103 18.9324 89.0107 18.7977 89.2016 18.9324C89.5147 18.7977 89.7057 19.1359 90.0345 19.1359C90.1109 19.3227 90.2009 19.5038 90.3037 19.6775M86.9318 16.9067C86.9318 17.176 86.7971 17.3795 86.866 17.6487C86.7283 17.2417 86.459 16.8378 86.3212 16.4402C86.3212 16.3713 86.2555 16.3713 86.3932 16.3056C86.459 16.3056 86.7283 16.3056 86.7283 16.3713C86.8378 16.531 86.9076 16.7146 86.9318 16.9067ZM81.0489 11.6374C80.98 11.9098 80.7107 11.6374 80.645 11.6374H80.0345C79.9687 11.5028 79.8998 11.4371 79.8998 11.2993C80.1722 11.2336 80.3726 11.0989 80.5761 11.2336C80.7107 11.4371 80.8453 11.6374 81.0489 11.6374ZM82.5329 13.1497C82.365 13.2682 82.162 13.3265 81.9569 13.3152C81.7517 13.3038 81.5564 13.2234 81.4026 13.087L81.9411 12.8554C82.1295 12.9851 82.3336 13.0904 82.5485 13.1684M85.9925 16.9818C85.9925 17.3889 85.9268 17.8616 85.9268 18.3344C85.7232 18.3344 85.7232 18.1966 85.7232 17.9274C85.6424 17.5357 85.5293 17.1514 85.3851 16.7783C85.2505 16.2523 84.9123 15.8015 84.6462 15.2129C84.5773 14.9405 84.2361 14.8059 83.9668 14.5867C84.1335 14.5638 84.3031 14.5758 84.4649 14.6222C84.6266 14.6686 84.7769 14.7482 84.9061 14.856C84.9061 14.9906 84.975 15.0595 85.1785 15.2599C85.6512 15.2599 85.5135 15.8704 85.9205 16.1396C85.717 16.315 85.6512 16.4527 85.5135 16.5748C85.717 16.7126 85.9205 16.7783 85.9862 16.9818M83.35 14.9906C83.35 15.1972 83.2217 15.2599 83.0964 15.3976C82.9862 15.2562 82.9024 15.096 82.8491 14.9249C82.8351 14.7203 82.8563 14.5149 82.9117 14.3175C83.0964 14.521 83.35 14.7902 83.35 14.9906ZM89.6525 21.0989C89.6525 21.124 89.5273 21.243 89.5273 21.243C89.2481 21.0947 88.9353 21.0213 88.6193 21.0301C88.6193 20.7639 88.4158 20.4227 88.2812 20.4227C87.8773 20.4227 87.943 20.6951 87.608 20.6951L88.2123 20.0877C88.2812 19.9499 88.2812 19.9499 88.4158 19.9499C88.6193 20.0877 88.685 20.1565 88.8885 20.1565C88.8941 20.2932 88.8718 20.4296 88.8228 20.5573C89.0232 20.6951 89.1515 20.4915 89.2768 20.6951C89.4646 20.7639 89.6525 20.8297 89.6525 21.0989ZM84.2204 16.4371C84.2204 16.5623 84.0201 16.7001 83.9512 16.7001C83.7681 16.5213 83.6306 16.3012 83.5504 16.0582C83.5454 15.7973 83.6137 15.5402 83.7477 15.3162C83.8165 15.3162 83.8854 15.4508 83.9512 15.4508C84.0201 15.5197 83.9512 15.7232 84.02 15.9236C84.2204 16.0582 84.3582 16.3024 84.2204 16.4371ZM79.0482 9.95304C78.2297 9.47866 77.3169 9.19007 76.3745 9.1077C76.3941 9.26676 76.3736 9.4282 76.315 9.57733C77.106 9.9072 77.8444 10.3513 78.5066 10.8954V11.5028C77.8303 10.8297 77.0883 10.1534 76.2492 9.93738C76.1866 10.072 75.9361 10.2066 75.8641 10.4759C75.4101 10.1061 74.8728 9.85245 74.2987 9.73701C74.0952 9.73701 73.9606 9.0263 73.9606 9.0263C74.1164 8.97083 74.2579 8.88136 74.3749 8.76439C74.4919 8.64742 74.5814 8.50587 74.6368 8.35003H74.9061C75.1096 8.35003 75.1096 8.2154 75.1096 8.0119C75.1096 7.60802 74.2298 7.60802 73.8291 7.60802C73.3532 7.60802 73.0182 7.60802 72.7427 7.80839C72.6143 7.80839 72.68 8.0119 72.68 8.14966C72.68 8.2154 72.8804 8.35003 72.8804 8.35003C73.0182 8.35003 73.1528 8.2154 73.2874 8.2154C73.2217 8.61929 73.3532 8.82279 73.7602 9.0263L73.7038 9.7057C72.8929 9.7057 72.3544 10.0188 71.747 10.2974C71.5553 10.1523 71.3946 9.97025 71.2743 9.76205C70.4634 10.0282 69.1014 11.1083 69.1014 11.1083V10.6262C69.6994 10.0877 70.4634 9.81528 71.0708 9.50845V9.04195C70.8015 8.9042 70.5322 9.04195 70.263 9.04195C69.6927 9.11848 69.1527 9.3442 68.6976 9.69631C68.6904 9.54321 68.6684 9.39117 68.6318 9.24233C69.3738 8.83845 70.263 8.50031 71.1365 8.63494V8.36569C71.0676 8.23106 71.0676 8.02755 70.9361 8.02755C70.5291 7.62367 70.1221 7.01628 70.1221 6.6124L70.3945 6.48403C70.2599 6.09894 70.1221 5.09393 70.3945 4.75579C70.0274 4.57502 69.7191 4.29385 69.5053 3.9449C69.357 3.65347 69.2435 3.34556 69.1672 3.02755C69.3707 2.62367 69.5053 2.48904 69.6963 2.08829C69.771 2.08937 69.8446 2.0705 69.9096 2.03363C69.9745 1.99675 70.0284 1.94321 70.0658 1.87852C70.3976 1.80964 70.6011 1.47464 71.005 1.67815C71.2627 1.70362 71.5145 1.77131 71.7502 1.87852C71.7421 1.94121 71.7502 2.00494 71.7738 2.06359C71.7973 2.12224 71.8356 2.17387 71.8848 2.21353C72.2887 2.21353 72.2887 2.61428 72.4953 2.95241C72.6701 3.00306 72.852 3.02526 73.0338 3.01816C73.4377 3.14339 73.7758 3.14339 73.9105 3.33125C74.4224 3.04179 75.0163 2.9316 75.598 3.01816C75.7075 2.75664 75.7985 2.48777 75.8704 2.21353C75.9361 2.41077 75.9361 2.21353 76.0708 2.21353C76.3181 2.01315 76.6281 1.67815 77.0946 1.80964C77.3638 2.01315 77.8366 1.87852 78.1058 2.21353C78.3093 2.47965 78.444 2.88353 78.6475 3.20288C78.444 3.6005 78.6475 4.14214 78.2405 4.33939L77.8366 4.7464C77.7019 4.7464 77.702 4.88103 77.4984 4.88103C77.6581 5.41 77.61 5.97996 77.3638 6.47464C77.4984 6.41828 77.702 6.41828 77.702 6.22417C77.7708 6.29305 77.702 6.41828 77.702 6.47464V6.66875C77.6702 7.03076 77.501 7.36687 77.2292 7.60802C77.0946 8.0119 76.7564 8.54728 76.3181 8.61929V8.76644C77.2756 8.78767 78.2136 9.04124 79.0514 9.50532L79.0482 9.95304ZM81.7909 14.1703L81.4527 14.3049C80.9361 14.3406 80.4264 14.1707 80.0345 13.8322C80.3037 13.8322 80.645 13.4909 80.645 13.4909C80.9586 13.8167 81.3546 14.0514 81.7909 14.1703ZM79.9123 12.6518C79.5335 12.6518 79.0607 12.8554 78.8572 12.4483C79.0096 12.3317 79.1464 12.1959 79.2643 12.0445L79.9123 12.6518ZM85.3914 18.9136C85.3914 19.2517 84.9875 19.6587 84.8497 19.9249C84.9875 19.5899 84.9875 18.9136 84.8497 18.9136C84.7151 18.8478 84.4458 18.9136 84.4458 18.779C84.4458 18.5755 84.5147 18.3093 84.5147 18.1716C84.5147 17.9023 84.3112 17.7677 84.3112 17.6331C84.3112 17.226 84.784 17.1603 84.9186 16.891C84.9785 17.1792 85.0016 17.4737 84.9875 17.7677C84.9875 17.9023 85.191 18.3093 84.9875 18.6443C84.9875 18.8478 85.3914 18.7132 85.3914 18.9136ZM83.8259 18.1716C83.8259 18.5755 83.5598 18.9136 83.4909 19.3206C83.5076 19.1383 83.4868 18.9545 83.4297 18.7806C83.3726 18.6067 83.2805 18.4463 83.159 18.3093C83.159 18.1716 83.35 18.1716 83.2217 17.9681C83.2217 17.9681 82.8491 17.7677 82.8491 17.4953C82.8491 17.2229 83.0964 17.0225 83.2217 16.8222C83.2217 16.7533 83.4909 16.9568 83.4909 17.3638C83.4966 17.5018 83.4731 17.6394 83.4221 17.7677C83.35 17.9681 83.8259 17.9681 83.8259 18.1716ZM78.3062 13.4126C77.9681 13.4784 77.6988 13.1434 77.3669 13.0088C77.2323 12.6393 77.2323 12.2323 77.0977 12.0319C77.367 12.2323 77.9743 12.2323 77.8397 12.8428C77.8397 13.0088 78.109 13.1559 78.3125 13.4126M80.191 15.2912C79.8497 15.3227 79.5067 15.2531 79.2048 15.0908C78.9225 14.9622 78.6691 14.778 78.4596 14.5492C78.6915 14.419 78.9433 14.3281 79.2048 14.2799C79.4709 14.5492 79.7182 15.0219 80.191 15.2912ZM68.9199 4.93425L68.4502 5.06888L68.516 4.73075C68.6255 4.51265 68.7611 4.30869 68.9199 4.12336V4.93425ZM77.5141 14.2799C77.2448 14.3456 76.7721 14.4834 76.6437 14.1453C76.2711 13.5348 76.459 12.9962 76.6437 12.5611C76.7542 12.9258 76.8421 13.297 76.9067 13.6725C76.9756 13.9386 77.3795 14.0795 77.5141 14.2799ZM75.6137 10.6011C75.5448 11.005 75.4133 11.6124 75.0063 11.8848C74.9882 11.6567 74.8932 11.4414 74.737 11.2743C74.6681 11.2743 74.737 11.4778 74.6681 11.4778C74.6031 11.7083 74.5519 11.9425 74.5147 12.1791C74.4149 12.2419 74.3018 12.2806 74.1844 12.292C74.067 12.3034 73.9485 12.2873 73.8385 12.2448V12.0445C73.7818 11.8698 73.7585 11.6861 73.7696 11.5028L73.7007 11.4371C73.5003 11.5028 73.5003 11.6374 73.5003 11.7752C73.3926 11.9113 73.3224 12.0732 73.2968 12.2448C73.0771 12.2512 72.8622 12.1803 72.6894 12.0445V11.4371C72.6894 11.2993 72.6894 11.2993 72.6237 11.2993L72.2824 11.6374C72.0132 11.4371 71.9443 10.8954 71.9443 10.5604C73.0276 9.95304 74.377 10.1534 75.191 10.4915C75.3225 10.5604 75.4571 10.5604 75.5917 10.6262M79.0357 16.0582H78.8322C78.0902 16.3024 77.4828 15.8579 76.8754 15.4508C77.2653 15.3126 77.6765 15.2438 78.0902 15.2473L78.2937 15.6544C78.5542 15.7632 78.8028 15.8986 79.0357 16.0582ZM69.0169 5.8923L68.6788 6.30244C68.7477 6.9474 68.4784 7.42016 68.4784 8.02755L68.1403 6.9474C68.2025 6.64699 68.317 6.35981 68.4784 6.09894L69.0169 5.8923ZM75.9048 14.5742C75.5667 14.3707 74.9656 14.3049 75.0939 13.8979C75.1945 13.6762 75.3591 13.4898 75.5667 13.3626C75.6046 13.7837 75.7192 14.1943 75.9048 14.5742ZM82.1008 21.4339H82.0319C81.8973 21.2304 81.8284 21.0864 81.6938 21.0864C81.8973 20.3444 81.4934 19.737 81.3588 19.1296V18.9261C81.5623 19.2642 82.1008 19.6024 82.0319 19.9374C82.0838 20.4345 82.1068 20.9342 82.1008 21.4339ZM80.5354 18.9292C80.1973 18.9292 79.928 18.9292 79.7245 18.5911C79.6587 18.5911 79.5429 18.3907 79.4803 18.5254C79.1453 18.7946 78.804 18.325 78.4001 18.3907C78.2125 18.5913 77.9676 18.7291 77.6988 18.7852V18.7195C77.7073 18.6 77.7499 18.4855 77.8214 18.3895C77.893 18.2935 77.9906 18.22 78.1027 18.1778C78.5097 18.3156 78.8447 17.4358 79.2517 17.9086C79.4182 17.9584 79.5916 17.9806 79.7652 17.9743C80.238 18.1778 80.3726 18.5817 80.5761 18.9136M74.4458 13.4909C74.4458 13.9637 74.3801 14.5742 73.9073 14.7777L73.7727 14.1046C74.0315 13.9362 74.2593 13.7244 74.4458 13.4784M76.6875 16.4245C76.4684 16.5864 76.2053 16.6781 75.933 16.6875C75.5211 16.3177 75.1582 15.8969 74.8529 15.4352L75.933 15.6387C76.2031 15.881 76.4553 16.1426 76.6875 16.4214M80.7107 20.263C80.4415 20.0595 80.0344 20.0595 79.8998 19.7214C79.6432 19.6636 79.3798 19.6415 79.1171 19.6556C78.8272 19.7101 78.5321 19.7322 78.2373 19.7214C78.1684 19.7214 78.2373 19.6556 78.1027 19.5867C77.6988 19.7214 77.2918 19.7214 76.8879 20.1284L77.2261 19.3175C77.4315 19.2872 77.6345 19.2422 77.8335 19.1828C78.0547 19.129 78.2822 19.1059 78.5097 19.114V19.1828C79.2517 19.1828 80.1033 19.114 80.645 19.7214L80.7107 20.263ZM73.0307 14.5742C72.6268 14.1703 72.2855 13.8322 72.2855 13.4252C72.4972 13.404 72.7101 13.4512 72.8929 13.5598C72.8929 13.8979 73.0307 14.1703 73.0307 14.5742ZM71.747 12.6518L71.5435 13.4909C71.3175 13.1026 71.1577 12.6794 71.0708 12.2386L71.747 12.6518ZM81.4026 21.6343C81.2908 21.8939 81.1997 22.1619 81.1303 22.4358C80.9956 22.0288 80.861 21.4339 80.3882 21.4339C80.3655 21.3185 80.3174 21.2095 80.2476 21.1148C80.1778 21.0201 80.0879 20.942 79.9844 20.886L79.4678 20.8172C79.5366 21.0864 79.9155 21.0864 79.6556 21.4433C79.9155 21.6437 80.119 21.6437 80.2536 21.9693C80.3882 22.176 80.2536 22.4452 80.3194 22.5767L79.9155 22.7802C79.9155 22.4452 79.9844 21.7846 79.5366 21.6437C79.1328 21.7846 79.0639 21.2398 78.7915 21.0958C78.66 21.0958 78.66 20.7608 78.4565 20.8954C78.1184 21.0958 77.7145 20.8954 77.3763 21.0958L77.7145 20.5542C77.9837 20.3538 78.253 20.4195 78.5254 20.3538L79.0639 20.288C79.5993 20.288 80.0501 20.5542 80.5917 20.7608C80.7153 20.8109 80.8204 20.898 80.8927 21.01C80.965 21.1221 81.0009 21.2537 80.9956 21.387C81.1303 21.4527 81.4026 21.4527 81.4026 21.6531M76.0802 18.541H75.9455C75.7013 18.4706 75.4721 18.356 75.2693 18.2029C75.2308 18.0716 75.2098 17.9358 75.2066 17.799H75.7389L76.0802 18.541ZM70.8829 13.7163C70.4493 13.5433 70.0783 13.2432 69.8184 12.8554C69.7065 12.5991 69.6438 12.324 69.6337 12.0445C69.7395 12.0488 69.8421 12.0824 69.93 12.1416C70.0178 12.2007 70.0876 12.2831 70.1315 12.3795V12.4483C70.4696 12.8554 70.8078 13.1559 70.8767 13.7007M74.114 16.0614C74.0514 16.4402 73.8478 16.5654 73.5097 17.0382C73.3062 17.176 72.8835 17.2417 72.4984 17.4452C72.5642 17.2417 72.7614 17.176 72.8992 16.9724C73.0804 16.7454 73.2387 16.5011 73.372 16.243C73.5944 16.1066 73.8538 16.0431 74.114 16.0614ZM79.0545 22.5704L78.851 22.774C78.6506 22.5704 78.7821 22.0319 78.4471 21.9631C78.109 21.9631 77.8397 21.65 77.7051 21.5717L77.9743 21.4371C78.0167 21.4183 78.0626 21.4085 78.109 21.4085C78.1553 21.4085 78.2012 21.4183 78.2436 21.4371C78.3782 21.5717 78.516 21.6374 78.516 21.7783C78.6506 21.9631 78.851 21.7783 78.9887 21.9631C79.0733 22.1537 79.0963 22.3661 79.0545 22.5704ZM72.8929 15.5197C72.6926 15.9236 72.4922 16.3024 72.0852 16.4371C71.7753 16.5004 71.4558 16.5004 71.1459 16.4371C71.3494 16.3024 71.5498 16.2398 71.8222 16.0582L72.3607 15.5197H72.8929ZM74.2423 18.588C74.1297 18.6762 73.9969 18.7351 73.8559 18.7591C73.7149 18.7832 73.5701 18.7717 73.4346 18.7257L73.0307 18.1841H74.0451L74.2423 18.588ZM69.3738 13.4909C69.0357 13.8322 68.6976 13.9637 68.5629 14.3707C68.5587 14.1838 68.5139 14 68.4314 13.8322C68.4867 13.6422 68.6048 13.4766 68.7664 13.3626C68.9699 13.4252 69.1014 13.4252 69.3738 13.4909ZM70.1252 14.5085C70.1047 14.8635 69.9529 15.1983 69.6994 15.4477C69.6189 15.5216 69.5331 15.5897 69.4427 15.6512C69.4427 15.2442 69.6368 14.9092 69.6368 14.5711C69.8215 14.5053 70.0063 14.3676 70.1252 14.5053M71.0645 15.3131L70.7952 16.2993C70.4571 16.5592 70 16.4339 69.6306 16.4339C70.119 16.2993 70.526 15.7201 70.7952 15.3131C70.8641 15.2442 70.933 15.3131 71.0645 15.3131ZM71.4026 18.7226C71.4026 18.923 71.3369 19.7339 71.3369 19.7339C71.2023 19.2611 70.8641 18.7946 70.4571 18.7946C70.2614 18.6287 70.1052 18.4212 70 18.1872C69.8153 17.9837 69.6306 18.1872 69.3738 17.9837C69.0671 17.9527 68.7589 18.0243 68.4972 18.1872V17.9837L68.9699 17.4452C69.4427 17.511 70.0063 17.4452 70.1252 17.7833C70.4046 17.9169 70.6572 18.1005 70.8704 18.325V18.5254C71.0019 18.5911 71.2743 18.66 71.4089 18.7289M71.0708 20.8172L70.6011 21.2304C70.4634 21.0864 70.6011 20.7514 70.3976 20.5448C70.3976 20.4101 70.5323 20.3444 70.4634 20.2786C70.3976 20.144 69.6368 19.8716 69.6368 19.8716C69.3323 19.6666 69.0415 19.4417 68.7664 19.1985C68.4972 19.1296 68.2937 19.2642 67.9555 19.3331V19.1985C68.0902 18.9261 68.0902 18.5723 68.4972 18.5723C68.6976 18.5723 68.9699 18.5723 69.1014 18.7758C69.3738 18.7758 69.5085 19.0451 69.6994 19.114C69.9238 19.3528 70.181 19.5584 70.4634 19.7245C70.4542 19.8048 70.4685 19.886 70.5046 19.9582C70.5407 20.0305 70.5971 20.0907 70.6669 20.1315C71.0708 20.1315 70.9393 20.5322 71.0708 20.8046M70.0658 21.7627L69.8842 22.4233L69.4427 21.2179C68.9011 20.7389 68.2937 20.67 67.9555 20.3976C67.6863 20.3319 67.6863 20.5322 67.5517 20.3976C67.5441 20.2984 67.5584 20.1988 67.5936 20.1057C67.6287 20.0127 67.6839 19.9285 67.7552 19.8591H68.159L68.5629 20.0626C68.7664 20.2661 69.2392 20.2661 69.2392 20.67C69.2392 20.7389 69.1703 20.8046 69.3738 21.0739L70 21.2179L70.0658 21.7627ZM68.2248 22.4233C68.2248 22.9618 67.3482 23.7038 67.3482 23.7038C67.3482 23.3657 67.5517 22.9618 67.5517 22.5548C67.4057 22.4078 67.2153 22.3131 67.01 22.2855C66.8097 22.4233 66.8097 22.5548 66.7408 22.7583C66.5373 23.1653 66.1334 23.5692 66.0676 23.9731C66.0587 23.9735 66.0499 23.9721 66.0415 23.969C66.0332 23.9659 66.0256 23.9611 66.0191 23.955C66.0127 23.9488 66.0075 23.9414 66.004 23.9332C66.0005 23.925 65.9987 23.9162 65.9988 23.9073C65.9988 23.2311 66.0676 22.0852 66.4715 21.6218C66.8096 21.2179 67.0789 21.2179 67.4828 21.1522L67.8209 21.2179L67.5517 21.6218C67.8209 21.7627 68.2248 22.0163 68.2248 22.4233ZM65.861 22.0163C65.8662 22.2772 65.7979 22.5344 65.6637 22.7583C65.5949 22.489 65.4039 22.154 65.0783 22.154C64.8122 22.6894 64.7433 22.8929 65.0094 23.7195C64.8356 23.8876 64.6302 24.0195 64.4051 24.1077C64.292 23.7832 64.2452 23.4393 64.2674 23.0964C64.2628 22.6438 64.3315 22.1934 64.4709 21.7627C64.6744 21.556 64.8122 21.2179 65.0094 21.0739H65.7264C65.4133 21.0739 65.4133 21.3557 65.4133 21.556C65.6043 21.6218 65.8704 21.6938 65.8704 22.0163M64.1453 22.7583C64.0764 22.7583 63.8729 22.5548 63.6725 22.5548C63.4815 22.9618 63.6725 23.2311 63.6725 23.7038C63.6691 23.8411 63.6459 23.9771 63.6036 24.1077C63.4815 24.1077 63.2373 23.8384 63.1778 23.5692V22.5016L63.7414 21.7752C63.9163 21.8658 64.0531 22.0159 64.1272 22.1984C64.2012 22.381 64.2076 22.584 64.1453 22.7708M77.9587 4.1484C78.0362 3.94375 78.0644 3.72372 78.041 3.50615C78.0176 3.28857 77.9433 3.07956 77.8241 2.89606C77.6988 2.62367 77.3607 2.5047 77.0194 2.22292L76.5592 2.5047C76.4373 2.57992 76.3385 2.68713 76.2733 2.81465C76.2082 2.94217 76.1793 3.08512 76.1897 3.22793C76.6619 3.48885 77.0455 3.88451 77.2918 4.36443H77.4953C77.6988 4.16406 77.8335 4.36443 77.9681 4.16406M75.7264 4.56794C75.7264 4.36443 75.6606 4.36443 75.5949 4.36443C75.2567 4.36443 75.2567 3.82592 74.9875 3.96055C74.8529 3.96055 74.7182 3.82592 74.5178 3.96055C74.5178 4.02943 74.5179 4.02943 74.6494 4.02943C74.9875 4.02943 74.8529 4.49906 75.1221 4.56794H75.7264ZM76.7533 5.37884C76.7533 5.37884 76.8879 5.37884 76.7533 5.31309L75.3256 5.10958C75.1941 5.31309 74.8529 5.31309 74.8529 5.51033H74.7182C74.8326 6.07677 74.8778 6.65499 74.8529 7.23231C75.001 7.24633 75.1385 7.31505 75.2387 7.42504C75.3388 7.53504 75.3944 7.67841 75.3945 7.82718C75.6732 7.9345 75.9397 8.07093 76.1897 8.23419C76.315 8.16844 76.3745 7.96493 76.4402 7.76143C76.1897 7.42329 75.5949 7.6268 75.5949 7.01941L75.1941 6.88792C75.2103 6.53462 75.1862 6.18063 75.1221 5.83281L75.1941 5.78272C75.1941 5.83281 75.2567 5.90169 75.3945 6.03945C75.6606 6.03945 75.933 6.10833 76.1897 5.90169C76.315 5.83281 76.315 5.50407 76.4402 5.50407C76.5654 5.50407 76.6875 5.50407 76.7533 5.37257M73.4346 3.95429C73.2999 3.81966 72.8929 4.02317 72.6926 4.09205C72.5744 4.11004 72.4652 4.16532 72.3807 4.2498C72.2962 4.33429 72.2409 4.44356 72.2229 4.56168H72.9493C73.0692 4.33251 73.2293 4.12677 73.422 3.95429M71.9349 3.22167C71.8691 2.56418 71.1271 2.49843 70.789 2.23231H70.5197C69.9937 2.42956 69.8716 2.9712 69.809 3.41578C69.9937 4.02317 70.3851 3.61929 70.6544 4.02317C71.0537 3.71445 71.4827 3.44598 71.9349 3.22167ZM75.9205 9.38322V9.04195H75.2442L75.1816 9.1077L75.9205 9.38322ZM72.8804 5.50407C72.8804 5.37257 72.7426 5.23795 72.5454 5.10332H70.9267C70.9245 5.15681 70.9334 5.21019 70.953 5.26003C70.9725 5.30988 71.0023 5.3551 71.0403 5.39281C71.0783 5.43052 71.1237 5.45989 71.1737 5.47905C71.2237 5.49821 71.2772 5.50673 71.3306 5.50407C71.3306 5.78272 71.531 5.83281 71.5999 5.90169C71.8034 6.03945 71.8691 6.03945 72.0726 5.90169C72.273 6.03945 72.3419 5.78272 72.4108 5.90169C72.4253 6.21018 72.4022 6.51928 72.3419 6.82217C72.273 7.29493 71.8691 7.22605 71.531 7.42956C71.531 7.63306 71.3306 7.9712 71.531 8.1747C71.7461 8.03022 71.9786 7.91346 72.2229 7.82718C72.2229 7.6268 72.4233 7.42329 72.6926 7.28867C72.6926 6.68128 72.8929 6.10207 72.8929 5.49781M72.3544 9.04195C72.2229 8.76957 71.8817 9.04195 71.5435 8.9042C71.5326 8.98463 71.5462 9.06649 71.5825 9.13909C71.6188 9.21169 71.6761 9.27167 71.747 9.31121C71.9161 9.15969 72.1286 9.06545 72.3544 9.04195Z"
    fill="black"
  />
</svg>
