<svg
  width="267"
  height="47"
  viewBox="0 0 267 47"
  fill="none"
  xmlns="http://www.w3.org/2000/svg"
>
  <title>Logo IQVIA</title>
  <path
    fill-rule="evenodd"
    clip-rule="evenodd"
    d="M114.009 0.987211C102.554 1.60408 93.688 11.4017 94.302 22.9252C94.9189 34.3876 104.711 43.2621 116.226 42.6452C117.888 42.5842 119.49 42.2765 121.029 41.844L122.569 44.8021C123.184 46.0359 124.662 46.467 125.894 45.8515C127.125 45.2346 127.556 43.7556 126.941 42.5218L125.524 39.8728C132.052 36.0525 136.302 28.7805 135.871 20.7073C135.376 9.24478 125.524 0.371757 114.009 0.987211ZM123.562 35.6781L121.737 32.2151C121.105 30.9544 119.595 30.5134 118.335 31.1444C117.075 31.7741 116.634 33.2858 117.264 34.545L118.838 37.5684C117.957 37.757 117.013 37.8832 116.067 37.9456C107.124 38.3867 99.4412 31.5217 98.9364 22.5153C98.4968 13.5714 105.36 5.88815 114.367 5.38473C123.311 4.9437 130.994 11.8087 131.497 20.8136C131.812 27.0504 128.538 32.6547 123.562 35.6781ZM81.6739 43.9257C80.1693 43.9257 78.9355 42.8054 78.9355 41.4412V4.5438C78.9355 3.17675 80.1693 2.05929 81.6739 2.05929C83.1799 2.05929 84.4122 3.17675 84.4122 4.5438V41.4412C84.4122 42.8069 83.1799 43.9257 81.6753 43.9257H81.6739ZM199.986 43.9257C198.48 43.9257 197.247 42.8069 197.247 41.4412V4.5438C197.247 3.17675 198.481 2.05929 199.986 2.05929C201.492 2.05929 202.724 3.17675 202.724 4.5438V41.4412C202.724 42.8069 201.492 43.9257 199.987 43.9257H199.986ZM164.183 43.9257C163.254 43.9257 162.386 43.428 162.015 42.6211L142.753 5.69529C142.134 4.45162 142.568 2.95978 143.806 2.33866C145.044 1.71753 146.532 2.15289 147.15 3.39514L164.244 36.1532L181.648 3.39656C182.268 2.21528 183.815 1.71895 184.992 2.40247C186.169 3.0236 186.665 4.57783 185.983 5.7591L166.35 42.6821C165.917 43.428 165.049 43.9257 164.183 43.9257ZM241.885 34.009H230.327C229.004 34.009 227.921 33.0177 227.921 31.8067C227.921 30.5942 229.004 29.603 230.329 29.603H241.946C243.269 29.603 244.352 30.5942 244.352 31.8067C244.352 33.0177 243.269 34.009 241.885 34.009Z"
    fill="black"
  />
  <path
    fill-rule="evenodd"
    clip-rule="evenodd"
    d="M256.086 43.9265C255.219 43.9265 254.351 43.4302 253.919 42.6219L236.825 9.89079L219.421 42.6204C218.801 43.8017 217.254 44.298 216.077 43.6159C214.9 42.9948 214.404 41.442 215.086 40.2621L234.719 3.36897C235.152 2.56065 236.02 2.00192 236.886 2.06432C237.815 2.06432 238.621 2.56065 239.054 3.36897L258.316 40.2621C258.935 41.5044 258.501 42.9948 257.263 43.6159C256.891 43.8017 256.457 43.9265 256.086 43.9265Z"
    fill="black"
  />
  <path
    fill-rule="evenodd"
    clip-rule="evenodd"
    d="M257.34 8.98572H256.543V3.24385H254.779V2.37598H259.161V3.1772H257.34V8.98572ZM263.607 7.50239L265.476 2.37598H266.829V8.98572H265.927V3.45515L263.801 8.98572H263.221L261.094 3.45515V8.98572H260.256V2.37598H261.61L263.607 7.50239Z"
    fill="black"
  />
  <path
    fill-rule="evenodd"
    clip-rule="evenodd"
    d="M47.0276 36.4102C48.2018 36.4102 49.1547 37.3631 49.1547 38.5373C49.1547 39.7115 48.2018 40.6644 47.0276 40.6644H15.8295C14.6553 40.6644 13.7023 39.7115 13.7023 38.5373C13.7023 37.3631 14.6553 36.4102 15.8295 36.4102H47.0276ZM64.0447 36.4102C65.2189 36.4102 66.1719 37.3631 66.1719 38.5373C66.1719 39.7115 65.2189 40.6644 64.0447 40.6644H54.118C52.9439 40.6644 51.9909 39.7115 51.9909 38.5373C51.9909 37.3631 52.9439 36.4102 54.118 36.4102H64.0447ZM51.2819 29.3197C52.456 29.3197 53.409 30.2726 53.409 31.4468C53.409 32.621 52.456 33.574 51.2819 33.574H10.1571C8.98289 33.574 8.02993 32.621 8.02993 31.4468C8.02993 30.2726 8.98289 29.3197 10.1571 29.3197H51.2819ZM64.0447 27.9016C65.2189 27.9016 66.1719 28.8545 66.1719 30.0287C66.1719 31.2029 65.2189 32.1559 64.0447 32.1559H59.7904C58.6163 32.1559 57.6633 31.2029 57.6633 30.0287C57.6633 28.8545 58.6163 27.9016 59.7904 27.9016H64.0447ZM52.7 20.8111C53.8741 20.8111 54.8271 21.7641 54.8271 22.9382C54.8271 24.1124 53.8741 25.0654 52.7 25.0654H3.0666C1.89241 25.0654 0.939453 24.1124 0.939453 22.9382C0.939453 21.7641 1.89241 20.8111 3.0666 20.8111H52.7ZM64.0447 20.8111C65.2189 20.8111 66.1719 21.7641 66.1719 22.9382C66.1719 24.1124 65.2189 25.0654 64.0447 25.0654H61.2085C60.0343 25.0654 59.0814 24.1124 59.0814 22.9382C59.0814 21.7641 60.0343 20.8111 61.2085 20.8111H64.0447ZM51.2819 12.3025C52.456 12.3025 53.409 13.2555 53.409 14.4297C53.409 15.6038 52.456 16.5568 51.2819 16.5568H7.32088C6.1467 16.5568 5.19374 15.6038 5.19374 14.4297C5.19374 13.2555 6.1467 12.3025 7.32088 12.3025H51.2819ZM64.0447 12.3025C65.2189 12.3025 66.1719 13.2555 66.1719 14.4297C66.1719 15.6038 65.2189 16.5568 64.0447 16.5568H59.7904C58.6163 16.5568 57.6633 15.6038 57.6633 14.4297C57.6633 13.2555 58.6163 12.3025 59.7904 12.3025H64.0447ZM47.0276 3.79395C48.2018 3.79395 49.1547 4.74691 49.1547 5.92109C49.1547 7.09527 48.2018 8.04823 47.0276 8.04823H22.9199C21.7458 8.04823 20.7928 7.09527 20.7928 5.92109C20.7928 4.74691 21.7458 3.79395 22.9199 3.79395H47.0276ZM64.0447 3.79395C65.2189 3.79395 66.1719 4.74691 66.1719 5.92109C66.1719 7.09527 65.2189 8.04823 64.0447 8.04823H54.118C52.9439 8.04823 51.9909 7.09527 51.9909 5.92109C51.9909 4.74691 52.9439 3.79395 54.118 3.79395H64.0447Z"
    fill="black"
  />
</svg>
