<svg
  width="128"
  height="15"
  viewBox="0 0 128 15"
  fill="none"
  xmlns="http://www.w3.org/2000/svg"
>
  <title>Logo lastminute.com</title>
  <path
    d="M118.834 14.6429H121.621V8.16289C121.607 7.83653 121.548 7.51365 121.446 7.20344C121.658 7.06756 121.897 6.97924 122.146 6.94455C122.34 6.86977 122.548 6.83857 122.756 6.85317C122.986 6.83721 123.217 6.87658 123.428 6.96798C123.64 7.05938 123.827 7.20017 123.974 7.37858C124.27 7.97228 124.391 8.63759 124.324 9.29747V14.6277H127.119V9.06142C127.102 8.44898 127.043 7.83839 126.944 7.2339C126.833 6.69405 126.627 6.17832 126.334 5.71098C126.005 5.30095 125.586 4.97258 125.108 4.75153C124.497 4.51299 123.845 4.39657 123.19 4.40887C122.179 4.40378 121.196 4.74206 120.403 5.36832C120.076 5.08009 119.688 4.86928 119.268 4.75153C118.333 4.48077 117.35 4.42095 116.39 4.5764C116.006 4.59376 115.626 4.65248 115.255 4.75153C114.912 4.84291 114.562 4.84291 114.212 4.92667C113.939 5.02355 113.655 5.08746 113.367 5.11703V14.7115H116.154V7.05877C116.329 7.05877 116.504 6.97501 116.679 6.97501H117.174C117.404 6.9629 117.634 7.00321 117.847 7.0929C118.059 7.1826 118.248 7.31933 118.4 7.4928C118.688 8.08902 118.806 8.75275 118.743 9.41169L118.834 14.6429ZM108.547 11.7646C108.382 12.0065 108.16 12.2044 107.902 12.3412C107.643 12.4779 107.354 12.5494 107.062 12.5494C106.769 12.5494 106.481 12.4779 106.222 12.3412C105.963 12.2044 105.742 12.0065 105.577 11.7646C105.225 11.1262 105.047 10.4069 105.059 9.6782C105.023 8.94457 105.203 8.2165 105.577 7.58418C105.742 7.34233 105.963 7.14441 106.222 7.00763C106.481 6.87085 106.769 6.79935 107.062 6.79935C107.354 6.79935 107.643 6.87085 107.902 7.00763C108.16 7.14441 108.382 7.34233 108.547 7.58418C108.924 8.2151 109.104 8.94422 109.064 9.6782C109.103 10.4097 108.923 11.1361 108.547 11.7646ZM111.592 7.58418C111.355 6.98701 111.032 6.42776 110.633 5.92419C110.18 5.47842 109.644 5.12423 109.057 4.88098C108.42 4.62838 107.739 4.50917 107.054 4.53071C106.397 4.50987 105.743 4.62927 105.135 4.88098C104.55 5.12441 104.017 5.47864 103.567 5.92419C103.119 6.40825 102.766 6.9711 102.523 7.58418C102.277 8.25429 102.159 8.96447 102.173 9.6782C102.16 10.4192 102.278 11.1566 102.523 11.856C102.731 12.4569 103.051 13.0126 103.468 13.4931C103.918 13.9411 104.451 14.2979 105.036 14.544C106.321 15.0646 107.757 15.0646 109.042 14.544C109.638 14.3005 110.181 13.9436 110.641 13.4931C111.073 13.0161 111.4 12.453 111.6 11.8408C111.846 11.1417 111.962 10.4037 111.943 9.66297C111.963 8.94951 111.847 8.23877 111.6 7.56895M93.8961 11.7494C94.0752 12.3777 94.3963 12.9565 94.8346 13.4411C95.273 13.9256 95.8168 14.303 96.4241 14.544C97.1803 14.813 97.9746 14.9595 98.7771 14.978C99.3339 14.9606 99.8888 14.902 100.437 14.8028C100.857 14.74 101.266 14.6222 101.655 14.4526L101.221 12.1682C100.899 12.3362 100.542 12.425 100.178 12.4271C99.8046 12.4998 99.4238 12.5279 99.0436 12.5108C98.6783 12.5478 98.3094 12.5049 97.9623 12.3853C97.6152 12.2656 97.2982 12.0721 97.0333 11.8179C96.6304 11.1942 96.4187 10.4664 96.4241 9.72389C96.3974 9.00698 96.6119 8.30182 97.0333 7.72124C97.2621 7.46432 97.546 7.2624 97.8638 7.13055C98.1815 6.9987 98.525 6.94032 98.8684 6.95978C99.2183 6.94596 99.5685 6.97408 99.9116 7.04354C100.178 7.13491 100.521 7.21868 100.787 7.30244L101.396 5.01804C100.521 4.61932 99.5712 4.41166 98.6095 4.40887C97.8566 4.37411 97.1066 4.52307 96.4241 4.84291C95.8226 5.10613 95.2809 5.48892 94.8319 5.96803C94.3829 6.44713 94.036 7.01253 93.8123 7.62986C93.5597 8.26907 93.4405 8.95317 93.462 9.64013C93.5222 10.3505 93.6679 11.0511 93.8961 11.7265M92.5864 11.8179C92.2491 11.5228 91.8162 11.3602 91.368 11.3602C90.9199 11.3602 90.487 11.5228 90.1497 11.8179C89.8132 12.1694 89.6253 12.6372 89.6253 13.1238C89.6253 13.6104 89.8132 14.0782 90.1497 14.4297C90.487 14.7248 90.9199 14.8874 91.368 14.8874C91.8162 14.8874 92.2491 14.7248 92.5864 14.4297C92.9229 14.0782 93.1107 13.6104 93.1107 13.1238C93.1107 12.6372 92.9229 12.1694 92.5864 11.8179ZM82.299 8.71876C82.3167 8.47691 82.3759 8.23992 82.4741 8.01821C82.5396 7.7897 82.6598 7.5806 82.8244 7.40904C82.9759 7.23796 83.1532 7.09152 83.3498 6.97501C83.5952 6.8596 83.863 6.79977 84.1341 6.79977C84.4053 6.79977 84.6731 6.8596 84.9184 6.97501C85.1298 7.06919 85.3114 7.21925 85.4438 7.40904C85.6088 7.57907 85.7268 7.78895 85.7865 8.01821C85.862 8.2436 85.8931 8.48153 85.8779 8.71876H82.299ZM79.7709 11.856C79.9726 12.4628 80.2995 13.0206 80.7304 13.4931C81.1916 13.9712 81.7609 14.3316 82.3904 14.544C83.1466 14.813 83.9409 14.9595 84.7433 14.978C85.0931 14.9921 85.4434 14.964 85.7865 14.8942C86.1133 14.885 86.4369 14.8259 86.7459 14.7191C87.0124 14.6277 87.2713 14.6277 87.6216 14.544C87.7968 14.4526 88.0556 14.3688 88.2308 14.2774L87.8805 11.9931C87.4902 12.1592 87.0811 12.2768 86.6622 12.3433C86.1595 12.4377 85.6504 12.4937 85.1392 12.5108C84.4647 12.5142 83.8017 12.3353 83.2204 11.9931C82.9943 11.8355 82.8079 11.6276 82.6758 11.3858C82.5437 11.144 82.4694 10.8749 82.4589 10.5996H88.8247V9.58683C88.8968 8.21157 88.4635 6.85741 87.6064 5.77951C87.18 5.33751 86.6635 4.99245 86.092 4.76777C85.5204 4.5431 84.9072 4.44406 84.294 4.47741C83.6942 4.45668 83.0976 4.57391 82.5503 4.82006C82.0125 5.08928 81.5024 5.41064 81.0273 5.77951C80.6047 6.25785 80.2696 6.80687 80.0374 7.40143C79.7467 8.15188 79.597 8.94955 79.5958 9.75435C79.4409 10.454 79.502 11.1842 79.7709 11.8484M72.3619 10.63C72.3745 11.215 72.4331 11.798 72.537 12.3738C72.6508 12.8724 72.8575 13.3451 73.1462 13.7673C73.4768 14.1502 73.8946 14.4479 74.3645 14.6353C74.9722 14.8864 75.6262 15.0057 76.2834 14.9856C76.8124 15.0145 77.3425 14.9553 77.852 14.8105C78.2422 14.7369 78.6228 14.6194 78.9866 14.4602L78.5526 12.2824C78.2937 12.3738 77.9434 12.4575 77.6845 12.5413C77.3706 12.6165 77.0476 12.6473 76.7251 12.6327C76.1083 12.6327 75.6742 12.4575 75.4991 12.1073C75.2645 11.6809 75.1464 11.2003 75.1565 10.7138V7.2339H78.5526V4.88098H75.1565V1.91889L72.3619 2.26155V10.63ZM70.5344 4.69823H67.7398V12.3814C67.5647 12.3814 67.3971 12.4652 67.1306 12.4652H66.5215C65.8209 12.4652 65.3869 12.29 65.2117 11.856C64.9217 11.2279 64.8009 10.5349 64.8615 9.84572V4.61447H62.0745V10.1122C62.0913 10.755 62.1498 11.396 62.2496 12.0311C62.3569 12.5695 62.5978 13.0722 62.9502 13.4931C63.2802 13.9343 63.7332 14.2681 64.2523 14.4526C64.9227 14.6975 65.6327 14.8162 66.3463 14.8028C67.1334 14.7899 67.919 14.7315 68.6992 14.6277C69.3084 14.544 69.9252 14.3688 70.5344 14.2774V4.69823ZM51.6881 14.6429H54.4751V6.97501C54.6502 6.97501 54.8254 6.88363 55.0843 6.88363H55.6934C56.394 6.88363 56.828 7.05877 57.0032 7.40904C57.295 8.00403 57.4162 8.66822 57.3534 9.32793V14.6582H60.1404V9.06142C60.1274 8.44875 60.0688 7.83789 59.9653 7.2339C59.8662 6.67603 59.6278 6.1522 59.2723 5.71098C58.9372 5.2718 58.4824 4.93866 57.9626 4.75153C57.2909 4.51222 56.5815 4.39614 55.8686 4.40887C55.0819 4.423 54.2964 4.47892 53.5157 4.5764C52.9065 4.66777 52.2973 4.84291 51.6881 4.92667V14.6429ZM49.6093 0.609171C49.288 0.315409 48.8683 0.152513 48.4329 0.152513C47.9975 0.152513 47.5778 0.315409 47.2564 0.609171C47.0964 0.763666 46.9684 0.948161 46.8797 1.15212C46.7911 1.35609 46.7434 1.57552 46.7395 1.7979C46.7356 2.02028 46.7756 2.24124 46.8571 2.44818C46.9386 2.65512 47.0601 2.84398 47.2146 3.00397C47.369 3.16397 47.5535 3.29197 47.7575 3.38066C47.9615 3.46935 48.1809 3.517 48.4033 3.52089C48.6257 3.52478 48.8466 3.48483 49.0536 3.40333C49.2605 3.32182 49.4494 3.20035 49.6093 3.04585C49.7733 2.88813 49.9038 2.69892 49.9929 2.48957C50.082 2.28022 50.1279 2.05504 50.1279 1.82751C50.1279 1.59999 50.082 1.3748 49.9929 1.16545C49.9038 0.956104 49.7733 0.766897 49.6093 0.609171ZM49.7845 4.70584H46.9899V14.6429H49.7845V4.70584ZM36.9691 14.6429H39.756V8.16289C39.7384 7.83696 39.6796 7.51457 39.5809 7.20344C39.7924 7.06645 40.0317 6.97803 40.2814 6.94455C40.4753 6.86977 40.6833 6.83857 40.8906 6.85317C41.1207 6.83846 41.3511 6.8784 41.5628 6.96971C41.7745 7.06103 41.9617 7.20113 42.1089 7.37858C42.4007 7.97357 42.522 8.63776 42.4592 9.29747V14.6277H45.2462V9.06142C45.2332 8.44875 45.1746 7.83789 45.071 7.2339C44.9673 6.69195 44.7605 6.17494 44.4619 5.71098C44.1354 5.30128 43.7183 4.97287 43.2435 4.75153C42.6324 4.51299 41.9805 4.39657 41.3246 4.40887C40.3138 4.40378 39.3312 4.74206 38.5377 5.36832C38.2106 5.08009 37.8228 4.86928 37.4031 4.75153C36.4684 4.48077 35.4853 4.42095 34.5248 4.5764C34.1414 4.59376 33.761 4.65248 33.3902 4.75153C33.0399 4.84291 32.6972 4.84291 32.347 4.92667C32.0634 5.02092 31.7693 5.07975 31.4713 5.10181V14.6962H34.2659V7.05877C34.441 7.05877 34.6085 6.97501 34.7837 6.97501H35.3091C35.5385 6.96 35.7682 6.99902 35.9798 7.08895C36.1914 7.17888 36.379 7.31721 36.5274 7.4928C36.8223 8.08676 36.9437 8.75185 36.8777 9.41169L36.9691 14.6429ZM23.514 10.6376C23.5266 11.2226 23.5852 11.8056 23.6891 12.3814C23.8063 12.8789 24.0127 13.351 24.2983 13.7749C24.6302 14.1597 25.051 14.4577 25.5243 14.6429C26.1312 14.8965 26.7858 15.016 27.4431 14.9932C27.9721 15.0213 28.502 14.9621 29.0118 14.8181C29.3992 14.7434 29.7772 14.6259 30.1387 14.4678L29.7047 12.29C29.4458 12.3814 29.0955 12.4652 28.8366 12.5489C28.5227 12.6245 28.1997 12.6553 27.8772 12.6403C27.6442 12.6748 27.4063 12.644 27.1898 12.5512C26.9733 12.4585 26.7869 12.3074 26.6512 12.1149C26.4167 11.6885 26.2985 11.2079 26.3086 10.7214V7.2339H29.7047V4.88098H26.3314V1.91889L23.514 2.26155V10.6376ZM16.8055 12.4652C16.2992 12.3627 15.8024 12.2175 15.3206 12.0311L14.7952 14.3155C15.8789 14.7404 17.0351 14.9499 18.199 14.9323C19.2967 14.9912 20.3876 14.7265 21.3362 14.1708C21.7017 13.9158 21.9972 13.5728 22.1955 13.1737C22.3937 12.7745 22.4884 12.3318 22.4708 11.8864C22.4927 11.5002 22.433 11.1136 22.2957 10.7519C22.2101 10.4148 22.0274 10.1103 21.7702 9.87618C21.4879 9.59736 21.1643 9.36365 20.8108 9.18325C20.3048 8.91368 19.7807 8.6796 19.2422 8.4827C18.9833 8.39894 18.7244 8.22381 18.4807 8.13243C18.3231 8.06992 18.1766 7.98251 18.0467 7.87353L17.7878 7.61464C17.7878 7.52326 17.6964 7.4395 17.6964 7.34812C17.6964 6.83033 18.1304 6.65519 19.0061 6.65519C19.45 6.62746 19.8949 6.68695 20.3158 6.83033L21.3591 7.08923L21.8845 4.91144C21.4603 4.75234 21.0217 4.63502 20.5747 4.56117C19.9991 4.45118 19.4164 4.38247 18.831 4.35557C17.8144 4.29063 16.8042 4.55788 15.9527 5.11703C15.6192 5.37186 15.3507 5.70207 15.1694 6.0806C14.9881 6.45913 14.899 6.87523 14.9095 7.29482C14.9164 7.70919 14.9752 8.12105 15.0846 8.52078C15.2339 8.84434 15.4403 9.13838 15.6938 9.38885C15.9775 9.64378 16.3018 9.84965 16.6532 9.99802C17.0035 10.1732 17.4147 10.3483 17.8715 10.5234C18.3235 10.6916 18.7615 10.8953 19.1813 11.1326C19.3066 11.1786 19.415 11.2614 19.4925 11.3701C19.5699 11.4788 19.6127 11.6083 19.6153 11.7418C19.6223 11.8674 19.593 11.9923 19.5309 12.1017C19.4688 12.2111 19.3765 12.3002 19.265 12.3586C18.8954 12.4618 18.5142 12.5181 18.1304 12.5261C17.6951 12.583 17.2528 12.5545 16.8283 12.4423M8.36848 4.53071C8.01821 4.53071 7.75931 4.61447 7.40904 4.61447C7.05877 4.61447 6.88363 4.70584 6.64758 4.78961C6.41152 4.87337 6.21354 4.88098 6.03841 4.96474L6.38868 7.24913C6.76964 7.07075 7.18645 6.98218 7.60702 6.99023C8.06741 6.91433 8.53414 6.88373 9.0005 6.89886C9.53196 6.85623 10.0605 7.01073 10.4854 7.33289C10.7531 7.65177 10.9059 8.05133 10.9194 8.46747V8.73399C10.694 8.65844 10.4561 8.62741 10.2188 8.64261C9.87618 8.64261 9.60967 8.55885 9.26701 8.55885C8.73756 8.57201 8.21021 8.6306 7.69078 8.73399C7.20087 8.82842 6.73 9.00338 6.2973 9.25178C5.91086 9.49872 5.57703 9.81961 5.31502 10.196C5.07087 10.6517 4.95259 11.1642 4.97236 11.6809C4.97521 12.2147 5.06523 12.7446 5.23887 13.2495C5.43063 13.668 5.73022 14.028 6.10694 14.2927C6.50897 14.5439 6.95243 14.7218 7.41666 14.8181C7.99248 14.9216 8.57549 14.9802 9.16041 14.9932C10.036 14.9804 10.9103 14.9219 11.7798 14.8181C12.3383 14.7407 12.8904 14.6237 13.4322 14.4678V8.62738C13.4241 8.07241 13.3655 7.51934 13.2571 6.97501C13.1691 6.47658 12.9267 6.01842 12.5641 5.66529C12.1792 5.33151 11.7349 5.07319 11.2544 4.90383C10.5701 4.72915 9.86672 4.63964 9.16041 4.63731C8.98527 4.46979 8.72637 4.46979 8.39894 4.55355M8.39894 12.488C8.22579 12.4041 8.08753 12.2622 8.00822 12.0869C7.92892 11.9116 7.91359 11.714 7.96491 11.5286C7.96802 11.3396 8.02917 11.1562 8.14005 11.0031C8.24035 10.8418 8.39388 10.7206 8.57408 10.6605C8.76261 10.56 8.97016 10.5004 9.18325 10.4854C9.44215 10.4854 9.70866 10.394 9.94471 10.394H10.5691C10.7467 10.4079 10.9226 10.4385 11.0945 10.4854V12.6631C10.9194 12.6631 10.6605 12.7469 10.4854 12.7469H9.72389C9.27315 12.7633 8.82477 12.6747 8.41417 12.488M4.3175 12.5718C4.05677 12.554 3.80014 12.4975 3.55604 12.4042C3.37677 12.3384 3.22421 12.2153 3.122 12.054C3.0233 11.895 2.96331 11.715 2.94686 11.5286C2.94686 11.2697 2.85549 11.0945 2.85549 10.828V0L0 0.434035V11.3306C0.00692581 11.8026 0.0656566 12.2725 0.175137 12.7317C0.269916 13.1344 0.481892 13.5001 0.784307 13.7825C1.13821 14.0951 1.55304 14.3311 2.00265 14.4754C2.65737 14.6559 3.33378 14.7456 4.01291 14.7419L4.3175 12.5718Z"
    fill="black"
  />
</svg>
