<svg
  width="95"
  height="48"
  viewBox="0 0 95 48"
  fill="none"
  xmlns="http://www.w3.org/2000/svg"
>
  <title>Logo Liberty Seguros</title>
  <path
    d="M20.6045 21.4753C20.1978 21.1929 18.8195 21.2381 18.2547 21.3623L17.848 20.1762C18.1531 19.9389 18.7405 19.7921 19.294 19.7921C19.8476 19.7921 20.435 19.9051 20.8417 20.1197L20.6045 21.4753Z"
    fill="black"
  />
  <path
    d="M17.6334 21.5318C17.2945 21.69 16.7749 22.0966 16.5151 22.3565V22.3677C16.3004 21.577 16.9217 20.7975 17.2042 20.5151L17.6334 21.5318Z"
    fill="black"
  />
  <path
    d="M23.2818 22.6954L23.9483 21.7916C23.7111 21.5544 22.1972 20.6281 21.768 20.4134L21.2936 21.6673C21.6211 21.7916 22.717 22.3338 23.2818 22.684V22.6954Z"
    fill="black"
  />
  <path
    d="M18.5839 25.452C18.4144 25.2148 18.132 24.9211 17.8722 24.8533L17.8608 24.8646V24.3901C17.8608 24.3901 18.437 24.0851 18.9566 23.9609C19.7699 23.7914 20.6172 24.2659 21.2386 24.7403L21.1256 24.9324L20.2444 25.147C20.075 24.9776 19.7361 24.9324 19.3859 24.9324C19.2593 24.9417 19.1406 24.9686 19.0448 24.9969C18.9947 25.0116 18.9509 25.0268 18.9156 25.0401C18.8903 25.0496 18.8693 25.0581 18.8537 25.0647C18.8326 25.0737 18.821 25.0792 18.821 25.0792L19.0131 25.3616L18.5839 25.452Z"
    fill="black"
  />
  <path
    fill-rule="evenodd"
    clip-rule="evenodd"
    d="M32.512 18.4475C32.512 18.4475 32.7718 18.3233 32.8621 18.4701H32.8847C32.9977 18.5944 32.7379 18.8542 32.7379 18.8542L29.202 22.8194C29.6539 24.6833 29.8684 26.7506 29.8684 28.9083C29.8684 30.2187 29.7781 31.4953 29.6086 32.7266C26.6376 32.6588 20.9441 33.7207 16.1091 38.2281C14.1999 40.0737 12.8101 42.2779 12.193 43.2565C12.0434 43.4938 11.9392 43.6591 11.8841 43.7296C11.4096 43.6844 11.003 43.4472 10.6979 43.21C12.1213 40.4762 14.2338 38.4879 15.533 37.3696C17.4716 35.6866 18.707 35.0482 20.6883 34.0243L21.0571 33.8337C19.1366 34.2404 17.058 35.1667 15.2505 36.398C14.6179 36.8725 13.9514 37.3922 13.2623 37.9909C12.833 38.4089 12.4264 38.8381 12.0761 39.29C10.6753 41.0636 9.77166 42.6338 9.77166 42.6338C9.29715 42.3288 9.12767 42.1142 9.12767 42.1142C6.17925 39.0528 4.66552 34.2629 4.66552 28.897C4.66552 25.8921 5.0835 23.1131 5.96467 20.6956C5.94716 20.3078 5.93309 19.9318 5.9211 19.611C5.90207 19.1 5.88814 18.729 5.87421 18.6735C5.73866 18.7187 5.43362 18.7187 5.07219 18.7187C4.73323 18.7187 4.45081 18.5831 4.19101 18.3911C3.93121 18.2216 3.80696 18.0634 3.69402 17.9166C3.64686 17.8695 3.60949 17.8008 3.57557 17.7211C3.56522 17.6968 3.55516 17.6714 3.54523 17.6453L3.52165 17.5817L3.50717 17.5425C3.48414 17.4794 3.4607 17.4146 3.43422 17.3517C3.07265 17.2727 2.81284 16.9451 2.79023 16.4932C2.77037 16.1443 2.86469 15.9713 2.96481 15.7879C2.97819 15.7636 2.99156 15.7389 3.00494 15.7137C2.92578 15.4313 2.81284 14.7422 2.81284 14.4598C2.47389 14.4598 2.07853 13.9627 1.93167 13.6013C1.81873 13.2962 1.88657 12.9912 2.07853 12.7766C1.75088 12.7766 1.60416 12.641 1.51369 12.4942C1.38945 12.257 1.43468 11.9971 1.60416 11.7373C0.813303 11.421 -0.112968 10.3365 0.0112797 8.74365C0.0628541 8.02116 0.42222 7.17422 0.620795 6.7065C0.682988 6.55991 0.729322 6.45056 0.745594 6.39395C0.813303 6.13411 0.813303 5.89689 0.722979 5.68225C1.11834 5.42241 1.42337 5.60316 1.54762 5.75003C1.63794 5.61447 2.11245 5.13999 2.32702 4.99317C2.06722 4.56389 1.68317 3.78441 1.80742 2.83549C1.9769 1.36689 3.33245 0.372777 5.00434 0.406665C5.65743 0.406665 5.96178 0.467169 6.24888 0.524259C6.47339 0.56887 6.68727 0.611412 7.04912 0.621306C7.87375 0.643921 8.41597 0.282418 8.56284 0C9.01473 0.237222 9.31977 0.756896 9.25192 1.3782C9.59088 1.46856 10.0654 1.40078 10.3929 1.20876C10.7205 1.0167 11.2288 0.542255 11.3419 0.21464C11.9292 0.497059 12.4038 1.10709 12.3811 1.96562C12.3585 3.15179 11.7824 3.86349 10.7658 4.27016C10.6166 4.32687 10.4616 4.38124 10.3073 4.43536C9.6317 4.67238 8.96909 4.90481 8.86787 5.30947C8.80526 5.59579 8.85684 5.64188 8.91434 5.69325C8.9291 5.70652 8.94441 5.72028 8.95819 5.73872C9.03735 5.73872 9.11637 5.72727 9.19842 5.71531C9.31604 5.69825 9.44002 5.68025 9.57957 5.69356C9.81676 5.71614 10.0315 5.863 10.0992 6.19062C9.98624 6.30356 9.86199 6.47303 9.83937 6.68767C9.83937 6.85398 9.93011 7.07059 10.0363 7.31019L10.064 7.37241C10.1451 7.55448 10.2314 7.74802 10.2913 7.94159C10.5058 8.63071 10.5737 9.04869 10.3591 9.92983C10.2234 10.5737 9.6248 11.5001 9.34238 11.7599C9.41009 12.0875 9.81676 13.1494 10.3365 14.4824C10.4042 14.4146 10.5058 14.3355 10.5963 14.2678C11.1385 13.895 11.7034 13.5561 12.3247 13.2962C13.7706 12.6297 15.4087 12.3021 17.2614 12.3021C17.8262 12.3021 18.4024 12.3247 18.922 12.3925L19.419 9.78296C19.419 9.78296 19.4868 9.52313 19.6789 9.52313C19.8709 9.52313 19.9387 9.80555 19.9387 9.80555L20.6955 12.7427C21.2377 12.9009 21.7349 13.0703 22.2094 13.285C23.531 13.8724 24.6494 14.7309 25.6209 15.7476L28.1175 13.7368C28.1175 13.7368 28.3773 13.477 28.5242 13.5674C28.6937 13.6577 28.5242 14.0418 28.5242 14.0418L27.146 17.7698C27.5753 18.4475 27.9594 19.2157 28.287 19.9952L32.512 18.4475ZM3.37782 4.32711C3.18572 4.06728 3.07279 3.59283 3.0954 3.14094H3.08409C3.12932 2.42927 3.70547 1.52551 4.95939 1.45773C5.16375 1.44956 5.39046 1.46656 5.61469 1.49155L5.67729 1.49876L5.74459 1.50686L5.82733 1.51734L6.00715 1.54113L6.01211 1.54175C6.2584 1.57474 6.48138 1.6046 6.64259 1.6046C7.02664 1.6046 7.99814 1.51424 8.21285 1.32218C8.3371 1.61591 8.29187 1.89832 8.145 2.15813C8.45004 2.29368 9.26337 2.44054 9.61363 2.44054C10.3027 2.39538 11.0144 2.01126 11.2516 1.66107C11.3758 2.03388 11.3081 2.61002 10.9466 2.89244C10.5676 3.24533 9.87467 3.49616 9.27054 3.71487C8.83036 3.87425 8.43721 4.0166 8.24663 4.16894C7.86258 4.45136 7.69311 4.62084 7.60278 4.85806C7.58761 4.84299 7.57355 4.82841 7.5599 4.81428L7.5461 4.80007L7.54238 4.79614C7.49756 4.7497 7.45854 4.7093 7.41744 4.67717C7.39166 4.65704 7.3649 4.64014 7.33526 4.62701C7.31126 4.61639 7.28534 4.60822 7.25652 4.60288C7.23197 4.59829 7.20522 4.59574 7.17571 4.5954C7.15406 4.59512 7.13075 4.59605 7.10579 4.59822C7.07408 4.60329 7.04388 4.61132 7.01478 4.6216C6.92666 4.65262 6.84861 4.70392 6.77194 4.75436C6.64755 4.8361 6.52648 4.91563 6.37148 4.90326C6.18504 4.89229 6.01735 4.74036 5.84498 4.58429C5.66212 4.41868 5.47403 4.24837 5.25311 4.23672C4.82052 4.22255 4.54831 4.43088 4.33553 4.5936L4.28134 4.6348L4.243 4.66317C4.22287 4.67779 4.20328 4.69148 4.18398 4.70399C4.11972 4.74564 4.05946 4.77415 3.99919 4.77897C3.78448 4.80155 3.49076 4.49656 3.37782 4.32711ZM5.18527 9.28636C6.34886 9.28636 6.9137 9.78341 7.1735 10.0207C7.21873 9.63655 7.15089 9.28636 6.78945 8.98136C6.48442 8.74413 5.93089 8.52949 5.10625 8.52949C4.56403 8.52949 4.01036 8.69894 3.66024 8.98136C3.3552 9.24119 3.2988 9.54619 3.37782 9.99805C3.46814 9.67047 4.21377 9.28636 5.18527 9.28636ZM7.80025 11.229C7.81542 11.2713 7.82838 11.3079 7.83997 11.3311H7.85128C7.87389 11.444 12.0311 22.1985 12.0989 22.3115C12.1441 22.4358 12.4039 24.2319 12.4039 24.3788C12.4265 24.5143 13.0366 25.9716 13.1608 26.1072C12.6186 26.0846 11.7148 26.3896 10.9805 27.1239C10.2462 27.8017 9.61363 29.3719 9.46677 30.0836C9.42154 29.7108 7.39938 23.5202 7.30906 23.3508C7.24176 23.2415 7.01216 18.5789 6.88943 16.0832L6.88901 16.0789L6.88557 16.0077L6.88433 15.9786L6.88391 15.9717C6.84475 15.1731 6.81758 14.6198 6.81207 14.5506L7.26382 14.2231V14.1552C6.92501 14.1327 6.54096 14.0197 6.42788 13.8277L6.31494 11.2633C5.86304 11.2181 5.41128 11.0826 5.21919 10.9131C5.00448 10.6984 4.83514 10.4386 5.07233 9.96416C5.30951 10.1223 5.9535 10.3144 6.51834 10.3144C6.52937 10.3144 6.54178 10.3168 6.5553 10.3213C6.57419 10.3276 6.59529 10.3379 6.61804 10.351C6.67651 10.3848 6.74546 10.4374 6.814 10.4896L6.82103 10.4951C6.84544 10.5137 6.86971 10.5321 6.89329 10.5495L6.91866 10.568L6.95093 10.5905C6.98251 10.612 7.01202 10.63 7.03795 10.642C7.13751 10.6705 7.29099 10.7482 7.4191 10.8132L7.50487 10.8564C7.52432 10.8661 7.54252 10.8749 7.55893 10.8825L7.57975 10.8921L7.60278 10.9018C7.69517 10.9354 7.7564 11.1064 7.80025 11.229ZM6.43919 16.6631C6.22461 16.5389 5.65978 16.2564 5.20788 16.279C4.75599 16.3016 4.34932 16.392 3.99919 16.6292C3.82972 16.5163 3.78448 16.3242 3.87481 16.0644C3.96527 15.8272 4.13475 15.8046 4.13475 15.8046L3.98789 13.5452C3.98789 13.5452 4.63174 13.0934 4.78991 13.0482C4.95939 13.003 5.0271 12.8561 5.0271 12.6867C5.30951 12.8787 5.73879 13.308 5.9535 13.613C6.16808 13.8954 6.28102 14.2343 6.31494 14.5845C6.31494 14.9347 6.31494 15.3866 6.24723 15.8159L6.2515 15.8195C6.39671 15.9424 6.52979 16.055 6.55213 16.2451C6.55213 16.4131 6.51765 16.486 6.46359 16.6L6.43919 16.6518V16.6631ZM12.5621 33.6534C12.37 35.314 11.9746 36.7374 11.3758 37.7541C11.0938 38.2164 10.4857 38.9939 10.0113 39.6003C9.80173 39.8682 9.61832 40.1027 9.50069 40.262C9.92997 39.4373 10.2349 37.4378 10.2124 35.9014C10.2066 35.6415 10.1822 35.3032 10.1543 34.9192L10.1531 34.9019L10.151 34.875L10.1502 34.8657C10.0686 33.7536 9.96031 32.2778 10.1672 31.202C10.4496 29.6092 10.9015 28.7393 11.9407 27.7678C12.4829 27.2708 13.5788 26.6268 15.1715 27.0561L16.4256 29.451C15.759 29.3268 14.8553 29.451 14.2453 29.9029C13.1269 30.784 12.7542 31.9363 12.5621 33.6534ZM12.6831 36.8769L12.675 36.8955H12.6637L12.6831 36.8769ZM12.6831 36.8769C12.9872 36.1713 13.3877 34.2123 13.4996 33.5517C13.5103 33.4902 13.5207 33.4267 13.5314 33.3616C13.6705 32.5185 13.855 31.4003 14.7988 30.6033C15.2959 30.1966 16.0979 30.1514 16.4368 30.2531L17.8828 33.1676C17.9957 33.4839 18.425 33.5969 18.7074 33.5743C17.3586 34.024 13.9964 35.6257 12.6831 36.8769ZM24.9432 27.5306C24.706 27.9147 24.7737 28.2423 24.9206 28.5021C24.9751 28.5985 25.1137 28.8521 25.2663 29.1329L25.602 29.7516L25.8244 30.1627C26.0601 30.8023 26.2511 31.1298 26.4862 31.5327L26.4909 31.5409H27.8239C27.3268 30.4225 26.1634 28.2423 26.1634 28.2423L26.0955 26.4913C25.7679 26.6833 25.1917 27.1804 24.9545 27.5306H24.9432ZM5.25311 7.0609C7.97552 7.1061 9.19566 8.37132 9.24075 9.38806C9.38761 9.08302 9.36514 8.8006 9.33121 8.46172C9.33121 8.31123 9.20931 8.01961 9.09196 7.73899C9.043 7.62177 8.99488 7.50645 8.95668 7.40417C8.91476 7.29174 8.88483 7.19501 8.87932 7.12871C8.87932 7.03284 8.89035 6.94434 8.90648 6.85729C8.91848 6.79289 8.93324 6.72929 8.9484 6.66402C8.96344 6.59914 8.97888 6.53268 8.99226 6.46217C8.9593 6.46993 8.91476 6.48334 8.86222 6.49913C8.60834 6.57546 8.16831 6.70777 7.95305 6.52995C7.83845 6.43532 7.8117 6.27694 7.78467 6.11687C7.75047 5.91396 7.71586 5.70831 7.50115 5.62623C7.30588 5.54438 7.04043 5.64153 6.78311 5.73572C6.57888 5.81053 6.37961 5.88344 6.22461 5.86345C6.06024 5.84225 5.90331 5.72155 5.74459 5.59937C5.56504 5.46123 5.38315 5.32123 5.18527 5.32123C4.99428 5.32123 4.85072 5.43982 4.69241 5.57072C4.54155 5.69528 4.37731 5.83097 4.14606 5.88607C3.93259 5.92606 3.69968 5.86769 3.50041 5.81777C3.36196 5.78312 3.23978 5.75254 3.15194 5.76178C2.91461 5.76178 2.76775 5.95384 2.67743 6.16848C2.56449 6.4057 2.48533 6.49606 2.20292 6.57515C2.08873 6.59921 1.9489 6.55608 1.81762 6.51558C1.70206 6.47993 1.59312 6.44632 1.51383 6.46217C1.62677 6.57515 1.70593 7.08351 1.58168 7.36593C1.53962 7.46608 1.48653 7.56902 1.43164 7.67552C1.29443 7.94135 1.14592 8.22946 1.12978 8.55207C1.09476 8.86659 1.16798 9.046 1.25003 9.24702L1.26423 9.28201L1.28657 9.33786L1.30491 9.38581L1.32188 9.43322C1.25403 7.96466 2.892 7.01574 5.26442 7.0609H5.25311ZM2.76775 12.9465C2.95985 12.6189 3.3552 12.3026 3.5473 12.2574C3.47104 12.2574 3.38375 12.2578 3.29094 12.2604C3.0954 12.2659 2.87462 12.2814 2.67743 12.3252C2.5871 12.1218 2.54187 11.7603 2.60958 11.5231H2.93723L2.74514 11.0713C2.98246 10.8566 3.90873 10.4048 4.40586 10.3821C4.43082 10.5138 4.44902 10.6315 4.45633 10.7257C4.4595 10.7676 4.46061 10.8049 4.45923 10.8366C4.45881 10.8474 4.45798 10.8576 4.45688 10.8672C4.45536 10.88 4.45343 10.8915 4.45095 10.9018L4.44654 10.9154C4.43247 10.9585 4.41317 11.0177 4.37538 11.0665C4.35208 11.0967 4.32188 11.1229 4.28161 11.139C4.23804 11.1584 4.14895 11.2005 4.06125 11.2424L3.92735 11.3066L3.82972 11.3537C4.0669 11.3537 4.50749 11.3537 4.65435 11.3763C4.68345 11.3802 4.70965 11.384 4.73296 11.3886L4.74716 11.3915L4.76233 11.395C4.7906 11.4021 4.81377 11.4108 4.83224 11.4228C4.87334 11.4495 4.89154 11.4922 4.89154 11.5683C4.89154 11.7378 4.83514 11.8959 4.74468 12.0202C4.69462 12.1036 4.53976 12.1131 4.4031 12.1215C4.3547 12.1244 4.30864 12.1273 4.2703 12.1332C4.33801 12.28 4.36063 12.3478 4.36063 12.5172C4.36063 12.6528 4.3154 12.7319 4.16853 12.7997L4.13958 12.813C4.00099 12.8767 3.85247 12.9449 3.69416 13.0821C3.56991 13.1498 3.30997 13.5339 3.26488 13.7486C3.05017 13.6356 2.81298 13.1385 2.76775 12.9465ZM15.9963 21.3398C15.8721 21.8368 15.906 22.3565 16.0189 22.6728C15.6349 22.9778 15.5219 23.215 15.4541 23.5765C15.4089 23.8363 15.4541 24.1978 15.6687 24.4125C15.6462 24.0849 15.8834 23.7008 16.0755 23.441C16.2336 23.2328 16.453 23.1229 16.6841 23.0071C16.7668 22.9658 16.8507 22.9237 16.934 22.8761L16.9791 23.4974C16.6967 23.6669 16.3353 24.0171 16.3126 24.2091L16.3353 25.2258L17.0921 24.774L17.2615 25.079L16.9791 26.8865L17.4084 26.8187L18.2104 27.1237L17.431 27.7902V28.05C17.431 28.05 17.544 27.8806 17.8377 27.9145C18.0975 27.9145 18.8092 28.2195 18.8092 28.2195L18.7866 28.3889H17.4084C17.3632 28.581 17.5213 28.7165 17.6231 28.7956L17.6577 28.787L17.6838 28.78L17.7341 28.7652C17.7818 28.7506 17.8283 28.7348 17.8717 28.72C17.9665 28.6877 18.0476 28.6601 18.0975 28.6601C18.1474 28.6601 18.2421 28.6738 18.353 28.69L18.3551 28.6903L18.4014 28.697L18.5066 28.7117C18.551 28.7176 18.5958 28.7232 18.6397 28.7278L18.4025 29.0554C18.4025 29.0554 18.3584 29.0826 18.2794 29.0997C18.2143 29.1138 18.1256 29.121 18.0185 29.1006C17.9055 29.078 17.7813 29.2701 17.7813 29.4056C17.7813 29.5751 17.8716 29.9479 17.8716 29.9479C17.9958 30.5466 18.5833 30.4223 18.651 30.3998C19.0352 30.3771 20.2665 29.9253 20.2665 29.9253L19.0803 31.5859L19.6 33.3708C20.3794 33.0432 22.7066 32.2072 25.2484 31.8005C25.0655 31.4935 24.9821 31.3142 24.8541 31.0391L24.8521 31.0348L24.8483 31.0266L24.845 31.0195C24.7771 30.8737 24.6962 30.7001 24.5818 30.4675L23.2715 27.5078L23.4634 27.0785C23.7458 27.1689 24.1751 26.9542 24.4575 26.7283C24.74 26.5137 25.1015 26.0844 25.2145 25.8246C25.0224 25.7342 24.8868 25.7568 24.7173 25.8472C24.6889 25.8713 24.6616 25.8975 24.6347 25.9235C24.5229 26.0313 24.4158 26.1346 24.243 26.0618C24.0591 25.9918 24.0924 25.8133 24.1271 25.6261C24.1372 25.5717 24.1474 25.5165 24.1525 25.4631C24.1751 25.2258 23.8701 25.2258 23.6781 25.4179C23.4634 25.5873 23.0341 25.5083 22.7517 25.2258C22.4693 24.9434 21.0911 23.8024 20.5941 23.5426C19.9049 23.1134 18.956 23.023 18.2443 23.1359C18.0693 23.1651 17.9174 23.2173 17.7876 23.2618C17.6157 23.3209 17.4823 23.3666 17.3858 23.328L16.8888 22.5259L16.9565 22.4807C16.9754 22.4896 16.994 22.499 17.0124 22.5087L17.0711 22.5407C17.2166 22.6207 17.3553 22.6972 17.544 22.6163C17.7813 22.5485 18.5155 22.3791 19.1821 22.3791C20.2213 22.3565 21.4865 22.7293 22.0287 22.9778C22.0513 23.6443 23.407 24.4916 24.017 24.5706C24.5367 24.6384 24.8417 24.5029 25.1579 24.3108L23.825 23.1472L24.5367 22.2661C24.5367 22.2661 25.6324 23.3393 25.7906 23.5426C25.8283 23.42 25.803 23.2739 25.7805 23.1435L25.7743 23.1071L25.768 23.0682C25.7002 22.7406 24.8642 21.7465 23.4408 20.6507C22.3224 19.7921 20.6845 18.9674 19.3401 18.9674C17.0583 18.9901 16.1432 20.5603 15.9737 21.3624L15.9963 21.3398ZM26.1181 21.8144C26.4345 22.0743 26.9541 23.2604 26.9767 23.6897L31.4841 19.4421L26.1181 21.8144ZM12.3023 14.8105L16.8323 18.9338C16.3804 19.171 15.7364 19.8375 15.5557 20.3797L12.3023 14.8105ZM14.6972 23.6445C14.7422 23.3621 14.7875 23.2152 14.957 22.9554L13.2059 22.1308C13.2059 22.1572 13.2138 22.1837 13.2201 22.2056C13.2247 22.2211 13.2285 22.2344 13.2285 22.2437L13.2339 22.3063C13.2368 22.3361 13.2401 22.3676 13.2438 22.4005C13.2499 22.4542 13.2568 22.5116 13.264 22.5712C13.2965 22.8424 13.3344 23.1591 13.319 23.3847L14.6972 24.3336C14.6927 24.2872 14.6875 24.2435 14.6823 24.2009C14.6612 24.0259 14.6425 23.8717 14.6972 23.6445ZM18.7979 18.2108C19.3627 18.0978 20.6506 18.2108 21.0572 18.4254L19.7468 11.0261L18.7979 18.2108ZM24.9658 20.6283C24.706 20.4136 23.6103 19.5099 23.1132 19.3179H23.1245L27.6997 14.7879L24.9658 20.6283Z"
    fill="black"
  />
  <path
    fill-rule="evenodd"
    clip-rule="evenodd"
    d="M53.5247 18.2672C54.1426 17.6494 54.7492 17.255 55.4113 17.0839V17.0809C55.705 17.0019 55.9874 16.9567 56.2698 16.9567C58.2015 16.9567 59.6928 18.5721 59.6928 20.662C59.6928 22.7519 58.5066 24.4803 55.4226 24.6724H54.8804C53.5247 24.6724 52.4742 24.6047 51.3896 24.39V14.1439C51.3896 13.5226 50.9942 13.195 50.3277 13.0707V12.7431L53.2198 12.5511H53.5247V18.2672ZM53.5247 18.7981C54.259 18.1316 54.643 17.9396 55.2079 17.9396C55.2506 17.9396 55.2934 17.9396 55.3389 17.9452C55.3622 17.9481 55.3862 17.9525 55.4113 17.9591V17.9621L55.4226 17.9734C56.5636 18.0976 57.3204 19.2838 57.3204 20.9105C57.3204 22.831 56.5862 23.8251 55.4226 24.085C55.1854 24.1528 54.9481 24.1754 54.6656 24.1754C53.8071 24.1754 53.5247 23.7913 53.5247 22.9666V18.7981Z"
    fill="black"
  />
  <path
    d="M49.04 13.7708C49.04 13.1043 48.4978 12.5621 47.8087 12.5621C47.1197 12.5621 46.5548 13.0817 46.5548 13.7708C46.5548 14.4599 47.1197 15.0248 47.8087 15.0248C48.4978 15.0248 49.04 14.4373 49.04 13.7708Z"
    fill="black"
  />
  <path
    d="M40.3635 22.5935C40.3635 23.4972 40.7476 23.7797 42.1145 23.7797C43.4815 23.7797 44.1027 23.3504 44.9839 21.5316H45.3115L44.9839 24.401H36.5113V24.096C37.7879 23.7683 37.9121 23.4746 37.9121 22.2885V15.1941C37.9121 14.2226 37.6749 13.9402 36.5113 13.6465V13.3189H41.7756V13.6465C40.6573 13.9289 40.3522 14.1436 40.3522 15.1151V22.5822L40.3635 22.5935Z"
    fill="black"
  />
  <path
    d="M48.8704 22.8759C48.8704 23.5876 49.2319 23.9943 50.0339 24.0847V24.3897H45.5265V24.0847C46.498 23.8926 46.7353 23.6328 46.7353 22.7065V18.9108C46.7353 18.0296 46.4755 17.7924 45.4362 17.5777V17.2502L48.5428 16.9903H48.8704V22.8759Z"
    fill="black"
  />
  <path
    fill-rule="evenodd"
    clip-rule="evenodd"
    d="M64.3802 23.52C63.454 23.0682 62.7423 21.9498 62.8214 20.1989L68.2212 20.1985C67.9387 18.2329 66.4927 16.9677 64.4706 16.9677H64.3802L64.3804 16.9793C62.1774 17.0471 60.5169 18.7077 60.5169 20.8879C60.5169 23.0682 62.1548 24.661 64.3804 24.6837L64.3802 24.6722H64.4029C66.1087 24.6722 67.5547 23.7233 68.2212 22.2095H67.8935C67.2044 23.2601 66.3685 23.7572 65.3518 23.7572C65.0241 23.7572 64.6853 23.6894 64.3802 23.52ZM64.3802 17.4986C65.2388 17.5212 65.8263 18.4701 65.894 19.7693L62.8214 19.7696C62.8891 18.3914 63.4653 17.4989 64.3352 17.4989L64.3802 17.4986Z"
    fill="black"
  />
  <path
    d="M75.0803 19.7377L75.0897 19.7467H75.0784L75.0803 19.7377Z"
    fill="black"
  />
  <path
    d="M75.5529 17.589L75.0803 19.7377C74.4408 19.1224 73.9463 18.8204 73.4742 18.8204C72.8303 18.8204 72.435 19.0802 71.8814 19.8371V22.7516C71.8814 23.5989 72.0508 23.87 73.0901 24.0846V24.3897H68.5375V24.0846C69.4864 23.8474 69.7237 23.565 69.7237 22.7516V18.9785C69.7237 18.0748 69.3397 17.6455 68.4246 17.5777V17.2501L71.5538 16.9677H71.8814V19.2496H71.9039C72.6156 17.702 73.3952 16.9677 74.2763 16.9677C74.7507 16.9677 75.2026 17.1823 75.5529 17.589Z"
    fill="black"
  />
  <path
    d="M87.1308 17.2618V17.5894C88.0346 17.7814 88.2491 18.3462 87.6053 19.86L86.6112 22.142L85.1199 19.0354C84.6682 18.109 84.6682 17.7023 85.4702 17.5894V17.2618H79.1667V14.5054H78.8051C77.7884 15.7819 76.6249 16.9229 75.7211 17.4651V17.8266H76.9976V22.4244C76.9976 24.0398 78.0821 24.6724 79.4378 24.6724C80.477 24.6724 81.1887 24.2883 81.7197 23.4185L81.505 23.2039C81.1549 23.6105 80.8386 23.7687 80.4657 23.7687C79.4716 23.7687 79.1667 23.0796 79.1667 21.9386V17.8153H81.0644C82.1038 17.8153 82.4201 18.1881 82.8719 19.1709L85.4815 24.6724C84.6342 27.0221 83.866 27.9711 82.5444 27.9711C82.2619 27.9711 82.0246 27.9485 81.5729 27.8016L81.1436 29.9593C81.4034 30.0045 81.5503 30.0045 81.7422 30.0045C83.2335 30.0045 84.0468 29.3605 84.8037 27.6322L88.4073 19.4081C88.9721 18.0751 89.2093 17.8153 90.1131 17.5781V17.2505H87.1534L87.1308 17.2618Z"
    fill="black"
  />
  <path d="M36.6459 28.4339H79.9801V27.9594H36.6459V28.4339Z" fill="black" />
  <path d="M94.7901 28.4339H85.7754V27.9594H94.7901V28.4339Z" fill="black" />
  <path
    d="M39.4336 42.8258C38.7668 42.825 37.7082 42.6109 37.1331 42.4418C36.9636 42.566 36.9184 42.6338 36.8507 42.7693C36.7609 42.7772 36.6793 42.7823 36.6109 42.7856C36.4811 42.792 36.3988 42.792 36.3988 42.792V39.6402H36.8281C37.1557 40.7246 38.082 42.1819 39.528 42.1819C40.8046 42.1819 41.5163 41.7074 41.5163 40.8489C41.5163 39.4707 40.0702 38.7364 39.0309 38.2394C37.8222 37.6293 36.4891 36.6013 36.4666 34.8955C36.4666 32.9751 37.8899 31.4613 40.33 31.7211C40.4812 31.7386 40.6159 31.7613 40.7451 31.7857L40.857 31.8075L40.9389 31.8238C41.2398 31.8841 41.5412 31.9445 41.9906 31.9584C42.2053 31.981 42.273 31.7438 42.273 31.7438H42.6798V34.5905C42.6798 34.5905 42.6065 34.5991 42.4997 34.6058C42.4338 34.6098 42.3551 34.6131 42.273 34.6131C41.9906 33.732 41.2112 32.4328 39.9912 32.4328C38.8502 32.4328 38.0933 32.9977 38.0933 33.8562C38.0933 34.6357 39.2795 35.5169 40.1381 35.9687L41.3242 36.6352C41.4124 36.7014 41.4996 36.7653 41.5853 36.8283C42.5105 37.5065 43.2691 38.0627 43.2898 39.9339C43.335 41.83 41.9819 42.824 39.4336 42.8258Z"
    fill="black"
  />
  <path
    d="M77.1681 38.1039C76.5241 37.5052 76.0271 37.1776 75.5526 37.1776C74.9087 37.1776 74.5134 37.4374 73.9599 38.1942V41.0862C73.9599 41.9448 74.1292 42.2046 75.1685 42.3854V42.7242H70.6159V42.3854C71.5648 42.1707 71.8021 41.8883 71.8021 41.0862V37.3357C71.8021 36.432 71.4181 36.0253 70.503 35.9575V35.6299L73.6322 35.3475H73.9599V37.5955H73.9823C74.694 36.0479 75.4736 35.3475 76.3548 35.3475C76.8291 35.3475 77.281 35.5621 77.6313 35.9575L77.1568 38.0926L77.1681 38.1039Z"
    fill="black"
  />
  <path
    d="M47.7066 35.924C48.5425 35.9466 49.1526 36.8729 49.2203 38.1494H47.7066V38.5787H51.4796C51.2424 36.6583 49.7964 35.4269 47.8082 35.4269H47.7179V35.924H47.7066Z"
    fill="black"
  />
  <path
    d="M47.7066 42.9732V41.8322C47.989 42.0017 48.3279 42.0694 48.6554 42.0694C49.6722 42.0694 50.5081 41.5724 51.1746 40.5557H51.4796C50.8584 42.0468 49.4124 42.9732 47.7292 42.9732H47.7066Z"
    fill="black"
  />
  <path
    d="M47.6598 35.935C46.8126 35.935 46.2365 36.8275 46.1687 38.1605H47.705V38.5897H46.1687C46.0897 40.2955 46.7788 41.3913 47.705 41.8432V42.9841C45.5248 42.9616 43.9094 41.3913 43.9094 39.2562C43.9094 37.1211 45.5473 35.4831 47.705 35.438V35.935H47.6598Z"
    fill="black"
  />
  <path
    d="M89.3908 42.8487C88.892 42.8265 88.6652 42.7635 88.474 42.7105C88.2756 42.6554 88.1158 42.611 87.7302 42.634C87.5381 42.634 87.3801 42.7244 87.3235 42.8261H86.9169V40.1261H87.3235C87.5834 40.9282 88.1821 42.0692 89.2666 42.2386C90.2607 42.4081 90.8255 42.024 90.8255 41.3801C90.8255 40.5878 89.9031 40.1883 89.167 39.8694L89.1628 39.8676C89.0816 39.8325 89.0029 39.7983 88.9277 39.7646C88.8693 39.7382 88.8101 39.712 88.7509 39.6857L88.7276 39.6753C87.8328 39.2782 86.8943 38.8618 86.8943 37.5166C86.8943 36.2175 87.9787 35.3589 89.854 35.551C89.9298 35.559 90.0011 35.567 90.0702 35.5747C90.392 35.6107 90.6655 35.6413 91.1305 35.6413C91.3226 35.6413 91.3451 35.5058 91.3451 35.5058H91.797L91.7744 37.6861H91.3903C91.1758 37.0986 90.6786 36.0932 89.5829 36.0254C88.7243 36.0029 88.3064 36.2853 88.329 36.884C88.329 37.3811 88.9277 37.6635 89.9669 38.025C91.2774 38.4542 92.4523 39.1885 92.1473 40.9169C91.9326 42.1031 91.2435 42.9051 89.3682 42.86L89.3908 42.8487Z"
    fill="black"
  />
  <path
    d="M70.1305 42.1936C70.1305 42.1936 69.0346 42.3518 69.0346 40.7928L69.0233 40.7702C69.0233 40.7702 69.0008 36.3193 68.9782 35.4382C68.1423 35.6528 65.9167 35.6754 65.9167 35.6754L65.8942 36.1047C65.8942 36.1047 66.9108 36.1047 66.8884 37.0988V40.4652C66.8884 40.6573 66.5155 41.1769 66.3912 41.2786C66.3693 41.2938 66.3438 41.3135 66.315 41.336L66.3137 41.3368C66.1479 41.4654 65.8643 41.6853 65.4424 41.6853C64.3014 41.6853 64.1093 40.951 64.1093 40.0924V37.1553C64.1093 36.5227 64.0867 36.0482 64.0867 35.4043C64.0675 35.4043 64.0155 35.4143 63.9358 35.4296C63.7343 35.4684 63.3554 35.5414 62.878 35.5737C62.2228 35.6302 60.8897 35.698 60.8897 35.698V36.1725C60.8897 36.1725 62.0081 35.9578 62.0081 37.5733C61.9629 39.3356 62.0081 40.6121 62.0081 40.6121C62.0081 42.1259 62.652 42.8827 64.1206 42.8827C65.7466 42.9593 66.3359 42.1045 66.6361 41.6692C66.6905 41.5903 66.7354 41.5252 66.7753 41.4819C66.8448 41.4819 66.8878 41.5082 66.9081 41.5609C66.9176 41.5854 66.9221 41.6155 66.9221 41.6514C66.9221 41.6901 66.9204 41.7806 66.9177 41.8972L66.9143 42.0481C66.9078 42.3278 66.8995 42.6773 66.8995 42.8601C68.4021 42.7133 70.153 42.6681 70.153 42.6681L70.1305 42.1936Z"
    fill="black"
  />
  <path
    fill-rule="evenodd"
    clip-rule="evenodd"
    d="M81.9586 35.4269C79.7825 35.4767 77.6998 36.8546 77.7224 39.313C77.7224 41.7305 79.6881 42.9392 81.9249 42.9392H81.9586V42.9505C84.2631 42.928 86.2514 41.7192 86.2514 39.1774C86.2514 36.6357 84.2518 35.4269 82.0264 35.4269H81.9586ZM82.1281 36.0708C83.461 36.1612 83.9807 37.7992 83.879 39.6067C83.7663 41.2624 83.2383 42.4464 81.97 42.3863V42.3744H81.9249C80.5466 42.2501 79.8801 40.759 80.0496 38.7934C80.1852 36.8729 80.9985 36.0934 81.97 36.0708H82.1281Z"
    fill="black"
  />
  <path
    fill-rule="evenodd"
    clip-rule="evenodd"
    d="M55.8503 40.9962C58.46 41.0188 59.4992 39.5954 59.4315 38.2737C59.3814 37.4733 59.0299 37.159 58.831 36.9811C58.7999 36.9533 58.7726 36.9288 58.7506 36.9064C58.7228 36.8778 58.7038 36.8525 58.6971 36.8277H60.29V35.6189C60.29 35.6189 57.8273 35.6189 57.3528 35.6415C56.901 35.506 56.3813 35.4043 55.8617 35.4043V36.0708C56.6863 36.0934 57.3754 36.8277 57.3754 38.3753C57.3754 39.7987 56.7315 40.3635 55.9972 40.3635C55.9833 40.3635 55.9694 40.3635 55.9551 40.3629C55.9334 40.3619 55.9109 40.3593 55.8865 40.3529C55.8749 40.3499 55.8629 40.346 55.8503 40.341L55.8508 40.3294C54.9696 40.2616 54.337 39.3579 54.337 37.9571C54.337 36.6579 55.0714 36.0592 55.8057 36.0592H55.8508V35.3927H55.7378C53.4106 35.3927 52.2472 36.7935 52.2472 38.2621C52.2687 39.7943 53.2555 40.2086 54.1281 40.575L54.2692 40.6344C54.3477 40.7619 54.2219 40.7957 54.0321 40.8468C54.0033 40.8545 53.973 40.8627 53.9417 40.8716C53.9249 40.8768 53.89 40.8823 53.8414 40.89C53.467 40.9488 52.281 41.1352 52.281 42.295C52.2622 43.3042 53.0859 43.5181 53.7332 43.6861C53.8611 43.7193 53.9822 43.7507 54.0885 43.7862C54.2579 43.8314 54.2241 43.9556 53.9643 43.9782C53.727 44.0234 53.0379 44.238 52.6878 44.4527C51.9534 44.8594 51.784 45.5146 51.784 45.9439C51.784 47.0622 53.3316 47.9886 55.8621 47.9886L55.8617 48H55.9069C56.9235 48 58.6067 47.7176 59.3636 46.9607C59.9398 46.3959 60.2448 45.8424 60.3125 45.3001V44.6788C60.1205 43.4926 58.8666 42.5663 57.3528 42.4307L57.3414 42.4195C57.2222 42.4118 57.0767 42.4041 56.9144 42.3955C56.6034 42.379 56.2307 42.3593 55.8621 42.33V42.3176L55.8508 42.3289C54.9696 42.2837 54.0772 42.1143 54.0207 41.6172C53.953 41.1202 55.1391 40.9507 55.4215 40.9733C55.5683 40.9733 55.7039 40.9959 55.8503 40.9962ZM55.8503 44.1475C54.6019 44.1274 53.6024 44.4998 53.535 45.1192C53.4445 45.8083 54.4613 46.52 55.8621 46.7798L55.8617 46.7913C55.952 46.8139 56.0311 46.8139 56.1215 46.8364C57.6578 47.0511 58.9683 46.6218 59.0812 45.9101C59.1715 45.1758 58.0194 44.419 56.4717 44.2043L56.4701 44.2041C56.2559 44.1816 56.042 44.1591 55.8503 44.1591V44.1475Z"
    fill="black"
  />
</svg>
