<svg
  width="235"
  height="91"
  viewBox="0 0 235 91"
  fill="none"
  xmlns="http://www.w3.org/2000/svg"
>
  <title>Logo Lifull Connect</title>
  <path
    fill-rule="evenodd"
    clip-rule="evenodd"
    d="M133.986 74.0477C138.415 74.0477 142.025 77.6788 142.025 82.1376C142.025 86.6123 138.415 90.2274 133.984 90.2274C129.537 90.2274 125.945 86.5963 125.945 82.1376C125.945 77.6629 129.553 74.0477 133.984 74.0477H133.986ZM115.958 74.0158C118.143 73.968 120.121 74.8132 121.592 76.183C121.702 76.2946 121.719 76.4701 121.608 76.5817L119.456 78.7457C119.346 78.8573 119.189 78.8573 119.077 78.7616C118.238 78.0121 117.114 77.5831 115.895 77.6469C113.616 77.7586 111.781 79.6371 111.686 81.9303C111.576 84.5105 113.6 86.5963 116.117 86.5963C117.241 86.5963 118.286 86.1658 119.061 85.4657C119.171 85.37 119.328 85.37 119.44 85.4816L121.594 87.6472C121.704 87.7588 121.704 87.9502 121.578 88.0459C120.136 89.3998 118.222 90.2115 116.101 90.2115C111.511 90.2115 107.825 86.3571 108.078 81.6767C108.298 77.4556 111.764 74.0956 115.958 74.0158ZM211.707 74.0158C213.889 73.968 215.868 74.8132 217.34 76.183C217.45 76.2946 217.465 76.4701 217.355 76.5817L215.203 78.7457C215.093 78.8573 214.935 78.8573 214.823 78.7616C213.985 78.0121 212.861 77.5831 211.643 77.6469C209.364 77.7586 207.527 79.6371 207.433 81.9303C207.339 84.5105 209.363 86.5963 211.865 86.5963C212.988 86.5963 214.034 86.1658 214.807 85.4657C214.917 85.37 215.078 85.37 215.188 85.4816L217.341 87.6472C217.451 87.7588 217.451 87.9502 217.326 88.0459C215.884 89.3998 213.969 90.2115 211.849 90.2115C207.259 90.2115 203.571 86.3571 203.825 81.6767C204.046 77.4556 207.512 74.0956 211.706 74.0158H211.707ZM49.047 74.4145C49.2042 74.4145 49.3299 74.5421 49.3299 74.7015V82.0897C49.3299 85.1643 51.3106 86.5485 53.7629 86.5485C56.1994 86.5485 58.1943 85.1643 58.1943 82.0897V74.7015C58.1943 74.5421 58.32 74.4145 58.4788 74.4145H61.5332C61.6904 74.4145 61.8177 74.5421 61.8177 74.7015H61.7863V82.0897C61.7863 86.8674 58.1943 90.1796 53.7472 90.1796C49.3142 90.1796 45.7065 86.8834 45.7065 82.0897V74.7015C45.7065 74.5421 45.8338 74.4145 45.9926 74.4145H49.047ZM234.559 74.4464C234.716 74.4464 234.842 74.574 234.842 74.7334V77.8064C234.842 77.9659 234.716 78.0934 234.559 78.0934H230.254C230.175 78.0934 230.112 78.1572 230.112 78.237V89.5433C230.112 89.7028 229.986 89.8303 229.827 89.8303H226.789C226.63 89.8303 226.503 89.7028 226.503 89.5433V78.237C226.503 78.1572 226.44 78.0934 226.361 78.0934H222.056C221.898 78.0934 221.773 77.9659 221.773 77.8064V74.7334C221.773 74.574 221.898 74.4464 222.056 74.4464H234.559ZM199.076 74.4623C199.234 74.4623 199.361 74.5899 199.361 74.7494V77.8208C199.361 77.9802 199.235 78.1078 199.078 78.1078H191.734C191.496 78.1078 191.322 78.2992 191.322 78.5224V80.1936C191.322 80.2734 191.385 80.3372 191.463 80.3372H199.092C199.251 80.3372 199.378 80.4647 199.378 80.6242V83.6972C199.378 83.8566 199.251 83.9842 199.092 83.9842L191.465 83.9364C191.386 83.9364 191.323 84.0002 191.323 84.0799V85.7511C191.323 85.9903 191.512 86.1657 191.732 86.1657H199.076C199.234 86.1657 199.361 86.2933 199.361 86.4528V89.5258C199.361 89.6852 199.235 89.8128 199.078 89.8128H188.821C188.205 89.8128 187.714 89.3185 187.714 88.6965V75.5754C187.714 74.9535 188.205 74.4607 188.821 74.4607H199.076V74.4623ZM182.065 74.4145C182.222 74.4145 182.348 74.5421 182.348 74.7015V89.4955C182.348 89.6549 182.222 89.7825 182.065 89.7825H179.958C179.88 89.7825 179.817 89.7506 179.769 89.7028L170.795 80.6736C170.764 80.6418 170.701 80.6577 170.701 80.7055V89.5114C170.701 89.6709 170.575 89.7984 170.416 89.7984H167.362C167.205 89.7984 167.077 89.6709 167.077 89.5114V74.7175C167.077 74.558 167.203 74.4305 167.36 74.4305H169.577C169.655 74.4305 169.718 74.4623 169.767 74.5102L178.63 83.4277C178.661 83.4596 178.724 83.4436 178.724 83.3958V74.7175C178.74 74.5421 178.866 74.4145 179.01 74.4145H182.065ZM161.426 74.4145C161.585 74.4145 161.712 74.5421 161.712 74.7015V89.4955C161.712 89.6549 161.586 89.7825 161.426 89.7825H159.323C159.244 89.7825 159.18 89.7506 159.133 89.7028L150.158 80.6736C150.127 80.6418 150.064 80.6577 150.064 80.7055V89.5114C150.064 89.6709 149.938 89.7984 149.779 89.7984H146.725C146.566 89.7984 146.44 89.6709 146.44 89.5114V74.7175C146.44 74.558 146.566 74.4305 146.723 74.4305H148.94C149.018 74.4305 149.081 74.4623 149.13 74.5102L157.993 83.4277C158.024 83.4596 158.087 83.4436 158.087 83.3958V74.7175C158.103 74.5421 158.229 74.4145 158.372 74.4145H161.426ZM20.9227 74.4145C21.0815 74.4145 21.2088 74.5421 21.2088 74.7015V89.4955C21.2088 89.6549 21.083 89.7825 20.9243 89.7825H17.8699C17.7112 89.7825 17.5838 89.6549 17.5838 89.4955V74.7015C17.5838 74.5421 17.7096 74.4145 17.8699 74.4145H20.9227ZM39.9939 74.4145C40.1354 74.4145 40.2627 74.5421 40.2942 74.6537V77.7267C40.2942 77.8861 40.1684 78.0137 40.0112 78.0137H32.667C32.4453 78.0137 32.2551 78.1891 32.2551 78.4283V80.0996C32.2551 80.1793 32.318 80.2431 32.3966 80.2431H40.0254C40.1826 80.2431 40.3099 80.3707 40.3099 80.5301V83.6031C40.3099 83.7626 40.1841 83.8901 40.0269 83.8901H32.3981C32.3195 83.8901 32.2551 83.9539 32.2551 84.0337V89.4795C32.2551 89.639 32.1293 89.7666 31.9706 89.7666H28.9146C28.7574 89.7666 28.6301 89.639 28.6301 89.4795V75.5292C28.6301 74.9073 29.1206 74.4145 29.7368 74.4145H39.9939ZM3.95792 74.4145C4.11512 74.4145 4.24245 74.5421 4.24245 74.7015V85.7208C4.24245 85.9441 4.41694 86.1355 4.65431 86.1355H11.9986C12.1558 86.1355 12.2815 86.263 12.2815 86.4065V89.4795C12.2815 89.639 12.1558 89.7666 11.9986 89.7666H1.74301C1.12523 89.7666 0.634766 89.2722 0.634766 88.6503V74.7015C0.634766 74.5421 0.760523 74.4145 0.919293 74.4145H3.95792ZM71.1553 74.4145C71.3124 74.4145 71.4398 74.5421 71.4398 74.7015V85.7208C71.4398 85.9441 71.6143 86.1355 71.8516 86.1355H79.1943C79.3531 86.1355 79.4647 86.263 79.4647 86.4065V89.4795C79.4647 89.639 79.3374 89.7666 79.1786 89.7666H68.9246C68.3068 89.7666 67.8164 89.2722 67.8164 88.6503V74.7015C67.8164 74.5421 67.9421 74.4145 68.1009 74.4145H71.1553ZM87.9 74.4145C88.0572 74.4145 88.1829 74.5421 88.1829 74.7015V85.7208C88.1829 85.9441 88.359 86.1355 88.5963 86.1355H95.9375C96.0978 86.1355 96.2079 86.263 96.2079 86.4065V89.4795C96.2079 89.639 96.0821 89.7666 95.9233 89.7666H85.6677C85.05 89.7666 84.5595 89.2722 84.5595 88.6503V74.7015C84.5595 74.5421 84.6853 74.4145 84.8456 74.4145H87.9ZM133.984 77.6788C131.532 77.6788 129.553 79.685 129.553 82.1376C129.553 84.6062 131.547 86.5963 133.986 86.5963C136.422 86.6123 138.415 84.6062 138.415 82.1376C138.415 79.669 136.422 77.6788 133.984 77.6788ZM6.01564 30.7025C6.26873 30.7025 6.45895 30.9098 6.45895 31.149V48.984C6.45895 49.3508 6.75919 49.6681 7.13961 49.6681H19.0238C19.2784 49.6681 19.4671 49.8755 19.4671 50.1147V55.0821C19.4671 55.3373 19.2627 55.5286 19.0253 55.5286H2.42368C1.44119 55.5286 0.634766 54.7153 0.634766 53.7282V31.1474C0.634766 30.9082 0.839119 30.7009 1.07806 30.7009H6.01564V30.7025ZM55.3757 36.5789C55.6304 36.5789 55.8206 36.7863 55.8206 37.0255V53.7282C55.8206 54.7329 55.0126 55.5286 54.0317 55.5286H31.5901C31.3386 55.5286 31.1469 55.3213 31.1469 55.0821V50.1147C31.1469 49.8595 31.3528 49.6681 31.5901 49.6681H49.3158C49.6789 49.6681 49.9964 49.3652 49.9964 48.9824V37.0239C49.9964 36.7687 50.2008 36.5774 50.4397 36.5774H55.3757V36.5789ZM152.975 15.3664C153.212 15.3664 153.418 15.5578 153.418 15.8129V27.7731C153.418 32.7565 156.647 35.0018 160.604 35.0018C164.576 35.0018 167.788 32.7565 167.788 27.7715V15.8129C167.788 15.5737 167.978 15.3664 168.233 15.3664H173.184C173.423 15.3664 173.629 15.5578 173.629 15.8129V27.7731C173.629 35.5121 167.805 40.8623 160.604 40.8623C153.42 40.8623 147.594 35.5121 147.594 27.7715V15.8129C147.594 15.5737 147.784 15.3664 148.038 15.3664H152.975ZM188.727 15.3505C188.98 15.3505 189.17 15.5578 189.17 15.797V33.632C189.17 33.9987 189.47 34.3177 189.851 34.3177H201.735C201.989 34.3177 202.178 34.525 202.178 34.7642V39.7316C202.178 39.9868 201.974 40.1782 201.736 40.1782H185.135C184.136 40.1782 183.346 39.3649 183.346 38.3778V15.8129C183.346 15.5578 183.55 15.3505 183.789 15.3505H188.727ZM215.805 15.3505C216.057 15.3505 216.249 15.5578 216.249 15.797V33.632C216.249 33.9987 216.547 34.3177 216.928 34.3177H228.814C229.067 34.3177 229.257 34.525 229.257 34.7642V39.7316C229.257 39.9868 229.053 40.1782 228.814 40.1782H212.214C211.215 40.1782 210.425 39.3649 210.425 38.3778V15.8129C210.425 15.5578 210.629 15.3505 210.868 15.3505H215.804H215.805ZM80.0495 15.3505C80.3026 15.3505 80.4928 15.5578 80.4928 15.797V33.632C80.4928 33.9987 80.793 34.3177 81.1735 34.3177H93.0576C93.3123 34.3177 93.5009 34.525 93.5009 34.7642V39.7316C93.5009 39.9868 93.2965 40.1782 93.0592 40.1782H76.4575C75.4593 40.1782 74.6686 39.3649 74.6686 38.3778V15.8129C74.6529 15.5578 74.8573 15.3505 75.1119 15.3505H80.0495ZM107.492 15.3505C107.745 15.3505 107.935 15.5578 107.935 15.797V39.7157C107.935 39.9708 107.73 40.1622 107.492 40.1622H102.555C102.301 40.1622 102.111 39.9549 102.111 39.7157V15.8129C102.095 15.5578 102.301 15.3505 102.554 15.3505H107.492ZM138.321 15.3505C138.573 15.3505 138.764 15.5578 138.764 15.797V20.766C138.764 21.0212 138.559 21.2125 138.321 21.2125H126.437C126.072 21.2125 125.755 21.5139 125.755 21.8967V24.6028C125.755 24.7304 125.849 24.8261 125.976 24.8261H138.321C138.573 24.8261 138.764 25.0334 138.764 25.2726V30.2401C138.764 30.4952 138.559 30.6866 138.321 30.6866H125.976C125.851 30.6866 125.756 30.7823 125.756 30.9098V39.7157C125.756 39.9708 125.549 40.1622 125.311 40.1622H120.375C120.121 40.1622 119.931 39.9549 119.931 39.7157V17.1668C119.931 16.1622 120.739 15.3664 121.719 15.3664L138.32 15.3505H138.321ZM54.016 0.0159442C55.0126 0.0159442 55.8049 0.829238 55.8049 1.81476V24.3796C55.8206 24.6347 55.6147 24.8261 55.3616 24.8261H50.424C50.1693 24.8261 49.9807 24.6188 49.9807 24.3796V6.5446C49.9807 6.17782 49.6789 5.85888 49.3 5.85888H37.4143C37.1612 5.85888 36.971 5.65317 36.971 5.41397V0.462461C36.971 0.207311 37.177 0.0159442 37.4143 0.0159442H54.0144H54.016ZM24.8479 0C25.101 0 25.307 0.207311 25.307 0.462461V5.42991C25.307 5.68506 25.1026 5.87643 24.8637 5.87643H7.13961C6.77491 5.87643 6.45895 6.17942 6.45895 6.56214V18.5207C6.45895 18.7758 6.25301 18.9672 6.01564 18.9672H1.07806C0.824971 18.9672 0.634766 18.7599 0.634766 18.5207V1.81476C0.634766 0.811697 1.44119 0 2.42368 0H24.8479Z"
    fill="black"
  />
</svg>
