<svg
  width="270"
  height="62"
  viewBox="0 0 270 62"
  fill="none"
  xmlns="http://www.w3.org/2000/svg"
  role="img"
>
  <title>Logo MásMóvil</title>
  <path
    fill-rule="evenodd"
    clip-rule="evenodd"
    d="M180.461 1.18266C179.798 0.326763 178.607 0.0388552 177.614 0.390958C176.106 1.09842 174.606 1.82658 173.106 2.55474V2.5549C172.006 3.08966 170.906 3.62441 169.8 4.15101C169.205 4.42181 168.668 4.88487 168.409 5.50614C167.858 6.71089 168.352 8.23661 169.393 8.99231C170.091 9.52902 171.083 9.60266 171.866 9.21618C173.011 8.66252 174.159 8.11572 175.307 7.56891V7.56874L175.31 7.56727C175.833 7.31847 176.355 7.06983 176.877 6.82054C177.28 6.61622 177.689 6.42673 178.099 6.23707C178.775 5.92424 179.45 5.61124 180.094 5.23225C181.416 4.36707 181.474 2.31718 180.461 1.18266ZM66.8268 0.841636C66.1144 0.203257 65.038 0.0921361 64.1724 0.44098C62.7972 1.11146 61.4199 1.77705 60.0424 2.44264L60.0421 2.4428L60.0403 2.44361C58.8142 3.03605 57.5879 3.62864 56.363 4.22466C55.8086 4.50312 55.3202 4.96162 55.0853 5.55307C54.6292 6.67032 55.0008 8.04728 55.8961 8.82644C56.5902 9.49626 57.6975 9.64649 58.5531 9.21927C59.3687 8.82953 60.1844 8.44028 61.0002 8.05103L61.0034 8.04956L61.0169 8.04305L61.0187 8.04223L61.0192 8.0419H61.0195L61.0197 8.04174L61.0198 8.04158H61.0201L61.0203 8.04141H61.0205C62.7717 7.20556 64.5237 6.3697 66.2742 5.52961C66.8539 5.26663 67.3714 4.8254 67.6365 4.22776C68.1508 3.08232 67.7611 1.63806 66.8268 0.841636ZM0.357422 16.3811C0.572553 14.4987 2.17733 12.8635 4.05106 12.7493C4.16461 12.747 4.27896 12.7439 4.39364 12.7408C5.37889 12.7144 6.39833 12.687 7.30085 13.1467C8.42186 13.7085 9.08227 14.8632 9.57674 15.9804L11.442 20.2702C13.6744 25.4041 15.9069 30.538 18.1326 35.6759C19.968 31.4959 21.7863 27.3088 23.6048 23.1215V23.1214L23.605 23.1212V23.1211L23.6051 23.1209V23.1207L23.6053 23.1206V23.1204C24.7233 20.546 25.8414 17.9713 26.9634 15.3984C27.2537 14.7944 27.6161 14.2155 28.1045 13.757C28.8478 13.031 29.8998 12.7258 30.9119 12.7367C31.0566 12.738 31.2022 12.7362 31.3482 12.7344C31.9614 12.7268 32.5804 12.7191 33.1633 12.9339C34.3736 13.3471 35.3611 14.3781 35.7588 15.6112C35.9639 16.2351 35.9573 16.8914 35.9509 17.5435V17.544V17.5443V17.5446V17.5451V17.5454V17.5457V17.5462C35.9493 17.7043 35.9478 17.8622 35.9493 18.0194V57.6103C35.954 58.6399 35.6713 59.7164 34.9556 60.4723C34.2968 61.1952 33.3476 61.5583 32.4047 61.6756H31.4648C30.4144 61.5348 29.3515 61.07 28.7127 60.1766C28.166 59.4442 27.9617 58.5101 27.9633 57.6042C27.962 54.3981 27.9627 51.192 27.9633 47.9859C27.9643 42.7753 27.9652 37.5646 27.9587 32.3539C26.9121 34.788 25.8756 37.226 24.8389 39.6643L24.8386 39.6652L24.8383 39.6658L24.8379 39.6666L24.8376 39.6673L24.8373 39.6681L24.837 39.6688L24.8367 39.6696C23.9541 41.7453 23.0714 43.8215 22.1826 45.8951C21.668 47.1126 20.6468 48.1468 19.3536 48.4505C18.3446 48.6633 17.2558 48.6382 16.2943 48.2297C15.3391 47.8119 14.6065 46.978 14.1673 46.0314C13.349 44.1354 12.5427 42.2338 11.7365 40.3322V40.3321L11.7364 40.3319V40.3317C10.6102 37.6757 9.48411 35.0196 8.32509 32.3789C8.29762 37.1794 8.30145 41.9798 8.30529 46.7804C8.30816 50.5468 8.31118 54.3134 8.29905 58.0798C8.24986 58.9591 7.93348 59.8417 7.32082 60.4754C6.65882 61.1936 5.70966 61.5785 4.75906 61.6756H3.76997C2.84396 61.5237 1.9178 61.1467 1.28662 60.4143C0.719964 59.8072 0.448138 58.9795 0.357422 58.1596V16.3811ZM57.7344 12.8182C58.8786 12.682 60.1119 12.6367 61.1746 13.1608C62.4801 13.8509 63.1183 15.3202 63.5303 16.6846C65.5746 23.3132 67.6189 29.9417 69.6632 36.5702L69.7575 36.8764C71.7714 43.407 73.7854 49.9376 75.7977 56.4682C76.1395 57.6056 76.0964 58.9295 75.416 59.9325C74.7341 60.9761 73.533 61.5566 72.3304 61.6756H71.3913C70.013 61.5472 68.7529 60.5849 68.352 59.219C67.4688 56.299 66.5888 53.3792 65.7232 50.4549C63.5814 50.4459 61.4408 50.4476 59.2996 50.4494H59.2994H59.2993H59.2991C56.944 50.4511 54.5892 50.4531 52.2348 50.4407C51.7631 51.9642 51.3065 53.4926 50.8499 55.0208C50.5749 55.9412 50.3 56.8617 50.0216 57.7809C49.9924 57.8797 49.9635 57.9794 49.9344 58.0793C49.6732 58.9798 49.4029 59.9115 48.7393 60.596C48.1757 61.2014 47.3878 61.5128 46.5984 61.6756H45.3899C44.4976 61.5159 43.599 61.1905 42.9448 60.5287C42.2016 59.8261 41.8267 58.7854 41.8529 57.7622C41.8138 57.1866 41.9938 56.649 42.1734 56.113C42.2404 55.9131 42.3073 55.7135 42.3627 55.5121C44.8952 47.3436 47.4289 39.1759 49.9625 31.0081L49.9632 31.006L49.9638 31.004L49.9645 31.0021L49.9651 31.0001L49.9658 30.998L49.9662 30.996L49.9669 30.9941C51.4068 26.3521 52.8468 21.7102 54.2866 17.068L54.2938 17.0444C54.617 15.9689 54.9524 14.8537 55.6842 13.9838C56.194 13.3502 56.9435 12.9449 57.7344 12.8182ZM56.7514 35.3899L56.7495 35.3966C56.0622 37.7399 55.375 40.0831 54.6935 42.4277C56.3235 42.4295 57.9535 42.4292 59.5837 42.429C60.8055 42.4289 62.0274 42.4285 63.2492 42.4292C62.7142 40.6139 62.1838 38.7975 61.6531 36.9811L61.6528 36.9805L61.6526 36.9797L61.6524 36.979L61.6523 36.9784L61.652 36.9777L61.6518 36.9769L61.6513 36.9751L61.651 36.9743L61.6508 36.9738C60.76 33.9251 59.869 30.8764 58.9599 27.8333C58.2289 30.3523 57.4907 32.869 56.7527 35.3855L56.7525 35.3863L56.7522 35.387L56.752 35.3876L56.7519 35.3884L56.7517 35.3891L56.7514 35.3899ZM91.245 12.9542C93.6247 12.5663 96.0906 12.6663 98.4272 13.2689C101.05 13.9635 103.554 15.3608 105.308 17.4951C106.857 19.3604 107.722 21.8233 107.587 24.272C107.539 25.2047 107.141 26.1246 106.456 26.7521C105.418 27.7536 103.854 28.043 102.49 27.7113C101.355 27.4468 100.313 26.6333 99.9285 25.491C99.7751 25.104 99.7448 24.6918 99.7161 24.2802V24.28V24.2799C99.7017 24.0773 99.6857 23.875 99.657 23.6759C99.5372 22.9593 99.0453 22.3724 98.4895 21.9499C97.4657 21.1926 96.1864 20.8985 94.9439 20.8108L94.8385 20.8079C93.6981 20.7756 92.5306 20.7425 91.435 21.1144C90.3937 21.4446 89.4051 22.0877 88.8493 23.0671C88.2328 24.0811 88.2744 25.3282 88.3526 26.4736C88.5698 27.702 89.5776 28.5579 90.5039 29.273C91.8231 30.2376 93.243 31.0366 94.6644 31.8352V31.8353C95.2441 32.1609 95.8223 32.4866 96.3941 32.8234C98.959 34.302 101.49 35.9043 103.632 37.9855C105.231 39.5565 106.592 41.4247 107.374 43.5559C108.265 45.9264 108.414 48.5474 108 51.0369C107.499 53.9849 105.935 56.7419 103.619 58.5914C101.24 60.538 98.2036 61.491 95.1866 61.6756H92.7431C89.3891 61.4706 86.0336 60.1702 83.6443 57.7136C81.4786 55.5464 80.2297 52.5406 79.9534 49.4815L79.939 49.3062C79.8576 48.2898 79.7729 47.2377 80.1131 46.2613C80.4533 45.2395 81.2758 44.4196 82.2564 44.0315C83.5788 43.5137 85.1568 43.6685 86.3195 44.5073C86.9871 44.9814 87.4582 45.712 87.6786 46.5053C87.8192 47.0028 87.8383 47.5155 87.8575 48.0286C87.8767 48.5085 87.8942 48.9885 88.0108 49.4566C88.3079 50.979 89.2773 52.37 90.662 53.0508C91.986 53.7344 93.5113 53.7486 94.9599 53.675C96.3877 53.5686 97.8714 53.1212 98.8983 52.0587C100.075 50.8819 100.435 49.059 100.16 47.4442C99.8518 45.7591 98.7019 44.3931 97.4434 43.3258C95.7904 41.9541 93.9265 40.8898 92.0691 39.8291V39.8287C91.7209 39.63 91.3727 39.4314 91.0278 39.2309C88.4117 37.7163 85.7541 36.1656 83.6315 33.9577C82.0887 32.3914 80.9324 30.3933 80.5379 28.1963C80.3559 27.2964 80.3623 26.3798 80.3702 25.4641V25.4639V25.4637V25.4636V25.4634V25.4633C80.3734 25.1216 80.3766 24.7801 80.3687 24.4395C80.3639 21.8013 81.4611 19.232 83.2099 17.309C85.3197 15.0041 88.2185 13.5208 91.245 12.9542ZM119.881 12.7356C119.099 12.7207 118.302 12.7058 117.581 13.0497C116.09 13.6834 115.034 15.27 115.079 16.9256C115.08 30.2258 115.082 43.5261 115.079 56.8265C115.05 57.8921 115.082 59.0342 115.678 59.9543C116.278 60.9557 117.39 61.4924 118.493 61.6756H119.698C120.387 61.5175 121.09 61.3126 121.652 60.8557C122.548 60.1828 123.031 59.0531 123.058 57.9359C123.075 54.1214 123.071 50.3063 123.067 46.491C123.061 41.775 123.056 37.0589 123.093 32.343C124.145 34.8641 125.217 37.3769 126.29 39.8895V39.8907L126.292 39.8929V39.8946V39.8962L126.294 39.8977C127.105 41.7986 127.916 43.6994 128.718 45.6041C129.065 46.4335 129.548 47.2377 130.272 47.7759C131.435 48.6633 133.032 48.7633 134.391 48.3612C135.64 47.9887 136.531 46.8904 137.017 45.7011C137.837 43.7653 138.662 41.8309 139.486 39.8964C140.561 37.3743 141.634 34.8521 142.702 32.3257C142.729 32.8789 142.728 33.4329 142.725 33.9872C142.725 34.2448 142.723 34.5027 142.725 34.7605C142.725 37.8271 142.725 40.894 142.725 43.9609V43.9611V43.9613V43.9614V43.9616V44.0118C142.726 48.5961 142.726 53.1806 142.723 57.7653C142.713 58.7214 143.009 59.7055 143.657 60.4159C144.283 61.1498 145.213 61.5192 146.136 61.6756H147.125C148.04 61.5817 148.952 61.228 149.61 60.5552C150.308 59.8809 150.654 58.8951 150.672 57.9264C150.673 52.0446 150.673 46.1627 150.673 40.2809C150.672 32.4383 150.672 24.5959 150.675 16.7534C150.691 15.1653 149.635 13.6772 148.222 13.0575C147.348 12.6613 146.379 12.7075 145.441 12.7524C145.298 12.7592 145.154 12.766 145.012 12.7713C143.501 12.8886 142.298 14.0589 141.701 15.4141C140.613 17.9128 139.527 20.4119 138.441 22.9112L138.435 22.9262C136.587 27.1783 134.741 31.4303 132.888 35.6806C130.2 29.5045 127.515 23.3268 124.832 17.1493C124.749 16.966 124.669 16.7803 124.589 16.594V16.5932C124.153 15.5812 123.709 14.551 122.917 13.7741C122.227 13.0904 121.261 12.7524 120.308 12.7414C120.165 12.741 120.023 12.7383 119.881 12.7356ZM172.516 12.7353C170.045 12.682 167.557 13.286 165.399 14.5191C162.094 16.3702 159.604 19.6936 158.825 23.4614C158.487 24.9261 158.494 26.4298 158.504 27.9265V27.9272V27.9276V27.9281C158.506 28.2731 158.507 28.6178 158.506 28.9616V45.08C158.507 45.4815 158.506 45.8849 158.503 46.289C158.49 48.1489 158.477 50.0243 159.023 51.8162C160.184 56.1443 163.661 59.6586 167.842 60.9948C168.988 61.3735 170.177 61.5739 171.375 61.6756H173.665C176.4 61.5003 179.112 60.5834 181.306 58.8918C183.635 57.1222 185.344 54.531 186.062 51.6627C186.477 50.1355 186.546 48.538 186.535 46.9607C186.532 41.9179 186.533 36.8742 186.533 31.8309V26.7881C186.53 25.1983 186.348 23.5993 185.856 22.0877C184.801 18.7234 182.362 15.8506 179.265 14.275C177.189 13.189 174.841 12.6914 172.516 12.7353ZM167.213 23.582C167.986 22.205 169.38 21.2411 170.898 20.9267C172.639 20.6324 174.571 20.7108 176.083 21.7418C177.599 22.7057 178.54 24.4974 178.546 26.3108C178.548 29.1673 178.548 32.0235 178.546 34.8798V34.9267C178.546 39.1962 178.546 43.4658 178.548 47.7353C178.588 48.8057 178.382 49.8978 177.856 50.8319C177 52.406 175.349 53.4435 173.61 53.6501C172.218 53.7799 170.748 53.7283 169.486 53.0444C167.715 52.1589 166.515 50.2248 166.491 48.2157C166.491 45.5805 166.491 42.945 166.491 40.3096V40.3094V40.3092V40.3091C166.491 35.6959 166.491 31.0824 166.488 26.4689C166.462 25.4628 166.713 24.4519 167.213 23.582ZM198.836 13.9072C197.074 11.9528 193.495 12.5396 192.344 14.893C191.866 15.8162 191.876 16.9022 192.13 17.8895C193.944 25.5824 195.765 33.274 197.584 40.9657L197.589 40.9833L197.609 41.0719L197.629 41.1515C198.74 45.8542 199.853 50.557 200.965 55.2602C201.073 55.6986 201.176 56.1394 201.276 56.5803C201.462 57.3901 201.648 58.1998 201.885 58.9951C202.423 60.5912 204.023 61.5597 205.624 61.6756H206.706C207.636 61.5801 208.583 61.3047 209.311 60.6835C209.985 60.1249 210.455 59.3316 210.659 58.4726C212.274 51.6485 213.889 44.8237 215.503 37.999L215.505 37.9902V37.9858C217.118 31.1658 218.731 24.3457 220.346 17.5265C220.625 16.2716 220.277 14.8679 219.362 13.9651C217.843 12.3831 215.01 12.2737 213.513 13.9416C212.828 14.6782 212.614 15.6691 212.407 16.6353C212.357 16.8657 212.308 17.0946 212.253 17.3183C211.383 21.0805 210.516 24.8431 209.648 28.6059L209.642 28.633L209.637 28.6519L209.632 28.6708C208.489 33.6333 207.344 38.5958 206.194 43.5575C205.001 38.4422 203.822 33.3228 202.643 28.2033L202.64 28.1896L202.637 28.1782C201.775 24.4285 200.911 20.6785 200.042 16.9303C200.019 16.8269 199.995 16.7224 199.973 16.6177V16.6173C199.764 15.6467 199.545 14.633 198.836 13.9072ZM244.572 14.134C246.189 12.1422 249.712 12.2815 251.084 14.4923C251.721 15.4595 251.707 16.6327 251.692 17.7594V17.7623C251.691 17.9524 251.688 18.1413 251.689 18.3275C251.689 23.3182 251.689 28.3091 251.689 33.3001C251.689 39.9547 251.689 46.6093 251.691 53.2636C255.965 53.265 260.24 53.265 264.514 53.2636C265.431 53.2603 266.395 53.3105 267.215 53.7846C268.328 54.4026 268.992 55.645 269.12 56.9047V57.7089C269.026 58.6008 268.702 59.4944 268.074 60.1406C267.373 60.9275 266.317 61.3204 265.288 61.3251C259.397 61.3235 253.503 61.3235 247.612 61.3251C245.749 61.3187 244.069 59.7666 243.769 57.9155C243.692 57.4784 243.696 57.0349 243.7 56.5927C243.7 56.4587 243.702 56.3248 243.702 56.1912C243.702 43.1021 243.702 30.0131 243.702 16.924C243.704 15.9351 243.937 14.907 244.572 14.134ZM230.056 12.8135C231.546 12.5741 233.174 12.8684 234.386 13.8196C235.467 14.6615 236.106 16.0275 236.14 17.4076C236.14 19.5772 236.14 21.747 236.138 23.9168V24.5088C236.138 30.4277 236.138 36.3472 236.141 42.2666C236.164 43.5481 235.697 44.8688 234.747 45.7356C233.001 47.3114 230.264 47.4975 228.239 46.3818C226.884 45.6511 226.009 44.1412 225.964 42.5905C225.964 39.092 225.964 35.5933 225.964 32.0945V31.7946C225.964 26.9961 225.964 22.1977 225.963 17.3998C225.976 16.1808 226.487 14.9728 227.367 14.142C228.093 13.4191 229.061 12.9871 230.056 12.8135ZM227.103 53.4482C228.18 52.3873 229.726 51.9555 231.195 51.9821C232.559 52.0259 233.99 52.4218 234.979 53.4294C235.721 54.132 236.148 55.1601 236.14 56.1928C236.14 56.3284 236.141 56.4652 236.143 56.6028V56.6054C236.154 57.5835 236.167 58.5987 235.651 59.4569C234.817 60.9026 233.139 61.541 231.57 61.6756H230.494C228.865 61.5395 227.113 60.804 226.346 59.2425C225.937 58.4863 225.948 57.6268 225.96 56.7849C225.963 56.5904 225.966 56.3966 225.963 56.2054C225.931 55.1725 226.367 54.1524 227.103 53.4482Z"
    fill="black"
  />
</svg>
