<svg
  width="285"
  height="43"
  viewBox="0 0 285 43"
  fill="none"
  xmlns="http://www.w3.org/2000/svg"
  role="img"
>
  <title>Logo Movistar</title>
  <path
    fill-rule="evenodd"
    clip-rule="evenodd"
    d="M74.5763 6.89159C82.2477 6.89159 86.985 9.27333 88.7682 15.2892C89.4883 17.6325 89.8837 20.3589 89.8837 24.83C89.8837 29.3196 89.4883 32.0275 88.7682 34.3723C86.9835 40.3882 82.2477 42.7869 74.5763 42.7869H73.6747C66.0033 42.7869 61.2659 40.3867 59.4658 34.3708C58.7627 32.0275 58.3672 29.3196 58.3672 24.8315C58.3672 20.3589 58.7627 17.6325 59.4658 15.2892C61.2659 9.27333 66.0033 6.89159 73.6747 6.89159H74.5763ZM208.537 6.89159C212.391 6.89159 215.38 7.45472 217.344 8.31017C221.45 10.0719 224.079 13.1983 224.079 19.9773V29.9012C224.079 34.7724 223.126 37.8065 220.639 39.8605C218.477 41.6606 214.911 42.7684 211.131 42.7684H209.437C199.836 42.7684 195.119 38.5527 195.119 31.6814V31.3906C195.119 27.9918 196.362 25.3208 198.27 23.5391C200.719 21.2313 204.573 20.2312 208.698 20.2312H209.346C211.814 20.2312 214.516 20.5589 216.731 21.0128V20.0681C216.731 16.8524 216.01 15.36 214.534 14.3799C213.057 13.3798 210.589 13.089 207.546 13.089H207.238C205.096 13.089 202.287 13.3814 199.585 13.7814C198.954 13.8706 198.685 13.6891 198.685 13.126V8.71021C198.685 8.11016 198.882 7.83629 199.405 7.74551C202.502 7.18239 205.709 6.89159 208.05 6.89159H208.537ZM158.522 6.89159C160.737 6.89159 164.681 7.38394 166.842 7.83629C167.455 7.96399 167.616 8.12862 167.616 8.72867V13.2706C167.616 13.9076 167.275 14.0522 166.662 13.9429C163.313 13.326 160.557 12.9983 158.288 12.9983H157.98C154.037 12.9983 151.587 13.9799 151.587 16.4878C151.587 17.9956 152.417 19.0141 155.352 20.1035L160.016 21.8128C163.564 23.1406 165.852 24.3038 167.364 25.7747C168.895 27.3025 169.724 29.5904 169.724 32.0998V32.2075C169.724 38.7342 164.807 42.7684 155.766 42.7684H155.532C152.417 42.7684 148.616 42.2407 145.842 41.2775C145.23 41.0775 145.122 40.7329 145.122 40.1697V35.754C145.122 35.1539 145.445 34.917 146.059 35.117C148.958 36.0432 152.254 36.6079 155.118 36.6079H155.298C160.394 36.6079 162.647 35.1893 162.647 32.4999C162.647 30.4274 161.205 29.4842 157.819 28.2841C156.252 27.701 154.92 27.2287 153.335 26.6302C150.633 25.6301 148.616 24.7577 147.121 23.3576C145.501 21.8682 144.564 19.6865 144.564 16.9601V16.7432C144.564 13.8168 145.807 11.3627 147.661 9.74568C149.949 7.74551 153.371 6.89159 157.982 6.89159H158.522ZM247.421 6.89159C247.943 6.89159 248.175 7.12854 248.175 7.63627V12.5259C248.175 13.0167 247.96 13.2706 247.457 13.2706H244.323C240.055 13.2706 238.253 14.6892 237.911 17.7063C237.767 18.851 237.731 20.722 237.731 23.3037V41.4775C237.731 41.9499 237.516 42.1499 237.01 42.1499H231.102C230.617 42.1499 230.383 41.9499 230.383 41.4775V19.7419C230.383 17.1601 230.635 14.7799 231.463 12.9983C233.371 8.85483 237.802 6.89159 243.476 6.89159H247.421ZM182.079 0.657227C182.565 0.657227 182.818 0.857244 182.818 1.34959V7.54549H189.301C189.806 7.54549 190.04 7.74551 190.04 8.21786V13.0167C190.04 13.4891 189.806 13.6891 189.301 13.6891H182.818V28.6657C182.818 31.0459 183.051 33.0445 184.222 34.2816C185.105 35.2078 186.546 35.7709 188.887 35.7709H189.661C190.166 35.7709 190.454 36.0432 190.454 36.4987V41.4221C190.454 41.8776 190.166 42.1499 189.661 42.1499H188.095C183.61 42.1499 180.513 41.0775 178.531 39.0974C176.406 36.9895 175.451 33.9 175.451 29.0827V1.34806C175.451 0.857245 175.685 0.657227 176.171 0.657227H182.079ZM136.874 7.5655C137.36 7.5655 137.594 7.74551 137.594 8.21786V41.4775C137.594 41.9499 137.36 42.1499 136.874 42.1499H130.966C130.479 42.1499 130.246 41.9499 130.246 41.4775V8.21786C130.246 7.74551 130.479 7.56396 130.966 7.56396L136.874 7.5655ZM100.583 7.54549C101.195 7.54549 101.537 7.6732 101.572 8.31017C101.843 12.7444 102.78 17.9064 104.148 22.5221C105.553 27.2471 107.336 31.7537 109.03 35.117C110.741 31.7552 112.523 27.2471 113.929 22.5221C115.28 17.9417 116.215 12.7982 116.486 8.38248C116.521 7.76397 116.72 7.54549 117.404 7.54549H123.365C123.996 7.54549 124.194 7.74551 124.176 8.23786C123.745 20.3589 117.404 33.7169 113.261 41.5514C113.046 41.9683 112.793 42.1515 112.253 42.1515H105.859C105.302 42.1515 104.959 41.9868 104.743 41.5683C98.349 29.5919 94.6749 20.3589 93.8287 8.49173C93.7748 7.83629 93.9548 7.54549 94.6026 7.54549H100.583ZM16.2037 6.89159C21.3195 6.89159 24.9398 8.25478 26.5969 10.2919H26.6323C28.2893 8.25478 31.6942 6.89159 36.8085 6.89159H38.5917C44.3722 6.89159 49.1095 8.90868 51.0189 13.0352C51.8282 14.8353 52.099 17.2155 52.099 19.7957V41.3144C52.099 41.7683 51.8282 42.1499 51.3605 42.1499H45.5077C45.0384 42.1499 44.7507 41.8591 44.7507 41.3683V22.856C44.743 20.5681 44.6876 18.8772 44.5707 17.7971C44.2291 14.7799 41.9951 13.326 37.7624 13.326H37.2762C33.0267 13.326 30.6849 14.7799 30.3603 17.7971C30.2341 18.9603 30.1618 20.8312 30.1618 23.3945V41.3144C30.1618 41.7683 29.8926 42.1499 29.4064 42.1499H23.569C23.0828 42.1499 22.7951 41.8422 22.7951 41.3683V23.3945C22.7951 20.8312 22.7412 18.9603 22.615 17.7971C22.2719 14.7799 19.9317 13.326 15.6991 13.326H15.2144C10.9633 13.326 8.7308 14.7799 8.3877 17.7971C8.26153 18.9603 8.20768 20.8312 8.20768 23.3945L8.18922 41.3683C8.18922 41.8237 7.91996 42.1499 7.43377 42.1499H1.61636C1.13017 42.1499 0.859375 41.8237 0.859375 41.3683V19.7957C0.859375 17.2155 1.13017 14.8338 1.941 13.0352C3.84885 8.90868 8.58617 6.89159 14.3682 6.89159H16.2037ZM210.174 26.2301H209.563C206.735 26.2301 205.115 26.7025 203.979 27.6656C203.042 28.4826 202.43 29.8658 202.43 31.4275C202.43 34.8432 204.989 36.6248 209.4 36.6248H210.571C212.949 36.6248 214.714 36.0617 215.722 34.9355C216.659 33.8446 216.731 32.3183 216.731 29.7196V26.9748C214.731 26.4301 212.3 26.2301 210.175 26.2301H210.174ZM74.2162 13.306H74.0162C69.4974 13.306 66.6695 14.1799 66.111 19.7957C65.9309 21.4866 65.7878 22.8668 65.7878 24.83C65.7878 26.7932 65.9309 28.1749 66.111 29.8827C66.6695 35.4986 69.4959 36.371 74.0178 36.371H74.2162C78.7551 36.371 81.563 35.4986 82.14 29.8827C82.32 28.1749 82.4462 26.7932 82.4462 24.83C82.4462 22.8668 82.32 21.4866 82.14 19.7957C81.563 14.1799 78.7551 13.3075 74.2162 13.3075V13.306ZM270.202 7.56396C270.582 7.56396 270.888 7.87321 270.888 8.23632V28.538H250.699C250.32 28.538 250.014 28.2288 250.014 27.8456V21.8498C250.014 21.4682 250.32 21.1574 250.699 21.1574H263.54V8.23786C263.54 7.87475 263.863 7.5655 264.224 7.5655L270.202 7.56396Z"
    fill="black"
  />
  <path
    fill-rule="evenodd"
    clip-rule="evenodd"
    d="M263.54 41.4605C263.54 41.842 263.863 42.1497 264.225 42.1497H270.204C270.582 42.1497 270.888 41.842 270.888 41.4605V28.5363H283.729C284.108 28.5363 284.414 28.2286 284.414 27.847V21.8496C284.414 21.468 284.106 21.1572 283.729 21.1572H263.54V41.4605Z"
    fill="black"
  />
</svg>
