<svg
  width="121"
  height="35"
  viewBox="0 0 121 35"
  fill="none"
  xmlns="http://www.w3.org/2000/svg"
>
  <title>Logo University of Oxford</title>
  <path
    d="M12.8321 8.25564L13.8472 7.53905L13.9334 7.57273L13.3128 9.47787C12.9977 9.33557 12.2739 9.23555 11.4264 9.2315C10.5789 9.23555 9.85519 9.33557 9.54009 9.47787L8.91945 7.57273L9.00516 7.53905L10.0622 8.25564L10.071 8.32831L9.82948 8.43719C9.78183 8.46124 9.78133 8.49973 9.80578 8.52302L10.4012 9.06362L10.4617 9.05831L10.9134 8.38958C10.9447 8.34628 10.9334 8.30299 10.8789 8.29387L10.5756 8.24424V8.16726L11.3614 7.05188H11.491L12.2767 8.16726V8.24424L11.9737 8.29387C11.919 8.30299 11.9079 8.34628 11.9389 8.38958L12.3907 9.05831L12.4512 9.06362L13.0887 8.52302C13.1129 8.49973 13.1124 8.46124 13.0647 8.43719L12.8235 8.32831L12.8321 8.25564Z"
    fill="black"
  />
  <path
    d="M11.4269 10.3326C12.3981 10.3326 13.1854 10.181 13.1854 9.99385C13.1854 9.80674 12.3981 9.65506 11.4269 9.65506C10.4556 9.65506 9.66832 9.80674 9.66832 9.99385C9.66832 10.181 10.4556 10.3326 11.4269 10.3326Z"
    fill="black"
  />
  <path
    d="M19.4851 9.99385C19.4851 10.181 18.6976 10.3326 17.7263 10.3326C16.7549 10.3326 15.9675 10.181 15.9675 9.99385C15.9675 9.80674 16.7549 9.65506 17.7263 9.65506C18.6976 9.65506 19.4851 9.80674 19.4851 9.99385Z"
    fill="black"
  />
  <path
    d="M20.1473 7.53905L19.1322 8.25564L19.1236 8.32831L19.3649 8.43719C19.4125 8.46124 19.413 8.49973 19.3888 8.52302L18.7513 9.06362L18.6908 9.05831L18.2391 8.38958C18.2081 8.34628 18.2191 8.30299 18.2736 8.29387L18.5768 8.24424V8.16726L17.7909 7.05188H17.6615L16.8758 8.16726V8.24424L17.179 8.29387C17.2335 8.30299 17.2448 8.34628 17.2136 8.38958L16.7618 9.05831L16.7013 9.06362L16.1059 8.51593C16.0815 8.49264 16.082 8.45415 16.1296 8.4301L16.3711 8.32831L16.3623 8.25564L15.305 7.53905L15.2196 7.57273L15.8402 9.47787C16.1553 9.33557 16.8791 9.23555 17.7266 9.2315C18.5738 9.23555 19.2976 9.33557 19.6127 9.47787L20.2335 7.57273L20.1473 7.53905Z"
    fill="black"
  />
  <path
    d="M20.0255 11.8061V18.256H15.3745L15.3214 18.388C15.2404 18.5893 15.0955 18.7754 14.5875 18.7754C14.0801 18.7754 13.9351 18.5893 13.854 18.388L13.801 18.256H9.15739V11.8061H8.73742V12.0025L8.33434 11.8782C8.2877 11.719 8.14276 11.602 7.96932 11.602C7.75832 11.602 7.58666 11.7742 7.58666 11.9861C7.58666 12.1983 7.75832 12.3705 7.96932 12.3705C8.06158 12.3705 8.14503 12.3363 8.21107 12.2816L8.73742 12.4439V12.9625L8.3419 12.8913C8.28367 12.7543 8.1483 12.6581 7.99024 12.6581C7.77925 12.6581 7.60758 12.83 7.60758 13.0425C7.60758 13.2547 7.77925 13.4266 7.99024 13.4266C8.09939 13.4266 8.19721 13.38 8.26703 13.3066L8.73742 13.3914V13.9201L8.324 13.9019C8.2572 13.7899 8.13645 13.7142 7.99705 13.7142C7.78631 13.7142 7.61438 13.8864 7.61438 14.0984C7.61438 14.3105 7.78631 14.4827 7.99705 14.4827C8.1246 14.4827 8.23653 14.4194 8.30635 14.3232L8.73742 14.3424V14.9167L8.31493 14.9319C8.2456 14.8344 8.13242 14.7701 8.00436 14.7701C7.79336 14.7701 7.62169 14.9423 7.62169 15.1542C7.62169 15.3664 7.79336 15.5386 8.00436 15.5386C8.1425 15.5386 8.26274 15.4642 8.3298 15.3538L8.73742 15.3391V15.8685L8.27535 15.9483C8.20577 15.8736 8.10721 15.8262 7.99705 15.8262C7.78631 15.8262 7.61438 15.9984 7.61438 16.2106C7.61438 16.4228 7.78631 16.5947 7.99705 16.5947C8.15384 16.5947 8.28846 16.4998 8.3477 16.3638L8.73742 16.2965V16.816L8.23224 16.971C8.1662 16.9163 8.0825 16.8819 7.99024 16.8819C7.77925 16.8819 7.60758 17.0538 7.60758 17.2662C7.60758 17.4784 7.77925 17.6504 7.99024 17.6504C8.16393 17.6504 8.30888 17.5336 8.35551 17.3744L8.73742 17.2571V17.7597L8.17931 18.0016C8.11906 17.9616 8.04696 17.938 7.96932 17.938C7.75832 17.938 7.58666 18.1102 7.58666 18.3221C7.58666 18.5343 7.75832 18.7065 7.96932 18.7065C8.15738 18.7065 8.31316 18.5693 8.34492 18.3892L8.73742 18.2191V18.6781H13.5424C13.7375 19.0202 14.0751 19.1975 14.5875 19.1975C15.1 19.1975 15.4378 19.0202 15.6332 18.6781H20.4455V11.8061H20.0255Z"
    fill="black"
  />
  <path
    d="M11.8386 12.792C11.8386 13.0356 11.7759 13.1473 11.6604 13.1473C11.5291 13.1473 11.4383 12.9698 11.4383 12.726C11.4383 12.4907 11.524 12.3725 11.6269 12.3725C11.7423 12.3725 11.8386 12.5219 11.8386 12.792Z"
    fill="black"
  />
  <path
    d="M10.5664 12.3903C10.5357 12.3903 10.5183 12.3946 10.5087 12.3999C10.5021 12.4024 10.5009 12.4336 10.5009 12.467V12.9835C10.5009 13.1031 10.5301 13.1261 10.5944 13.1261C10.7096 13.1261 10.8263 12.9985 10.8263 12.7602C10.8263 12.4711 10.6804 12.3903 10.5664 12.3903Z"
    fill="black"
  />
  <path
    fill-rule="evenodd"
    clip-rule="evenodd"
    d="M13.7943 11.549C14.1896 11.7822 14.3723 12.2195 14.3723 12.7616L14.3726 18.3067H14.3005C14.2619 17.6268 13.818 17.4561 13.0633 17.4561H9.78944V11.3548L12.7976 11.3551C13.2112 11.3551 13.5465 11.4029 13.7943 11.549ZM12.2616 13.0759C12.2533 13.1258 12.2281 13.1392 12.1638 13.1447V13.1969H12.4943V13.1445C12.4076 13.1377 12.3781 13.1255 12.3725 13.0756C12.3673 13.0341 12.3657 12.9695 12.37 12.8541L12.3794 12.5555H12.3821L12.6272 13.1822H12.6992L12.9576 12.5082H12.9632L12.9672 12.9817C12.9687 13.1308 12.9647 13.1349 12.8644 13.1445V13.1969H13.2833V13.1445C13.1868 13.1349 13.1843 13.1308 13.1802 12.9817L13.1669 12.5312C13.1628 12.3899 13.1681 12.3846 13.27 12.3752V12.3226H12.9445L12.7398 12.8553L12.5054 12.3226H12.1908V12.3752C12.2967 12.3849 12.3073 12.3996 12.2979 12.569L12.2831 12.8406C12.2763 12.9629 12.2682 13.0344 12.2616 13.0759ZM12.9024 14.4571L12.9223 14.4668C13.004 14.5045 13.0562 14.5488 13.0557 14.6283C13.0557 14.7157 13.002 14.7615 12.9327 14.7615C12.8016 14.7615 12.7222 14.6123 12.6945 14.5341L12.6355 14.5516C12.644 14.5992 12.6529 14.6418 12.6609 14.6806C12.6681 14.7151 12.6748 14.7471 12.6798 14.7762C12.6957 14.784 12.724 14.7947 12.764 14.8083C12.8001 14.8205 12.855 14.8311 12.9087 14.8311C13.1165 14.8311 13.2488 14.7101 13.2488 14.5447C13.2488 14.3875 13.1432 14.3189 13.0199 14.2624L12.9904 14.249C12.9047 14.2097 12.8525 14.1708 12.8525 14.1037C12.8525 14.0391 12.9007 13.9867 12.969 13.9867C13.0749 13.9867 13.1217 14.0821 13.1512 14.1708L13.21 14.1614C13.1954 14.07 13.1858 14.0041 13.1805 13.9517C13.1649 13.9464 13.1457 13.9415 13.1191 13.9348L13.1112 13.9327C13.0723 13.9218 13.0295 13.9165 12.9879 13.9165C12.7779 13.9165 12.668 14.0403 12.668 14.1923C12.668 14.3363 12.7928 14.406 12.9024 14.4571ZM12.1533 14.3568C12.1066 14.2365 12.0567 14.1079 12.0411 14.0593C12.0264 14.012 12.0264 14.0001 12.0758 13.9948L12.1215 13.9895V13.9368H11.6889V13.9892C11.7534 13.9973 11.7801 14.0039 11.8243 14.1196C11.8448 14.1733 11.8792 14.264 11.9191 14.3692C11.9732 14.5119 12.0374 14.6811 12.0907 14.8205H12.1938C12.2941 14.5463 12.4575 14.1467 12.4656 14.128C12.5177 14.0057 12.5364 13.9991 12.613 13.9895V13.9368H12.2889V13.9889L12.3289 13.9933C12.3892 13.9998 12.397 14.0145 12.3693 14.0968L12.3591 14.1268L12.3421 14.1771L12.3419 14.1779C12.3067 14.2823 12.2515 14.4462 12.2205 14.5313C12.2031 14.4851 12.1786 14.4219 12.1533 14.3568ZM12.0874 12.7492C12.0874 12.4829 11.8986 12.3026 11.6533 12.3026C11.3337 12.3026 11.1893 12.5543 11.189 12.772C11.189 13.0194 11.3645 13.2172 11.6349 13.2172C11.8918 13.2172 12.0874 13.0371 12.0874 12.7492ZM10.1645 13.1447V13.1972H10.5101C10.8195 13.1972 11.0725 13.0533 11.0725 12.7183C11.0725 12.6026 11.0204 12.5031 10.9573 12.4426C10.8676 12.3555 10.7312 12.3228 10.5664 12.3228H10.1754V12.3755C10.2624 12.3834 10.2729 12.393 10.2729 12.5381V12.9819C10.2729 13.127 10.2624 13.1364 10.1645 13.1447ZM10.9528 15.7657C10.9528 15.6206 10.9634 15.6113 11.0559 15.6032V15.5507H10.6221V15.6034C10.7143 15.6115 10.7249 15.6209 10.7249 15.766V16.2098C10.7249 16.3549 10.7143 16.3643 10.6221 16.3727V16.4246H11.0559V16.3724C10.9634 16.364 10.9528 16.3547 10.9528 16.2096V15.7657ZM10.7436 14.8111H11.0766V14.7592C10.9881 14.7549 10.9521 14.7377 10.9455 14.6903C10.94 14.6486 10.9347 14.5746 10.9347 14.4333V14.1859H10.9374L11.4328 14.8207H11.548V14.3151C11.548 14.1738 11.5535 14.0996 11.5588 14.0581C11.5654 14.011 11.6002 13.9922 11.6672 13.9895V13.9368H11.3259V13.9892C11.4144 13.9935 11.4507 14.0107 11.4572 14.0578C11.4625 14.0996 11.4678 14.1735 11.4678 14.3148V14.4951H11.4653L11.0196 13.9368H10.7237V13.9892C10.7716 13.9933 10.8051 14.0024 10.8253 14.0307C10.8517 14.0685 10.8545 14.0859 10.8545 14.1854V14.4328C10.8545 14.5741 10.8492 14.648 10.8439 14.6898C10.8374 14.7372 10.8026 14.7559 10.7436 14.7587V14.8111ZM11.1429 16.4248H11.8071C11.819 16.3833 11.8475 16.2433 11.8555 16.1929L11.7978 16.1833C11.7764 16.2544 11.7537 16.2909 11.7323 16.3162C11.704 16.3514 11.6465 16.3552 11.6034 16.3552C11.5621 16.3552 11.5313 16.3539 11.5099 16.343C11.486 16.3309 11.4832 16.2972 11.4832 16.2273V15.766C11.4832 15.6209 11.4938 15.6115 11.5903 15.6034V15.5507H11.155V15.6034C11.2447 15.6115 11.2553 15.6209 11.2553 15.766V16.2098C11.2553 16.3549 11.2447 16.3643 11.1429 16.3727V16.4248ZM11.8898 16.4248H12.554C12.5661 16.3833 12.5946 16.2433 12.6024 16.1929L12.5447 16.1833C12.5233 16.2544 12.5006 16.2909 12.4792 16.3162C12.4509 16.3514 12.3935 16.3552 12.3504 16.3552C12.309 16.3552 12.2783 16.3539 12.2568 16.343C12.2329 16.3309 12.2301 16.2972 12.2301 16.2273V15.766C12.2301 15.6209 12.2407 15.6115 12.3373 15.6034V15.5507H11.9019V15.6034C11.9916 15.6115 12.0022 15.6209 12.0022 15.766V16.2098C12.0022 16.3549 11.9916 16.3643 11.8898 16.3727V16.4248ZM13.245 15.7417C13.2974 15.6194 13.3158 15.6125 13.3925 15.6032V15.55H13.0686V15.6026L13.1084 15.6067C13.1686 15.6133 13.1767 15.6282 13.1487 15.7103L13.1323 15.759L13.1321 15.7595L13.1318 15.7604C13.0983 15.8602 13.0342 16.0506 13 16.1448C12.9817 16.0961 12.9558 16.0292 12.929 15.9604C12.8835 15.8431 12.8358 15.7202 12.8205 15.6728C12.8061 15.6257 12.8061 15.6135 12.8553 15.6082L12.9012 15.6029V15.5502H12.4683V15.6029C12.5329 15.611 12.5596 15.6178 12.6037 15.7333C12.6267 15.7935 12.6672 15.9001 12.7133 16.0215L12.7174 16.0323L12.7176 16.0328L12.8702 16.4342H12.9735C13.0736 16.16 13.2372 15.7604 13.245 15.7417ZM13.7048 12.5378C13.7048 12.3927 13.7154 12.3831 13.8077 12.3752V12.3226H13.3738V12.3752C13.4663 12.3831 13.4769 12.3927 13.4769 12.5378V12.9817C13.4769 13.1268 13.4663 13.1361 13.3738 13.1445V13.1969H13.8077V13.1445C13.7154 13.1361 13.7048 13.1268 13.7048 12.9817V12.5378Z"
    fill="black"
  />
  <path
    d="M17.6213 14.3403C17.6213 14.5839 17.7123 14.7616 17.8436 14.7616C17.9588 14.7616 18.0216 14.65 18.0216 14.4064C18.0216 14.1362 17.9253 13.9868 17.8101 13.9868C17.707 13.9868 17.6213 14.1051 17.6213 14.3403Z"
    fill="black"
  />
  <path
    d="M17.9733 16.0806L18.0563 15.8238H18.0603L18.1447 16.0806H17.9733Z"
    fill="black"
  />
  <path
    d="M18.2874 12.8529L18.3704 12.5959H18.3744L18.4589 12.8529H18.2874Z"
    fill="black"
  />
  <path
    fill-rule="evenodd"
    clip-rule="evenodd"
    d="M16.3677 11.3552C15.9543 11.3552 15.6188 11.4028 15.3713 11.5492C14.976 11.7824 14.7932 12.2197 14.7932 12.7618L14.7927 18.3068H14.8648C14.9034 17.6269 15.3473 17.4563 16.1018 17.4563H19.3968V11.3549L16.3677 11.3552ZM17.0728 12.3227H17.369L17.8147 12.881H17.8175V12.7007C17.8175 12.5595 17.8122 12.4855 17.8069 12.4437C17.8001 12.3969 17.7638 12.3794 17.6756 12.3751V12.3225H18.0169V12.3751C17.9498 12.3777 17.915 12.3966 17.9082 12.4437C17.9032 12.4855 17.8974 12.5595 17.8974 12.7007V13.2067H17.7824L17.2871 12.5716H17.2841V12.8192C17.2841 12.9605 17.2899 13.0345 17.2949 13.076C17.3017 13.1234 17.3378 13.1406 17.426 13.1449V13.1973H17.0927V13.1449C17.1515 13.1418 17.1863 13.1234 17.1931 13.076C17.1984 13.0345 17.2037 12.9605 17.2037 12.8192V12.5716C17.2037 12.4724 17.2009 12.4546 17.1742 12.4172C17.1543 12.3888 17.1207 12.3797 17.0728 12.3754V12.3227ZM18.2705 14.3633C18.2705 14.6512 18.0751 14.8312 17.818 14.8312C17.5475 14.8312 17.372 14.6335 17.372 14.3861C17.372 14.1683 17.5165 13.9167 17.8364 13.9167C18.0817 13.9167 18.2705 14.0969 18.2705 14.3633ZM17.2604 14.7588V14.8112H16.8265V14.7588C16.9191 14.7507 16.9296 14.7411 16.9296 14.596V14.1521C16.9296 14.0068 16.9191 13.9974 16.8265 13.9893V13.9369H17.2604V13.9896C17.1681 13.9977 17.1575 14.0071 17.1575 14.1524V14.5963C17.1573 14.7411 17.1679 14.7505 17.2604 14.7588ZM16.5709 13.1449C16.6634 13.1365 16.674 13.1271 16.674 12.9821V12.5382C16.674 12.3931 16.6634 12.3835 16.5709 12.3756V12.323H17.0048V12.3756C16.9125 12.3835 16.9019 12.3931 16.9019 12.5382V12.9821C16.9019 13.1271 16.9125 13.1365 17.0048 13.1449V13.1973H16.5709V13.1449ZM16.5792 14.7588V14.8112H16.1109V14.7588C16.218 14.7507 16.2286 14.7411 16.2286 14.596V14.0068H16.2059C16.1159 14.0068 16.0799 14.0233 16.0584 14.0473C16.0426 14.0673 16.0264 14.1023 16.009 14.1777H15.9528C15.9554 14.1234 15.9585 14.0738 15.9614 14.0293L15.9614 14.0288L15.9615 14.0281L15.9616 14.0267C15.9646 13.9797 15.9673 13.9385 15.9684 13.9035H16.01C16.0302 13.9341 16.0436 13.9369 16.0796 13.9369H16.6138C16.6482 13.9369 16.6549 13.9291 16.6757 13.9048L16.6768 13.9035H16.7181C16.7197 13.96 16.7262 14.0742 16.733 14.1737L16.6743 14.1777C16.6541 14.0972 16.6395 14.0622 16.6193 14.0392C16.5964 14.0149 16.5523 14.0068 16.488 14.0068H16.456V14.596C16.4562 14.7411 16.4668 14.7505 16.5792 14.7588ZM15.6914 13.1973H15.3609V13.1449C15.4252 13.1393 15.4504 13.1259 15.4587 13.076C15.4653 13.0345 15.4734 12.9631 15.4802 12.8408L15.495 12.5691C15.5044 12.3997 15.4938 12.385 15.3879 12.3754V12.3227H15.7022L15.9369 12.8555L16.1416 12.3227H16.4671V12.3754C16.3652 12.3847 16.3599 12.3901 16.364 12.5314L16.3773 12.9818C16.3814 13.1309 16.3839 13.135 16.4804 13.1446V13.197H16.0615V13.1446C16.1615 13.135 16.1658 13.1309 16.1643 12.9818L16.1603 12.5083H16.1547L15.8963 13.1823H15.8243L15.5792 12.5557H15.5765L15.5671 12.8542C15.5628 12.9697 15.5644 13.0342 15.5696 13.0757C15.5749 13.1256 15.6047 13.1378 15.6914 13.1446V13.1973ZM16.8649 16.4249H16.4456V16.3728C16.5457 16.3634 16.55 16.3591 16.5485 16.21L16.5447 15.7365H16.5392L16.2808 16.4105H16.2087L15.9637 15.7838H15.9609L15.9516 16.0823C15.9473 16.1981 15.9488 16.2624 15.9543 16.3039C15.9596 16.3538 15.9891 16.3659 16.0761 16.3728V16.4249H15.7454V16.3728C15.8099 16.3672 15.8351 16.3538 15.8432 16.3039C15.8497 16.2624 15.858 16.191 15.8646 16.0687L15.8795 15.797C15.8888 15.6276 15.8782 15.6129 15.7723 15.6033V15.5506H16.0872L16.3214 16.0834L16.5261 15.5506H16.8515V15.6033C16.7499 15.6126 16.7444 15.6182 16.7484 15.7593L16.762 16.2097C16.7658 16.3589 16.7683 16.3632 16.8649 16.3725V16.4249ZM17.6267 16.4249H16.945V16.3728C17.0481 16.3644 17.0587 16.3551 17.0587 16.21V15.7661C17.0587 15.621 17.0481 15.6116 16.9584 15.6035V15.5509H17.5931C17.5944 15.5739 17.6009 15.6721 17.6077 15.7727L17.549 15.7767C17.5354 15.7109 17.521 15.6732 17.4994 15.6516C17.4782 15.6286 17.4338 15.6205 17.363 15.6205H17.3403C17.2894 15.6205 17.2866 15.6205 17.2866 15.6676V15.9271H17.3536C17.4688 15.9271 17.4729 15.9193 17.4862 15.817H17.545V16.1343H17.4862C17.4726 16.016 17.4688 16.0077 17.3536 16.0077H17.2866V16.2269C17.2866 16.2968 17.2894 16.3305 17.3136 16.3426C17.335 16.3535 17.3657 16.3548 17.4071 16.3548C17.4608 16.3548 17.5198 16.3467 17.549 16.3145C17.5717 16.2902 17.5946 16.2406 17.6148 16.1758L17.6735 16.1854C17.6667 16.2515 17.6388 16.3887 17.6267 16.4249ZM18.5634 16.4249H18.1432V16.3728L18.1835 16.3672C18.2329 16.3606 18.2354 16.347 18.2183 16.2986L18.1701 16.1613H17.9506L17.9102 16.2905C17.8931 16.3485 17.8931 16.3616 17.9546 16.3685L17.9932 16.3725V16.4247H17.6814V16.3728C17.7499 16.3634 17.7701 16.3576 17.814 16.2449L18.0817 15.5496L18.1739 15.5306L18.2649 15.7848C18.3227 15.9451 18.3799 16.1036 18.4308 16.2409C18.4739 16.3576 18.4981 16.3644 18.5634 16.3728V16.4249ZM18.8777 13.1973H18.4575V13.1449L18.4979 13.1393C18.5473 13.1327 18.5498 13.1193 18.5326 13.0707L18.4845 12.9334H18.2649L18.2246 13.0626C18.2075 13.1206 18.2075 13.134 18.269 13.1406L18.3075 13.1449V13.1973H17.9957V13.1449C18.064 13.1353 18.0844 13.1297 18.1283 13.017L18.396 12.3217L18.4883 12.3027L18.5793 12.5569C18.6368 12.717 18.6942 12.8757 18.7452 13.013C18.7883 13.1297 18.8125 13.1365 18.8777 13.1449V13.1973Z"
    fill="black"
  />
  <path
    d="M15.9863 21.0318L17.0015 20.3152L17.0877 20.3489L16.4668 22.254C16.1517 22.1117 15.4279 22.0117 14.5804 22.0077C13.7332 22.0117 13.0094 22.1117 12.6943 22.254L12.0735 20.3489L12.1592 20.3152L13.2164 21.0318L13.2252 21.1045L12.9837 21.2133C12.9361 21.2374 12.9356 21.2759 12.96 21.2992L13.5552 21.8398L13.6157 21.8345L14.0677 21.1657C14.0987 21.1224 14.0874 21.0791 14.0332 21.07L13.7299 21.0204V20.9437L14.5157 19.828H14.645L15.431 20.9437V21.0204L15.1277 21.07C15.0733 21.0791 15.0622 21.1224 15.0932 21.1657L15.5449 21.8345L15.6052 21.8398L16.2429 21.2992C16.2671 21.2759 16.2666 21.2374 16.219 21.2133L15.9777 21.1045L15.9863 21.0318Z"
    fill="black"
  />
  <path
    d="M16.3389 22.7698C16.3389 22.9569 15.5516 23.1085 14.5804 23.1085C13.6092 23.1085 12.8218 22.9569 12.8218 22.7698C12.8218 22.5826 13.6092 22.431 14.5804 22.431C15.5516 22.431 16.3389 22.5826 16.3389 22.7698Z"
    fill="black"
  />
  <path
    d="M13.0223 27.5972C13.2157 27.5972 13.3725 27.4397 13.3725 27.2455C13.3725 27.0512 13.2157 26.8938 13.0223 26.8938C12.8289 26.8938 12.6722 27.0512 12.6722 27.2455C12.6722 27.4397 12.8289 27.5972 13.0223 27.5972Z"
    fill="black"
  />
  <path
    d="M16.5736 28.1823C16.767 28.1823 16.9238 28.0249 16.9238 27.8306C16.9238 27.6364 16.767 27.4789 16.5736 27.4789C16.3803 27.4789 16.2235 27.6364 16.2235 27.8306C16.2235 28.0249 16.3803 28.1823 16.5736 28.1823Z"
    fill="black"
  />
  <path
    d="M11.802 1.37846L12.2313 1.25818L11.8857 2.96886L12.1655 3.93991L11.7773 4.05259L11.5035 3.08863L10.295 1.82157L10.7135 1.69978L11.5832 2.61006L11.802 1.37846Z"
    fill="black"
  />
  <path
    d="M14.5664 2.76249C14.7598 2.76249 14.9165 2.60503 14.9165 2.41079C14.9165 2.21655 14.7598 2.05908 14.5664 2.05908C14.373 2.05908 14.2162 2.21655 14.2162 2.41079C14.2162 2.60503 14.373 2.76249 14.5664 2.76249Z"
    fill="black"
  />
  <path
    d="M22.9 6.04003C23.0934 6.04003 23.2501 5.88256 23.2501 5.68832C23.2501 5.49408 23.0934 5.33661 22.9 5.33661C22.7066 5.33661 22.5499 5.49408 22.5499 5.68832C22.5499 5.88256 22.7066 6.04003 22.9 6.04003Z"
    fill="black"
  />
  <path
    d="M5.88964 21.4197C5.89015 21.2042 5.82208 20.996 5.68747 20.8016C5.53547 20.581 5.28716 20.359 4.94685 20.3582C4.71392 20.3577 4.4631 20.5101 4.14824 20.7322L3.01689 21.5022L3.24528 21.8324L4.43436 21.0221C4.68342 20.8477 4.82333 20.756 4.9534 20.7562C5.09684 20.7565 5.25918 20.8147 5.38598 20.9981C5.4669 21.115 5.50799 21.2379 5.50774 21.3505C5.50748 21.5285 5.4122 21.6417 5.18885 21.7969C5.16767 21.8116 3.87221 22.7379 3.87221 22.7379L4.10514 23.0744L5.36934 22.1692C5.80746 21.8648 5.88914 21.6655 5.88964 21.4197Z"
    fill="black"
  />
  <path
    d="M1.6468 18.3219L4.05269 17.4747L4.18554 17.8408L2.80916 19.5297L4.54854 18.8387L4.67836 19.1952L2.3002 20.1126L2.16735 19.7465L3.55054 18.0555L1.77637 18.6789L1.6468 18.3219Z"
    fill="black"
  />
  <path
    d="M3.80489 16.0228L1.28682 16.398L1.34657 16.8029L3.86438 16.4279L3.80489 16.0228Z"
    fill="black"
  />
  <path
    d="M1.21221 13.3484L1.22204 12.924L3.73507 13.9498L3.71742 14.3708L1.13709 15.1439L1.13986 14.719L3.23216 14.1298L1.21221 13.3484Z"
    fill="black"
  />
  <path
    fill-rule="evenodd"
    clip-rule="evenodd"
    d="M2.7547 8.25205C2.9841 7.83527 3.15047 7.62865 3.5102 7.62789C3.63221 7.62764 3.75245 7.66157 3.8727 7.72816C4.03403 7.81805 4.14066 7.93959 4.18957 8.08974C4.21099 8.15482 4.22133 8.22597 4.22057 8.29813C4.2204 8.32998 4.21222 8.36076 4.204 8.39168C4.2002 8.40601 4.19638 8.42036 4.19335 8.43487C4.23519 8.40524 4.2778 8.38321 4.31384 8.37283C4.42141 8.34145 4.5539 8.35382 4.72188 8.36951L5.55914 8.4412L5.35168 8.81898L4.62517 8.75442C4.22536 8.72049 4.17116 8.76379 4.01437 9.04865L3.95992 9.14967L4.89162 9.66065L4.69802 10.0124L2.45573 8.79012L2.7547 8.25205ZM3.47113 8.02746C3.31332 8.0267 3.20694 8.13 3.05746 8.40271L2.94427 8.60198L3.6617 8.98914L3.71388 8.89419C3.80211 8.73467 3.88631 8.58198 3.88757 8.43006C3.88782 8.39334 3.88354 8.35663 3.87295 8.31966C3.84573 8.2247 3.77262 8.13634 3.67733 8.08316C3.60347 8.04214 3.52961 8.02746 3.47113 8.02746Z"
    fill="black"
  />
  <path
    d="M6.2962 4.0141L6.62013 3.76596L8.1649 5.79821L7.84097 6.04661L6.2962 4.0141Z"
    fill="black"
  />
  <path
    d="M9.34092 2.15606L7.69405 3.01722L7.85463 3.32765L8.49921 2.99063L9.51385 4.94844L9.87559 4.75955L8.86095 2.80149L9.50175 2.46649L9.34092 2.15606Z"
    fill="black"
  />
  <path
    d="M20.8621 2.67108L19.5697 4.874L19.9178 5.08011L20.5027 4.08247L21.3202 4.56635L21.4931 4.27136L20.6759 3.78773L21.0333 3.17826L21.9015 3.69227L22.0782 3.3907L20.8621 2.67108Z"
    fill="black"
  />
  <path
    d="M26.1108 10.5702L27.0375 9.45606L27.1817 9.89715L26.4915 10.6905L27.5167 10.9216L27.6526 11.3374L26.25 10.9963L25.2537 12.1958L25.1121 11.762L25.864 10.8816L24.7397 10.6241L24.6026 10.2045L26.1108 10.5702Z"
    fill="black"
  />
  <path
    d="M27.92 12.8746L25.3828 13.0825L25.4156 13.4871L26.5641 13.3929L26.6417 14.3427L26.9813 14.3151L26.9041 13.3651L27.6059 13.3076L27.6873 14.3166L28.035 14.2883L27.92 12.8746Z"
    fill="black"
  />
  <path
    fill-rule="evenodd"
    clip-rule="evenodd"
    d="M26.5048 15.3621C26.2104 15.3621 25.9404 15.4419 25.7264 15.5979C25.3422 15.8774 25.2721 16.2793 25.2721 16.5142C25.2721 17.3787 26.0808 17.7243 26.6883 17.7243C26.98 17.7248 27.247 17.6451 27.4572 17.4919C27.886 17.1802 27.9094 16.7112 27.9094 16.5603C27.9097 15.8063 27.2192 15.3621 26.5048 15.3621ZM26.7052 17.3108C26.2096 17.3108 25.6301 17.0394 25.6301 16.5373C25.6301 16.3555 25.6931 16.1111 25.917 15.9478C26.0685 15.8374 26.2648 15.7789 26.4847 15.7789C26.737 15.7789 27.1925 15.8503 27.4315 16.1813C27.5137 16.2952 27.5555 16.4277 27.5553 16.5689C27.5553 16.7647 27.4759 16.9974 27.2666 17.1495C27.1189 17.2572 26.924 17.3108 26.7052 17.3108Z"
    fill="black"
  />
  <path
    fill-rule="evenodd"
    clip-rule="evenodd"
    d="M24.232 7.10072C24.4962 6.93259 24.77 6.85055 25.0274 6.85055C25.4113 6.85055 25.7604 7.03387 25.9835 7.3871C26.104 7.57802 26.1635 7.78413 26.1635 7.99378C26.1635 8.49817 25.8129 8.8709 25.498 9.07144C25.2366 9.2383 24.9593 9.32566 24.6964 9.32693C24.4214 9.32819 24.014 9.22311 23.7425 8.79266C23.6223 8.6025 23.5648 8.39563 23.5648 8.1847C23.5648 7.85882 23.743 7.41242 24.232 7.10072ZM24.0541 8.61187C24.1962 8.83747 24.4027 8.93369 24.6311 8.93369C24.8312 8.93369 25.0589 8.85748 25.285 8.7134C25.6077 8.50805 25.7856 8.23129 25.7856 7.94897C25.7856 7.81654 25.7498 7.68411 25.6709 7.55953C25.5378 7.34835 25.3379 7.23973 25.0924 7.23973C24.8983 7.23897 24.6813 7.30809 24.4604 7.44888C24.1267 7.66208 23.9442 7.95884 23.9454 8.24775C23.9462 8.37334 23.9815 8.49716 24.0541 8.61187Z"
    fill="black"
  />
  <path
    fill-rule="evenodd"
    clip-rule="evenodd"
    d="M18.0822 1.58406C17.5515 1.58406 17.0895 1.94286 16.9032 2.58044C16.8618 2.72198 16.8356 2.86226 16.8356 2.99798C16.8356 3.25346 16.8785 3.45552 16.9823 3.6467C17.218 4.07943 17.6491 4.22705 17.9765 4.22705C18.1616 4.22705 18.3398 4.18451 18.5034 4.09488C18.933 3.85889 19.2165 3.3112 19.2165 2.78731C19.2165 2.55993 19.1727 2.34546 19.0721 2.16214C18.8659 1.7846 18.483 1.58406 18.0822 1.58406ZM17.9513 3.86446C17.7671 3.86446 17.5009 3.77406 17.3519 3.50085C17.28 3.36867 17.248 3.20814 17.248 3.04204C17.248 2.58423 17.5518 1.94159 18.1064 1.94159C18.4177 1.94159 18.8089 2.17454 18.8089 2.75262C18.8089 3.12154 18.5508 3.86446 17.9513 3.86446Z"
    fill="black"
  />
  <path
    d="M4.32416 10.9543L3.98208 10.8573L3.69697 11.8679L2.92862 11.6562L3.18978 10.7292L2.86207 10.6355L2.60015 11.5655L1.92079 11.3782L2.2301 10.3544L1.89508 10.2595L1.47435 11.6805L3.93797 12.3586L4.32416 10.9543Z"
    fill="black"
  />
  <path
    d="M4.6282 5.51512C4.98163 5.11708 5.34337 5.14442 5.34337 5.14442L5.40538 5.48195C5.40538 5.48195 5.12632 5.49107 4.90802 5.73668C4.81298 5.84379 4.76509 5.95545 4.76509 6.05597C4.76509 6.13903 4.79735 6.21119 4.86189 6.26943C5.01165 6.40332 5.25149 6.29717 5.4359 6.21555C5.46877 6.201 5.49988 6.18723 5.5284 6.17574C5.6736 6.11548 5.87981 6.03116 6.08576 6.03116C6.23953 6.03116 6.39834 6.07497 6.54354 6.20537C6.71294 6.35755 6.79815 6.54821 6.79815 6.74875C6.79815 6.96601 6.71395 7.1592 6.54505 7.34936C6.22012 7.71449 5.78376 7.7545 5.78376 7.7545L5.69679 7.41241C5.95417 7.35265 6.14878 7.2534 6.26726 7.12021C6.36003 7.01589 6.40565 6.89891 6.40565 6.7961C6.40565 6.69963 6.36557 6.60974 6.28692 6.5391C6.22339 6.48212 6.14575 6.46161 6.06156 6.46339C5.91895 6.46339 5.75182 6.53477 5.60409 6.59786C5.58234 6.60715 5.56101 6.61626 5.54025 6.62493C5.23119 6.75306 4.90474 6.85662 4.61283 6.59455C4.4641 6.46136 4.3852 6.29348 4.3852 6.10738C4.38494 5.91013 4.46284 5.70098 4.6282 5.51512Z"
    fill="black"
  />
  <path
    fill-rule="evenodd"
    clip-rule="evenodd"
    d="M25.6689 19.1086L24.7067 18.6713L24.868 18.3032L27.1826 19.3504C27.1826 19.3504 26.9533 19.8817 26.9459 19.8984C26.7496 20.3461 26.5943 20.5894 26.1894 20.5899C25.96 20.5904 25.6462 20.458 25.5315 20.1881C25.4962 20.1065 25.4788 20.0133 25.4798 19.9194C25.4798 19.9065 25.4824 19.894 25.485 19.8813C25.4869 19.8724 25.4887 19.8635 25.4897 19.8543C25.4541 19.8832 25.4158 19.9045 25.3825 19.9176C25.2793 19.9574 25.1482 19.9574 24.9796 19.9574H24.9764L24.1362 19.9602L24.3096 19.5657L25.0387 19.5652C25.4402 19.5634 25.4904 19.5153 25.6212 19.2175L25.6689 19.1086ZM25.8264 19.9308C25.8998 20.1215 26.0949 20.1878 26.2096 20.1875C26.406 20.1873 26.4945 20.0878 26.6316 19.7753L26.7128 19.5781L25.9792 19.2469L25.9358 19.3454L25.9293 19.3602C25.8641 19.5077 25.8019 19.6482 25.8007 19.7837C25.8002 19.8333 25.808 19.8824 25.8264 19.9308Z"
    fill="black"
  />
  <path
    fill-rule="evenodd"
    clip-rule="evenodd"
    d="M23.3659 21.0902C23.1019 21.4222 22.9015 21.7189 22.9015 22.1026C22.9015 22.4279 23.0487 22.7981 23.4213 23.0967C23.6681 23.2947 23.9472 23.402 24.2348 23.402C24.589 23.402 24.8728 23.2954 25.314 22.7399L25.716 22.2319L23.7266 20.6365L23.3659 21.0902ZM24.2734 23.0154C24.0707 23.0154 23.8811 22.9369 23.6835 22.7786C23.4831 22.6176 23.2703 22.3674 23.2703 22.0476C23.2703 21.8255 23.3906 21.6139 23.5751 21.3814L23.744 21.1695L25.1978 22.335L25.0868 22.4748C24.8166 22.8146 24.6326 23.0154 24.2734 23.0154Z"
    fill="black"
  />
  <path
    fill-rule="evenodd"
    clip-rule="evenodd"
    d="M29.1667 14.6253C29.1667 6.56089 22.6246 0 14.5833 0C6.54235 0 0 6.56089 0 14.6253C0 19.4634 2.37867 23.973 6.36336 26.7054C6.75561 28.1712 8.09065 29.2552 9.67727 29.2552C10.1066 29.2552 10.5223 29.1737 10.9178 29.0202C11.4514 29.1972 12.0027 29.3436 12.5523 29.4575C12.3978 29.9016 12.1716 30.3227 11.9564 30.6868L11.9685 30.6843C11.9665 30.6856 11.9645 30.6867 11.9626 30.6878C11.9603 30.6891 11.958 30.6904 11.9559 30.6919L12.2596 30.997C12.3373 30.9545 12.4247 30.9279 12.519 30.9279C12.8195 30.9279 13.0635 31.1733 13.0635 31.4748C13.0635 31.7764 12.8192 32.0218 12.519 32.0218C12.2571 32.0218 12.0272 31.8531 11.9064 31.6726C11.9064 31.6726 11.8356 31.9187 11.8356 32.2428C11.8336 33.2934 12.975 34.4938 14.5586 35C16.1405 34.5052 17.2824 33.2962 17.2816 32.2448C17.2816 31.883 17.2108 31.6726 17.2108 31.6726C17.0893 31.8197 16.8919 32.0218 16.5947 32.0218C16.2947 32.0218 16.0502 31.7764 16.0502 31.4748C16.0502 31.1733 16.2947 30.9279 16.5947 30.9279C16.7001 30.9279 16.7976 30.9593 16.8808 31.0115L17.1755 30.7155L17.1826 30.7172L17.1869 30.7182C17.0202 30.3179 16.8982 29.9495 16.8155 29.5963C19.4375 29.2415 21.6498 28.1269 23.4091 26.2691L23.4078 26.2673C27.0678 23.4742 29.1667 19.2365 29.1667 14.6253ZM9.67752 28.844C8.02183 28.844 6.67494 27.4873 6.67494 25.8197C6.67494 25.2973 6.80728 24.8053 7.03971 24.3759C7.19424 24.5169 7.3596 24.6633 7.53102 24.8109C7.38531 25.1208 7.30112 25.4654 7.30112 25.8301C7.30112 26.7373 7.75689 27.4868 8.61876 27.9973C9.11361 28.2905 9.67399 28.5551 10.2671 28.7855C10.0748 28.8242 9.87767 28.844 9.67752 28.844ZM14.5833 24.4432C13.9587 24.4432 13.3433 24.383 12.7398 24.2673C12.158 23.1212 10.9657 22.3836 9.67752 22.3836C9.36115 22.3836 9.05588 22.4302 8.76472 22.5107C6.289 20.6626 4.81179 17.7236 4.81179 14.6253C4.81179 9.21173 9.19528 4.80767 14.5833 4.80767C19.9711 4.80767 24.3549 9.21198 24.3549 14.6253C24.3549 20.0387 19.9711 24.4432 14.5833 24.4432ZM16.7576 24.6185C16.4646 25.0383 16.2902 25.6222 16.238 26.2132C15.3131 25.9739 14.4742 25.652 13.7421 25.3168C13.8815 25.0464 14.2796 24.8547 14.5833 24.8547C15.3295 24.8544 16.0565 24.7716 16.7576 24.6185ZM13.6599 24.8114C13.5359 24.9043 13.4356 25.0155 13.3648 25.1378C12.9955 24.9578 12.5319 24.7258 12.2286 24.5554C12.6584 24.6509 13.2188 24.7719 13.6599 24.8114ZM9.67752 22.7948C10.6836 22.7948 11.6251 23.3129 12.1769 24.1434C11.6934 24.0204 11.219 23.8601 10.7557 23.6618L10.7544 23.6649L10.739 23.656C10.4154 23.5028 10.0687 23.4251 9.70827 23.4251C8.90664 23.4251 8.19753 23.8201 7.75991 24.4237C7.57539 24.3212 7.39111 24.2131 7.21012 24.1004C7.75311 23.3124 8.65607 22.7948 9.67752 22.7948ZM16.595 30.5061C16.0573 30.5061 15.6161 30.8884 15.6161 31.4748C15.6161 32.0491 16.0633 32.4436 16.595 32.4436C16.6759 32.4436 16.753 32.4299 16.8279 32.4104C16.7157 33.2227 15.7739 34.132 14.5591 34.5404C13.3539 34.135 12.4124 33.2189 12.2878 32.4112C12.3625 32.4304 12.4391 32.4436 12.5195 32.4436C13.0996 32.4436 13.4984 32.0359 13.4984 31.4748C13.4984 30.9398 13.0802 30.52 12.5404 30.5081C12.7053 30.2058 12.8629 29.8847 12.9796 29.5401C13.6481 29.6568 14.3065 29.7206 14.9189 29.7206C15.4208 29.7206 15.9085 29.6933 16.3847 29.6446C16.4477 29.9219 16.5415 30.2116 16.6517 30.5109C16.6486 30.5107 16.6455 30.5105 16.6425 30.5102C16.6401 30.51 16.6376 30.5097 16.6352 30.5094C16.6328 30.5092 16.6304 30.5089 16.628 30.5086C16.6171 30.5073 16.6062 30.5061 16.595 30.5061ZM14.9189 29.3096C12.9634 29.3096 10.523 28.6419 8.84614 27.6483C8.33794 27.3473 7.73243 26.7874 7.73243 25.8301C7.73243 25.5715 7.7831 25.3252 7.87209 25.0983C8.49801 25.6179 9.14511 26.105 9.55072 26.3284C9.64424 26.3798 9.69794 26.4048 9.80684 26.4048C10.0672 26.4048 10.2782 26.1919 10.2782 25.9293C10.2782 25.7285 10.1698 25.5657 9.99086 25.487C9.93666 25.4631 9.87322 25.4357 9.80176 25.4048C9.41584 25.2378 8.79615 24.9697 8.13678 24.6266C8.49827 24.1475 9.06722 23.836 9.70852 23.836C10.0017 23.836 10.284 23.8993 10.5472 24.0239L11.0831 24.3376C12.7872 25.3831 17.1712 28.0641 22.4645 26.5912C20.4554 28.4123 17.9809 29.3096 14.9189 29.3096ZM23.129 25.9544C20.7599 26.7963 18.5486 26.7386 16.6623 26.3152C16.724 25.469 17.0724 24.5645 17.6056 24.3964C21.7604 23.102 24.7862 19.2112 24.7862 14.6256C24.7862 8.98536 20.2091 4.39671 14.5833 4.39671C8.95756 4.39671 4.38047 8.98536 4.38047 14.6256C4.38047 17.7633 5.83953 20.7441 8.29584 22.6766C7.71252 22.9344 7.21516 23.3506 6.85518 23.8692C6.66889 23.7416 6.48941 23.6097 6.32354 23.4727L6.23077 23.5664C6.34169 23.7011 6.51386 23.8788 6.72107 24.0784C6.41882 24.5893 6.24337 25.1841 6.24337 25.8202C6.24337 25.9192 6.24993 26.0167 6.2585 26.1136C2.60302 23.4377 0.431316 19.1843 0.431316 14.6261C0.431316 6.78827 6.78006 0.41197 14.5833 0.41197C22.3866 0.41197 28.7354 6.78827 28.7354 14.6261C28.7354 19.115 26.692 23.2395 23.129 25.9544Z"
    fill="black"
  />
  <path
    d="M70.0839 6.3213C70.0839 5.35465 70.8518 4.66667 71.9739 4.66667C73.1095 4.66667 73.654 5.26054 73.7101 5.32181L73.3457 5.76878C73.2065 5.65989 72.7094 5.29007 72.0231 5.29007C71.2305 5.29007 70.7917 5.70972 70.7917 6.27886C70.7917 6.55457 70.9032 6.75277 71.0829 6.91554C71.2909 7.10493 71.5926 7.24567 71.9185 7.39771L71.9411 7.40828C72.0008 7.43605 72.0636 7.46433 72.1286 7.49357L72.1299 7.49412C72.5181 7.6688 72.9835 7.87816 73.3103 8.22213C73.5753 8.49968 73.775 8.86139 73.775 9.35708C73.775 10.4035 73.0582 11.2 71.7688 11.2C70.6703 11.2 69.9768 10.5873 69.9116 10.526L70.2538 10.0155C70.4302 10.148 71.1197 10.5614 71.7505 10.5614C72.685 10.5614 73.0345 10.0436 73.0345 9.41835C73.0345 9.12751 72.904 8.89424 72.7108 8.706C72.444 8.44591 72.0516 8.26516 71.6636 8.08645L71.6608 8.08516L71.6077 8.06068L71.5625 8.03979C71.1448 7.84676 70.7429 7.6445 70.4586 7.3411C70.2713 7.14179 70.0839 6.81589 70.0839 6.3213Z"
    fill="black"
  />
  <path
    fill-rule="evenodd"
    clip-rule="evenodd"
    d="M95.2027 11.1959C93.5955 11.1959 92.4195 9.85128 92.4195 7.96005C92.4195 6.01716 93.5824 4.66739 95.26 4.66739C96.8861 4.66739 98.0334 6.00276 98.0334 7.90211C98.0337 9.84943 96.8839 11.1959 95.2027 11.1959ZM95.2002 5.31035C93.9829 5.31035 93.1925 6.35119 93.1925 7.91982C93.1925 9.48293 94.0726 10.5474 95.2399 10.5474C96.5381 10.5474 97.2604 9.42904 97.2604 7.87037C97.2607 6.33568 96.4076 5.31035 95.2002 5.31035Z"
    fill="black"
  />
  <path
    d="M86.2611 8.59057V11.0768H85.5235V8.59057L83.5518 4.78634H84.4061L85.9368 7.73612L87.4233 4.78597L88.2335 4.78634L86.2611 8.59057Z"
    fill="black"
  />
  <path
    d="M38.0552 11.196C38.8129 11.196 39.3563 10.9509 39.7186 10.5844C40.2789 10.0165 40.2771 9.23057 40.2747 8.16596V8.16454C40.2745 8.08446 40.2743 8.00281 40.2743 7.91955V4.78633H39.5418V8.11554C39.5418 8.18078 39.5419 8.24383 39.542 8.3048V8.30678C39.5434 9.30677 39.544 9.74759 39.1424 10.154C38.912 10.3869 38.5436 10.5475 38.0837 10.5475C37.6132 10.5475 37.205 10.4021 36.9393 10.1337C36.5705 9.76024 36.571 9.29212 36.5716 8.80935L36.5716 4.7867H35.8278L35.8277 8.57879C35.8266 9.32273 35.8257 10.0164 36.3675 10.5652C36.7819 10.9852 37.3941 11.196 38.0552 11.196Z"
    fill="black"
  />
  <path
    fill-rule="evenodd"
    clip-rule="evenodd"
    d="M41.4958 30.3333C45.3188 30.3333 48.379 27.4183 48.379 23.4033C48.379 19.5655 45.3932 16.6138 41.4958 16.6135C37.6706 16.6135 34.6111 19.5286 34.6111 23.5465C34.6111 27.3854 37.5981 30.3333 41.4958 30.3333ZM41.4958 17.2775C44.4442 17.2775 46.1924 19.8246 46.1924 23.4756C46.1924 26.6114 44.7007 29.6701 41.4958 29.6697C38.5449 29.6697 36.7959 27.1245 36.7959 23.4756C36.7959 20.3365 38.2905 17.2775 41.4958 17.2775Z"
    fill="black"
  />
  <path
    fill-rule="evenodd"
    clip-rule="evenodd"
    d="M90.4092 23.4033C90.4092 27.4183 87.3497 30.3333 83.526 30.3333C79.6283 30.3333 76.6409 27.3854 76.6409 23.5465C76.6409 19.5286 79.7015 16.6135 83.526 16.6135C87.4234 16.6138 90.4092 19.5655 90.4092 23.4033ZM88.2248 23.4756C88.2248 19.8246 86.4751 17.2775 83.526 17.2775C80.3207 17.2775 78.828 20.3365 78.828 23.4756C78.828 27.1245 80.5762 29.6697 83.526 29.6697C86.7306 29.6701 88.2248 26.6114 88.2248 23.4756Z"
    fill="black"
  />
  <path
    fill-rule="evenodd"
    clip-rule="evenodd"
    d="M98.7502 25.6849C97.9849 24.5787 97.6933 24.1749 96.7473 24.1749H95.7264V28.6749C95.7264 29.044 95.8722 29.2252 96.2738 29.3005L97.7666 29.632V30.114H91.9027V29.632L93.2508 29.3005C93.6502 29.1916 93.796 29.044 93.796 28.6749V18.2728C93.796 17.903 93.6502 17.7568 93.2508 17.6468L91.9027 17.3146V16.8333H97.6205C98.8235 16.8333 99.6606 16.9455 100.352 17.2017C101.773 17.7568 102.574 19.1236 102.574 20.4109C102.574 22.0361 101.372 23.4028 99.3687 23.8771V23.9509C99.7703 24.1391 99.9879 24.3957 101.409 26.2795L103.193 28.6749C103.448 29.044 103.776 29.2632 104.177 29.3389L105.488 29.6323V30.1144H102.356C101.992 30.1144 101.809 30.0014 101.482 29.5574L98.7502 25.6849ZM95.7264 23.5467H97.3657C99.8428 23.5467 100.389 21.9637 100.389 20.4486C100.389 19.3051 99.8793 18.2352 98.7138 17.7203C98.0946 17.4612 97.5115 17.4612 96.7101 17.4612H95.7264V23.5467Z"
    fill="black"
  />
  <path
    d="M73.0724 21.3706H73.6191V25.7978H73.0724L72.7444 24.4706C72.6347 23.9889 72.3435 23.8059 71.9073 23.8059H68.7377V28.6745C68.7377 29.0436 68.8835 29.2249 69.2844 29.3001L70.7779 29.6316V30.1136H64.9147V29.6316L66.262 29.3001C66.6629 29.1913 66.8087 29.0436 66.8087 28.6745V18.2724C66.8087 17.9026 66.6629 17.7564 66.262 17.6465L64.9147 17.3143V16.833H74.821V20.1563H74.2743L73.6559 18.1617C73.5101 17.6465 73.2914 17.4612 72.8545 17.4612H68.7381V23.1777H71.9076C72.3439 23.1777 72.5986 22.9961 72.7448 22.5137L73.0724 21.3706Z"
    fill="black"
  />
  <path
    fill-rule="evenodd"
    clip-rule="evenodd"
    d="M106.544 29.6323L107.891 29.3009C108.293 29.192 108.438 29.0443 108.438 28.6753V18.2732C108.438 17.9033 108.293 17.7572 107.891 17.6472L106.544 17.315V16.8337H112.7C114.375 16.8337 115.577 17.0555 116.561 17.4981C119.037 18.6426 120.167 21.1126 120.167 23.5471C120.167 25.9108 119.292 28.1213 117.07 29.3012C116.051 29.8578 114.63 30.1147 112.773 30.1147H106.544V29.6323ZM110.369 17.4612V28.8938C110.369 29.3758 110.478 29.4887 110.952 29.4887H112.554C114.083 29.4887 115.212 29.2632 116.014 28.6749C117.361 27.6802 117.981 25.8724 117.981 23.5844C117.981 21.3344 117.362 19.1235 115.541 18.0532C114.776 17.6092 113.793 17.4612 112.262 17.4612H110.369Z"
    fill="black"
  />
  <path
    d="M53.515 29.6323V30.1144H48.8899V29.6323L50.0535 29.3389C50.4927 29.2252 50.7824 29.0816 51.0736 28.7498L55.081 23.6593L51.0736 18.2728C50.8196 17.903 50.4927 17.7203 50.0907 17.6088L48.9974 17.3143V16.833H54.7523V17.3143L53.515 17.5712C53.0766 17.6465 53.1863 17.8295 53.4039 18.1255L56.3544 22.4044H56.4269L59.4507 18.1255C59.6694 17.8295 59.7426 17.7199 59.3417 17.6088L58.1759 17.3143V16.833H62.8018V17.3143L61.6359 17.6088C61.1997 17.7203 60.9078 17.8661 60.6158 18.1982L56.8282 23.0337L61.0528 28.6749C61.309 29.044 61.6359 29.2252 62.0364 29.3389L63.1298 29.6323V30.1144H57.3752V29.6323L58.6129 29.3758C59.0505 29.3009 58.9773 29.1569 58.7586 28.8561L55.5534 24.2831H55.4808L52.2398 28.8251C52.0204 29.1193 51.9479 29.2256 52.3481 29.3393L53.515 29.6323Z"
    fill="black"
  />
  <path
    d="M43.3263 5.92055L46.3188 11.0775H47.0918V4.78633H46.4084L46.427 9.97207L43.4244 4.78633H42.6616V11.0775H43.3449L43.3263 5.92055Z"
    fill="black"
  />
  <path d="M49.6814 4.78669V11.0771H50.4289V4.78669H49.6814Z" fill="black" />
  <path
    d="M54.2206 11.0771H55.0759L57.259 4.78669H56.5359L54.6699 10.34L52.8576 4.78669H52.0788L54.2206 11.0771Z"
    fill="black"
  />
  <path
    d="M58.9491 4.78669V11.0771H62.4V10.4308H59.6812V8.1015H62.1638V7.48991H59.6812V5.41378H62.3256V4.78669H58.9491Z"
    fill="black"
  />
  <path
    fill-rule="evenodd"
    clip-rule="evenodd"
    d="M67.0866 9.44647L67.8001 11.0771H68.5779L67.7528 9.20398C67.5713 8.79281 67.4477 8.53334 67.279 8.36245C67.1616 8.24286 66.9812 8.12402 66.7622 8.1111C67.1649 8.06754 67.5345 7.85569 67.7586 7.61467C68.0188 7.33453 68.1442 6.97098 68.1442 6.53397C68.1442 6.00912 67.9707 5.59094 67.6598 5.27611C67.1765 4.78658 66.5603 4.78663 65.7459 4.7867L64.3773 4.7867V11.0771H65.1095V8.34104H65.5424C66.443 8.34104 66.6445 8.44365 67.0866 9.44647ZM65.8603 5.38899C66.3419 5.38835 66.7806 5.38776 67.1219 5.73341C67.2684 5.88179 67.4054 6.16599 67.4058 6.51958C67.4058 6.83884 67.2906 7.13116 67.0847 7.3397C66.687 7.74247 66.0721 7.74031 65.4819 7.73824C65.44 7.73809 65.3978 7.73795 65.3562 7.73795H65.1095V5.38905L65.8603 5.38899Z"
    fill="black"
  />
  <path d="M75.8338 4.78669V11.0771H76.5812V4.78669H75.8338Z" fill="black" />
  <path
    d="M80.8458 11.0771V5.41378H82.6863V4.78669H78.2525V5.41378H80.0987V11.0771H80.8458Z"
    fill="black"
  />
  <path
    d="M100.819 7.48991V5.41378H103.376V4.78669H100.077V11.0771H100.819V8.1015H103.22V7.48991H100.819Z"
    fill="black"
  />
</svg>
