<svg
  width="87"
  height="30"
  viewBox="0 0 87 30"
  fill="none"
  xmlns="http://www.w3.org/2000/svg"
>
  <title>Logo Pharma Advisors</title>
  <path
    d="M10.3753 23.4088C10.3753 22.0085 10.9315 20.6654 11.9216 19.675C12.9116 18.6846 14.2545 18.128 15.6549 18.1275H16.1641V18.0768H24.7055C26.1062 18.0768 27.4495 17.5204 28.44 16.5299C29.4304 15.5395 29.9868 14.1962 29.9868 12.7955V5.28129C29.9868 3.88061 29.4304 2.53729 28.44 1.54686C27.4495 0.556421 26.1062 0 24.7055 0H5.28129C4.58775 0 3.90099 0.136605 3.26023 0.402015C2.61947 0.667424 2.03727 1.05644 1.54686 1.54686C0.556421 2.53729 0 3.88061 0 5.28129V24.1368C0 25.5375 0.556421 26.8808 1.54686 27.8712C2.53729 28.8617 3.88061 29.4181 5.28129 29.4181H10.3753V23.4088Z"
    fill="black"
  />
  <path
    d="M25.2533 29.4181C25.6404 28.5969 25.8138 27.6912 25.7573 26.7851C25.7008 25.8789 25.4162 25.0018 24.93 24.235C24.4438 23.4683 23.7718 22.8368 22.9763 22.3993C22.1808 21.9618 21.2876 21.7324 20.3797 21.7324C19.4718 21.7324 18.5786 21.9618 17.7831 22.3993C16.9876 22.8368 16.3156 23.4683 15.8294 24.235C15.3432 25.0018 15.0586 25.8789 15.0021 26.7851C14.9456 27.6912 15.119 28.5969 15.5061 29.4181H25.2533Z"
    fill="black"
  />
  <path
    d="M35.6619 14.7957V3.05888C35.6602 2.97978 35.675 2.9012 35.7051 2.82804C35.7352 2.75487 35.78 2.6887 35.8369 2.63365C35.9 2.57447 35.9743 2.5285 36.0554 2.49845C36.1366 2.4684 36.2229 2.45487 36.3093 2.45865H39.426C40.4899 2.45865 41.3386 2.77189 41.9721 3.39837C42.6056 4.02484 42.9217 5.01181 42.9206 6.35925V6.501C42.9206 7.84844 42.5933 8.84007 41.9389 9.47588C41.2844 10.1117 40.4147 10.4278 39.3297 10.4243H37.3523V14.7992C37.3523 14.8896 37.329 14.9786 37.2845 15.0574C37.2401 15.1362 37.176 15.2022 37.0986 15.2489C36.9199 15.3588 36.7142 15.417 36.5045 15.417C36.2947 15.417 36.089 15.3588 35.9104 15.2489C35.8326 15.202 35.7687 15.1354 35.7251 15.0558C35.6814 14.9762 35.6596 14.8864 35.6619 14.7957ZM37.3523 8.92465H39.3297C39.9352 8.92465 40.4042 8.73216 40.7297 8.34892C41.0552 7.96569 41.2266 7.38646 41.2266 6.61999V6.41C41.2266 5.64353 41.061 5.07072 40.7297 4.69157C40.4007 4.31183 39.9317 4.12284 39.3297 4.12284H37.3523V8.92465Z"
    fill="black"
  />
  <path
    d="M44.6758 14.7974V2.63365C44.6747 2.54748 44.6953 2.46243 44.7356 2.3863C44.776 2.31017 44.8348 2.24539 44.9068 2.19791C45.0818 2.07726 45.291 2.01593 45.5035 2.02292C45.7169 2.01747 45.9267 2.07863 46.1037 2.19791C46.1792 2.24251 46.2418 2.30596 46.2854 2.38204C46.3289 2.45813 46.352 2.54423 46.3522 2.6319V8.26668C46.5259 7.88049 46.7981 7.54676 47.1414 7.29897C47.5041 7.03429 47.9437 6.89597 48.3926 6.90523C49.1486 6.90523 49.8007 7.24822 50.349 7.93419C50.9021 8.63449 51.193 9.50603 51.1715 10.3981V14.7957C51.1727 14.8862 51.1505 14.9756 51.1069 15.055C51.0634 15.1344 51 15.2012 50.923 15.2489C50.7483 15.3648 50.5429 15.4258 50.3333 15.4239C50.1288 15.4243 49.9288 15.3634 49.7593 15.2489C49.6807 15.2033 49.6156 15.1376 49.5707 15.0586C49.5258 14.9796 49.5027 14.8901 49.5038 14.7992V10.4121C49.5045 9.94322 49.334 9.49023 49.0243 9.13814C48.8897 8.96306 48.7166 8.82122 48.5185 8.72353C48.3204 8.62584 48.1025 8.57491 47.8816 8.57467C47.6776 8.57608 47.4764 8.62208 47.292 8.70944C47.1076 8.79679 46.9445 8.9234 46.8142 9.0804C46.4931 9.44818 46.3275 9.92628 46.3522 10.4138V14.7992C46.3465 14.8853 46.3203 14.9688 46.2759 15.0427C46.2315 15.1167 46.17 15.179 46.0967 15.2244C45.9254 15.3558 45.714 15.4238 45.4982 15.4169C45.2873 15.4241 45.0807 15.3558 44.9155 15.2244C44.8452 15.1767 44.7869 15.1133 44.7453 15.0392C44.7037 14.9651 44.6799 14.8823 44.6758 14.7974Z"
    fill="black"
  />
  <path
    d="M52.8619 13.2172C52.8619 12.2723 53.1804 11.6137 53.8174 11.2416C54.4544 10.8694 55.3801 10.6804 56.5946 10.6746H57.2945V10.3561C57.3074 9.8675 57.1713 9.38654 56.9043 8.97715C56.7734 8.78649 56.5952 8.63306 56.3873 8.53184C56.1793 8.43062 55.9487 8.38508 55.7178 8.39967C55.2979 8.39073 54.883 8.49146 54.5139 8.69191C54.3337 8.80552 54.144 8.9033 53.9469 8.98415C53.8536 8.98158 53.763 8.95281 53.6853 8.90112C53.6076 8.84944 53.5461 8.77694 53.5077 8.69191C53.3924 8.49566 53.332 8.27204 53.3327 8.04444C53.3327 7.73878 53.5911 7.47279 54.1079 7.24647C54.6241 7.02218 55.1813 6.90776 55.7441 6.91048C56.8395 6.91048 57.6503 7.2383 58.1765 7.89394C58.7026 8.54958 58.9651 9.36622 58.964 10.3438V14.7957C58.9631 14.8795 58.9425 14.962 58.9039 15.0365C58.8653 15.111 58.8098 15.1753 58.7417 15.2244C58.5759 15.3528 58.3703 15.419 58.1607 15.4116C57.9627 15.4171 57.7693 15.3506 57.6165 15.2244C57.5499 15.1742 57.4956 15.1095 57.4577 15.0353C57.4198 14.961 57.3993 14.8791 57.3978 14.7957V14.1744C56.6873 15.0967 55.8823 15.5569 54.9899 15.5569C54.7079 15.5669 54.4269 15.5184 54.1646 15.4145C53.9023 15.3106 53.6643 15.1536 53.4657 14.9532C53.0632 14.5507 52.8619 13.972 52.8619 13.2172ZM54.5524 12.988C54.5411 13.1432 54.5608 13.2991 54.6104 13.4466C54.6599 13.5942 54.7384 13.7303 54.8411 13.8472C54.9388 13.9453 55.0558 14.022 55.1848 14.0723C55.3138 14.1226 55.4518 14.1455 55.5901 14.1395C55.8114 14.1298 56.0283 14.0746 56.2273 13.9773C56.4263 13.8801 56.6032 13.7429 56.7468 13.5742C56.9137 13.4193 57.0483 13.2329 57.1426 13.0256C57.2369 12.8183 57.2892 12.5944 57.2963 12.3668V11.7105H56.8973C56.5058 11.7053 56.1145 11.7292 55.7266 11.7823C55.4255 11.8285 55.1431 11.9576 54.9111 12.155C54.7919 12.2574 54.6976 12.3857 54.6354 12.53C54.5732 12.6744 54.5448 12.831 54.5524 12.988Z"
    fill="black"
  />
  <path
    d="M61.1584 14.7957V7.62095C61.1567 7.53303 61.1771 7.4461 61.2178 7.36813C61.2584 7.29016 61.3181 7.22366 61.3911 7.17472C61.562 7.05637 61.766 6.99512 61.9738 6.99973C62.1691 6.99587 62.3601 7.05747 62.5163 7.17472C62.5861 7.22463 62.6429 7.29058 62.6819 7.36702C62.7209 7.44346 62.7409 7.52815 62.7403 7.61395V8.40317C62.9214 7.98938 63.2029 7.6273 63.5593 7.34971C63.898 7.06768 64.3243 6.91238 64.765 6.91048H65.2725C65.3601 6.91275 65.446 6.93583 65.523 6.97782C65.5999 7.01981 65.6658 7.0795 65.7152 7.15197C65.8452 7.31792 65.9132 7.52398 65.9077 7.7347C65.9127 7.94801 65.8448 8.15665 65.7152 8.32618C65.6668 8.40015 65.6013 8.46136 65.5243 8.50462C65.4472 8.54788 65.3608 8.57191 65.2725 8.57467H64.765C64.254 8.57467 63.806 8.81791 63.4158 9.29914C63.0256 9.78037 62.8366 10.4086 62.8366 11.1733V14.7992C62.8308 14.8855 62.8044 14.9691 62.7597 15.0431C62.7149 15.1171 62.6531 15.1793 62.5793 15.2244C62.406 15.3573 62.1922 15.4265 61.9738 15.4204C61.762 15.4297 61.5543 15.3598 61.3911 15.2244C61.3219 15.1757 61.2649 15.1117 61.2246 15.0373C61.1842 14.9629 61.1615 14.8802 61.1584 14.7957Z"
    fill="black"
  />
  <path
    d="M67.3811 14.7957V7.62095C67.3794 7.53303 67.3999 7.4461 67.4405 7.36813C67.4812 7.29016 67.5408 7.22366 67.6139 7.17472C67.7895 7.05517 67.9983 6.99395 68.2106 6.99973C68.4002 6.9979 68.585 7.0595 68.7356 7.17472C68.8054 7.22463 68.8622 7.29058 68.9011 7.36702C68.9401 7.44346 68.9602 7.52815 68.9596 7.61395V8.25968C69.4169 7.35205 70.1244 6.89823 71.0822 6.89823C71.5466 6.89751 71.9938 7.07328 72.3334 7.38996C72.7183 7.7448 73.0067 8.19159 73.1717 8.68841C73.3947 8.15723 73.7576 7.69642 74.2216 7.35496C74.6167 7.06189 75.0947 6.90195 75.5866 6.89823C75.9624 6.89964 76.3331 6.98563 76.6712 7.14982C77.0092 7.314 77.306 7.55218 77.5395 7.84669C78.089 8.48017 78.3631 9.3283 78.362 10.3911V14.7957C78.3568 14.8826 78.3307 14.9669 78.2859 15.0416C78.2411 15.1162 78.1789 15.1789 78.1047 15.2244C77.9378 15.3526 77.7324 15.4204 77.522 15.4169C77.3114 15.4219 77.1055 15.3539 76.9393 15.2244C76.8662 15.1795 76.8049 15.1178 76.7605 15.0445C76.716 14.9711 76.6897 14.8882 76.6838 14.8027V10.4121C76.6838 9.83462 76.5368 9.38138 76.2375 9.05065C76.1109 8.89767 75.9525 8.77412 75.7733 8.68859C75.5941 8.60307 75.3984 8.55762 75.1998 8.55542C74.9996 8.55806 74.8022 8.60364 74.6211 8.68907C74.44 8.7745 74.2793 8.8978 74.1499 9.05065C73.8353 9.4188 73.6737 9.89348 73.6984 10.3771V14.8149C73.7026 14.9056 73.6818 14.9956 73.6382 15.0752C73.5947 15.1548 73.5302 15.221 73.4516 15.2664C73.2696 15.3701 73.0626 15.4221 72.8532 15.4169C72.6512 15.4199 72.4521 15.3679 72.2774 15.2664C72.1963 15.2232 72.129 15.1578 72.0835 15.0779C72.038 14.998 72.016 14.9068 72.0202 14.8149V10.3946C72.04 9.91937 71.8843 9.45346 71.5827 9.08565C71.4579 8.92628 71.2986 8.79732 71.1167 8.7085C70.9348 8.61969 70.7352 8.57333 70.5328 8.57292C70.332 8.57236 70.1336 8.61651 69.952 8.70217C69.7703 8.78783 69.6101 8.91285 69.4828 9.06815C69.1738 9.44563 69.0172 9.925 69.0436 10.4121V14.7992C69.04 14.8841 69.0162 14.967 68.9742 15.041C68.9322 15.1149 68.8732 15.1778 68.8021 15.2244C68.6332 15.3556 68.4244 15.4248 68.2106 15.4204C67.9963 15.4279 67.7865 15.3584 67.6191 15.2244C67.5491 15.1762 67.4911 15.1123 67.4498 15.038C67.4085 14.9636 67.385 14.8807 67.3811 14.7957Z"
    fill="black"
  />
  <path
    d="M80.0506 13.2172C80.0506 12.2723 80.3697 11.6137 81.0079 11.2416C81.646 10.8694 82.5711 10.6804 83.7832 10.6746H84.4832V10.3561C84.4957 9.86704 84.3583 9.38586 84.0895 8.97715C83.9594 8.78691 83.7822 8.63369 83.5751 8.53247C83.3681 8.43125 83.1383 8.38549 82.9083 8.39967C82.4878 8.39075 82.0723 8.49147 81.7026 8.69191C81.5228 8.80631 81.3331 8.90413 81.1356 8.98415C81.0423 8.98158 80.9517 8.95281 80.874 8.90112C80.7963 8.84944 80.7348 8.77694 80.6964 8.69191C80.582 8.4953 80.5216 8.27192 80.5214 8.04444C80.5214 7.73878 80.7809 7.47279 81.3001 7.24647C81.819 7.01864 82.3801 6.90296 82.9468 6.90698C84.0446 6.90698 84.856 7.2348 85.3809 7.89044C85.9059 8.54608 86.1696 9.36272 86.1719 10.3403V14.7957C86.1684 14.8811 86.1447 14.9646 86.1027 15.0391C86.0608 15.1136 86.0017 15.1771 85.9304 15.2244C85.7647 15.353 85.5591 15.4193 85.3494 15.4116C85.1519 15.4169 84.9592 15.3503 84.807 15.2244C84.7382 15.1746 84.6819 15.1095 84.6428 15.0341C84.6036 14.9588 84.5825 14.8753 84.5812 14.7904V14.1744C83.8707 15.0961 83.0687 15.5569 82.1751 15.5569C81.8928 15.5667 81.6116 15.5182 81.3491 15.4143C81.0865 15.3104 80.8482 15.1534 80.6491 14.9532C80.2519 14.5542 80.0506 13.975 80.0506 13.2172ZM81.7428 12.988C81.7314 13.1429 81.7508 13.2986 81.7997 13.4461C81.8487 13.5935 81.9263 13.7298 82.0281 13.8472C82.1265 13.9452 82.2442 14.0218 82.3737 14.0721C82.5032 14.1224 82.6417 14.1453 82.7805 14.1395C83.1848 14.1395 83.5698 13.9522 83.9372 13.5742C84.1044 13.4194 84.2391 13.2329 84.3337 13.0257C84.4284 12.8184 84.4809 12.5945 84.4885 12.3668V11.7105H84.0895C83.6968 11.7052 83.3044 11.7292 82.9153 11.7823C82.6151 11.8283 82.3338 11.9574 82.1033 12.155C81.9834 12.257 81.8886 12.3851 81.8261 12.5295C81.7636 12.674 81.7351 12.8308 81.7428 12.988Z"
    fill="black"
  />
  <path
    d="M34.8901 29.4636C34.8878 29.4281 34.8919 29.3926 34.9024 29.3586L37.7128 19.2213C37.774 18.992 37.9473 18.8713 38.2378 18.8713C38.3525 18.8584 38.468 18.8865 38.5641 18.9505C38.6601 19.0145 38.7305 19.1104 38.7627 19.2213L41.5626 29.3831C41.564 29.3974 41.567 29.4115 41.5714 29.4251C41.5727 29.4397 41.5727 29.4543 41.5714 29.4689C41.5692 29.5281 41.552 29.5859 41.5214 29.6367C41.4908 29.6875 41.4478 29.7297 41.3964 29.7593C41.2911 29.8362 41.1645 29.8784 41.0342 29.8801C40.9573 29.8847 40.8813 29.8617 40.82 29.8151C40.7587 29.7686 40.7161 29.7016 40.6999 29.6263L40.0804 27.3269H36.3758L35.7546 29.6298C35.7397 29.7086 35.6949 29.7785 35.6298 29.8251C35.5646 29.8717 35.484 29.8914 35.4046 29.8801C35.2781 29.8796 35.1552 29.8378 35.0546 29.7611C35.0042 29.7296 34.9626 29.6857 34.9338 29.6337C34.9051 29.5816 34.89 29.5231 34.8901 29.4636ZM36.6086 26.4765H39.8617L38.2395 20.4462L36.6086 26.4765Z"
    fill="black"
  />
  <path
    d="M42.8733 27.1484V25.521C42.8548 24.8002 43.1042 24.0982 43.5733 23.5506C43.7756 23.2941 44.0335 23.087 44.3275 22.9448C44.6216 22.8027 44.9441 22.7291 45.2707 22.7299C45.6578 22.722 46.0373 22.8378 46.354 23.0606C46.6501 23.2694 46.8875 23.5508 47.0434 23.8778V18.8625C47.0439 18.8121 47.0566 18.7625 47.0804 18.718C47.1041 18.6736 47.1383 18.6355 47.1799 18.607C47.2723 18.5371 47.3861 18.5012 47.5019 18.5055C47.612 18.5002 47.72 18.5364 47.8046 18.607C47.8406 18.6388 47.8694 18.6778 47.889 18.7216C47.9086 18.7653 47.9186 18.8128 47.9184 18.8608V29.4934C47.9173 29.5438 47.9061 29.5935 47.8854 29.6396C47.8646 29.6856 47.8348 29.7269 47.7976 29.7611C47.7197 29.8378 47.6148 29.8808 47.5054 29.8808C47.396 29.8808 47.2911 29.8378 47.2132 29.7611C47.1738 29.7275 47.1421 29.686 47.1201 29.6392C47.098 29.5925 47.0862 29.5415 47.0854 29.4899V28.8214C46.9205 29.1572 46.6678 29.442 46.354 29.6456C46.0271 29.8686 45.6402 29.987 45.2445 29.9851C44.6075 29.9851 44.0516 29.6993 43.5768 29.1276C43.1125 28.5736 42.8629 27.8712 42.8733 27.1484ZM43.7483 27.1484C43.7461 27.6397 43.9228 28.1149 44.2453 28.4854C44.3814 28.6676 44.5577 28.816 44.7604 28.9192C44.9631 29.0224 45.1868 29.0775 45.4142 29.0804C45.6317 29.0782 45.8462 29.0293 46.043 28.9369C46.2399 28.8445 46.4146 28.7108 46.5552 28.5449C46.8877 28.1949 47.0522 27.8782 47.0522 27.6104V25.5245C47.0751 25.0227 46.899 24.5322 46.5622 24.1596C46.4173 23.9917 46.237 23.8581 46.0342 23.7683C45.8315 23.6786 45.6113 23.635 45.3896 23.6407C45.168 23.6464 44.9504 23.7012 44.7525 23.8013C44.5546 23.9013 44.3813 24.044 44.2453 24.2191C43.9238 24.5777 43.7467 25.0428 43.7483 25.5245V27.1484Z"
    fill="black"
  />
  <path
    d="M49.3743 23.2373C49.3766 23.1748 49.3937 23.1136 49.4241 23.0589C49.4545 23.0041 49.4974 22.9574 49.5493 22.9224C49.6472 22.8388 49.7707 22.7912 49.8993 22.7876C49.9706 22.7833 50.0412 22.803 50.0999 22.8436C50.1586 22.8842 50.202 22.9434 50.223 23.0116L51.9957 28.3874L53.7702 23.0711C53.8425 22.8821 53.9457 22.7876 54.0799 22.7876C54.2077 22.7952 54.33 22.8423 54.4299 22.9224C54.4836 22.953 54.5289 22.9966 54.5616 23.0492C54.5943 23.1017 54.6134 23.1616 54.6171 23.2233C54.6165 23.3057 54.598 23.3869 54.5629 23.4613L52.4 29.7611C52.3605 29.8334 52.3023 29.8937 52.2315 29.9358C52.1607 29.9778 52.0798 30 51.9975 30C51.9151 30 51.8343 29.9778 51.7635 29.9358C51.6926 29.8937 51.6344 29.8334 51.595 29.7611L49.4303 23.4613C49.3923 23.3929 49.373 23.3156 49.3743 23.2373Z"
    fill="black"
  />
  <path
    d="M56.0643 20.5407C55.9502 20.4232 55.8873 20.2653 55.8893 20.1015C55.8882 20.0214 55.9031 19.9419 55.9331 19.8677C55.9632 19.7934 56.0078 19.726 56.0643 19.6692C56.1202 19.612 56.1872 19.5669 56.2613 19.5368C56.3354 19.5067 56.4149 19.4922 56.4948 19.4942C56.5719 19.4922 56.6485 19.5068 56.7195 19.5369C56.7904 19.5671 56.8541 19.6123 56.906 19.6692C57.0186 19.7849 57.0814 19.9401 57.081 20.1015C57.0812 20.2649 57.0186 20.4222 56.906 20.5407C56.8558 20.6006 56.7927 20.6484 56.7216 20.6808C56.6505 20.7132 56.573 20.7293 56.4948 20.7279C56.4139 20.7292 56.3336 20.7131 56.2593 20.6808C56.1851 20.6485 56.1186 20.6008 56.0643 20.5407ZM56.0643 29.4934V23.1761C56.0645 23.1275 56.0754 23.0796 56.0962 23.0357C56.1171 22.9918 56.1475 22.9531 56.1851 22.9224C56.2726 22.852 56.3825 22.8153 56.4948 22.8191C56.6092 22.8156 56.7212 22.8521 56.8115 22.9224C56.8512 22.9517 56.8835 22.9899 56.9056 23.034C56.9278 23.0781 56.9394 23.1268 56.9393 23.1761V29.4934C56.9383 29.545 56.9258 29.5958 56.9028 29.6421C56.8798 29.6884 56.8469 29.7291 56.8063 29.7611C56.7214 29.8389 56.61 29.8814 56.4948 29.8801C56.3827 29.8818 56.2744 29.839 56.1938 29.7611C56.1547 29.728 56.1229 29.6871 56.1006 29.641C56.0783 29.5949 56.0659 29.5446 56.0643 29.4934Z"
    fill="black"
  />
  <path
    d="M58.6332 28.9089C58.635 28.8029 58.6672 28.6996 58.726 28.6114C58.7461 28.5703 58.7765 28.535 58.8142 28.5089C58.8519 28.4829 58.8956 28.4669 58.9412 28.4626C59.0557 28.4897 59.1594 28.5507 59.2387 28.6376C59.415 28.7782 59.6084 28.8959 59.8144 28.9876C60.0979 29.1128 60.4059 29.1726 60.7156 29.1626C61.1881 29.1626 61.5399 29.0629 61.7656 28.8634C61.8747 28.7694 61.9616 28.6524 62.02 28.5207C62.0784 28.3891 62.1069 28.2461 62.1033 28.1022C62.1099 27.9425 62.082 27.7833 62.0216 27.6354C61.9612 27.4874 61.8697 27.3542 61.7534 27.2447C61.5177 27.0244 61.2362 26.8588 60.9291 26.76C60.6054 26.6515 60.2817 26.5395 59.9544 26.431C59.6277 26.3211 59.3385 26.1216 59.1197 25.8552C58.8751 25.5434 58.7508 25.1539 58.7697 24.758C58.7605 24.2338 58.9478 23.725 59.2947 23.3318C59.6447 22.9294 60.1761 22.7281 60.8889 22.7281C61.3081 22.7257 61.7239 22.8035 62.1138 22.9574C62.4942 23.1137 62.6843 23.2811 62.6843 23.4596C62.6782 23.5762 62.6413 23.689 62.5776 23.7868C62.5544 23.8357 62.5187 23.8776 62.4742 23.9083C62.4296 23.9391 62.3778 23.9575 62.3238 23.9618C62.1533 23.9045 61.9873 23.8349 61.8268 23.7536C61.536 23.617 61.2189 23.5454 60.8976 23.5436C60.4497 23.5436 60.1137 23.6602 59.8897 23.8936C59.7842 23.9963 59.7001 24.119 59.6425 24.2545C59.5848 24.3899 59.5546 24.5355 59.5537 24.6828C59.5492 24.8216 59.5787 24.9594 59.6397 25.0842C59.7007 25.2089 59.7913 25.3169 59.9037 25.3985C60.1557 25.5863 60.438 25.7296 60.7384 25.822L61.7201 26.144C62.0628 26.2616 62.3561 26.4909 62.5531 26.795C62.79 27.1692 62.9067 27.6071 62.8873 28.0497C62.9012 28.3124 62.8573 28.5751 62.7587 28.819C62.6602 29.063 62.5093 29.2824 62.3168 29.4619C61.9353 29.8118 61.4034 29.9763 60.7244 29.9763C60.2035 29.994 59.6872 29.8732 59.2282 29.6263C58.8362 29.3989 58.6332 29.1591 58.6332 28.9089Z"
    fill="black"
  />
  <path
    d="M64.3572 27.1484V25.521C64.3439 24.7942 64.6138 24.0908 65.1097 23.5593C65.3288 23.2988 65.6023 23.0896 65.911 22.9463C66.2197 22.8029 66.5561 22.7291 66.8964 22.7299C67.2378 22.7301 67.5751 22.8034 67.8857 22.945C68.1964 23.0866 68.473 23.2931 68.6971 23.5506C69.2035 24.0806 69.4818 24.788 69.4723 25.521V27.1484C69.4765 27.8827 69.1998 28.5908 68.6988 29.1276C68.4807 29.3929 68.207 29.6072 67.8971 29.7554C67.5872 29.9035 67.2486 29.9819 66.9052 29.9851C66.5648 29.9814 66.2294 29.9026 65.923 29.7544C65.6166 29.6062 65.3467 29.3922 65.1325 29.1276C64.631 28.5909 64.3537 27.8829 64.3572 27.1484ZM65.2322 27.1484C65.2282 27.6405 65.4015 28.1176 65.7204 28.4924C65.8591 28.6735 66.0373 28.8206 66.2413 28.9225C66.4454 29.0244 66.6701 29.0784 66.8982 29.0804C67.129 29.0797 67.3566 29.0264 67.5637 28.9246C67.7708 28.8227 67.952 28.6749 68.0934 28.4924C68.4184 28.1206 68.5953 27.6423 68.5903 27.1484V25.5298C68.5921 25.0468 68.4122 24.5808 68.0863 24.2243C67.9441 24.0451 67.7636 23.9001 67.558 23.7999C67.3524 23.6996 67.1269 23.6467 66.8982 23.6451C66.6709 23.6464 66.4468 23.6992 66.2428 23.7995C66.0389 23.8999 65.8603 24.0451 65.7204 24.2243C65.4049 24.5859 65.2314 25.0498 65.2322 25.5298V27.1484Z"
    fill="black"
  />
  <path
    d="M71.3027 29.4934V23.1761C71.3029 23.1275 71.3138 23.0796 71.3346 23.0357C71.3555 22.9918 71.3859 22.9531 71.4235 22.9224C71.5099 22.8512 71.6196 22.8145 71.7315 22.8191C71.8402 22.8161 71.9462 22.8535 72.0289 22.9241C72.0669 22.9553 72.0975 22.9946 72.1184 23.0391C72.1392 23.0836 72.1499 23.1322 72.1497 23.1813V23.9233C72.3156 23.5873 72.5606 23.2967 72.8637 23.0764C73.1781 22.8431 73.5607 22.7201 73.9521 22.7264H74.4211C74.4693 22.7282 74.5164 22.7416 74.5584 22.7653C74.6004 22.7891 74.6361 22.8225 74.6626 22.8629C74.7324 22.9544 74.7702 23.0663 74.7702 23.1813C74.7702 23.2964 74.7324 23.4083 74.6626 23.4998C74.6359 23.54 74.6002 23.5733 74.5582 23.597C74.5162 23.6207 74.4693 23.6342 74.4211 23.6363H73.9521C73.7139 23.6396 73.4793 23.6954 73.2652 23.7997C73.051 23.9041 72.8625 24.0545 72.7132 24.2401C72.3423 24.6786 72.151 25.2412 72.1777 25.815V29.4899C72.1773 29.5411 72.1657 29.5917 72.1436 29.6379C72.1215 29.6842 72.0896 29.725 72.0499 29.7576C71.9636 29.8376 71.8491 29.8803 71.7315 29.8766C71.6193 29.8783 71.5111 29.8355 71.4305 29.7576C71.392 29.7248 71.3608 29.6844 71.3388 29.6389C71.3168 29.5934 71.3045 29.5439 71.3027 29.4934Z"
    fill="black"
  />
  <path
    d="M75.6968 28.9089C75.6991 28.8024 75.7326 28.699 75.7931 28.6114C75.8126 28.5698 75.8429 28.5342 75.8807 28.5081C75.9185 28.4819 75.9625 28.4663 76.0083 28.4626C76.1214 28.4907 76.2237 28.5516 76.3023 28.6376C76.4788 28.7779 76.6723 28.8954 76.878 28.9876C77.1615 29.1127 77.4695 29.1725 77.7792 29.1626C78.2552 29.1626 78.6052 29.0629 78.8292 28.8634C78.9389 28.7699 79.0262 28.6529 79.0846 28.5212C79.1431 28.3894 79.1712 28.2462 79.1669 28.1022C79.1743 27.9432 79.1477 27.7844 79.0889 27.6366C79.03 27.4887 78.9403 27.3551 78.8257 27.2447C78.5882 27.025 78.3058 26.8596 77.998 26.76C77.6777 26.6515 77.3522 26.5395 77.025 26.431C76.6981 26.3224 76.4091 26.1227 76.192 25.8552C75.9482 25.543 75.8241 25.1538 75.8421 24.758C75.8328 24.2338 76.0201 23.725 76.367 23.3318C76.717 22.9294 77.2478 22.7281 77.9595 22.7281C78.3787 22.7259 78.7944 22.8037 79.1844 22.9574C79.5624 23.1131 79.7549 23.2811 79.7549 23.4596C79.748 23.5763 79.7106 23.6891 79.6464 23.7868C79.6234 23.8358 79.5877 23.8778 79.5432 23.9086C79.4986 23.9393 79.4467 23.9577 79.3927 23.9618C79.2223 23.9042 79.0563 23.8346 78.8957 23.7536C78.6054 23.6172 78.2889 23.5456 77.9682 23.5436C77.5185 23.5436 77.1842 23.6608 76.9585 23.8936C76.8533 23.9965 76.7695 24.1192 76.7118 24.2547C76.6542 24.3901 76.6238 24.5356 76.6225 24.6828C76.6174 24.8217 76.6466 24.9597 76.7077 25.0846C76.7687 25.2094 76.8597 25.3173 76.9725 25.3985C77.2245 25.5853 77.5061 25.7285 77.8055 25.822L78.7872 26.144C79.1301 26.2611 79.4236 26.4905 79.6202 26.795C79.8577 27.169 79.975 27.6069 79.9561 28.0497C79.9695 28.3124 79.9254 28.5749 79.8269 28.8188C79.7284 29.0627 79.5778 29.2821 79.3857 29.4619C79.0042 29.8118 78.4739 29.9763 77.7932 29.9763C77.2718 29.9939 76.755 29.8732 76.2953 29.6263C75.8975 29.3977 75.698 29.1585 75.6968 28.9089Z"
    fill="black"
  />
</svg>
