<svg
  width="274"
  height="49"
  viewBox="0 0 274 49"
  fill="none"
  xmlns="http://www.w3.org/2000/svg"
  role="img"
>
  <title>Logo Santander</title>
  <path
    fill-rule="evenodd"
    clip-rule="evenodd"
    d="M25.9584 0.839844C26.1878 1.99616 26.6452 3.15247 27.2174 4.19285L34.9992 17.9558C35.9155 19.4584 36.3729 21.1944 36.4877 22.9273C44.9564 25.1256 50.6777 29.8683 50.5629 35.0702C50.5629 42.7038 39.3498 48.8332 25.501 48.8332C11.6537 48.8332 0.4375 42.7038 0.4375 35.0702C0.4375 29.6364 6.27351 24.8952 14.6275 22.697C14.6275 24.7778 15.0864 26.8601 16.1159 28.7105L24.0125 42.4734C24.5862 43.5138 25.0436 44.6701 25.2715 45.8264L25.6157 45.2498C27.5585 41.8953 27.5585 37.6147 25.6157 34.2617L19.3192 23.2752C17.3765 19.8062 17.3765 15.6432 19.3192 12.2886L19.6634 11.7105C19.8929 12.8668 20.3518 14.0246 20.924 15.065L24.5862 21.5407L30.3075 31.6028C30.8796 32.6432 31.337 33.798 31.5649 34.9558L31.9091 34.3777C33.855 31.0231 33.855 26.7457 31.9091 23.3911L25.6157 12.4046C23.6699 9.05 23.6699 4.77101 25.6157 1.418L25.9584 0.839844ZM71.851 13.7943C74.9411 13.7943 77.8017 14.255 80.4329 15.1794C80.3197 17.0298 79.974 18.534 79.5181 19.9222C76.9986 18.9962 73.91 18.534 71.7347 18.534C67.6151 18.534 65.784 20.154 65.784 22.697C65.784 25.1256 67.6151 26.6282 70.9346 28.0164L73.4526 29.0567C79.4034 31.6028 81.9213 34.3777 81.9213 39.0029C81.9213 44.4398 77.8002 48.255 69.7904 48.255C66.0134 48.255 62.8086 47.6768 60.1774 46.4046C60.2922 44.4398 60.5201 43.166 61.0922 41.5474C63.7249 42.8197 67.1577 43.3994 69.6741 43.3994C74.0247 43.3994 76.5427 42.0112 76.5427 39.1173C76.5427 36.344 74.7116 35.0718 70.3625 33.1054L67.9577 32.1794C63.497 30.2146 60.5201 27.6701 60.5201 22.697C60.5201 17.2602 64.2986 13.7927 71.8494 13.7927L71.851 13.7943ZM144.178 14.139V23.1592H152.417C152.302 24.7778 152.189 26.2819 151.96 27.6685H144.178V39.3507C144.178 42.3575 145.665 43.6297 148.183 43.6297C149.671 43.6297 151.159 43.3978 152.189 42.9341C152.074 44.3238 151.845 45.9424 151.617 47.3306C150.243 47.9087 148.64 48.1406 147.266 48.1406C142.232 48.1406 139.027 45.8264 139.027 40.0448V14.9491C140.629 14.3694 142.576 14.139 144.178 14.139ZM228.75 14.139V47.445H223.944L223.714 44.4398C222.342 46.6349 220.395 48.0231 216.962 48.0231C210.783 48.0231 206.549 43.3978 206.549 35.418C206.549 27.0919 211.013 22.2348 219.709 22.2348C221.083 22.2348 222.34 22.3492 223.599 22.5826V14.7172C225.203 14.255 227.034 14.139 228.75 14.139ZM167.066 22.2348C170.499 22.3492 173.246 22.697 175.992 23.623V47.445H171.187L170.958 44.5542C169.584 46.6365 167.638 48.0231 164.318 48.0231C158.138 48.0231 153.905 43.3978 153.905 35.418C153.905 27.0919 158.368 22.2348 167.066 22.2348ZM98.2866 22.2348C101.719 22.3492 104.58 22.697 107.213 23.623V47.445H102.406L102.177 44.5542C100.803 46.6365 98.8588 48.0231 95.5392 48.0231C89.359 48.0231 85.1262 43.3978 85.1262 35.418C85.1262 27.0919 89.5885 22.2348 98.2866 22.2348ZM244.429 22.2348C251.868 22.2348 255.073 27.0904 255.073 33.1054C255.073 34.7239 255.073 35.8818 254.843 37.27H238.25C238.935 41.5474 241.34 43.5138 246.03 43.5138C248.891 43.5138 251.755 42.9356 254.271 41.6634C254.042 43.0516 253.812 44.902 253.469 46.4046C251.068 47.445 248.663 47.9087 245.802 47.9087C237.104 47.9087 232.984 43.0516 232.984 34.9543C232.984 27.9004 236.188 22.2348 244.427 22.2348H244.429ZM268.576 22.2348C270.064 22.3492 271.895 22.3492 273.04 22.5826C273.04 24.1996 272.81 26.05 272.582 27.0919C271.322 26.976 270.179 26.8601 268.692 26.8601C267.431 26.8601 266.172 26.976 264.913 27.0919V47.445H259.764V23.623C261.938 22.8129 265.715 22.2348 268.576 22.2348ZM190.985 22.2348C199.682 22.3492 202.542 25.7037 202.542 31.4869V47.445H197.28V32.4113C197.28 28.5945 196.021 26.8601 190.87 26.8601C189.611 26.8601 188.238 26.976 186.751 27.2079V47.445H181.6V23.623C184.92 22.8129 188.582 22.2348 190.985 22.2348ZM122.319 22.2348C131.017 22.3492 133.762 25.7037 133.762 31.4869V47.445H128.614V32.4113C128.614 28.5945 127.355 26.8601 122.204 26.8601C120.945 26.8601 119.573 26.976 118.085 27.2079V47.445H112.934V23.623C116.254 22.8129 119.916 22.2348 122.319 22.2348ZM219.481 26.8601C214.331 26.8601 211.927 30.0987 211.927 35.534C211.927 40.3911 213.873 43.8616 218.45 43.8616C220.511 43.7441 222.227 43.0516 223.599 42.0112V27.3238C222.227 27.0919 220.854 26.8601 219.481 26.8601ZM166.951 26.8601C161.573 26.8601 159.056 30.2146 159.056 35.534C159.056 40.3911 160.999 43.8616 165.579 43.8616C167.753 43.7441 169.469 43.0516 170.728 42.0112V27.0935C169.697 26.8616 168.44 26.8616 166.951 26.8616V26.8601ZM98.2866 26.8601C92.9065 26.8601 90.3901 30.2146 90.3901 35.534C90.3901 40.3911 92.3344 43.8616 96.9129 43.8616C99.0882 43.7441 100.69 43.0516 102.062 42.0112V27.0935C101.033 26.8616 99.7736 26.8616 98.2866 26.8616V26.8601ZM244.315 26.6282C240.537 26.7457 238.591 28.8264 238.25 32.8735H249.922C249.922 28.9424 247.861 26.6282 244.315 26.6282Z"
    fill="black"
  />
</svg>
