<svg
  width="71"
  height="48"
  viewBox="0 0 71 48"
  fill="none"
  xmlns="http://www.w3.org/2000/svg"
>
  <title>Logo Securitas Direct</title>
  <path
    d="M35.767 13.8374C35.8953 13.8748 36.0184 13.9497 36.0825 14.0781C36.2376 14.3616 36.2644 14.7306 36.1092 15.0141C36.0291 15.2174 35.8311 15.3083 35.644 15.3457C35.618 15.3457 35.5907 15.3478 35.5631 15.3499C35.4662 15.3573 35.3675 15.3649 35.3176 15.2815V13.8909C35.3932 13.7858 35.5351 13.8062 35.6651 13.825C35.7005 13.8301 35.735 13.8351 35.767 13.8374Z"
    fill="black"
  />
  <path
    d="M44.4159 15.8271C44.4063 15.6624 44.3425 15.5089 44.2786 15.3556C44.2346 15.25 44.1906 15.1445 44.1645 15.0355L44.0361 14.6611C44.0201 14.613 43.9719 14.613 43.9345 14.645L43.6243 15.6078C43.5868 15.6827 43.56 15.7736 43.5975 15.8485C43.7687 15.8751 43.9588 15.8693 44.141 15.8637C44.2149 15.8614 44.2875 15.8592 44.357 15.8592L44.4159 15.8271Z"
    fill="black"
  />
  <path
    fill-rule="evenodd"
    clip-rule="evenodd"
    d="M50.3591 0H18.8815V19.2021H50.3591V0ZM29.1078 6.48813C29.1078 9.14111 26.9951 11.286 24.3849 11.286C21.7747 11.286 19.6619 9.13578 19.6619 6.48813C19.6619 3.83515 21.7747 1.69029 24.3849 1.69029C26.9951 1.69029 29.1078 3.84049 29.1078 6.48813ZM34.6176 11.286C37.2277 11.286 39.3404 9.14111 39.3404 6.48813C39.3404 3.84049 37.2277 1.69029 34.6176 1.69029C32.0073 1.69029 29.8946 3.83515 29.8946 6.48813C29.8946 9.13578 32.0073 11.286 34.6176 11.286ZM22.5554 13.4683C22.5876 13.4723 22.6197 13.462 22.6515 13.4519C22.6824 13.442 22.7128 13.4322 22.7428 13.4356C22.755 13.437 22.7671 13.4405 22.779 13.447C22.7884 13.4521 22.7977 13.4591 22.8069 13.4683L22.8443 13.5432L22.8336 14.4899C22.8229 14.5167 22.7695 14.5274 22.748 14.506C22.7394 14.4886 22.7308 14.4711 22.7223 14.4533C22.7085 14.4246 22.6949 14.3954 22.6812 14.366C22.5828 14.1554 22.479 13.9332 22.2826 13.7892C22.1223 13.6234 21.8815 13.5806 21.6301 13.6234C21.4857 13.6716 21.3039 13.7732 21.2557 13.955C21.1755 14.2064 21.2664 14.4792 21.4857 14.6344C21.6374 14.7425 21.8179 14.8263 22 14.9109C22.4216 15.1065 22.8521 15.3064 22.9566 15.8218C23.069 16.362 22.9459 16.9611 22.4913 17.2927C22.0412 17.6315 21.3951 17.5018 20.8694 17.3962L20.7797 17.3783C20.7249 17.4056 20.6702 17.413 20.6153 17.415C20.5952 17.4157 20.5751 17.4157 20.555 17.4157L20.4962 17.3408L20.4695 16.4583C20.4716 16.4476 20.4727 16.4355 20.474 16.4228L20.4744 16.4203C20.4795 16.3698 20.4853 16.3116 20.5443 16.3032H20.5818C20.7048 16.6722 20.9615 17.0948 21.3734 17.2018C21.566 17.2873 21.8388 17.2659 22.0152 17.1269C22.1596 16.9985 22.2399 16.8434 22.2399 16.6562C22.2113 16.2244 21.8541 16.0563 21.5199 15.8991L21.4568 15.8693C21.4327 15.8579 21.4088 15.8464 21.3853 15.8348L21.3542 15.8192L21.3388 15.8113C21.2987 15.7906 21.26 15.7693 21.2236 15.7469C20.8224 15.5704 20.4802 15.1478 20.4962 14.6718C20.4802 14.2385 20.6192 13.7946 21.0258 13.5486C21.443 13.2597 22.0794 13.3346 22.5554 13.4683ZM26.6741 14.1262C27.1929 13.2811 28.3 13.2544 29.1023 13.5486C29.1295 13.5554 29.1566 13.5535 29.1833 13.5487C29.1905 13.5474 29.1975 13.5459 29.2046 13.5443L29.227 13.539C29.2875 13.5241 29.3418 13.5107 29.3805 13.5753L29.3965 14.3562V14.6878C29.3895 14.6913 29.3823 14.6959 29.375 14.7004C29.3645 14.7069 29.3539 14.7135 29.344 14.7171C29.3372 14.7196 29.3307 14.7207 29.3247 14.7195C29.3175 14.718 29.3111 14.7134 29.3056 14.7039C29.2702 14.6308 29.2403 14.5549 29.2102 14.4781L29.2098 14.4768L29.209 14.4753L29.2082 14.4733C29.1663 14.3664 29.1236 14.2579 29.065 14.153C28.8616 13.8374 28.5247 13.6181 28.145 13.6662C27.824 13.693 27.5459 13.9764 27.4282 14.2813C27.1929 15.089 27.1554 16.1534 27.7064 16.8113C27.9845 17.1376 28.4551 17.1643 28.8136 17.0092C29.0168 16.8915 29.204 16.699 29.3163 16.4957C29.3431 16.469 29.3805 16.4583 29.4179 16.469C29.426 16.5861 29.3763 16.6879 29.326 16.7907L29.3042 16.8355C29.2954 16.854 29.2868 16.8727 29.2789 16.8915C29.0328 17.3141 28.6049 17.6083 28.1289 17.5815C27.4923 17.6296 26.9255 17.2606 26.5724 16.7257C26.1712 15.9555 26.198 14.8536 26.6741 14.1262ZM48.529 13.5004C48.402 13.5767 48.2748 13.5397 48.1477 13.5027C48.0609 13.4774 47.9741 13.4521 47.8872 13.463C47.5235 13.372 47.1063 13.4362 46.7907 13.5967C46.4163 13.8427 46.2505 14.2599 46.2612 14.7092C46.2344 15.1585 46.4752 15.5543 46.8764 15.7576C46.9917 15.8302 47.1219 15.8866 47.2526 15.9431C47.5644 16.078 47.8789 16.2141 47.9995 16.5759C48.0477 16.8434 47.9461 17.1001 47.7321 17.2552C47.5984 17.3194 47.4059 17.3569 47.2561 17.3034C46.8335 17.2285 46.4911 16.7792 46.3628 16.3834L46.2987 16.3673C46.264 16.376 46.2511 16.4018 46.245 16.4312C46.2398 16.4564 46.2394 16.4842 46.2344 16.5064L46.2612 17.3997L46.2987 17.4906C46.3226 17.5025 46.3502 17.503 46.3796 17.4982C46.4057 17.4939 46.4332 17.4854 46.4606 17.4769C46.4991 17.465 46.5374 17.4531 46.5714 17.4531L46.678 17.4753C47.0895 17.5612 47.5157 17.6502 47.9193 17.5173C48.3312 17.4264 48.6628 17.0092 48.7484 16.6134C48.8233 16.1641 48.7858 15.6667 48.4489 15.3564C48.2681 15.1991 48.0519 15.1042 47.8386 15.0108C47.5157 14.8693 47.2 14.7309 47.026 14.383C46.9726 14.2011 47.0153 14.0032 47.1224 13.8588C47.2133 13.7411 47.3256 13.6769 47.4646 13.6662C47.7428 13.6288 47.9835 13.7571 48.1761 13.9604C48.2859 14.0735 48.3411 14.2082 48.396 14.3418L48.3975 14.3458C48.4096 14.3749 48.4216 14.4039 48.434 14.4326C48.4416 14.45 48.4493 14.4674 48.4574 14.4845C48.4755 14.523 48.4954 14.5606 48.5183 14.5969C48.5306 14.5969 48.5429 14.5958 48.5545 14.5933C48.5635 14.5914 48.5721 14.5887 48.5802 14.5851C48.5938 14.5791 48.6057 14.5707 48.6147 14.5595V13.602C48.6203 13.5738 48.6096 13.5471 48.5912 13.5282C48.5859 13.5227 48.5798 13.5178 48.5734 13.5138C48.5687 13.5109 48.5639 13.5084 48.559 13.5064C48.5553 13.505 48.5515 13.5037 48.5477 13.5028C48.5416 13.5012 48.5353 13.5004 48.529 13.5004ZM23.3311 13.5111C23.3311 13.4737 23.3418 13.4362 23.3792 13.4255L25.8557 13.4309C25.9038 13.4576 25.9787 13.4897 25.9787 13.5539C25.9829 13.646 25.9896 13.7372 25.9961 13.827C26.0063 13.9667 26.0162 14.1029 26.0162 14.2332C26.0097 14.2445 26.0017 14.251 25.9931 14.2538C25.9873 14.2557 25.9813 14.256 25.9753 14.2552L25.9726 14.2548C25.9581 14.2521 25.9431 14.2432 25.9305 14.2332C25.7861 13.9978 25.5454 13.7465 25.2566 13.7357H24.6415C24.5666 13.816 24.5773 13.9337 24.5773 14.046V15.196L24.6415 15.2601C24.722 15.2559 24.808 15.261 24.8953 15.2661C25.1388 15.2805 25.3923 15.2955 25.5615 15.1104C25.589 15.0867 25.6064 15.0507 25.6238 15.0146C25.6537 14.9529 25.6836 14.8911 25.7647 14.8911L25.7915 14.9285V15.9234C25.7023 15.9955 25.6592 15.92 25.6158 15.844C25.5917 15.8015 25.5674 15.7588 25.5347 15.7415C25.3672 15.5619 25.1072 15.5789 24.866 15.5946C24.8236 15.5974 24.7816 15.6001 24.7409 15.6017C24.7211 15.6025 24.7015 15.603 24.6823 15.6032C24.6649 15.6033 24.6477 15.6031 24.6308 15.6025L24.5826 15.6774V16.8808C24.5933 16.9985 24.6308 17.1001 24.7324 17.1536C25.032 17.2445 25.4171 17.2285 25.6738 16.9985C25.6972 16.9768 25.7182 16.9535 25.7378 16.9291C25.7764 16.8811 25.8092 16.8289 25.8416 16.7775C25.8985 16.6872 25.9542 16.5989 26.0375 16.5385C26.04 16.5398 26.0426 16.5409 26.0452 16.5419L26.0546 16.5453C26.0709 16.551 26.0857 16.5561 26.0857 16.5759C26.0857 16.8349 26.0525 17.0773 26.0191 17.3214L26.0055 17.4211L25.8771 17.5013L23.4006 17.4745C23.3882 17.4671 23.3758 17.4608 23.366 17.4536C23.3547 17.4451 23.347 17.4354 23.347 17.4211C23.3446 17.3963 23.3481 17.3788 23.3554 17.3654C23.3668 17.3449 23.3873 17.3343 23.4088 17.3233L23.4209 17.3168L23.426 17.3141C23.4315 17.311 23.437 17.3077 23.4422 17.304C23.4553 17.2947 23.467 17.2829 23.4755 17.2659C23.5611 17.1643 23.6252 17.0252 23.6252 16.8808L23.6359 16.0946V13.9176C23.6359 13.7611 23.5087 13.6576 23.4008 13.5698C23.3863 13.558 23.3722 13.5465 23.3589 13.5352L23.3412 13.5201L23.3311 13.5111ZM30.1187 13.479L29.7603 13.4683C29.6961 13.4523 29.6318 13.479 29.6318 13.5539C29.6412 13.5633 29.6513 13.5703 29.6615 13.576C29.6664 13.5788 29.6714 13.5813 29.6764 13.5837L29.6926 13.5909C29.7081 13.5976 29.7227 13.604 29.7349 13.614C29.7383 13.6168 29.7414 13.6199 29.7443 13.6234C29.9836 13.7453 29.9787 14.0125 29.9742 14.2461C29.9737 14.2728 29.9733 14.2991 29.9732 14.3246C29.9729 14.3502 29.9732 14.3751 29.9742 14.399L29.9635 16.2925C29.9475 16.7311 30.0865 17.1269 30.4395 17.3783C30.8781 17.651 31.52 17.6992 31.9586 17.3943C32.0125 17.3673 32.0571 17.3224 32.1005 17.2786C32.1603 17.2181 32.2181 17.1598 32.2956 17.1536C32.3135 17.1955 32.3129 17.2485 32.3122 17.3024C32.3112 17.3931 32.31 17.4864 32.3972 17.5334H33.483C33.5204 17.5227 33.5311 17.4959 33.5204 17.4425C33.4188 17.3783 33.269 17.282 33.2476 17.1536V14.0834C33.2103 13.8427 33.3547 13.7144 33.5365 13.5967C33.5632 13.5592 33.5365 13.5218 33.4991 13.5111L32.0655 13.5004C32.0441 13.5272 32.0175 13.5486 32.0282 13.5913C32.0568 13.6145 32.0879 13.6349 32.119 13.6553C32.2096 13.7148 32.2998 13.7741 32.3276 13.9016L32.3383 15.4741V16.3299C32.3368 16.3535 32.3356 16.3777 32.3344 16.4022C32.328 16.5388 32.3212 16.684 32.226 16.7792C32.0014 17.0627 31.6751 17.282 31.2954 17.1643C31.0065 17.0734 30.8942 16.7525 30.8835 16.4743V14.1476L30.8874 14.1169C30.9019 14.0018 30.9177 13.8754 31.0011 13.7625C31.0116 13.7381 31.0334 13.72 31.0598 13.7049C31.0803 13.6931 31.1034 13.6832 31.1259 13.6736C31.2072 13.6387 31.2802 13.6074 31.1884 13.5058L30.1187 13.479ZM37.807 13.5005C37.837 13.4693 37.8899 13.4699 37.9433 13.4704C37.9672 13.4707 37.9912 13.4709 38.0134 13.4683L39.3881 13.4737C39.3984 13.4766 39.4076 13.4828 39.4151 13.4907L39.4187 13.4946L39.4223 13.4995L39.4245 13.5026C39.4274 13.5071 39.43 13.5118 39.4321 13.5165C39.4392 13.5327 39.4411 13.5494 39.4362 13.5592C39.4183 13.5702 39.3991 13.5812 39.3793 13.5925C39.2635 13.6591 39.1281 13.7369 39.11 13.8695L39.0725 14.2118V17.0894C39.0992 17.282 39.2864 17.3676 39.4094 17.4585C39.4261 17.4863 39.4224 17.5098 39.4099 17.5259C39.3984 17.5408 39.3792 17.5494 39.3613 17.5494H37.7887C37.7756 17.5364 37.769 17.5169 37.7687 17.4992C37.7685 17.4806 37.7751 17.464 37.7887 17.4585C37.9011 17.4103 38.0509 17.3194 38.0883 17.1804L38.1257 16.9985L38.1471 14.7092L38.1364 13.9176C38.1204 13.7999 38.0241 13.6876 37.9224 13.6341C37.9116 13.632 37.9006 13.6296 37.8896 13.6267C37.883 13.625 37.8763 13.623 37.8698 13.6209C37.8644 13.6191 37.8591 13.6171 37.8539 13.615C37.8374 13.6082 37.822 13.5993 37.8089 13.5875C37.8028 13.5819 37.7972 13.5756 37.7922 13.5686C37.789 13.564 37.7861 13.5591 37.7835 13.5539C37.7856 13.539 37.7896 13.5268 37.7952 13.5167C37.7986 13.5105 37.8025 13.5051 37.807 13.5005ZM41.8592 13.5004L39.8962 13.4737C39.8623 13.4812 39.839 13.5099 39.8152 13.5393C39.8052 13.5517 39.795 13.5642 39.7839 13.5753C39.7801 13.616 39.7762 13.6556 39.7723 13.6944V13.6957C39.762 13.7983 39.7522 13.896 39.7472 13.9977C39.7435 14.0745 39.7426 14.1535 39.7464 14.2385L39.7839 14.2867C39.8455 14.2661 39.8782 14.2101 39.912 14.1522C39.9397 14.1047 39.968 14.0559 40.0139 14.0246C40.201 13.816 40.4684 13.816 40.7412 13.816C40.8055 13.816 40.8322 13.8802 40.8429 13.9337V16.7952C40.8371 16.824 40.833 16.8534 40.8298 16.8831C40.827 16.9092 40.8249 16.9355 40.8228 16.9617C40.8121 17.0944 40.8017 17.2254 40.7039 17.3194C40.6955 17.3306 40.6848 17.3401 40.6727 17.3488C40.6591 17.3586 40.6437 17.3673 40.6283 17.3762C40.5784 17.4046 40.5273 17.4338 40.5273 17.5013C40.5273 17.5175 40.5324 17.5247 40.5389 17.5285L40.5422 17.5301C40.5451 17.5313 40.5483 17.5321 40.5513 17.5328L40.5547 17.5337C40.5587 17.5347 40.5622 17.5361 40.5648 17.5387L42.0036 17.528C42.025 17.5173 42.0677 17.5013 42.0518 17.4531C42.0411 17.4264 42.0143 17.3997 41.9768 17.389C41.8324 17.3515 41.7629 17.2018 41.7469 17.068V14.9339L41.7629 13.923C41.8067 13.7988 41.9128 13.8093 42.0202 13.8199C42.0699 13.8249 42.1199 13.8298 42.1641 13.8213C42.4369 13.8213 42.6293 14.0406 42.7524 14.2653C42.7684 14.3081 42.8273 14.3455 42.8648 14.3081C42.8688 14.2256 42.8698 14.1424 42.8695 14.0581C42.8692 13.9949 42.8682 13.9312 42.8671 13.8667V13.8637C42.866 13.7865 42.8648 13.7082 42.8648 13.6288L42.8619 13.622L42.859 13.6148L42.8547 13.6044C42.8383 13.5636 42.822 13.5227 42.7684 13.5004H41.8592ZM37.4732 17.5655C37.4967 17.5602 37.5215 17.5486 37.5389 17.5318C37.5419 17.5289 37.5446 17.5258 37.5471 17.5226C37.5496 17.5195 37.5518 17.5162 37.5538 17.5128L37.5566 17.507C37.5595 17.5003 37.5612 17.4932 37.5616 17.4856C37.5619 17.4787 37.561 17.4714 37.5587 17.4638C37.3928 17.3296 37.3247 17.1394 37.2576 16.9517C37.25 16.9304 37.2425 16.9092 37.2346 16.888C37.2072 16.8134 37.1783 16.7402 37.1415 16.6722L36.7511 15.8004C36.7341 15.7616 36.7039 15.7249 36.6735 15.688L36.6727 15.6871C36.6364 15.643 36.5997 15.5983 36.5852 15.549C36.6119 15.5123 36.6442 15.4819 36.6792 15.4543C36.6868 15.4485 36.6944 15.4427 36.7021 15.437C36.7108 15.4306 36.7197 15.4243 36.7286 15.4181C36.7428 15.4081 36.7572 15.3983 36.7717 15.3885C36.8226 15.354 36.8737 15.3195 36.9169 15.2762C37.1897 14.982 37.2645 14.5381 37.1255 14.1476C36.9758 13.7678 36.5852 13.5378 36.1948 13.5111L34.1195 13.4844C34.1131 13.4869 34.107 13.4889 34.1012 13.4908C34.0917 13.4938 34.083 13.4966 34.0751 13.5013L34.0732 13.5026L34.0698 13.5051L34.0674 13.507C34.0631 13.5108 34.0591 13.5155 34.0553 13.5218L34.0512 13.5295C34.0393 13.5514 34.0221 13.5836 34.0553 13.6074C34.2211 13.6448 34.3441 13.8267 34.3709 13.9925L34.3441 15.5008V16.9504L34.3068 17.1483C34.2959 17.2426 34.2254 17.2826 34.1553 17.3223C34.0863 17.3615 34.0178 17.4004 34.0072 17.4906C34.0806 17.5254 34.196 17.5294 34.2987 17.533L34.3389 17.5345L34.3742 17.5362C34.386 17.5369 34.3975 17.5377 34.4084 17.5387H35.5155C35.5637 17.5548 35.5904 17.5173 35.5904 17.4638C35.5738 17.449 35.5561 17.4347 35.5377 17.4203L35.5002 17.3918C35.415 17.3276 35.326 17.2603 35.2909 17.159V15.7362L35.3551 15.6613C35.4514 15.6506 35.6172 15.6346 35.692 15.7362C35.7995 15.9794 35.9025 16.2255 36.0057 16.4723C36.0977 16.6923 36.1899 16.9129 36.2858 17.1322C36.3392 17.282 36.3767 17.4585 36.5265 17.5494L37.4732 17.5655ZM46.1145 17.4875C46.1087 17.4925 46.1023 17.4969 46.0956 17.5006C46.0866 17.5057 46.0772 17.5095 46.0687 17.512H44.6833C44.6566 17.4906 44.6566 17.4317 44.6833 17.4103C44.7149 17.3998 44.7467 17.3789 44.7751 17.3526C44.8044 17.3257 44.8302 17.2931 44.8492 17.2606C44.8967 17.0735 44.8319 16.9211 44.766 16.7661C44.7282 16.6773 44.6901 16.5878 44.6726 16.4904C44.6592 16.4621 44.6503 16.4289 44.6413 16.3952C44.638 16.3829 44.6347 16.3705 44.6312 16.3583C44.6252 16.3375 44.6185 16.317 44.6099 16.298C44.5875 16.2483 44.5526 16.2082 44.4854 16.1962H43.4906C43.3621 16.31 43.3167 16.4717 43.2714 16.6328C43.2508 16.7065 43.2302 16.78 43.2017 16.8487C43.1856 16.9771 43.1642 17.1055 43.2124 17.2232C43.2418 17.2869 43.296 17.3136 43.346 17.3382L43.3472 17.3388C43.3574 17.3438 43.3674 17.3488 43.3771 17.3539C43.387 17.3593 43.3964 17.3649 43.4052 17.371C43.4166 17.3791 43.4268 17.3882 43.4352 17.399C43.4497 17.4177 43.4584 17.4416 43.4584 17.4745L43.3836 17.5227H42.4903C42.4247 17.4158 42.5082 17.3711 42.5958 17.3242C42.6186 17.312 42.6419 17.2996 42.6628 17.2858C42.686 17.2706 42.7064 17.2538 42.7204 17.2338C42.8456 17.0871 42.9038 16.9188 42.9622 16.7498C42.9911 16.6662 43.0201 16.5825 43.0573 16.5011L43.2979 15.7148C43.3836 15.5115 43.4477 15.2976 43.512 15.0783L43.8435 14.0888C43.8542 14.0298 43.8704 13.9702 43.8883 13.9103L43.9097 13.8399L43.9116 13.8341L43.9131 13.8292L43.9139 13.8273L43.9143 13.8254C43.9429 13.7336 43.9716 13.6411 43.988 13.5486C44.0935 13.4357 44.2263 13.4542 44.3576 13.4724C44.4194 13.481 44.4808 13.4895 44.5389 13.4844C44.5924 13.5111 44.6244 13.5325 44.6405 13.602L44.8545 14.185L45.7477 16.7311C45.8333 16.9931 45.9243 17.2392 46.1328 17.4103C46.149 17.4428 46.1358 17.4693 46.1145 17.4875ZM44.8492 11.286C47.4593 11.286 49.572 9.14111 49.572 6.48813C49.572 3.84049 47.4593 1.69029 44.8492 1.69029C42.2389 1.69029 40.1262 3.83515 40.1262 6.48813C40.1262 9.13578 42.2389 11.286 44.8492 11.286Z"
    fill="black"
  />
  <path
    d="M16.6186 29.9212C16.2175 29.397 15.6558 28.9156 14.891 28.4931C13.9936 28.4931 13.1969 28.6928 12.4263 28.886C11.6995 29.0681 10.996 29.2445 10.2535 29.2419C10.2341 29.0151 10.2542 28.7217 10.2759 28.404C10.3674 27.0656 10.4883 25.2974 7.80389 26.2787C8.00852 29.5627 5.98301 31.168 3.7568 32.9323C2.43332 33.9812 1.03893 35.0863 0 36.6339C0.192221 36.741 1.97562 36.0276 3.4861 35.4232C4.5394 35.0018 5.46015 34.6334 5.6162 34.6334C4.96367 37.3346 4.41808 39.9394 4.41808 42.6619C5.92569 42.3837 7.17356 38.7671 8.17841 35.8548C8.69931 34.345 9.15492 33.0244 9.54759 32.4565L9.73106 32.3437C10.8703 31.6423 12.5014 30.6379 14.57 30.6379C18.282 32.7025 5.23646 44.7212 2.23575 45.6037C2.23575 46.235 2.80536 46.8101 3.5369 47.5485C3.67923 47.6923 3.82784 47.8422 3.97945 48C4.47554 48 5.31246 47.4251 5.94031 46.9937C6.21284 46.8065 6.44607 46.6463 6.59507 46.5719C9.58494 44.0419 14.6609 39.5008 16.6186 35.393C17.5867 33.3711 17.79 31.4509 16.6186 29.9212Z"
    fill="black"
  />
  <path
    d="M25.0536 29.7768C20.812 29.0012 23.695 27.8245 27.0541 27.311C28.5196 27.0863 30.0814 26.9954 31.1726 27.1131C30.6324 27.5303 28.6694 28.4663 27.0541 29.1189C26.2196 29.4505 25.4814 29.7072 25.0536 29.7768Z"
    fill="black"
  />
  <path
    fill-rule="evenodd"
    clip-rule="evenodd"
    d="M64.3502 23.1887C66.2284 22.6113 68.391 21.9465 70.8176 20.8657H70.8229V20.6839C70.1838 20.7242 68.4784 20.9649 66.6892 21.2174C64.211 21.5671 61.5719 21.9395 61.3824 21.8338C61.3824 21.6714 61.3901 21.4778 61.3985 21.2693C61.4286 20.51 61.4665 19.5548 61.1685 19.2023C61.0998 19.271 60.9537 19.2888 60.8089 19.3065C60.6493 19.326 60.4914 19.3453 60.441 19.4323C60.4367 19.4409 60.4233 19.471 60.4018 19.5193C60.2096 19.9515 59.3697 21.8414 58.5904 22.818C57.8637 23.5804 56.183 23.8255 54.8635 24.018C54.2018 24.1145 53.6309 24.1977 53.3164 24.3264C53.017 24.4548 53.1186 25.1661 53.3111 25.4443C53.4569 25.6629 53.7197 25.7523 54.2186 25.9221C54.5254 26.0264 54.9214 26.1612 55.4345 26.375C55.1083 28.3701 51.7225 34.3125 46.3203 34.3125C46.0529 33.077 48.8342 28.2898 50.1446 28.6535V30.0496C52.1022 29.6858 51.8883 27.0436 50.1446 27.0436C46.6036 27.7017 45.4687 29.859 44.3383 32.0075C43.4386 33.7177 42.5417 35.4224 40.4367 36.3611C39.6771 36.6981 38.7678 36.9388 37.6445 37.0404C36.3329 36.3158 37.8879 35.1665 39.5887 33.9094C39.8715 33.7004 40.1583 33.4884 40.4367 33.2749C42.159 31.9484 43.5496 30.563 41.5759 29.4665C41.1587 29.4131 40.7843 29.4131 40.4367 29.4505C38.4327 29.6981 37.4304 31.4455 36.4211 33.2047C35.3157 35.1315 34.2022 37.0725 31.7557 37.0725C31.7557 37.0601 31.7984 36.961 31.868 36.7994C32.3712 35.6292 34.2844 31.1822 31.6432 32.6437C31.1084 32.6116 30.5574 32.5795 30.012 32.5581C29.9484 32.3826 29.8849 32.2208 29.8233 32.064C29.776 31.9436 29.7298 31.8261 29.6856 31.7077C28.5623 31.82 27.7761 32.7079 27.0541 33.8632C26.7843 34.2949 26.5229 34.7629 26.2556 35.2416C25.3567 36.8507 24.3901 38.5812 22.8071 39.4634C22.1475 38.7153 22.6871 37.7334 23.2622 36.687C23.9741 35.3915 24.7404 33.9972 23.3526 32.8256C22.4507 33.8795 21.5982 34.9335 20.7456 35.9874L20.5126 36.2755C20.3935 36.362 20.0999 36.5489 19.7142 36.7944C18.8349 37.354 17.4774 38.2181 16.6186 38.8911C16.1105 39.2976 15.7681 39.6292 15.8163 39.795C16.0784 39.7148 16.3405 39.6185 16.6186 39.5169C16.8145 39.4472 17.0151 39.3737 17.2199 39.2986C17.9433 39.0334 18.7196 38.7488 19.5283 38.5487C19.7492 39.0666 19.4365 39.5702 19.1135 40.0908C18.5522 40.9951 17.9591 41.9508 20.0739 43.1219C20.2932 43.1219 20.5126 43.1219 20.7265 43.154C22.4652 42.0791 23.5648 40.5044 24.6806 38.9069C25.4079 37.8652 26.1422 36.8139 27.0648 35.8851C27.5247 35.4144 28.0275 34.9865 28.6052 34.6014C30.4208 34.7937 29.7768 35.6899 28.979 36.8C28.0024 38.159 26.7955 39.8386 29.5894 40.9396C30.4317 40.6183 32.4933 38.7005 33.6202 37.6522C33.8816 37.4091 34.0927 37.2127 34.2267 37.0939C34.3283 37.0939 34.4406 37.0939 34.6065 37.1153C34.8574 37.475 35.5763 37.995 36.2691 38.4963C36.4622 38.636 36.6533 38.7742 36.8316 38.9071C37.8112 38.7314 39.1034 37.8508 40.4236 36.9512L40.442 36.9388C41.4636 36.2488 42.5012 35.5534 43.4319 35.179C44.0898 35.2432 44.7905 35.5748 45.5073 36.2969C46.4689 36.482 49.4242 34.609 50.7789 33.7504C51.029 33.5919 51.2245 33.4679 51.3428 33.3979C51.7632 33.3979 52.0756 33.671 52.4221 33.9739C52.9305 34.4184 53.5123 34.927 54.6163 34.7297C57.5099 33.1251 59.965 31.0391 62.1472 29.1563C62.0992 29.1242 62.0403 29.1242 61.9867 29.1242C61.4947 29.5468 56.0925 31.3386 55.8678 31.3707C56.6134 25.567 59.5547 24.6629 64.3502 23.1887ZM39.2279 33.339C39.3027 32.7293 39.6931 31.5098 40.4313 30.8733C40.7148 30.6165 41.0571 30.4561 41.4636 30.4561C41.9771 31.0551 41.3887 32.0821 40.4313 32.7667C40.0675 33.0181 39.6557 33.216 39.2279 33.339Z"
    fill="black"
  />
</svg>
