<svg
  width="197"
  height="95"
  viewBox="0 0 197 95"
  fill="none"
  xmlns="http://www.w3.org/2000/svg"
  role="img"
>
  <title>Logo Solera</title>
  <path
    fill-rule="evenodd"
    clip-rule="evenodd"
    d="M118.912 79.2143C124.992 85.2797 133.43 89.1171 142.735 89.1171C152.039 89.1171 160.476 85.2797 166.556 79.2143C167.548 78.224 169.161 78.224 170.03 79.2143C171.023 80.2046 171.023 81.69 170.03 82.6803C163.081 89.736 153.403 94.0669 142.735 94.0669C132.064 94.0669 122.385 89.7344 115.438 82.6787C114.445 81.6884 114.445 80.0792 115.438 79.2128C116.431 78.2225 118.044 78.2225 118.912 79.2128V79.2143ZM150.302 29.7052C154.025 29.7052 157.127 31.6857 158.864 34.6565C159.485 35.8944 158.988 37.3798 157.871 37.9987C156.631 38.7414 155.142 38.2463 154.521 37.1322C153.653 35.6468 152.039 34.6565 150.302 34.6565C147.572 34.6565 145.339 36.8847 145.339 39.6079V76.7386C145.339 78.1002 144.222 79.2143 142.857 79.2143C141.492 79.2143 140.376 78.1002 140.376 76.7386V39.6064C140.376 34.1599 144.843 29.7052 150.302 29.7052ZM4.03847 11.2706C7.51902 3.78007 16.2607 0.589521 23.7725 3.93789C26.8497 5.35367 29.1686 7.62203 30.611 10.2478C31.3354 11.3742 30.9367 12.8519 29.6835 13.5745C28.5543 14.2956 27.0715 13.8994 26.3487 12.6492C25.3871 10.8992 23.8004 9.38441 21.8305 8.48542C16.9075 6.17066 11.0352 8.42044 8.71643 13.3316C6.39761 18.2427 8.65283 24.1008 13.5759 26.4141L24.4099 31.3082C30.4435 34.0113 34.6779 40.2748 34.5507 47.4528C34.3847 56.9811 26.4325 64.6433 16.8811 64.4762C8.8157 64.3354 2.21289 58.7744 0.357834 51.3133C0.00729677 50.0708 0.776616 48.7216 2.14774 48.3734C3.39478 48.0253 4.74575 48.7912 5.09474 50.159C6.3666 55.3796 11.1361 59.4243 16.8439 59.5233C23.6654 59.6424 29.3454 54.1696 29.4648 47.3646C29.5532 42.2894 26.5302 37.7821 22.2214 35.8495L11.3858 30.9569C3.87871 27.4832 0.55637 18.7595 4.03847 11.2706ZM57.1246 29.7052C66.6791 29.7052 74.4948 37.5036 74.4948 47.0334C74.4948 56.5648 66.6776 64.3617 57.1231 64.3617C47.5717 64.3617 39.7545 56.5633 39.7545 47.0334C39.7545 37.502 47.5717 29.7052 57.1246 29.7052ZM82.0639 14.8526C83.4273 14.8526 84.5456 15.9666 84.5456 17.3283V54.459C84.5456 57.1822 86.7791 59.4103 89.5074 59.4103C91.2446 59.4103 92.8577 58.4201 93.7263 56.9346C94.3467 55.8206 95.8357 55.3255 97.0765 56.0682C98.1933 56.6871 98.6896 58.1725 98.0692 59.4103C96.332 62.3812 93.2299 64.3617 89.5074 64.3617C84.0477 64.3617 79.5807 59.9055 79.5807 54.459V17.3298C79.5807 15.9682 80.6975 14.8541 82.0624 14.8541L82.0639 14.8526ZM117.92 29.7067C127.474 29.7067 135.291 37.5036 135.291 47.0334C135.291 48.3951 134.173 49.5091 132.81 49.5091H105.759C106.876 55.2032 111.964 59.4119 117.92 59.4119C121.394 59.4119 124.496 58.0503 126.729 55.8221C127.598 54.8319 129.211 54.8319 130.204 55.8221C131.195 56.8124 131.195 58.2978 130.204 59.2881C127.102 62.3812 122.759 64.3617 117.92 64.3617C108.365 64.3617 100.549 56.5633 100.549 47.0334C100.549 37.502 108.367 29.7052 117.921 29.7052L117.92 29.7067ZM178.714 29.7067C188.269 29.7067 196.086 37.5036 196.086 47.0334V61.886C196.086 63.2477 194.968 64.3617 193.604 64.3617C192.24 64.3617 191.123 63.2477 191.123 61.886V59.1628C188.021 62.3812 183.554 64.3617 178.714 64.3617C169.16 64.3617 161.344 56.5633 161.344 47.0334C161.344 37.502 169.162 29.7052 178.716 29.7052L178.714 29.7067ZM57.1246 34.6565C50.3 34.6565 44.7163 40.2269 44.7163 47.0334C44.7163 53.8416 50.3 59.4119 57.1246 59.4119C63.9493 59.4119 69.5315 53.8416 69.5315 47.0334C69.5315 40.2253 63.9477 34.655 57.1231 34.655L57.1246 34.6565ZM178.714 34.6565C171.89 34.6565 166.308 40.2269 166.308 47.0334C166.308 53.8416 171.891 59.4119 178.716 59.4119C185.539 59.4119 191.121 53.8416 191.121 47.0334C191.121 40.2253 185.537 34.655 178.714 34.655V34.6565ZM117.92 34.6565C111.964 34.6565 106.876 38.8652 105.759 44.5593H130.078C128.961 38.8652 123.874 34.6565 117.92 34.6565ZM81.9383 0C92.6095 0 102.288 4.33246 109.235 11.3882C110.228 12.3784 110.228 13.8639 109.235 14.8526C108.367 15.8429 106.754 15.8429 105.761 14.8526C99.6807 8.78715 91.243 4.94983 81.9383 4.94983C72.632 4.94983 64.1959 8.78715 58.1173 14.8526C57.2487 15.8429 55.6356 15.8429 54.643 14.8526C53.6503 13.9861 53.6503 12.3769 54.643 11.3866C61.5917 4.33246 71.2702 0 81.9368 0H81.9383Z"
    fill="black"
  />
</svg>
