<svg
  width="73"
  height="35"
  viewBox="0 0 73 35"
  fill="none"
  xmlns="http://www.w3.org/2000/svg"
>
  <title>Logo Solera</title>
  <path
    fill-rule="evenodd"
    clip-rule="evenodd"
    d="M44.1426 29.4737C46.4049 31.7305 49.5443 33.1583 53.0064 33.1583C56.4685 33.1583 59.6073 31.7305 61.8696 29.4737C62.2389 29.1053 62.8391 29.1053 63.1623 29.4737C63.5317 29.8422 63.5317 30.3949 63.1623 30.7633C60.5769 33.3886 56.9757 35 53.0064 35C49.0359 35 45.4347 33.388 42.8499 30.7627C42.4805 30.3943 42.4805 29.7955 42.8499 29.4731C43.2192 29.1047 43.8194 29.1047 44.1426 29.4731V29.4737ZM55.8221 11.0526C57.2072 11.0526 58.3614 11.7895 59.0077 12.8949C59.2386 13.3554 59.0539 13.9081 58.6384 14.1384C58.1767 14.4147 57.6227 14.2305 57.3918 13.816C57.0687 13.2633 56.4685 12.8949 55.8221 12.8949C54.8064 12.8949 53.9753 13.7239 53.9753 14.7371V28.5526C53.9753 29.0592 53.5598 29.4737 53.052 29.4737C52.5441 29.4737 52.1286 29.0592 52.1286 28.5526V14.7366C52.1286 12.7101 53.7907 11.0526 55.8221 11.0526ZM1.40088 4.19351C2.69591 1.40647 5.94848 0.219346 8.74341 1.46519C9.88839 1.99197 10.7512 2.83597 11.2879 3.81296C11.5574 4.23208 11.4091 4.78189 10.9428 5.05074C10.5226 5.31903 9.97092 5.17164 9.70199 4.70647C9.34418 4.05533 8.7538 3.49171 8.02088 3.15722C6.18914 2.29595 4.00421 3.13304 3.14143 4.96036C2.27866 6.78768 3.11777 8.96733 4.94951 9.82802L8.9806 11.649C11.2255 12.6548 12.8011 14.9853 12.7537 17.656C12.692 21.2013 9.73315 24.0522 6.17933 23.99C3.17837 23.9376 0.721622 21.8685 0.0314018 19.0924C-0.0990245 18.6301 0.18722 18.1281 0.697383 17.9986C1.16138 17.869 1.66404 18.154 1.79389 18.6629C2.26712 20.6054 4.04172 22.1103 6.16547 22.1472C8.70359 22.1915 10.817 20.1552 10.8614 17.6232C10.8943 15.7349 9.76951 14.0578 8.16631 13.3387L4.13463 11.5183C1.34144 10.2258 0.105272 6.97997 1.40088 4.19351ZM21.153 11.0526C24.7079 11.0526 27.616 13.9542 27.616 17.5C27.616 21.0464 24.7074 23.9474 21.1524 23.9474C17.5985 23.9474 14.6899 21.0458 14.6899 17.5C14.6899 13.9536 17.5985 11.0526 21.153 11.0526ZM30.4323 5.52628C30.9395 5.52628 31.3556 5.9408 31.3556 6.44743V20.2629C31.3556 21.2761 32.1867 22.1051 33.2018 22.1051C33.8482 22.1051 34.4484 21.7367 34.7715 21.184C35.0024 20.7695 35.5564 20.5853 36.0181 20.8616C36.4336 21.0919 36.6183 21.6446 36.3874 22.1051C35.7411 23.2105 34.5869 23.9474 33.2018 23.9474C31.1704 23.9474 29.5083 22.2894 29.5083 20.2629V6.44801C29.5083 5.94138 29.9238 5.52686 30.4317 5.52686L30.4323 5.52628ZM43.7733 11.0531C47.3282 11.0531 50.2369 13.9542 50.2369 17.5C50.2369 18.0066 49.8208 18.4211 49.3135 18.4211H39.2487C39.6642 20.5398 41.5572 22.1057 43.7733 22.1057C45.066 22.1057 46.2202 21.5991 47.0512 20.7701C47.3744 20.4016 47.9746 20.4016 48.3439 20.7701C48.7127 21.1385 48.7127 21.6912 48.3439 22.0597C47.1897 23.2105 45.5738 23.9474 43.7733 23.9474C40.2183 23.9474 37.3102 21.0458 37.3102 17.5C37.3102 13.9536 40.2188 11.0526 43.7738 11.0526L43.7733 11.0531ZM66.3935 11.0531C69.9485 11.0531 72.8571 13.9542 72.8571 17.5V23.0263C72.8571 23.5329 72.4411 23.9474 71.9338 23.9474C71.4259 23.9474 71.0104 23.5329 71.0104 23.0263V22.013C69.8562 23.2105 68.1941 23.9474 66.3935 23.9474C62.8386 23.9474 59.9305 21.0458 59.9305 17.5C59.9305 13.9536 62.8391 11.0526 66.3941 11.0526L66.3935 11.0531ZM21.153 12.8949C18.6137 12.8949 16.5361 14.9674 16.5361 17.5C16.5361 20.0331 18.6137 22.1057 21.153 22.1057C23.6922 22.1057 25.7692 20.0331 25.7692 17.5C25.7692 14.9669 23.6916 12.8943 21.1524 12.8943L21.153 12.8949ZM66.3935 12.8949C63.8543 12.8949 61.7773 14.9674 61.7773 17.5C61.7773 20.0331 63.8549 22.1057 66.3941 22.1057C68.9328 22.1057 71.0098 20.0331 71.0098 17.5C71.0098 14.9669 68.9322 12.8943 66.3935 12.8943V12.8949ZM43.7733 12.8949C41.5572 12.8949 39.6642 14.4608 39.2487 16.5794H48.2972C47.8817 14.4608 45.9888 12.8949 43.7733 12.8949ZM30.3855 0C34.356 0 37.9572 1.612 40.542 4.23726C40.9114 4.60572 40.9114 5.1584 40.542 5.52628C40.2188 5.89474 39.6187 5.89474 39.2493 5.52628C36.987 3.26948 33.8476 1.84171 30.3855 1.84171C26.9229 1.84171 23.784 3.26948 21.5223 5.52628C21.1991 5.89474 20.5989 5.89474 20.2296 5.52628C19.8602 5.20388 19.8602 4.60514 20.2296 4.23669C22.815 1.612 26.4162 0 30.3849 0H30.3855Z"
    fill="black"
  />
</svg>
