<svg
  width="117"
  height="28"
  viewBox="0 0 117 28"
  fill="none"
  xmlns="http://www.w3.org/2000/svg"
>
  <title>Logo Telefónica</title>
  <path
    d="M8.35516 4.17758C8.35516 1.87042 6.48484 0 4.17769 0C1.87031 0 0 1.87042 0 4.17758C0 6.48479 1.87031 8.35521 4.17769 8.35521C6.48484 8.35521 8.35516 6.48479 8.35516 4.17758Z"
    fill="black"
  />
  <path
    d="M18.1775 4.17758C18.1775 1.87042 16.3072 0 14 0C11.6926 0 9.82231 1.87042 9.82231 4.17758C9.82231 6.48479 11.6926 8.35521 14 8.35521C16.3072 8.35521 18.1775 6.48479 18.1775 4.17758Z"
    fill="black"
  />
  <path
    d="M23.8225 0C26.1297 0 28 1.87042 28 4.17758C28 6.48479 26.1297 8.35521 23.8225 8.35521C21.5152 8.35521 19.6448 6.48479 19.6448 4.17758C19.6448 1.87042 21.5152 0 23.8225 0Z"
    fill="black"
  />
  <path
    d="M18.1775 14C18.1775 11.6928 16.3072 9.82242 14 9.82242C11.6926 9.82242 9.82231 11.6928 9.82231 14C9.82231 16.3072 11.6926 18.1776 14 18.1776C16.3072 18.1776 18.1775 16.3072 18.1775 14Z"
    fill="black"
  />
  <path
    d="M14 19.6448C16.3072 19.6448 18.1775 21.5152 18.1775 23.8224C18.1775 26.1296 16.3072 28 14 28C11.6926 28 9.82231 26.1296 9.82231 23.8224C9.82231 21.5152 11.6926 19.6448 14 19.6448Z"
    fill="black"
  />
  <path
    d="M36.904 10.7408H33.0177V8.42242H43.2097V10.7408H39.312V21.4032H36.904V10.7408Z"
    fill="black"
  />
  <path
    fill-rule="evenodd"
    clip-rule="evenodd"
    d="M46.9954 21.5936C49.9745 21.5936 51.1505 19.3648 51.3522 18.6256H48.9554C48.7651 19.0176 48.1042 19.6448 47.0065 19.6448C45.6851 19.6448 44.6994 18.7376 44.4977 17.416H51.5425L51.5762 17.1584L51.5821 17.1144C51.604 16.952 51.6322 16.7426 51.6322 16.4864C51.6322 13.7984 49.5937 11.76 46.9954 11.76C44.2177 11.76 42.1794 13.7984 42.1794 16.6768C42.1794 19.5552 44.2177 21.5936 46.9954 21.5936ZM46.9954 13.72C48.3171 13.72 49.1122 14.6384 49.3137 15.848H44.4865C44.7665 14.6496 45.5842 13.72 46.9954 13.72Z"
    fill="black"
  />
  <path d="M55.3392 8.42242H53.0208V21.4032H55.3392V8.42242Z" fill="black" />
  <path
    fill-rule="evenodd"
    clip-rule="evenodd"
    d="M61.5554 21.5936C64.5345 21.5936 65.7105 19.3648 65.9122 18.6256H63.5154C63.3251 19.0176 62.6642 19.6448 61.5665 19.6448C60.2451 19.6448 59.2594 18.7376 59.0577 17.416H66.1025L66.1362 17.1584L66.1421 17.1144L66.1546 17.0193L66.1631 16.9491C66.1688 16.9013 66.1743 16.8505 66.1789 16.7969C66.1868 16.7024 66.1922 16.599 66.1922 16.4864C66.1922 13.7984 64.1537 11.76 61.5554 11.76C58.7777 11.76 56.7394 13.7984 56.7394 16.6768C56.7394 19.5552 58.7777 21.5936 61.5554 21.5936ZM61.5442 13.72C62.8657 13.72 63.6611 14.6384 63.8625 15.848H59.0354C59.3154 14.6496 60.1331 13.72 61.5442 13.72Z"
    fill="black"
  />
  <path
    d="M68.32 14.1792H66.7409V11.9504H68.32V10.5616C68.32 9.15042 69.2272 8.24321 70.6385 8.24321H72.6768V10.2816H71.288C70.9185 10.2816 70.6385 10.5616 70.6385 10.9312V11.9504H72.6768V14.1792H70.6385V21.4144H68.32V14.1792Z"
    fill="black"
  />
  <path
    d="M86.184 11.9504H84.056V21.4032H86.3743V15.9376C86.3743 14.7392 87.2032 13.8992 88.4128 13.8992C89.6112 13.8992 90.4512 14.728 90.4512 15.9376V21.4032H92.7697V15.7472C92.7697 13.3392 91.1903 11.76 89.0623 11.76C88.1663 11.76 87.5169 12.04 87.0912 12.32C86.856 12.488 86.632 12.6784 86.464 12.88H86.3743L86.184 11.9504Z"
    fill="black"
  />
  <path
    d="M107.531 17.8864C107.229 19.3648 106.064 21.5936 103.085 21.5936C100.307 21.5936 98.2689 19.5552 98.2689 16.6768C98.2689 13.7984 100.307 11.76 103.085 11.76C106.075 11.76 107.24 13.9888 107.531 15.3776H105.213C105.011 14.84 104.474 13.8992 103.085 13.8992C101.696 13.8992 100.576 15.008 100.576 16.6768C100.576 18.3456 101.685 19.4544 103.085 19.4544C104.485 19.4544 105.011 18.5248 105.213 17.8752H107.531V17.8864Z"
    fill="black"
  />
  <path
    fill-rule="evenodd"
    clip-rule="evenodd"
    d="M114.442 20.4848H114.531L114.722 21.4144H116.671V15.3888C116.671 13.3616 115.091 11.7712 112.683 11.7712C110.163 11.7712 108.898 13.272 108.696 14.8288H111.015C111.104 14.2912 111.642 13.6192 112.683 13.6192C113.725 13.6192 114.352 14.336 114.352 15.3776V15.568H112.224C109.626 15.568 108.327 16.8672 108.327 18.7264C108.327 20.2832 109.603 21.6048 111.754 21.6048C112.695 21.6048 113.344 21.3248 113.792 21.0448C114.05 20.8768 114.274 20.6864 114.442 20.4848ZM112.403 17.3264H114.352V17.6176C114.352 18.928 113.535 19.7456 112.123 19.7456C111.183 19.7456 110.645 19.2752 110.645 18.536C110.645 17.7856 111.194 17.3264 112.403 17.3264Z"
    fill="black"
  />
  <path d="M94.5505 11.9504H96.8689V21.4032H94.5505V11.9504Z" fill="black" />
  <path
    d="M95.7042 7.84C94.9425 7.84 94.3265 8.456 94.3265 9.21758C94.3265 9.97921 94.9425 10.5952 95.7042 10.5952C96.4657 10.584 97.0817 9.97921 97.0817 9.21758C97.0817 8.456 96.4657 7.84 95.7042 7.84Z"
    fill="black"
  />
  <path
    fill-rule="evenodd"
    clip-rule="evenodd"
    d="M77.84 21.5936C80.6289 21.5936 82.6672 19.5552 82.6672 16.6768C82.6672 13.7984 80.6289 11.76 77.84 11.76C75.0623 11.76 73.024 13.7984 73.024 16.6768C73.024 19.5552 75.0623 21.5936 77.84 21.5936ZM77.84 13.8992C79.24 13.8992 80.3489 15.008 80.3489 16.6768C80.3489 18.3456 79.24 19.4544 77.84 19.4544C76.44 19.4544 75.3312 18.3456 75.3312 16.6768C75.3312 15.008 76.4512 13.8992 77.84 13.8992Z"
    fill="black"
  />
  <path
    d="M81.088 7.96321H78.68L76.9103 10.6512H78.8592L81.088 7.96321Z"
    fill="black"
  />
</svg>
