<svg
  width="105"
  height="25"
  viewBox="0 0 105 25"
  fill="none"
  xmlns="http://www.w3.org/2000/svg"
>
  <title>Logo Ticketea (Eventbrite)</title>
  <path
    d="M5.55838 0.0588333C5.30676 0.171275 5.14861 0.425217 5.15867 0.700629C5.15854 0.877715 5.23054 1.04722 5.35806 1.17009C5.48559 1.29295 5.65765 1.35859 5.83461 1.35188C6.1102 1.3517 6.35809 1.18422 6.4611 0.928593C6.56411 0.672972 6.50161 0.380409 6.30314 0.18919C6.10468 -0.0020296 5.80999 -0.0536082 5.55838 0.0588333Z"
    fill="black"
  />
  <path
    d="M6.42416 2.04564H5.23682L5.23408 6.35078H6.42416V2.04564Z"
    fill="black"
  />
  <path
    d="M1.60414 1.26407H0V0.224806H4.47377V1.26407H2.86963V6.35071H1.60414V1.26407Z"
    fill="black"
  />
  <path
    fill-rule="evenodd"
    clip-rule="evenodd"
    d="M58.1185 24.6612V6.66054L61.2719 5.93388V13.3815C62.2454 12.5876 63.3998 12.2545 64.6557 12.2545C68.2452 12.2545 71.1162 15.0734 71.1162 18.6121C71.1162 22.1247 68.2452 24.9957 64.6557 24.9957C63.3998 24.9957 62.2454 24.6626 61.2719 23.8674V24.6612H58.1185ZM61.1924 18.7656C61.2707 20.6214 62.8183 22.074 64.6753 22.0349C66.5323 21.9957 68.0173 20.4791 68.0173 18.6217C68.0173 16.7643 66.5323 15.2477 64.6753 15.2085C62.8183 15.1693 61.2707 16.622 61.1924 18.4777V18.7656Z"
    fill="black"
  />
  <path
    d="M51.3321 15.5093V24.6612H54.5925V15.5093H57.044V12.4752H54.5925V7.45709L51.3321 8.2098V12.4752H49.4127V15.5093H51.3321Z"
    fill="black"
  />
  <path
    d="M11.7022 12.4752L16.5983 24.6612H19.9053L24.8027 12.482H21.3668L18.2395 20.7468L15.1367 12.4752H11.7022Z"
    fill="black"
  />
  <path
    d="M80.0025 6.70176C79.6024 7.09698 79.3804 7.63807 79.3876 8.20043C79.3775 8.7665 79.5976 9.31243 79.9974 9.71328C80.3972 10.1141 80.9426 10.3356 81.5087 10.327C82.0721 10.3347 82.6143 10.112 83.0098 9.71061C83.4053 9.30918 83.6198 8.76372 83.6036 8.20043C83.6173 7.64073 83.401 7.09988 83.0051 6.70399C82.6092 6.3081 82.0684 6.09178 81.5087 6.10545C80.9464 6.09124 80.4026 6.30653 80.0025 6.70176Z"
    fill="black"
  />
  <path d="M79.9223 12.4754V24.6614H83.0758V12.4754H79.9223Z" fill="black" />
  <path
    d="M78.8451 12.5095C77.2327 12.5945 76.2826 12.8467 75.3146 13.5624V12.4752H72.1612V24.6612H75.3146V18.6902C75.3146 16.8105 75.7643 15.7397 78.8451 15.6355V12.5095Z"
    fill="black"
  />
  <path
    d="M86.0662 15.5724V24.6611H89.3307V15.5724H91.7835V12.4751H89.3307V8.21389H86.0662V12.4751H84.1467V15.5724H86.0662Z"
    fill="black"
  />
  <path
    fill-rule="evenodd"
    clip-rule="evenodd"
    d="M32.9634 20.5564C32.3257 21.4998 31.2631 22.0674 30.1243 22.0729C28.9855 22.0784 27.9175 21.5211 27.2708 20.5838L36.4774 18.4586C36.3941 15.214 33.8866 12.5499 30.653 12.2705C27.4194 11.9911 24.4919 14.1855 23.8533 17.3678C23.2147 20.55 25.0686 23.7041 28.1597 24.6939C31.2507 25.6838 34.592 24.1935 35.9208 21.2323L32.9634 20.5564ZM29.3328 15.2627C30.7022 14.9478 32.1256 15.4957 32.9305 16.6475L26.7045 18.0843C26.9237 16.696 27.9635 15.5797 29.3328 15.2627Z"
    fill="black"
  />
  <path
    fill-rule="evenodd"
    clip-rule="evenodd"
    d="M98.1716 22.073C99.3105 22.0675 100.373 21.4999 101.011 20.5565L103.967 21.2324C102.638 24.1944 99.2964 25.6852 96.2046 24.6951C93.1128 23.7051 91.2584 20.5503 91.8972 17.3673C92.5359 14.1844 95.4641 11.9894 98.6984 12.269C101.933 12.5485 104.441 15.2134 104.524 18.4587L95.3173 20.5839C95.9644 21.5212 97.0326 22.0785 98.1716 22.073ZM100.976 16.6476C100.171 15.4964 98.7484 14.9486 97.3794 15.2628C96.0101 15.5798 94.9703 16.6961 94.7511 18.0844L100.976 16.6476Z"
    fill="black"
  />
  <path
    fill-rule="evenodd"
    clip-rule="evenodd"
    d="M9.25581 20.5521C8.61872 21.4963 7.55613 22.0647 6.41709 22.0704C5.27805 22.0762 4.20977 21.5186 3.56316 20.5809L12.7753 18.4557C12.7644 18.0295 12.7102 17.6055 12.6135 17.1903C11.9119 14.1474 9.10873 12.0611 5.9925 12.2627C2.87628 12.4642 0.365147 14.8941 0.0613173 18.002C-0.242512 21.11 1.75048 23.9802 4.76867 24.7814C7.78687 25.5827 10.941 24.0788 12.2187 21.2294L9.25581 20.5521ZM5.62387 15.2625C6.99206 14.9469 8.41499 15.4925 9.22153 16.6418L2.99554 18.0787C3.21676 16.6925 4.25621 15.5788 5.62387 15.2625Z"
    fill="black"
  />
  <path
    d="M45.7225 18.1502V24.6614H48.876V17.6374C48.876 13.8176 46.5685 12.2546 43.9031 12.2546C42.2359 12.2546 41.39 12.8689 40.6976 13.3816V12.4754H37.5441V24.6614H40.6976V18.0995C40.6976 15.7659 41.9548 15.2792 43.2107 15.2792C44.4666 15.2792 45.7225 15.792 45.7225 18.1502Z"
    fill="black"
  />
  <path
    d="M7.32621 4.20387C7.32621 2.93838 8.00214 1.93202 9.47603 1.93202C10.6551 1.93202 11.4874 2.55723 11.5395 3.66642H10.2301C10.2041 3.20711 9.92711 2.93838 9.47603 2.93838C8.7905 2.93838 8.5917 3.52794 8.5917 4.20387C8.5917 4.90586 8.8001 5.43783 9.47603 5.43783C9.67479 5.44937 9.86932 5.37727 10.0125 5.23899C10.1558 5.10071 10.2347 4.90883 10.2301 4.70979H11.5409C11.497 5.83681 10.6305 6.44421 9.47741 6.44421C7.97609 6.44967 7.32621 5.43508 7.32621 4.20387Z"
    fill="black"
  />
  <path
    d="M13.63 4.45179L15.06 6.35071L16.5984 6.34523L14.6789 3.97877L16.4037 2.04558H14.9037L13.63 3.53592V0.224806H12.4413V6.35071H13.63V4.45179Z"
    fill="black"
  />
  <path
    fill-rule="evenodd"
    clip-rule="evenodd"
    d="M19.6984 5.01828H20.9323C20.7952 5.94649 19.9438 6.44967 18.8949 6.44967C17.3264 6.44967 16.6587 5.47896 16.6587 4.18605C16.6587 2.92878 17.3264 1.93202 18.8086 1.93202C19.7683 1.93202 20.4538 2.34334 20.7596 3.05904C20.9502 3.48406 20.9762 3.86522 20.9762 4.48083H17.8954C17.9297 5.11426 18.1299 5.53929 18.8661 5.53929C19.309 5.53929 19.5942 5.35693 19.6984 5.01828ZM19.7272 3.73634C19.6668 3.16324 19.4324 2.81636 18.8264 2.81636C18.2204 2.81636 17.9859 3.16324 17.9133 3.73634H19.7272Z"
    fill="black"
  />
  <path
    d="M22.0043 2.99835V5.0097C22.0043 6.0421 22.4128 6.42326 23.3603 6.42326C23.6463 6.42229 23.9313 6.39011 24.2103 6.32729V5.38262C24.0625 5.41832 23.9113 5.43853 23.7592 5.44295C23.3781 5.44295 23.1957 5.2702 23.1957 4.81912V2.99835H24.2281V2.04546H23.1957V1.03087H22.0043V2.04546H21.4243V2.99835H22.0043Z"
    fill="black"
  />
  <path
    fill-rule="evenodd"
    clip-rule="evenodd"
    d="M27.8391 5.01828H29.0731C28.936 5.94649 28.0845 6.44967 27.0357 6.44967C25.4672 6.44967 24.7995 5.47896 24.7995 4.18605C24.7995 2.92878 25.4672 1.93202 26.9493 1.93202C27.9022 1.93202 28.5946 2.34334 28.9003 3.05904C29.0909 3.48406 29.117 3.86522 29.117 4.48083H26.0362C26.0705 5.11426 26.2706 5.53929 27.0069 5.53929C27.4456 5.53929 27.7349 5.35693 27.8391 5.01828ZM27.8679 3.73634C27.8076 3.16324 27.5731 2.81636 26.9671 2.81636C26.3611 2.81636 26.1226 3.16324 26.054 3.73634H27.8679Z"
    fill="black"
  />
  <path
    fill-rule="evenodd"
    clip-rule="evenodd"
    d="M33.8317 6.35092V3.83091C33.8317 2.62575 33.3724 1.93199 31.8601 1.93744C30.5864 1.93744 29.8926 2.47493 29.8926 3.42096H31.1266C31.1266 3.03844 31.3322 2.78753 31.8806 2.78753C32.4812 2.78753 32.6183 3.10562 32.6183 3.65405V3.75002H31.9149C30.5452 3.75002 29.7391 4.07907 29.7391 5.13753C29.7391 5.92589 30.2244 6.46335 31.2472 6.46335C31.9067 6.46335 32.3441 6.2289 32.6183 5.83952V6.35092H33.8317ZM32.6183 4.47257V4.50684C32.6183 5.0964 32.4359 5.55708 31.7079 5.55982C31.2472 5.55982 31.0224 5.37747 31.0224 5.02099C31.0224 4.59459 31.3514 4.47257 32.0027 4.47257H32.6183Z"
    fill="black"
  />
  <path
    fill-rule="evenodd"
    clip-rule="evenodd"
    d="M40.828 4.20363C40.828 5.40056 40.3084 6.44943 39.0072 6.44943C38.4355 6.44943 38.0009 6.24103 37.7061 5.78995V6.33837H36.5448V0.224806H37.7294V2.55561C38.0242 2.13058 38.4492 1.93041 39.0045 1.93041C40.3166 1.93178 40.828 2.99846 40.828 4.20363ZM39.5625 4.20363C39.5625 3.49342 39.3624 2.93814 38.6261 2.93814C38.0365 2.93814 37.7239 3.33712 37.7239 4.05692V4.33114C37.7239 5.05094 38.0365 5.44033 38.6261 5.44033C39.398 5.44307 39.5625 4.86311 39.5625 4.20363Z"
    fill="black"
  />
  <path
    d="M43.2292 8.07847L45.6135 2.0458L44.3302 2.04443L43.3581 5.03471L42.4134 2.04443H41.1041L42.7082 6.33585L42.0145 8.07847H43.2292Z"
    fill="black"
  />
</svg>
