<svg
  width="85"
  height="35"
  viewBox="0 0 85 35"
  fill="none"
  xmlns="http://www.w3.org/2000/svg"
>
  <title>Logo Unidad Editorial</title>
  <path
    d="M29.4696 23.5846C29.4696 23.8901 29.4156 24.1715 29.307 24.4224C29.1984 24.6775 29.0483 24.8929 28.8551 25.0724C28.6642 25.2524 28.4356 25.3922 28.1733 25.4925C27.9129 25.5927 27.6296 25.6413 27.3277 25.6413C27.0276 25.6413 26.7468 25.5927 26.4827 25.4925C26.2204 25.3922 25.9966 25.2524 25.8057 25.0724C25.6179 24.8929 25.4673 24.6775 25.358 24.4224C25.2494 24.1715 25.1966 23.8901 25.1966 23.5846V19.6338H26.0992V23.542C26.0992 23.9423 26.2078 24.2598 26.4323 24.489C26.6567 24.7177 26.955 24.8299 27.3277 24.8299C27.701 24.8299 28.0017 24.7177 28.2249 24.489C28.4554 24.2604 28.5676 23.9423 28.5676 23.542V19.6338H29.4696V23.5846Z"
    fill="black"
  />
  <path
    d="M35.5635 19.6086H36.468V20.5112H35.5635V19.6086ZM35.5899 21.3478H36.4416V25.5897H35.5899V21.3478ZM33.4276 25.5933V23.0085C33.4276 22.6778 33.3466 22.4353 33.1834 22.2883C33.0171 22.1358 32.8173 22.0608 32.576 22.0608C32.3365 22.0608 32.1289 22.1382 31.9567 22.2913C31.7832 22.4449 31.6962 22.6826 31.6962 23.0085V25.5933H30.8428V21.349H31.6806V21.7758C31.827 21.6149 31.9975 21.4943 32.1961 21.4163C32.3936 21.3388 32.5988 21.3004 32.8107 21.3004C33.0267 21.3004 33.2242 21.3316 33.3982 21.3995C33.5765 21.4691 33.7271 21.5597 33.8549 21.6851C34.0164 21.846 34.1304 22.026 34.1898 22.2247C34.2516 22.4227 34.284 22.6424 34.284 22.8818V25.5939L33.4276 25.5933Z"
    fill="black"
  />
  <path
    d="M40.2231 23.467C40.2231 23.2779 40.2123 23.0979 40.1919 22.9298C40.1733 22.7588 40.1313 22.6064 40.0731 22.4797C40.0106 22.3507 39.92 22.2517 39.8054 22.1742C39.6866 22.0974 39.5341 22.0608 39.3433 22.0608C39.1488 22.0608 38.9922 22.0974 38.8788 22.1742C38.7653 22.2511 38.6759 22.3501 38.6129 22.4797C38.5481 22.6064 38.5061 22.7588 38.4863 22.9298C38.4659 23.0979 38.4575 23.2779 38.4575 23.467C38.4575 23.6584 38.4659 23.8349 38.4863 24.0065C38.5061 24.1757 38.5481 24.3282 38.6129 24.4566C38.6759 24.5892 38.7647 24.6919 38.8788 24.7681C38.9916 24.8431 39.1488 24.8809 39.3433 24.8809C39.5341 24.8809 39.6866 24.8431 39.8054 24.7681C39.92 24.6919 40.0106 24.5892 40.0731 24.4566C40.1313 24.3276 40.1733 24.1751 40.1919 24.0065C40.2123 23.8349 40.2231 23.6578 40.2231 23.467ZM40.2387 25.139C40.0772 25.3346 39.9086 25.4685 39.7328 25.5375C39.5563 25.6083 39.3541 25.6431 39.12 25.6431C38.9064 25.6431 38.7095 25.6107 38.5295 25.5423C38.3464 25.4739 38.1988 25.3832 38.0806 25.2668C37.9743 25.1624 37.8891 25.0388 37.8255 24.8989C37.7619 24.7597 37.7133 24.6096 37.6797 24.4536C37.6473 24.294 37.6244 24.1277 37.6154 23.9609C37.6058 23.7934 37.6058 23.6296 37.6058 23.4682C37.6058 23.3049 37.6058 23.1411 37.6154 22.9748C37.6244 22.808 37.6473 22.6448 37.6797 22.4911C37.7139 22.3321 37.7619 22.1839 37.8255 22.0452C37.8891 21.9066 37.9749 21.7854 38.0806 21.6785C38.1982 21.5597 38.344 21.4703 38.5247 21.4007C38.7047 21.3334 38.898 21.3016 39.1098 21.3016C39.3403 21.3016 39.5419 21.3328 39.7214 21.4007C39.8984 21.4703 40.0658 21.5957 40.2237 21.777V19.635H41.0771V25.5945H40.2387V25.139Z"
    fill="black"
  />
  <path
    d="M44.6978 23.7166H43.7039C43.4537 23.7166 43.2622 23.7688 43.135 23.8775C43.0066 23.9831 42.9436 24.1337 42.9436 24.3294C42.9436 24.525 43.0066 24.6745 43.1314 24.7771C43.2562 24.8797 43.4537 24.9313 43.7207 24.9313C43.8828 24.9313 44.0286 24.9199 44.1564 24.8935C44.2849 24.8695 44.4043 24.8023 44.5165 24.6895C44.6378 24.5664 44.6984 24.357 44.6984 24.0623L44.6978 23.7166ZM44.7164 25.5933V25.208C44.5586 25.3646 44.3995 25.4727 44.2297 25.5417C44.0622 25.6101 43.8492 25.6425 43.5869 25.6425C43.3204 25.6425 43.0936 25.6131 42.9123 25.5465C42.7305 25.4817 42.5769 25.3856 42.4484 25.2566C42.227 25.0225 42.1141 24.7195 42.1141 24.3462C42.1141 23.9885 42.2372 23.6968 42.4802 23.467C42.7227 23.2389 43.0864 23.1237 43.5791 23.1237H44.6978V22.8254C44.6978 22.5559 44.6288 22.3579 44.4859 22.2247C44.3437 22.0938 44.1054 22.0272 43.7718 22.0272C43.5377 22.0272 43.3529 22.0584 43.2196 22.1214C43.0852 22.1815 42.961 22.2883 42.8433 22.4359L42.2834 21.912C42.4808 21.6773 42.7005 21.5165 42.9316 21.4301C43.1626 21.3442 43.4537 21.3004 43.8036 21.3004C44.9702 21.3004 45.5542 21.786 45.5542 22.754V25.5933H44.7164Z"
    fill="black"
  />
  <path
    d="M49.2823 23.467C49.2823 23.2779 49.2697 23.0979 49.2511 22.9298C49.2295 22.7588 49.1911 22.6064 49.1299 22.4797C49.0675 22.3507 48.9798 22.2517 48.8616 22.1742C48.747 22.0974 48.5909 22.0608 48.4031 22.0608C48.2074 22.0608 48.052 22.0974 47.9386 22.1742C47.824 22.2511 47.7345 22.3501 47.6703 22.4797C47.6079 22.6064 47.5647 22.7588 47.5443 22.9298C47.5269 23.0979 47.5161 23.2779 47.5161 23.467C47.5161 23.6584 47.5269 23.8349 47.5443 24.0065C47.5647 24.1757 47.6085 24.3282 47.6703 24.4566C47.7345 24.5892 47.824 24.6919 47.9386 24.7681C48.052 24.8431 48.2074 24.8809 48.4031 24.8809C48.5909 24.8809 48.747 24.8431 48.8616 24.7681C48.9798 24.6919 49.0681 24.5892 49.1299 24.4566C49.1911 24.3276 49.2295 24.1751 49.2511 24.0065C49.2697 23.8349 49.2823 23.6578 49.2823 23.467ZM49.2967 25.139C49.1347 25.3346 48.9672 25.4685 48.7908 25.5375C48.6167 25.6083 48.4109 25.6431 48.1756 25.6431C47.9638 25.6431 47.7669 25.6107 47.5869 25.5423C47.405 25.4739 47.2574 25.3832 47.1386 25.2668C47.0324 25.1624 46.9495 25.0388 46.8841 24.8989C46.8211 24.7597 46.7713 24.6096 46.7401 24.4536C46.7035 24.294 46.6825 24.1277 46.6759 23.9609C46.6663 23.7934 46.6615 23.6296 46.6615 23.4682C46.6615 23.3049 46.6663 23.1411 46.6759 22.9748C46.6825 22.808 46.7035 22.6448 46.7401 22.4911C46.7713 22.3321 46.8205 22.1839 46.8841 22.0452C46.9489 21.9066 47.0324 21.7854 47.1386 21.6785C47.2574 21.5597 47.4045 21.4703 47.5833 21.4007C47.7621 21.3334 47.9572 21.3016 48.1696 21.3016C48.3971 21.3016 48.6017 21.3328 48.7818 21.4007C48.9576 21.4703 49.1251 21.5957 49.2829 21.777V19.635H50.1345V25.5945H49.2967V25.139Z"
    fill="black"
  />
  <path
    d="M53.6076 25.5933V19.6338H57.4167V20.4464H54.5114V22.1863H56.9888V22.9886H54.5114V24.7801H57.4167V25.5933H53.6076Z"
    fill="black"
  />
  <path
    d="M63.1517 19.6086H64.0573V20.5112H63.1517V19.6086ZM63.1793 21.3478H64.0327V25.5897H63.1793V21.3478ZM60.969 23.467C60.969 23.2779 60.957 23.0979 60.9414 22.9298C60.9198 22.7588 60.8808 22.6064 60.8177 22.4797C60.7553 22.3507 60.6671 22.2517 60.5513 22.1742C60.4337 22.0974 60.2794 22.0608 60.0904 22.0608C59.8953 22.0608 59.7405 22.0974 59.6264 22.1742C59.5112 22.2511 59.4248 22.3501 59.3588 22.4797C59.2934 22.6064 59.2532 22.7588 59.2322 22.9298C59.213 23.0979 59.2034 23.2779 59.2034 23.467C59.2034 23.6584 59.213 23.8349 59.2322 24.0065C59.2532 24.1757 59.2934 24.3282 59.3588 24.4566C59.4248 24.5892 59.5106 24.6919 59.6264 24.7681C59.7405 24.8431 59.8953 24.8809 60.0904 24.8809C60.2794 24.8809 60.4337 24.8431 60.5513 24.7681C60.6671 24.6919 60.7553 24.5892 60.8177 24.4566C60.8808 24.3276 60.9198 24.1751 60.9414 24.0065C60.957 23.8349 60.969 23.6578 60.969 23.467ZM60.9858 25.139C60.8231 25.3346 60.6557 25.4685 60.4799 25.5375C60.3046 25.6083 60.0982 25.6431 59.8665 25.6431C59.6553 25.6431 59.456 25.6107 59.2736 25.5423C59.0935 25.4739 58.9435 25.3832 58.8289 25.2668C58.7214 25.1624 58.6374 25.0388 58.5714 24.8989C58.5078 24.7597 58.4616 24.6096 58.425 24.4536C58.3932 24.294 58.3697 24.1277 58.3637 23.9609C58.3541 23.7934 58.3505 23.6296 58.3505 23.4682C58.3505 23.3049 58.3547 23.1411 58.3637 22.9748C58.3697 22.808 58.3932 22.6448 58.425 22.4911C58.4616 22.3321 58.5078 22.1839 58.5714 22.0452C58.6374 21.9066 58.7214 21.7854 58.8289 21.6785C58.9435 21.5597 59.0917 21.4703 59.2718 21.4007C59.4488 21.3334 59.6445 21.3016 59.8563 21.3016C60.0868 21.3016 60.2872 21.3328 60.4667 21.4007C60.6491 21.4703 60.8135 21.5957 60.9696 21.777V19.635H61.8242V25.5945H60.9858V25.139Z"
    fill="black"
  />
  <path
    d="M66.6566 25.5933C66.4543 25.5933 66.2821 25.5585 66.1363 25.4925C65.9922 25.4246 65.8722 25.3358 65.778 25.2278C65.6831 25.1222 65.6123 24.9919 65.5643 24.8515C65.5169 24.7105 65.4929 24.5622 65.4929 24.4122V22.0806H65.0086V21.4271H65.4929V20.1379H66.3463V21.4271H67.1661V22.0806H66.3463V24.3696C66.3463 24.5268 66.3841 24.6481 66.4609 24.7363C66.5348 24.8215 66.653 24.8641 66.8144 24.8641H67.1655V25.5939L66.6566 25.5933Z"
    fill="black"
  />
  <path
    d="M70.7298 23.467C70.7298 23.2311 70.7136 23.0127 70.6794 22.8062C70.644 22.5992 70.5647 22.4311 70.4351 22.3015C70.2743 22.1412 70.0648 22.0608 69.8086 22.0608C69.5571 22.0608 69.3524 22.1412 69.1898 22.3015C69.0608 22.4317 68.9798 22.5992 68.9479 22.8062C68.9149 23.0127 68.8975 23.2311 68.8975 23.467C68.8975 23.701 68.9149 23.9201 68.9479 24.1295C68.9804 24.3354 69.0608 24.4992 69.1898 24.6313C69.3572 24.7975 69.5643 24.8809 69.8086 24.8809C70.06 24.8809 70.2695 24.7981 70.4351 24.6313C70.5641 24.4992 70.644 24.3354 70.6794 24.1295C70.713 23.9201 70.7298 23.701 70.7298 23.467ZM71.5832 23.467C71.5832 23.8295 71.549 24.1469 71.4818 24.4146C71.4146 24.6889 71.2813 24.9277 71.0797 25.139C70.941 25.286 70.7676 25.4042 70.5581 25.4991C70.3487 25.5939 70.0996 25.6407 69.808 25.6407C69.5187 25.6407 69.2708 25.5939 69.0626 25.4991C68.8555 25.4042 68.6833 25.286 68.544 25.139C68.3436 24.9277 68.2098 24.6889 68.1431 24.4146C68.0765 24.1469 68.0429 23.8295 68.0429 23.467C68.0429 23.1099 68.0765 22.796 68.1431 22.5253C68.2098 22.2553 68.3436 22.0128 68.544 21.801C68.6827 21.6557 68.8555 21.5375 69.0626 21.4427C69.2708 21.3484 69.5181 21.3004 69.808 21.3004C70.0996 21.3004 70.3487 21.3484 70.5581 21.4427C70.7676 21.5375 70.941 21.6557 71.0797 21.801C71.2813 22.0128 71.4152 22.2553 71.4818 22.5253C71.549 22.7954 71.5832 23.1093 71.5832 23.467Z"
    fill="black"
  />
  <path
    d="M76.388 19.6086H77.2882V20.5112H76.388V19.6086ZM76.412 21.3478H77.2642V25.5897H76.412V21.3478ZM75.0695 22.3441C74.9728 22.2511 74.8798 22.1791 74.7868 22.1316C74.6974 22.0854 74.5761 22.0608 74.4327 22.0608C74.1974 22.0608 74 22.1466 73.8325 22.3147C73.6705 22.4869 73.5871 22.718 73.5871 23.0151V25.5933H72.7337V21.349H73.5697V21.81C73.6831 21.6593 73.8385 21.5375 74.039 21.4427C74.2388 21.3496 74.4615 21.301 74.7016 21.301C74.9074 21.301 75.0929 21.3304 75.2525 21.3923C75.4133 21.4523 75.5688 21.5567 75.711 21.7025L75.0695 22.3441Z"
    fill="black"
  />
  <path
    d="M80.8921 23.7166H79.8988C79.648 23.7166 79.4571 23.7688 79.3293 23.8775C79.2009 23.9831 79.1385 24.1337 79.1385 24.3294C79.1385 24.525 79.1991 24.6745 79.3251 24.7771C79.4529 24.8797 79.6474 24.9313 79.915 24.9313C80.0765 24.9313 80.2223 24.9199 80.3502 24.8935C80.4786 24.8695 80.5986 24.8023 80.7102 24.6895C80.8321 24.5664 80.8921 24.357 80.8921 24.0623V23.7166ZM80.9107 25.5933V25.208C80.7552 25.3646 80.5938 25.4727 80.4252 25.5417C80.2583 25.6101 80.0435 25.6425 79.7806 25.6425C79.5129 25.6425 79.2891 25.6131 79.1066 25.5465C78.9266 25.4817 78.7712 25.3856 78.6427 25.2566C78.4201 25.0225 78.3096 24.7195 78.3096 24.3462C78.3096 23.9885 78.4303 23.6968 78.6727 23.467C78.9152 23.2389 79.2819 23.1237 79.7734 23.1237H80.8915V22.8254C80.8915 22.5559 80.8225 22.3579 80.6796 22.2247C80.5398 22.0938 80.2991 22.0272 79.9654 22.0272C79.7302 22.0272 79.5478 22.0584 79.4115 22.1214C79.2819 22.1815 79.1547 22.2883 79.0364 22.4359L78.4759 21.912C78.6769 21.6773 78.8924 21.5165 79.124 21.4301C79.3557 21.3442 79.6468 21.3004 79.9979 21.3004C81.1633 21.3004 81.7467 21.786 81.7467 22.754V25.5933H80.9107Z"
    fill="black"
  />
  <path
    d="M84.1935 25.5933C83.993 25.5933 83.8208 25.5585 83.6708 25.4961C83.5237 25.4307 83.4043 25.3466 83.3077 25.241C83.2116 25.1366 83.1438 25.0099 83.0982 24.8683C83.0556 24.7255 83.0322 24.5766 83.0322 24.4224V19.6332H83.8862V24.3684C83.8862 24.531 83.9204 24.6523 83.9876 24.7381C84.0525 24.8209 84.1737 24.8629 84.3459 24.8629H84.721V25.5927L84.1935 25.5933Z"
    fill="black"
  />
  <path
    d="M0.170442 18.9449C0.170442 18.9449 1.07186 24.6985 3.35963 27.1915C3.35963 27.1915 14.0537 26.2426 21.4397 26.4083C21.4397 26.4083 22.4947 22.0968 22.4767 17.3647C22.4767 17.3647 21.2422 17.2554 18.9142 17.2554C15.2269 17.2554 8.79336 17.5273 0.170442 18.9449Z"
    fill="black"
  />
  <path
    d="M21.5501 5.77582C21.5501 5.77582 21.3839 2.8567 18.9677 0.0108027C18.8164 0.00720177 18.6658 0 18.5133 0C12.4068 0 6.99232 2.80449 3.61649 7.12975C5.82383 6.53741 11.2822 5.48655 21.5501 5.77582Z"
    fill="black"
  />
  <path
    d="M3.09376 26.877C1.00405 24.2502 0.170442 18.9461 0.170442 18.9461H0.172242L0.173443 18.9473C14.2385 16.6355 22.4767 17.3647 22.4767 17.3647C22.4965 22.0974 21.4421 26.4113 21.4421 26.4113C14.1779 26.2481 3.71611 27.1585 3.37043 27.1897L3.09376 26.877Z"
    fill="black"
  />
  <path
    d="M21.2494 27.2767C13.3929 27.2767 4.89 27.9165 4.0654 27.9801C4.0684 27.9801 4.072 27.9801 4.075 27.9801C4.0714 27.9801 4.0684 27.9801 4.0648 27.9801C4.04259 27.9819 4.02279 27.9837 4.01259 27.9843L4.01139 27.9837C4.00238 27.9837 3.99698 27.9843 3.99698 27.9843C9.91204 34.943 18.1749 35.0006 18.7012 34.9952H18.7306C20.3132 31.2401 21.2494 27.2767 21.2494 27.2767Z"
    fill="black"
  />
  <path
    d="M36.9643 17.8808C33.0501 16.8311 23.7706 16.4464 23.7706 16.4464C23.8415 13.1606 22.9881 6.68624 22.9881 6.68624C26.922 6.72285 33.1245 7.62607 33.3292 7.65668C33.3232 7.65188 33.274 7.59787 33.2668 7.54445L33.2632 7.54025C33.2656 7.54505 33.2668 7.54805 33.2668 7.54805C30.5805 6.36576 22.9268 5.84064 22.9268 5.84064C21.7992 1.49017 20.3834 0.16084 20.3078 0.0942232C20.3012 0.089422 20.3108 0.089422 20.345 0.089422C29.7175 0.963237 37.0411 8.46148 37.0411 17.5867C37.0411 17.6341 37.0231 17.8484 37.0225 17.8952L36.9643 17.8808Z"
    fill="black"
  />
  <path
    d="M0 16.9956C0.12123 13.5201 1.16729 10.5332 3.11417 7.85173C4.59953 7.53365 7.80252 6.97011 11.0001 6.73846C15.5288 6.40657 21.6725 6.61363 21.6725 6.61363C22.2985 10.2049 22.4773 16.402 22.4773 16.402C13.0658 15.8817 0.268866 17.8616 0.0456112 17.894L0.0090022 17.4883L0 16.9956Z"
    fill="black"
  />
  <path
    d="M33.4552 27.9225C30.242 27.1831 22.5649 27.2965 22.5649 27.2965C22.1748 29.8843 19.9945 34.6465 19.8457 34.9802C19.8397 34.9952 19.8361 34.9994 19.8361 34.9994C19.8361 34.9994 20.2766 34.9622 22.077 34.7047C22.8836 34.5901 23.7268 34.4149 24.4134 34.2552C28.0779 33.0861 31.2335 30.8644 33.472 27.9615L33.4552 27.9225Z"
    fill="black"
  />
</svg>
