<svg
  width="300"
  height="79"
  viewBox="0 0 300 79"
  fill="none"
  xmlns="http://www.w3.org/2000/svg"
  role="img"
>
  <title>Logo Vivanta</title>
  <path
    d="M0 0.599609V78.091H299.478V0.599609H0ZM1.21153 1.80977H78.4252V76.8794H1.21153V1.80977ZM298.267 76.8794H79.6354V1.80977H298.267V76.8794Z"
    fill="black"
  />
  <path
    d="M139.035 19.7842C140.877 19.787 142.346 21.2626 142.343 23.1057C142.339 24.9489 140.866 26.3673 139.023 26.3632C137.18 26.3605 135.761 24.9366 135.767 23.0948C135.767 21.253 137.193 19.7815 139.035 19.7842ZM136.54 31.8872L141.541 31.8968L141.496 56.6364L136.497 56.6269L136.54 31.8872ZM175.433 33.9033C176.859 32.9558 180.122 31.4367 184.44 31.4435C187.967 31.4516 191.282 33.0361 193.275 35.6716C194.59 37.4099 195.166 39.6723 195.158 43.0428L195.133 56.7303L190.29 56.7221L190.292 54.457C189.133 55.7189 186.867 57.2435 183.025 57.2353C177.867 57.2258 173.821 53.7982 173.825 49.0596C173.837 43.5859 178.576 40.4877 184.054 40.4972C186.424 40.5027 188.108 40.8716 190.107 41.5617C190.11 40.0875 189.633 39.0352 189.058 38.2961C187.955 36.8205 186.169 36.1861 184.22 36.1834C181.746 36.182 179.375 37.1227 177.845 37.9639L175.433 33.9033ZM190.151 45.93C188.732 45.1909 187.151 44.9254 185.682 44.9241C183.046 44.9186 178.836 45.8048 178.829 49.1739C178.826 51.2812 180.98 52.7568 183.506 52.7622C185.876 52.7663 188.355 51.4554 190.145 49.2474L190.151 45.93ZM207.384 34.3824C208.702 33.1205 210.268 31.4925 213.848 31.4993C217.478 31.5047 220.738 33.1968 222.842 35.8839C224.415 37.8891 225.252 40.4156 225.247 44.679L225.225 56.7861L220.222 56.7766L220.247 44.4054C220.252 41.2487 219.727 40.3067 218.951 39.0175C217.982 37.4099 215.857 36.2406 213.653 36.2365C210.44 36.2338 208.442 38.3029 207.533 40.5544V56.7535L202.502 56.7439L202.544 32.0043L207.387 32.0152L207.384 34.3824ZM247.057 51.8788C246.13 52.3008 244.772 52.607 243.687 52.6057C242.372 52.6043 241.054 52.1292 240.375 51.2853C239.743 50.5461 239.43 49.4407 239.433 48.1244L239.452 36.5455L247.185 36.5673L247.192 32.0914L239.464 32.0683L239.473 25.2279L234.474 25.2184L234.46 32.0601L228.142 32.0519L228.135 36.5264L234.452 36.536L234.43 47.8535C234.426 50.5406 235.107 52.8031 236.579 54.4366C238.154 56.2294 240.415 57.3388 243.521 57.3429C246.092 57.3483 248.037 56.7249 249.404 55.7325C248.417 54.6095 247.602 53.3013 247.057 51.8788ZM252.936 33.9033C254.36 32.9558 257.629 31.4367 261.944 31.4435C265.471 31.4516 268.783 33.0361 270.78 35.6716C272.095 37.4099 272.667 39.6723 272.662 43.0428L272.638 56.7303L267.795 56.7221L267.796 54.457C266.638 55.7189 264.371 57.2435 260.53 57.2353C255.372 57.2258 251.325 53.7982 251.331 49.0596C251.34 43.5859 256.082 40.4877 261.557 40.4972C263.927 40.5027 265.61 40.8716 267.609 41.5617C267.612 40.0875 267.141 39.0352 266.561 38.2961C265.459 36.8205 263.671 36.1861 261.722 36.1834C259.249 36.182 256.879 37.1227 255.349 37.9639L252.936 33.9033ZM267.656 45.93C266.236 45.1909 264.657 44.9254 263.184 44.9241C260.551 44.9186 256.34 45.8048 256.333 49.1739C256.327 51.2812 258.485 52.7568 261.013 52.7622C263.38 52.7663 265.858 51.4554 267.652 49.2474L267.656 45.93ZM106.433 31.8341H111.457L119.01 47.5717L126.554 31.8341H131.584L119.01 58.0058L106.433 31.8341ZM146.407 31.8341H151.432L158.983 47.5717L166.527 31.8341H171.556L158.983 58.0058L146.407 31.8341ZM66.0579 39.2027H54.2938L64.5795 16.9678H59.3101L49.0203 39.2027H32.4728L22.1843 16.9678H16.9135L27.1992 39.2027H15.4365V41.8177H28.4107L40.7465 68.4808L53.0823 41.8177H66.0552L66.0579 39.2027ZM40.7492 57.0774L33.687 41.8177H47.8101L40.7492 57.0774Z"
    fill="black"
  />
</svg>
